<?xml version="1.0" encoding="UTF-8"?>
<svg id="Layer_2" xmlns="http://www.w3.org/2000/svg" version="1.1" viewBox="0 0 210 140">
  <!-- Generator: Adobe Illustrator 29.2.1, SVG Export Plug-In . SVG Version: 2.1.0 Build 116)  -->
  <g>
    <path d="M13.3,86.8h.9l3.2,8h-.8l-.9-2.1h-4l-.9,2.1h-.8l3.3-8ZM13.7,87.5l-1.7,4.4h3.5l-1.7-4.4Z" style="fill: #003f5f;"/>
    <path d="M25.2,94.8v-3.9c0-.8-.3-1.5-1.2-1.5s-1.6.7-1.6,2.1v3.2h-.7v-3.9c0-.8-.3-1.5-1.2-1.5s-1.6.7-1.6,2.1v3.2h-.7v-4.5c0-.4,0-.9,0-1.4h.7v1h0c.2-.4.6-1.1,1.8-1.1s1.4.2,1.5,1.2h0c.3-.7.9-1.2,1.9-1.2s1.8.8,1.8,2v4h-.7Z" style="fill: #003f5f;"/>
    <path d="M31.4,94.6c-.5.2-1.2.3-1.7.3-1.9,0-2.7-1.3-2.7-3.1s1-3.1,2.5-3.1,2.3,1.3,2.3,2.9v.4h-4c0,1.2.7,2.2,1.9,2.2s1.3-.2,1.6-.4v.7ZM31,91.4c0-1-.4-2-1.5-2s-1.7,1.1-1.7,2h3.2Z" style="fill: #003f5f;"/>
    <path d="M33,90.2c0-.6,0-.9,0-1.3h.7v1.1h0c.3-.7.8-1.3,1.5-1.3s.4,0,.5,0v.8c-.1,0-.3,0-.5,0-1.1,0-1.5,1.3-1.5,2.3v2.9h-.7v-4.5Z" style="fill: #003f5f;"/>
    <path d="M37.3,87.4h-.7v-1h.7v1ZM36.5,88.9h.7v5.8h-.7v-5.8Z" style="fill: #003f5f;"/>
    <path d="M42.6,89.7c-.4-.2-.9-.3-1.2-.3-1.4,0-2.2,1-2.2,2.4s.8,2.4,2.1,2.4.9-.1,1.3-.3v.7c-.4.2-.9.2-1.4.2-1.9,0-2.8-1.4-2.8-3.1s1.2-3.1,2.9-3.1,1.2.2,1.4.2v.7Z" style="fill: #003f5f;"/>
    <path d="M46.6,93.8h0c-.3.7-1.1,1.1-1.9,1.1-1.7,0-1.9-1.1-1.9-1.6,0-2,2.1-2,3.6-2h.1v-.3c0-1-.4-1.5-1.3-1.5s-1.2.1-1.7.5v-.7c.4-.2,1.2-.4,1.7-.4,1.4,0,2,.7,2,2.2v2.6c0,.5,0,.8,0,1.2h-.7v-.9ZM46.5,91.8h-.2c-1.2,0-2.7.1-2.7,1.4s.5,1.1,1.2,1.1c1.7,0,1.7-1.5,1.7-2.1v-.4Z" style="fill: #003f5f;"/>
    <path d="M48.7,90.3c0-.4,0-.9,0-1.4h.7v1h0c.2-.5.7-1.2,1.9-1.2s2,1,2,2.2v3.7h-.7v-3.5c0-1.1-.4-1.8-1.4-1.8s-1.7,1.2-1.7,2.1v3.2h-.7v-4.5Z" style="fill: #003f5f;"/>
    <path d="M63.4,87.7c-.5-.3-1.2-.3-1.8-.3-2.1,0-3.2,1.5-3.2,3.4s1.1,3.4,3.2,3.4,1.3,0,1.8-.3v.7c-.4.3-1.3.3-1.8.3-2.5,0-4-1.7-4-4.1s1.6-4.1,4-4.1,1.4,0,1.8.3v.7Z" style="fill: #003f5f;"/>
    <path d="M66.8,88.8c1.9,0,2.7,1.5,2.7,3.1s-.8,3.1-2.7,3.1-2.7-1.5-2.7-3.1.8-3.1,2.7-3.1M66.8,94.3c1.3,0,1.9-1.1,1.9-2.4s-.7-2.4-1.9-2.4-1.9,1.1-1.9,2.4.7,2.4,1.9,2.4" style="fill: #003f5f;"/>
    <rect x="70.7" y="86.2" width=".7" height="8.6" style="fill: #003f5f;"/>
    <rect x="73" y="86.2" width=".7" height="8.6" style="fill: #003f5f;"/>
    <path d="M79.2,94.6c-.5.2-1.2.3-1.7.3-1.9,0-2.7-1.3-2.7-3.1s1-3.1,2.5-3.1,2.3,1.3,2.3,2.9v.4h-4c0,1.2.7,2.2,1.9,2.2s1.3-.2,1.6-.4v.7ZM78.8,91.4c0-1-.4-2-1.5-2s-1.7,1.1-1.7,2h3.2Z" style="fill: #003f5f;"/>
    <path d="M85.4,94.3c0,1.6-.7,3-2.7,3s-1.5-.2-1.8-.3v-.7c.5.2,1.1.4,1.8.4,1.9,0,2-1.3,2-3h0c-.4.8-1,1.1-1.8,1.1-1.9,0-2.5-1.6-2.5-2.9s.7-3.1,2.4-3.1,1.3.1,1.8.8h0v-.7h.7v5.4ZM82.9,94.1c1.3,0,1.8-1.2,1.8-2.3s-.4-2.4-1.7-2.4-1.7,1.3-1.7,2.4.5,2.3,1.7,2.3" style="fill: #003f5f;"/>
    <path d="M90.8,94.6c-.5.2-1.2.3-1.7.3-1.9,0-2.7-1.3-2.7-3.1s1-3.1,2.5-3.1,2.3,1.3,2.3,2.9v.4h-4c0,1.2.7,2.2,1.9,2.2s1.3-.2,1.6-.4v.7ZM90.5,91.4c0-1-.4-2-1.5-2s-1.7,1.1-1.7,2h3.2Z" style="fill: #003f5f;"/>
    <path d="M97.6,88.8c1.9,0,2.7,1.5,2.7,3.1s-.8,3.1-2.7,3.1-2.7-1.5-2.7-3.1.8-3.1,2.7-3.1M97.6,94.3c1.3,0,1.9-1.1,1.9-2.4s-.7-2.4-1.9-2.4-1.9,1.1-1.9,2.4.7,2.4,1.9,2.4" style="fill: #003f5f;"/>
    <path d="M102,89.5h-1.2v-.6h1.2v-.4c0-1.2,0-2.5,1.5-2.5s.5,0,.7.1v.6c-.2,0-.4-.1-.6-.1-1,0-.9,1.1-.9,1.8v.5h1.3v.6h-1.3v5.2h-.7v-5.2Z" style="fill: #003f5f;"/>
    <polygon points="108.1 86.8 109.3 86.8 112.2 93.8 115.2 86.8 116.3 86.8 116.3 94.8 115.5 94.8 115.5 87.6 115.5 87.6 112.6 94.8 111.9 94.8 108.9 87.6 108.9 87.6 108.9 94.8 108.1 94.8 108.1 86.8" style="fill: #003f5f;"/>
    <path d="M121.9,94.6c-.5.2-1.2.3-1.7.3-1.9,0-2.7-1.3-2.7-3.1s1-3.1,2.5-3.1,2.3,1.3,2.3,2.9v.4h-4c0,1.2.7,2.2,1.9,2.2s1.3-.2,1.6-.4v.7ZM121.5,91.4c0-1-.4-2-1.5-2s-1.7,1.1-1.7,2h3.2Z" style="fill: #003f5f;"/>
    <path d="M128.1,94.8h-.7v-.9h0c-.4.7-1,1.1-1.8,1.1-1.6,0-2.4-1.3-2.4-3.1s.7-3.1,2.4-3.1,1.7.8,1.8,1.1h0v-3.7h.7v8.6ZM125.6,94.3c1.3,0,1.7-1.4,1.7-2.4s-.4-2.4-1.7-2.4-1.7,1.3-1.7,2.4.4,2.4,1.7,2.4" style="fill: #003f5f;"/>
    <path d="M130.3,87.4h-.7v-1h.7v1ZM129.6,88.9h.7v5.8h-.7v-5.8Z" style="fill: #003f5f;"/>
    <path d="M135.7,89.7c-.4-.2-.9-.3-1.2-.3-1.4,0-2.2,1-2.2,2.4s.8,2.4,2.1,2.4.9-.1,1.3-.3v.7c-.4.2-.9.2-1.4.2-1.9,0-2.8-1.4-2.8-3.1s1.2-3.1,2.9-3.1,1.2.2,1.4.2v.7Z" style="fill: #003f5f;"/>
    <path d="M139.7,93.8h0c-.3.7-1.1,1.1-1.9,1.1-1.7,0-1.9-1.1-1.9-1.6,0-2,2.1-2,3.6-2h.1v-.3c0-1-.4-1.5-1.3-1.5s-1.2.1-1.7.5v-.7c.4-.2,1.2-.4,1.7-.4,1.4,0,2,.7,2,2.2v2.6c0,.5,0,.8,0,1.2h-.7v-.9ZM139.6,91.8h-.2c-1.2,0-2.7.1-2.7,1.4s.5,1.1,1.2,1.1c1.7,0,1.7-1.5,1.7-2.1v-.4Z" style="fill: #003f5f;"/>
    <rect x="141.8" y="86.2" width=".7" height="8.6" style="fill: #003f5f;"/>
    <path d="M15.8,102.8h-1.9v-.7h2.6v4c-.8.4-1.6.5-2.5.5-2.5,0-4-1.7-4-4.1s1.6-4.1,4-4.1,1.6.1,2.1.4v.7c-.7-.3-1.4-.4-2.1-.4-2.1,0-3.2,1.5-3.2,3.4s1.1,3.4,3.2,3.4,1.3,0,1.7-.3v-2.8Z" style="fill: #003f5f;"/>
    <path d="M22.2,106.3c-.5.2-1.2.3-1.7.3-1.9,0-2.7-1.3-2.7-3.1s1-3.1,2.5-3.1,2.3,1.3,2.3,2.9v.4h-4c0,1.2.7,2.2,1.9,2.2s1.3-.2,1.6-.4v.7ZM21.9,103.2c0-1-.4-2-1.5-2s-1.7,1.1-1.7,2h3.2Z" style="fill: #003f5f;"/>
    <path d="M23.8,102c0-.4,0-.9,0-1.4h.7v1h0c.2-.5.7-1.2,1.9-1.2s2,1,2,2.2v3.7h-.7v-3.5c0-1.1-.4-1.8-1.4-1.8s-1.7,1.2-1.7,2.1v3.2h-.7v-4.5Z" style="fill: #003f5f;"/>
    <path d="M33.9,106.3c-.5.2-1.2.3-1.7.3-1.9,0-2.7-1.3-2.7-3.1s1-3.1,2.5-3.1,2.3,1.3,2.3,2.9v.4h-4c0,1.2.7,2.2,1.9,2.2s1.3-.2,1.6-.4v.7ZM33.5,103.2c0-1-.4-2-1.5-2s-1.7,1.1-1.7,2h3.2Z" style="fill: #003f5f;"/>
    <path d="M38,101.3h-1.3v3.8c0,.5.2,1,.8,1s.5,0,.7-.1v.6c-.1,0-.5.2-.8.2-1.3,0-1.3-.9-1.3-1.9v-3.4h-1.1v-.6h1.1v-1.4l.7-.3v1.7h1.3v.6Z" style="fill: #003f5f;"/>
    <path d="M39.8,99.1h-.7v-1h.7v1ZM39,100.7h.7v5.8h-.7v-5.8Z" style="fill: #003f5f;"/>
    <path d="M45.1,101.4c-.4-.2-.9-.3-1.2-.3-1.4,0-2.2,1-2.2,2.4s.8,2.4,2.1,2.4.9-.1,1.3-.3v.7c-.4.2-.9.2-1.4.2-1.9,0-2.8-1.4-2.8-3.1s1.2-3.1,2.9-3.1,1.2.2,1.4.2v.7Z" style="fill: #003f5f;"/>
    <path d="M45.7,105.6c.4.2,1,.4,1.5.4s1.3-.4,1.3-1c0-1.4-2.8-1.2-2.8-2.9s.9-1.6,1.9-1.6.9,0,1.4.3v.6c-.4-.2-1-.3-1.4-.3-.7,0-1.3.2-1.3,1,0,1.1,2.9.9,2.9,2.9s-1.2,1.7-2,1.7-1.1,0-1.6-.3v-.7Z" style="fill: #003f5f;"/>
    <path d="M56.7,105.5h0c-.3.7-1.1,1.1-1.9,1.1-1.7,0-1.9-1.1-1.9-1.6,0-2,2.1-2,3.6-2h.1v-.3c0-1-.4-1.5-1.3-1.5s-1.2.1-1.7.5v-.7c.4-.2,1.2-.4,1.7-.4,1.4,0,2,.7,2,2.2v2.6c0,.5,0,.8,0,1.2h-.7v-.9ZM56.7,103.5h-.2c-1.2,0-2.7.1-2.7,1.4s.5,1.1,1.2,1.1c1.7,0,1.7-1.5,1.7-2.1v-.4Z" style="fill: #003f5f;"/>
    <path d="M58.9,102c0-.4,0-.9,0-1.4h.7v1h0c.2-.5.7-1.2,1.9-1.2s2,1,2,2.2v3.7h-.7v-3.5c0-1.1-.4-1.8-1.4-1.8s-1.7,1.2-1.7,2.1v3.2h-.7v-4.5Z" style="fill: #003f5f;"/>
    <path d="M69.6,106.5h-.7v-.9h0c-.4.7-1,1.1-1.8,1.1-1.6,0-2.4-1.3-2.4-3.1s.7-3.1,2.4-3.1,1.7.8,1.8,1.1h0v-3.7h.7v8.6ZM67.2,106c1.3,0,1.7-1.4,1.7-2.4s-.4-2.4-1.7-2.4-1.7,1.3-1.7,2.4.4,2.4,1.7,2.4" style="fill: #003f5f;"/>
    <path d="M79.6,102.8h-1.9v-.7h2.6v4c-.8.4-1.6.5-2.5.5-2.5,0-4-1.7-4-4.1s1.6-4.1,4-4.1,1.6.1,2.1.4v.7c-.7-.3-1.4-.4-2.1-.4-2.1,0-3.2,1.5-3.2,3.4s1.1,3.4,3.2,3.4,1.3,0,1.7-.3v-2.8Z" style="fill: #003f5f;"/>
    <path d="M86,106.3c-.5.2-1.2.3-1.7.3-1.9,0-2.7-1.3-2.7-3.1s1-3.1,2.5-3.1,2.3,1.3,2.3,2.9v.4h-4c0,1.2.7,2.2,1.9,2.2s1.3-.2,1.6-.4v.7ZM85.7,103.2c0-1-.4-2-1.5-2s-1.7,1.1-1.7,2h3.2Z" style="fill: #003f5f;"/>
    <path d="M87.6,102c0-.4,0-.9,0-1.4h.7v1h0c.2-.5.7-1.2,1.9-1.2s2,1,2,2.2v3.7h-.7v-3.5c0-1.1-.4-1.8-1.4-1.8s-1.7,1.2-1.7,2.1v3.2h-.7v-4.5Z" style="fill: #003f5f;"/>
    <path d="M96,100.5c1.9,0,2.7,1.5,2.7,3.1s-.8,3.1-2.7,3.1-2.7-1.5-2.7-3.1.8-3.1,2.7-3.1M96,106c1.3,0,1.9-1.1,1.9-2.4s-.7-2.4-1.9-2.4-1.9,1.1-1.9,2.4.7,2.4,1.9,2.4" style="fill: #003f5f;"/>
    <path d="M106.9,106.5v-3.9c0-.8-.3-1.5-1.2-1.5s-1.6.7-1.6,2.1v3.2h-.7v-3.9c0-.8-.3-1.5-1.2-1.5s-1.6.7-1.6,2.1v3.2h-.7v-4.5c0-.4,0-.9,0-1.4h.7v1h0c.2-.4.6-1.1,1.8-1.1s1.4.2,1.5,1.2h0c.3-.7.9-1.2,1.9-1.2s1.8.8,1.8,2v4h-.7Z" style="fill: #003f5f;"/>
    <path d="M109.9,99.1h-.7v-1h.7v1ZM109.2,100.7h.7v5.8h-.7v-5.8Z" style="fill: #003f5f;"/>
    <path d="M115.3,101.4c-.4-.2-.9-.3-1.2-.3-1.4,0-2.2,1-2.2,2.4s.8,2.4,2.1,2.4.9-.1,1.3-.3v.7c-.4.2-.9.2-1.4.2-1.9,0-2.8-1.4-2.8-3.1s1.2-3.1,2.9-3.1,1.2.2,1.4.2v.7Z" style="fill: #003f5f;"/>
    <path d="M115.9,105.6c.4.2,1,.4,1.5.4s1.3-.4,1.3-1c0-1.4-2.8-1.2-2.8-2.9s.9-1.6,1.9-1.6.9,0,1.4.3v.6c-.4-.2-1-.3-1.4-.3-.7,0-1.3.2-1.3,1,0,1.1,2.9.9,2.9,2.9s-1.2,1.7-2,1.7-1.1,0-1.6-.3v-.7Z" style="fill: #003f5f;"/>
  </g>
  <g>
    <path d="M74.8,41.6c.5-1.5.7-1.8,1-1.8s.5.2,1,1.6c.7,1.7,7.8,20.4,10.5,27.3,1.6,4,2.9,4.8,3.9,5,.7.2,1.4.3,1.8.3s.5,0,.5.3-.4.4-.9.4-4,0-7.1,0c-.9,0-1.4,0-1.4-.3s.1-.3.3-.3c.3,0,.5-.5.3-1.2l-4.2-11.1c0-.2-.2-.3-.4-.3h-9.7c-.2,0-.4.1-.5.4l-2.7,8c-.4,1.1-.6,2.2-.6,3s.9,1.3,1.7,1.3h.5c.3,0,.5,0,.5.3,0,.3-.3.4-.7.4-1.1,0-3-.1-3.5-.1s-3,.1-5.1.1-.9,0-.9-.4.2-.3.4-.3.9,0,1.3,0c2.1-.3,3-2,3.8-4.3l10.3-28.1ZM79.5,59.7c.2,0,.2-.1.2-.3l-4.3-12.2c-.2-.7-.5-.7-.7,0l-4,12.2c0,.2,0,.3.1.3h8.6Z" style="fill: #003f5f;"/>
    <path d="M96.1,70.4c-4.4-3.9-5.5-9.1-5.5-13.4s1-8.3,5.1-12.4c2.7-2.7,6.8-4.8,13.8-4.8s4.3.1,6.6.5c1.7.3,3.2.6,4.6.7.5,0,.6.2.6.5s-.1.9-.2,2.5c0,1.5,0,4-.1,4.7,0,.7-.1.9-.4.9s-.4-.3-.4-.9c0-1.8-.7-3.6-1.9-4.6-1.6-1.4-5.1-2.6-9-2.6-6,0-8.8,1.8-10.4,3.3-3.3,3.2-4.1,7.2-4.1,11.8,0,8.6,6.6,16.6,16.3,16.6s6.1-.4,7.9-2.3c.9-1,1.5-3,1.7-3.8,0-.5.2-.7.5-.7s.3.3.3.7-.5,4.3-1,5.8c-.3.9-.4,1-1.2,1.3-1.8.7-5.2,1-8.1,1-6.8,0-11.3-1.7-14.9-4.9" style="fill: #003f5f;"/>
    <path d="M162.6,68.8c.2,1.6.5,4.2,2.4,4.8,1.3.4,2.5.4,2.9.4s.4,0,.4.2c0,.3-.4.4-.9.4-1,0-5.9-.1-7.5-.3-1,0-1.3-.2-1.3-.5s0-.3.3-.3c.2,0,.3-.8.2-1.6l-2.2-23.4h-.1l-11.1,23.5c-.9,2-1.1,2.4-1.5,2.4s-.5-.5-1.4-2.1c-1.2-2.2-5.1-10-5.3-10.5-.4-.8-5.5-11.7-6-12.9h-.2l-1.8,21c0,.7,0,1.5,0,2.3s.5,1.3,1.2,1.4c.8.2,1.4.2,1.7.2s.4,0,.4.2c0,.3-.3.4-.8.4-1.7,0-3.8-.1-4.2-.1s-2.6.1-3.8.1-.8,0-.8-.4.2-.2.5-.2c.4,0,.7,0,1.4-.1,1.5-.3,1.6-2,1.8-3.8l3.3-29.5c0-.5.2-.8.5-.8s.5.2.7.7l13.8,28.5,13.3-28.4c.2-.4.4-.7.7-.7s.5.4.5,1.2l3,27.8Z" style="fill: #003f5f;"/>
    <path d="M193,63.1c0-3.7-.2-4.2-2-4.7-.4,0-1.1-.1-1.5-.1s-.4,0-.4-.3c0-.3.2-.4.7-.4,2,0,4.9.1,5.1.1s3.1-.1,4.4-.1.7,0,.7.4-.2.3-.4.3c-.3,0-.6,0-1.1.1-1.2.2-1.6,1-1.7,2.6,0,1.4,0,2.8,0,4.7v5.1c0,2,0,2.1-.6,2.4-2.9,1.5-7,2-9.6,2s-9.8-.5-14.9-4.8c-2.8-2.4-5.4-7.2-5.4-12.9s3.5-12.4,7.5-14.9c4.1-2.5,8.5-2.9,12-2.9s6.1.6,6.9.8c.9.2,2.5.4,3.7.5.5,0,.5.2.5.4,0,.6-.3,1.9-.3,6.4s0,1-.4,1-.3-.3-.3-.7c0-.6-.3-1.9-.9-3-1.1-1.7-4.8-3.7-10.6-3.7s-6.2.3-9.7,3c-2.6,2.1-4.5,6.2-4.5,11.5s3.2,11,4.8,12.5c3.6,3.5,7.7,4.8,11.8,4.8s4-.3,5.2-.9c.6-.3.9-.8.9-1.6v-7.7Z" style="fill: #003f5f;"/>
  </g>
  <path d="M34.3,41.1c.7.4,1.4.9,2.1,1.5l6.9-4.5c-.4-.8-.9-1.5-1.5-2.3l-7.5,5.3ZM27.2,34.3c-2.1.6-4.2,1.5-6,2.7,1,0,2.2.2,3.6.5l2.4-3.1ZM29.1,38.6l5-5.2c-.1,0-.3,0-.4,0-1.1,0-2.2,0-3.3.2l-3.7,4.2c.8.2,1.6.4,2.4.7M32.7,40.1l8-5.7c-1.2-.4-2.5-.7-3.9-.8l-6,5.6c.6.3,1.3.6,1.9.9M37.4,43.4c.4.4.9.8,1.3,1.2l6.5-2.7c-.3-.9-.7-1.7-1.2-2.6l-6.6,4.1ZM43.3,51c0,0,0,.1,0,.2.7,1.4,1.3,2.9,1.8,4.3.6-1.4,1-3,1.2-4.6l-3.1.2ZM39.6,45.6c.5.5.9,1.1,1.4,1.7l5.3-1.3c-.1-.9-.3-1.7-.6-2.6l-6.1,2.2ZM46.4,47.3l-4.8.9c.4.5.7,1.1,1.1,1.7l3.8-.2c0-.8,0-1.6,0-2.4M45,58.8c-.8,1.3-1.9,2.5-3.1,3.7l3.6.7c0-1.4-.2-2.9-.5-4.4M11.4,65.2c3.3,9.1,12,15.6,22.3,15.6l-16.4-13.5c-2.2-.6-4.2-1.4-5.8-2.1M44.5,56.8c-.6-2.1-1.6-4.2-3-6.4-6.9-10.7-17.3-12.1-22.3-12.1-5.6,4.3-9.2,11.1-9.2,18.8s0,1.8.2,2.6c2.8,3,7.9,6.4,17.3,7,6.6.4,13.7-3.5,17.1-9.9M43.3,35.4c3.1,5.1,6.8,14,2.6,22,2.3,8.2.7,15.6-1.3,20.9,7.7-3.9,12.9-11.9,12.9-21.1s-5.8-18.1-14.2-21.7M23.8,68.5l15.5,11.7s0,0,.1,0c.9-1.3,2-2.8,2.9-4.6l-13.7-7.1c-1.6.2-3.2.2-4.8,0M37.9,65.4l7.1,2.1c.2-.9.3-1.8.3-2.7l-5.1-1c-.8.6-1.5,1.1-2.3,1.6M35.5,66.6c-.9.4-1.9.8-2.8,1l10.8,5.1c.4-1.1.8-2.2,1.1-3.4l-9.1-2.7Z" style="fill: #2f7998; fill-rule: evenodd;"/>
  <g>
    <rect x="148.6" y="86" width="51.4" height="20.5" style="fill: #2f7998;"/>
    <g id="_x37_3">
      <path d="M173.6,89.1v2.1l-5.9,12.2h-3.5l5.9-11.5h0s-6.6,0-6.6,0v-2.8h10.1Z" style="fill: #fff;"/>
      <path d="M175.7,100.1c.6.3,2,.9,3.3.9s2.6-.8,2.6-1.9-1.4-2-2.9-2h-1.4v-2.4h1.3c1.1,0,2.6-.4,2.6-1.7s-.7-1.5-2.1-1.5-2.4.5-3,.9l-.7-2.4c.9-.5,2.6-1.1,4.4-1.1,3.1,0,4.8,1.6,4.8,3.6s-.9,2.7-2.6,3.3h0c1.7.4,3.1,1.7,3.1,3.5s-2.2,4.4-5.9,4.4-3.4-.5-4.2-1l.7-2.5Z" style="fill: #fff;"/>
    </g>
  </g>
</svg>
