<?xml version="1.0" encoding="UTF-8"?>
<svg id="Layer_2" xmlns="http://www.w3.org/2000/svg" version="1.1" viewBox="0 0 210 140">
  <!-- Generator: Adobe Illustrator 30.0.0, SVG Export Plug-In . SVG Version: 2.1.1 Build 123)  -->
  <rect width="210" height="140" style="fill: #004c97;"/>
  <g>
    <g style="fill: #6eb7ff;">
      <path d="M70.3,121.3c-.1,0-.4,0-.9,0h-3.7c-.3,0-.5,0-.7-.1-.2,0-.3-.3-.3-.5s0-.3.1-.4c.2,0,.5,0,.7,0s.4,0,.5,0c.1,0,.2-.1.3-.2.2-.2.3-.6.3-1.2v-9c0-.4-.2-.7-.4-.8,0,0-.2,0-.3,0h-.4c-.3-.2-.5-.2-.5-.3,0-.1,0-.2,0-.3,0-.2,0-.4.1-.5.1,0,.4,0,.9,0h3.6c.3,0,.5,0,.7.1.2,0,.3.3.3.5s0,.3-.1.4c-.2,0-.5,0-.7,0-.6,0-.9.5-.9,1.4v3.9h7v-4.3c0-.4-.2-.7-.4-.8,0,0-.2,0-.3,0h-.4c-.3-.2-.5-.2-.5-.3,0-.1,0-.2,0-.3,0-.2,0-.4.1-.5.1,0,.4,0,.9,0h3.6c.3,0,.5,0,.7.1.2,0,.3.3.3.5s0,.3-.1.4c-.2,0-.5,0-.7,0-.6,0-.9.5-.9,1.4v9c0,.3,0,.5.1.7.1.2.3.3.5.3.2,0,.4,0,.5.1s.3,0,.4.1c.2,0,.3.3.3.5s0,.4-.1.5c-.1,0-.4,0-.9,0h-3.7c-.3,0-.5,0-.7-.1-.2,0-.3-.3-.3-.5s0-.3.1-.4c.2,0,.4,0,.6,0s.3,0,.4,0,.2-.1.3-.2c.2-.2.3-.6.3-1.1v-3.5h-7v3.9c0,.5.1.8.4.9,0,0,.2,0,.3,0s.3,0,.4,0,.3,0,.3.1c.2,0,.3.3.3.5s0,.4-.1.5Z"/>
      <path d="M81.4,116.4c0-.7,0-1.4.2-1.9s.3-1.1.6-1.5.5-.8.9-1.1c.3-.3.7-.6,1.1-.8.7-.4,1.6-.6,2.5-.6s2.1.4,2.9,1.2c.9.9,1.3,2.1,1.3,3.6s-.5,3.5-1.6,4.6c-.9.9-2,1.4-3.3,1.4s-2.4-.5-3.3-1.4c-.8-.9-1.2-2.1-1.2-3.6ZM86.3,119.9c.4,0,.7,0,1.1-.3.3-.2.6-.4.8-.8.4-.7.7-1.5.7-2.6s-.2-2.2-.7-3c-.5-.9-1.3-1.4-2.2-1.4s-1.4.3-1.9.9c-.5.6-.7,1.5-.7,2.7s.3,2.5.9,3.4c.6.7,1.3,1.1,2.1,1.1Z"/>
      <path d="M97.3,121.2c-.1,0-.3,0-.6,0h-2.8c-.6,0-.9,0-1.1-.3,0,0,0-.2,0-.3,0-.2,0-.4.1-.5.1,0,.3,0,.5,0s.3,0,.4-.2.1-.4.1-.8v-5.7c0-.6-.1-.9-.3-1,0,0-.2,0-.3,0s-.2,0-.3,0-.1,0-.2,0,0,0-.1,0c0,0,0,0-.1,0,0,0-.1-.2-.1-.3s0-.2.1-.3c0-.1.2-.2.4-.4.2-.1.4-.3.6-.4.5-.3.9-.4,1.4-.4s.9.4,1,1.1c0,.2,0,.4,0,.7.9-.7,1.8-1.3,2.8-1.6.4-.1.7-.2,1.1-.2s.7,0,1.1.1.6.3.9.5c.5.5.8,1.2.8,2.2v6c0,.5.2.7.5.8,0,0,.2,0,.3,0s.2,0,.3,0,.2,0,.2.1c0,0,.1.2.1.4s0,.4-.1.5c-.1,0-.3,0-.6,0h-2.8c-.6,0-.9,0-1.1-.3,0,0,0-.2,0-.3,0-.2,0-.4.1-.5.1,0,.3,0,.4,0s.2,0,.3,0c0,0,.1,0,.2-.2,0-.1.1-.4.1-.8v-5.2c0-1-.3-1.6-.9-1.7-.2,0-.4,0-.7,0s-.6,0-.9.1-.6.2-.9.3c-.6.2-1,.6-1.4.9v5.7c0,.5.2.7.5.8,0,0,.2,0,.3,0s.2,0,.3,0,.2,0,.2.1c0,0,.1.2.1.4s0,.4-.1.5Z"/>
      <path d="M122.8,118.5c0,1.3-.2,2.2-.5,2.7h-9.6c-.5,0-.8-.1-1-.4,0,0,0-.2,0-.3,0-.2,0-.4.1-.5.2,0,.5,0,.8,0,.7,0,1.1-.4,1.1-1.3v-9c0-.4-.2-.7-.5-.8,0,0-.2,0-.4-.1h-.4c-.3-.2-.5-.3-.5-.4,0-.1-.1-.2-.1-.3,0-.2,0-.4.1-.5.1,0,.4,0,.9,0h3.8c.3,0,.5,0,.7.1.2,0,.3.3.3.5s0,.3-.1.4c-.2,0-.4,0-.6,0s-.4,0-.5,0c-.1,0-.2.1-.3.2-.2.2-.3.6-.3,1.1v8.9c0,.4.1.7.4.8.2.1.5.2,1.1.2h.7s.8,0,.8,0c1.3,0,2.1-.3,2.5-.9.2-.3.3-.6.4-1.1s.1-.9.2-1.5c0,0,.2,0,.4,0,.3,0,.5,0,.6.1.1.5.2,1.1.2,1.8Z"/>
      <path d="M130.7,120.1c-.9.9-1.9,1.3-3.1,1.3s-1.7-.3-2.2-.8c-.6-.5-.9-1.3-.9-2.1s.5-1.9,1.4-2.4c.9-.5,2.1-.7,3.7-.7h1.1c0-.2,0-.4,0-.7v-.7c0-.8-.1-1.3-.3-1.7-.3-.4-.7-.5-1.3-.5-1.4,0-2.2.5-2.2,1.5,0,.2,0,.3,0,.4-.1,0-.3.1-.6.1s-.5,0-.6,0-.2-.2-.3-.3c-.2-.2-.3-.5-.3-.9s.1-.7.3-.9c.2-.3.5-.5.8-.7.7-.3,1.5-.5,2.5-.5s1.7,0,2.1.3c.5.2.9.4,1.1.7.5.5.7,1.3.7,2.2v4.2c0,.8,0,1.3,0,1.5s.2.3.3.4.2.1.4.1.3,0,.4,0h.2c0-.1.2-.1.2,0,0,0,0,.2,0,.3s0,.2,0,.3-.2.2-.3.4c-.2.1-.4.2-.6.3-1.2.6-2,.4-2.4-.4,0-.2-.1-.3-.2-.6ZM130.7,118.9c0-.8,0-1.7,0-2.5-1.2,0-2,.1-2.5.2-.4.1-.8.2-.9.3s-.3.2-.5.4c-.2.2-.3.6-.3,1s.2.8.5,1.1c.3.3.8.4,1.4.4.8,0,1.6-.3,2.3-.9Z"/>
      <path d="M138.3,111.7c.9-.8,1.9-1.2,2.9-1.2s2.2.4,2.9,1.2c.8.9,1.2,2.1,1.2,3.7s-.6,3.2-1.7,4.4c-1.1,1-2.3,1.6-3.8,1.6s-1.9-.2-2.8-.6c-.3-.1-.6-.3-.8-.5v-12c0-.4,0-.7-.1-.8-.1-.2-.3-.3-.7-.3s-.3,0-.4,0c-.1,0-.2,0-.3,0,0,0,0,0-.1-.1-.1-.2,0-.4.4-.7.6-.5,1.3-.7,1.9-.7s1,.4,1.1,1.1c0,.2,0,.4,0,.7v4.3ZM138.3,113.1v6.2c.6.5,1.2.7,2,.7s1.6-.3,2.2-1c.6-.7.9-1.7.9-2.9s-.3-2.3-.8-3c-.5-.6-1.1-.9-2-.9s-1.6.3-2.3,1Z"/>
    </g>
    <g style="fill: #6eb7ff;">
      <path d="M19.1,37.7h-3.9c0-.1-3-.1-3-.1-.4,0-.7,0-1-.2s-.4-.3-.4-.5c0-.4,0-.6.2-.8.3,0,.5.1.8.1s.5,0,.7,0,.4-.1.5-.2c.3-.3.5-.8.5-1.5v-11.9c0-.7-.4-1.2-1.3-1.4-.6-.1-.9-.2-1.1-.4s-.2-.3-.2-.5c0-.4,0-.6.2-.7.1,0,.3,0,.4,0h3.5c.4,0,.8,0,1.5,0s1.5,0,2.6,0,2.1.1,3,.3,1.6.5,2.2.9c1.1.7,1.6,1.7,1.6,3s-.6,2.7-1.9,3.6c-.5.3-1.1.6-1.8.9,2.3.2,3.8,1.1,4.4,2.6.2.5.3,1.1.3,1.8s-.2,1.4-.5,2-.8,1.2-1.5,1.7c-1.3,1-3.3,1.5-5.8,1.5ZM16.3,27.6h1.8c.4,0,.8,0,1.3,0s1,0,1.4-.3.9-.4,1.2-.7c.6-.6,1-1.4,1-2.3s-.3-1.9-.8-2.4c-.6-.6-1.7-.9-3.2-.9s-1.7,0-2,.3-.4.4-.5.7-.1.6-.1,1v4.6ZM19.1,29.2c-1.3,0-2.2,0-2.8,0v5.6c0,.8.5,1.2,1.5,1.3.3,0,.8,0,1.3,0s1.2,0,1.8-.2,1.2-.3,1.6-.6c.9-.6,1.4-1.5,1.4-2.8,0-2.2-1.6-3.3-4.9-3.3Z"/>
      <path d="M34.5,31.3c0-.9,0-1.8.3-2.5s.5-1.4.8-2,.7-1.1,1.2-1.5.9-.8,1.4-1.1c1-.6,2-.9,3-.9s1.8.2,2.4.5,1.1.8,1.5,1.4c.7,1.1,1,2.6,1,4.4s-.3,1-.9,1l-8.2.2c0,1.7.5,2.9,1.3,3.8.7.7,1.6,1,2.7,1,1.7,0,3-.3,4.1-1,0,0,.2,0,.3.2.2.2.3.4.3.6,0,.4-.5.9-1.4,1.4-1.1.7-2.3,1-3.8,1s-3.3-.6-4.4-1.8c-1.1-1.2-1.6-2.8-1.6-4.7ZM37.1,29.3c2.2-.1,4.3-.3,6.2-.4,0-2.5-.8-3.7-2.6-3.7s-1.8.4-2.5,1.2c-.6.7-1,1.7-1.1,3Z"/>
      <path d="M60.2,37.6c-.2,0-.4,0-.8,0h-3.7c-.8,0-1.2-.1-1.4-.4,0-.1-.1-.2-.1-.4,0-.3,0-.6.2-.7.2,0,.4,0,.6,0s.4,0,.5-.3.2-.6.2-1.1v-7.7c0-.7-.1-1.2-.4-1.4-.1,0-.3-.1-.4-.1s-.3,0-.4,0-.2,0-.3.1-.1,0-.2,0,0,0-.1-.1c-.1-.1-.2-.3-.2-.4s0-.3.1-.4.3-.3.5-.5.5-.4.8-.5c.6-.4,1.3-.6,1.9-.6s1.2.5,1.3,1.4c0,.3,0,.6,0,.9,1.2-1,2.4-1.7,3.8-2.1.5-.1,1-.2,1.5-.2s1,0,1.4.2.9.3,1.2.6c.7.6,1.1,1.6,1.1,2.9v7.9c0,.6.2,1,.7,1.1.1,0,.3,0,.4.1s.3,0,.5.1.2,0,.3.1c.1.1.2.3.2.5s0,.5-.2.6c-.2,0-.4,0-.8,0h-3.7c-.8,0-1.2-.1-1.4-.4,0-.1-.1-.2-.1-.4,0-.3,0-.6.2-.7.2,0,.4,0,.5,0s.3,0,.4,0,.2-.1.3-.2c.1-.2.2-.6.2-1.1v-6.9c0-1.3-.4-2.1-1.2-2.2-.2,0-.5,0-.9,0s-.8,0-1.2.2-.8.2-1.2.4c-.7.3-1.4.7-1.9,1.2v7.6c0,.6.2,1,.7,1.1.1,0,.3,0,.4.1s.3,0,.5.1.2,0,.3.1c.1.1.2.3.2.5s0,.5-.2.6Z"/>
      <path d="M84.9,27.6v-.4c0-.1,0-.4,0-.8s-.3-.6-.7-.9-.9-.3-1.4-.3-1.1.1-1.5.4-.8.7-1.1,1.2c-.5.9-.8,2.2-.8,3.8s.4,2.7,1.1,3.6c.7,1,1.7,1.4,2.9,1.4s2.1-.3,3.1-.9c.2-.1.4-.3.6-.4,0,0,.2,0,.3.2.2.2.3.4.3.5s0,.3-.2.5-.3.4-.5.6-.5.4-.7.6-.6.4-1,.6c-.8.4-1.7.6-2.5.6s-1.7-.1-2.4-.4-1.4-.7-1.9-1.3c-1.2-1.2-1.7-2.9-1.7-5s.7-4.3,2.2-5.8c1.3-1.3,2.9-2,4.6-2s2.1.2,2.9.7c.8.5,1.2,1.2,1.2,2s-.1.8-.3,1c-.4.4-.8.6-1.2.6s-.8,0-1-.2Z"/>
      <path d="M101.4,37.6c-.2,0-.4,0-.8,0h-3.7c-.8,0-1.2-.1-1.4-.4,0-.1-.1-.2-.1-.4,0-.3,0-.6.2-.7.2,0,.4,0,.6,0s.4,0,.5-.3.2-.6.2-1.1v-14.5c0-.5,0-.9-.2-1-.2-.2-.5-.4-.9-.4h-.2c0,0-.2,0-.2,0s-.2,0-.2,0-.1,0-.2-.1c-.2-.2,0-.6.6-1,.8-.6,1.6-.9,2.4-.9s1.4.5,1.5,1.4c0,.3,0,.6,0,.9v6.4c1.2-1,2.4-1.7,3.8-2.1.5-.1,1-.2,1.5-.2s1,0,1.4.2.8.3,1.2.6c.7.6,1.1,1.6,1.1,2.9v7.9c0,.6.2,1,.7,1.2.1,0,.3,0,.4.1s.3,0,.5.1.2,0,.3.1c.1.1.2.3.2.5s0,.5-.2.6c-.2,0-.4,0-.8,0h-3.7c-.8,0-1.2-.1-1.4-.4,0-.1-.1-.2-.1-.4,0-.3,0-.6.2-.7.2,0,.4,0,.6,0s.4,0,.5-.2.2-.5.2-.9v-7.1c0-1.3-.4-2.1-1.2-2.2-.2,0-.5,0-.9,0s-.8,0-1.2.2-.8.2-1.2.4c-.8.3-1.4.8-1.9,1.2v7.5c0,.6.2,1,.7,1.2.1,0,.3,0,.4.1s.3,0,.5.1.2,0,.3.1c.1.1.2.3.2.5s0,.5-.2.6Z"/>
      <path d="M123.7,37.6c-.2,0-.4,0-.8,0h-3.7c-.8,0-1.2-.1-1.4-.4,0-.1-.1-.2-.1-.4,0-.3,0-.6.2-.7.2,0,.4,0,.6,0s.4,0,.5-.3.2-.6.2-1.1v-7.7c0-.7-.1-1.2-.4-1.4-.1,0-.3-.1-.4-.1s-.3,0-.4,0-.2,0-.3.1-.1,0-.2,0,0,0-.1-.1c-.1-.1-.2-.3-.2-.4s0-.3.1-.4.3-.3.5-.5.5-.4.8-.5c.6-.4,1.3-.6,1.9-.6s1.1.4,1.3,1.3c0,.3,0,.5,0,.8,1.2-.9,2.4-1.6,3.7-1.9.5-.1.9-.2,1.4-.2,1.9,0,3,.7,3.5,2.2,1.2-1,2.5-1.6,3.7-2,.5-.1,1-.2,1.5-.2s1,0,1.4.2.8.3,1.2.6c.7.6,1.1,1.6,1.1,2.9v7.9c0,.6.2,1,.7,1.2.1,0,.3,0,.4.1s.3,0,.5.1.2,0,.3.1c.1.1.2.3.2.5s0,.5-.2.6c-.2,0-.4,0-.8,0h-3.7c-.8,0-1.2-.1-1.4-.4,0-.1-.1-.2-.1-.4,0-.3,0-.6.2-.7.2,0,.4,0,.6,0s.4,0,.5-.2.2-.4.2-.8v-7.2c0-1.3-.4-2.1-1.2-2.2-.2,0-.5,0-.9,0s-.7,0-1.1.1-.8.2-1.1.3c-.7.3-1.3.6-1.8,1v7.8c0,.6.2,1,.7,1.2.1,0,.3,0,.4.1s.3,0,.5.1.2,0,.3.1c.1.1.2.3.2.5s0,.5-.2.6c-.2,0-.4,0-.8,0h-3.7c-.8,0-1.2-.1-1.4-.4,0-.1-.1-.2-.1-.4,0-.3,0-.6.2-.7.2,0,.4,0,.6,0s.4,0,.5-.2.2-.5.2-.9v-7.1c0-1.3-.4-2.1-1.2-2.2-.2,0-.5,0-.9,0s-.7,0-1.1.1-.8.2-1.2.4c-.7.3-1.3.7-1.8,1.1v7.7c0,.6.2,1,.7,1.2.1,0,.3,0,.4.1s.3,0,.5.1.2,0,.3.1c.1.1.2.3.2.5s0,.5-.2.6Z"/>
      <path d="M156.6,36.1c-1.1,1.1-2.5,1.7-4.1,1.7s-2.2-.4-3-1.1c-.8-.7-1.1-1.7-1.1-2.8s.6-2.5,1.9-3.2c1.2-.7,2.8-1,4.9-1h1.5c0-.3,0-.6,0-.9v-.9c0-1-.2-1.8-.5-2.2-.3-.5-.9-.7-1.8-.7-1.9,0-2.9.7-2.9,2,0,.2,0,.4,0,.5-.2.1-.4.2-.8.2s-.6,0-.8-.1-.3-.2-.4-.4c-.3-.3-.4-.7-.4-1.2s.1-.9.4-1.2.7-.6,1.1-.9c.9-.5,2-.7,3.3-.7s2.2.1,2.9.4,1.1.6,1.5,1c.7.7,1,1.7,1,2.9v5.6c-.1,1,0,1.7,0,1.9s.2.5.4.6.3.1.5.1.4,0,.5,0l.3-.2c.1,0,.2,0,.3.1s.1.2.1.3,0,.2-.1.4-.2.3-.5.5-.5.3-.8.5c-1.6.7-2.6.6-3.2-.5-.1-.2-.2-.5-.2-.8ZM156.6,34.6c0-1.1,0-2.2,0-3.4-1.6,0-2.7.2-3.3.3s-1,.3-1.3.4-.5.3-.6.5c-.2.3-.4.7-.4,1.3s.2,1.1.6,1.4,1,.5,1.8.5c1.1,0,2.1-.4,3.1-1.1Z" style="fill: #6eb7ff;"/>
      <path d="M174.7,37.6c-.2,0-.4,0-.8,0h-4c-.8,0-1.2-.1-1.4-.4,0-.1-.1-.2-.1-.4,0-.3,0-.6.2-.7.2,0,.4,0,.5,0s.3,0,.4,0,.2-.1.3-.2c.1-.2.2-.6.2-1.1v-7.7c0-.7-.1-1.2-.4-1.4-.1,0-.3-.1-.4-.1s-.3,0-.4,0-.2,0-.3.1-.1,0-.2,0,0,0-.1-.1c-.1-.1-.2-.3-.2-.4s0-.3.1-.4.3-.3.5-.5.5-.4.8-.5c.6-.4,1.3-.6,1.9-.6s1.1.5,1.3,1.4c0,.3,0,.6,0,.9,1.1-1,2.3-1.7,3.5-2.1.4-.1.8-.2,1.1-.2s.6,0,.8.1.4.2.5.4c.2.3.4.7.4,1.2s0,.9,0,1.2-.1.6-.2.8c-.1.5-.3.8-.4.9-.2.2-.5.3-.9.3s-.6-.1-.6-.3c0-.8,0-1.4-.1-1.6-.1-.4-.4-.6-.8-.6s-.7,0-1,.1-.6.2-.9.3c-.6.3-1.1.6-1.5,1.1v7.8c0,.6.3,1,.8,1.1.1,0,.3,0,.5.1s.3,0,.5.1.2,0,.3.1c.1.1.2.3.2.5s0,.5-.2.6Z" style="fill: #6eb7ff;"/>
      <path d="M191.9,37.6c-.2,0-.4,0-.8,0h-3.5c-.8,0-1.2-.1-1.4-.4,0-.1-.1-.2-.1-.4,0-.3,0-.6.2-.7.2,0,.4,0,.6,0s.4,0,.5-.3.2-.6.2-1.1v-14.5c0-.5,0-.9-.2-1-.2-.2-.5-.4-.9-.4s-.3,0-.4,0-.2,0-.3,0-.1,0-.2-.1c-.1-.2,0-.3,0-.5s.3-.3.5-.5.5-.3.8-.5c.6-.3,1.1-.5,1.5-.5s.7,0,.9.2.4.3.5.5c.2.3.3.9.3,1.7v15.7c0,.6.2,1,.6,1.2.1,0,.2,0,.4.1s.3,0,.4.1.2,0,.3.1c.1.1.2.3.2.5s0,.5-.2.6ZM196.9,23.3c1.2,0,1.8.4,1.8,1.1s-.9,2.2-2.8,3.9c-.7.6-1.5,1.2-2.2,1.7.5.5,1,1.1,1.5,1.8l1.2,1.7c1,1.5,1.8,2.2,2.3,2.2s.7,0,.8-.1.2-.1.3-.1.1,0,.2,0,.2.2.2.3,0,.3-.2.6-.3.4-.5.6c-.5.5-1.1.7-1.7.7s-1.1-.1-1.6-.4-.8-.7-1.2-1.1-.7-1-1-1.6l-1-1.7c-.8-1.4-1.5-2.2-2-2.6-.3-.2-.4-.4-.3-.4l.3-.2,1.9-1.3c.8-.6,1.4-1.1,1.7-1.4.6-.7.9-1.2.9-1.7s-.3-.5-.9-.5c0-.1-.1-.3-.1-.4s0-.3.2-.4.3-.3.6-.3c.5-.2,1-.3,1.6-.3Z" style="fill: #6eb7ff;"/>
    </g>
  </g>
  <g style="fill: #fff;">
    <g>
      <polygon points="187.7 75.7 190.9 78.9 190.9 57.4 184.5 57.4 184.5 78.9 187.7 75.7" />
      <polygon points="187.7 78.7 184.5 81.9 184.5 95.6 190.9 95.6 190.9 81.9 187.7 78.7" />
    </g>
    <g>
      <polygon points="175 74.3 178.1 71.1 178.1 57.4 171.8 57.4 171.8 71.1 175 74.3"/>
      <polygon points="175 77.3 171.8 74.1 171.8 95.6 178.1 95.6 178.1 74.1 175 77.3"/>
    </g>
    <g>
      <polygon points="35 75.7 38.2 78.9 38.2 57.4 31.9 57.4 31.9 78.9 35 75.7"/>
      <polygon points="35 78.7 31.9 81.9 31.9 95.6 38.2 95.6 38.2 81.9 35 78.7"/>
    </g>
    <g>
      <polygon points="22.3 74.3 25.5 71.1 25.5 57.4 19.1 57.4 19.1 71.1 22.3 74.3" />
      <polygon points="22.3 77.3 19.1 74.1 19.1 95.6 25.5 95.6 25.5 74.1 22.3 77.3" />
    </g>
    <path d="M168.6,54.5c9.1,0,21.3,0,31.4,0v-6.7c-10.1,0-22.3,0-31.4,0s-18,10.8-25.4,22.5c-7.4-11.7-15.3-22.5-25.5-22.5s-11.1,0-12.7,0c-1.6,0-3.2,0-12.7,0s-18,10.8-25.5,22.5c-7.4-11.7-15.3-22.5-25.4-22.5H10v6.7h31.4c7.3,0,14.5,10.9,21.5,22.1-7,11.1-14.2,22.1-21.5,22.1H10v6.7h31.4c10.1,0,18-10.8,25.4-22.5,7.4,11.7,15.3,22.5,25.5,22.5s11.1,0,12.7,0c1.6,0,3.2,0,12.7,0s18-10.8,25.5-22.5c7.4,11.7,15.3,22.5,25.4,22.5s21.3,0,31.4,0v-6.7c-10.1,0-22.3,0-31.4,0s-14.5-10.9-21.5-22.1c7-11.1,14.2-22.1,21.5-22.1ZM117.7,98.7c-9.5,0-11.1,0-12.7,0-1.6,0-3.2,0-12.7,0s-14.5-11-21.5-22.1c7-11.2,14.2-22.1,21.5-22.1s11.1,0,12.7,0c1.6,0,3.2,0,12.7,0s14.5,11,21.5,22.1c-7,11.2-14.2,22.1-21.5,22.1Z" />
  </g>
  <circle cx="105" cy="76.5" r="15" style="fill: #7cb342;"/>
  <path d="M103.4,83.9c-.7,0-1.3-.2-1.7-.7l-4.1-4.7c-.2-.2-.4-.5-.5-.7s-.1-.5-.1-.7c0-.6.2-1,.6-1.4.4-.4.9-.6,1.4-.6s1.1.2,1.5.7l2.9,3.2,5.8-9.1c.2-.4.5-.6.8-.8.3-.2.6-.2,1-.2.6,0,1.1.2,1.4.6.4.4.6.8.6,1.4s0,.4,0,.6c0,.2-.2.4-.3.6l-7.4,10.9c-.4.6-1,.9-1.8.9Z" style="fill: #fff;"/>
</svg>
