<?xml version="1.0" encoding="UTF-8"?>
<svg id="Layer_2" xmlns="http://www.w3.org/2000/svg" version="1.1" viewBox="0 0 210 140">
  <!-- Generator: Adobe Illustrator 30.0.0, SVG Export Plug-In . SVG Version: 2.1.1 Build 123)  -->
  <rect width="210" height="140" style="fill: #004c97;" />
  <g style="fill: #9ecfff;">
    <path
      d="M19.1,46.6h-3.9c0-.1-3-.1-3-.1-.4,0-.7,0-1-.2s-.4-.3-.4-.5c0-.4,0-.6.2-.8.3,0,.5.1.8.1s.5,0,.7,0,.4-.1.5-.2c.3-.3.5-.8.5-1.5v-11.9c0-.7-.4-1.2-1.3-1.4-.6-.1-.9-.2-1.1-.4s-.2-.3-.2-.5c0-.4,0-.6.2-.7.1,0,.3,0,.4,0h3.5c.4,0,.8,0,1.5,0s1.5,0,2.6,0,2.1.1,2.9.3,1.6.5,2.1.9c1.1.7,1.6,1.7,1.6,3s-.6,2.7-1.8,3.6c-.5.3-1,.6-1.8.9,2.3.2,3.8,1.1,4.4,2.6.2.5.3,1.1.3,1.8s-.2,1.4-.5,2-.8,1.2-1.5,1.7c-1.3,1-3.3,1.5-5.8,1.5ZM16.3,36.6h1.8c.4,0,.8,0,1.3,0s1,0,1.4-.3.9-.4,1.2-.7c.6-.6,1-1.4,1-2.3s-.3-1.9-.8-2.4c-.6-.6-1.7-.9-3.2-.9s-1.7,0-1.9.3-.4.4-.5.7-.1.6-.1,1v4.6ZM19.1,38.1c-1.3,0-2.2,0-2.8,0v5.5c0,.8.5,1.2,1.5,1.3.3,0,.8,0,1.3,0s1.2,0,1.8-.2,1.2-.3,1.6-.6c.9-.6,1.4-1.5,1.4-2.8,0-2.2-1.6-3.3-4.9-3.3Z" />
    <path
      d="M34.4,40.2c0-.9,0-1.8.3-2.5s.5-1.4.8-2,.7-1.1,1.2-1.5.9-.8,1.4-1.1c1-.6,2-.9,3-.9s1.8.2,2.4.5,1.1.8,1.5,1.4c.7,1.1,1,2.6,1,4.4s-.3,1-.9,1l-8.2.2c0,1.7.5,2.9,1.3,3.8.7.7,1.6,1,2.7,1,1.7,0,3-.3,4-1,0,0,.2,0,.3.2.2.2.3.4.3.6,0,.4-.5.9-1.4,1.4-1.1.7-2.3,1-3.8,1s-3.3-.6-4.4-1.8c-1.1-1.2-1.6-2.7-1.6-4.7ZM37,38.2c2.2-.1,4.3-.3,6.2-.4,0-2.5-.8-3.7-2.6-3.7s-1.8.4-2.5,1.2c-.6.7-1,1.7-1.1,3Z" />
    <path
      d="M60.1,46.6c-.2,0-.4,0-.7,0h-3.7c-.7,0-1.2-.1-1.4-.4,0-.1-.1-.2-.1-.4,0-.3,0-.6.2-.7.2,0,.4,0,.6,0s.4,0,.5-.3.2-.6.2-1.1v-7.7c0-.7-.1-1.2-.4-1.4-.1,0-.3-.1-.4-.1s-.3,0-.4,0-.2,0-.3.1-.1,0-.2,0,0,0-.1-.1c-.1-.1-.2-.3-.2-.4s0-.3.1-.4.3-.3.5-.5.5-.4.7-.5c.6-.4,1.3-.5,1.9-.5s1.2.5,1.3,1.4c0,.3,0,.6,0,.9,1.2-1,2.4-1.7,3.8-2.1.5-.1,1-.2,1.5-.2s1,0,1.4.2.9.3,1.2.6c.7.6,1.1,1.6,1.1,2.9v7.9c0,.6.2,1,.7,1.1.1,0,.3,0,.4.1s.3,0,.5.1.2,0,.3.1c.1.1.2.3.2.5s0,.5-.2.6c-.2,0-.4,0-.7,0h-3.7c-.7,0-1.2-.1-1.4-.4,0-.1-.1-.2-.1-.4,0-.3,0-.6.2-.7.2,0,.4,0,.5,0s.3,0,.4,0,.2-.1.3-.2c.1-.2.2-.6.2-1.1v-6.9c0-1.3-.4-2.1-1.2-2.2-.2,0-.5,0-.9,0s-.8,0-1.2.2-.8.2-1.2.4c-.7.3-1.3.7-1.8,1.2v7.6c0,.6.2,1,.7,1.1.1,0,.3,0,.4.1s.3,0,.5.1.2,0,.3.1c.1.1.2.3.2.5s0,.5-.2.6Z" />
    <path
      d="M84.8,36.5v-.4c0-.1,0-.4,0-.8s-.3-.6-.7-.9-.9-.3-1.4-.3-1.1.1-1.5.4-.8.7-1.1,1.2c-.5.9-.8,2.2-.8,3.8s.4,2.7,1.1,3.6c.7,1,1.7,1.4,2.9,1.4s2.1-.3,3.1-.9c.2-.1.4-.3.6-.4,0,0,.2,0,.3.2.2.2.3.4.3.5s0,.3-.2.5-.3.4-.5.6-.5.4-.7.6-.6.4-1,.5c-.8.4-1.7.6-2.5.6s-1.7-.1-2.4-.4-1.4-.7-1.9-1.3c-1.2-1.2-1.7-2.9-1.7-5s.7-4.3,2.2-5.8c1.3-1.3,2.9-2,4.6-2s2.1.2,2.9.7c.8.5,1.2,1.2,1.2,2s-.1.8-.3,1c-.4.4-.8.6-1.2.6s-.8,0-1-.2Z" />
    <path
      d="M101.2,46.6c-.2,0-.4,0-.7,0h-3.7c-.7,0-1.2-.1-1.4-.4,0-.1-.1-.2-.1-.4,0-.3,0-.6.2-.7.2,0,.4,0,.6,0s.4,0,.5-.3.2-.6.2-1.1v-14.5c0-.5,0-.9-.2-1-.2-.2-.5-.4-.9-.4h-.2c0,0-.2,0-.2,0s-.2,0-.2,0-.1,0-.2-.1c-.2-.2,0-.6.6-1,.8-.6,1.6-.9,2.4-.9s1.4.5,1.5,1.4c0,.3,0,.6,0,.9v6.4c1.2-1,2.4-1.7,3.8-2.1.5-.1,1-.2,1.5-.2s1,0,1.4.2.8.3,1.2.6c.7.6,1.1,1.6,1.1,2.9v7.9c0,.6.2,1,.7,1.2.1,0,.3,0,.4.1s.3,0,.5.1.2,0,.3.1c.1.1.2.3.2.5s0,.5-.2.6c-.2,0-.4,0-.7,0h-3.7c-.7,0-1.2-.1-1.4-.4,0-.1-.1-.2-.1-.4,0-.3,0-.6.2-.7.2,0,.4,0,.6,0s.4,0,.5-.2.2-.5.2-.9v-7.1c0-1.3-.4-2.1-1.2-2.2-.2,0-.5,0-.9,0s-.8,0-1.2.2-.8.2-1.2.4c-.8.3-1.4.8-1.8,1.2v7.5c0,.6.2,1,.7,1.2.1,0,.3,0,.4.1s.3,0,.5.1.2,0,.3.1c.1.1.2.3.2.5s0,.5-.2.6Z" />
    <path
      d="M123.6,46.6c-.2,0-.4,0-.7,0h-3.7c-.7,0-1.2-.1-1.4-.4,0-.1-.1-.2-.1-.4,0-.3,0-.6.2-.7.2,0,.4,0,.6,0s.4,0,.5-.3.2-.6.2-1.1v-7.7c0-.7-.1-1.2-.4-1.4-.1,0-.3-.1-.4-.1s-.3,0-.4,0-.2,0-.3.1-.1,0-.2,0,0,0-.1-.1c-.1-.1-.2-.3-.2-.4s0-.3.1-.4.3-.3.5-.5.5-.4.7-.5c.6-.4,1.3-.5,1.9-.5s1.1.4,1.3,1.3c0,.3,0,.5,0,.8,1.2-.9,2.4-1.6,3.7-1.9.5-.1.9-.2,1.4-.2,1.9,0,3,.7,3.5,2.2,1.2-1,2.5-1.6,3.7-2,.5-.1,1-.2,1.5-.2s1,0,1.4.2.8.3,1.2.6c.7.6,1.1,1.6,1.1,2.9v7.9c0,.6.2,1,.7,1.2.1,0,.3,0,.4.1s.3,0,.5.1.2,0,.3.1c.1.1.2.3.2.5s0,.5-.2.6c-.2,0-.4,0-.7,0h-3.7c-.7,0-1.2-.1-1.4-.4,0-.1-.1-.2-.1-.4,0-.3,0-.6.2-.7.2,0,.4,0,.6,0s.4,0,.5-.2.2-.4.2-.8v-7.2c0-1.3-.4-2.1-1.2-2.2-.2,0-.5,0-.9,0s-.7,0-1.1.1-.8.2-1.1.3c-.7.3-1.3.6-1.8,1v7.8c0,.6.2,1,.7,1.2.1,0,.3,0,.4.1s.3,0,.5.1.2,0,.3.1c.1.1.2.3.2.5s0,.5-.2.6c-.2,0-.4,0-.7,0h-3.7c-.7,0-1.2-.1-1.4-.4,0-.1-.1-.2-.1-.4,0-.3,0-.6.2-.7.2,0,.4,0,.6,0s.4,0,.5-.2.2-.5.2-.9v-7.1c0-1.3-.4-2.1-1.2-2.2-.2,0-.5,0-.9,0s-.7,0-1.1.1-.8.2-1.2.4c-.7.3-1.3.7-1.8,1.1v7.7c0,.6.2,1,.7,1.2.1,0,.3,0,.4.1s.3,0,.5.1.2,0,.3.1c.1.1.2.3.2.5s0,.5-.2.6Z" />
    <path
      d="M156.4,45c-1.1,1.1-2.5,1.7-4.1,1.7s-2.2-.4-3-1.1c-.8-.7-1.1-1.7-1.1-2.8s.6-2.5,1.9-3.2c1.2-.7,2.8-1,4.9-1h1.5c0-.3,0-.6,0-.9v-.9c0-1-.2-1.8-.5-2.2-.3-.5-.9-.7-1.8-.7-1.9,0-2.9.7-2.9,2,0,.2,0,.4,0,.5-.2.1-.4.2-.8.2s-.6,0-.8-.1-.3-.2-.4-.4c-.3-.3-.4-.7-.4-1.2s.1-.9.4-1.2.7-.6,1.1-.9c.9-.5,2-.7,3.3-.7s2.2.1,2.8.4,1.1.6,1.5,1c.7.7,1,1.7,1,2.9v5.6c-.1,1,0,1.7,0,1.9s.2.5.4.5.3.1.5.1.4,0,.5,0l.3-.2c.1,0,.2,0,.3.1s.1.2.1.3,0,.2-.1.4-.2.3-.5.5-.5.3-.8.5c-1.6.7-2.6.6-3.2-.5-.1-.2-.2-.5-.2-.8ZM156.4,43.5c0-1.1,0-2.2,0-3.3-1.6,0-2.7.2-3.3.3s-1,.3-1.3.4-.5.3-.6.5c-.2.3-.4.7-.4,1.3s.2,1.1.6,1.4,1,.5,1.8.5c1.1,0,2.1-.4,3.1-1.1Z" />
    <path
      d="M174.5,46.6c-.2,0-.4,0-.7,0h-4c-.7,0-1.2-.1-1.4-.4,0-.1-.1-.2-.1-.4,0-.3,0-.6.2-.7.2,0,.4,0,.5,0s.3,0,.4,0,.2-.1.3-.2c.1-.2.2-.6.2-1.1v-7.7c0-.7-.1-1.2-.4-1.4-.1,0-.3-.1-.4-.1s-.3,0-.4,0-.2,0-.3.1-.1,0-.2,0,0,0-.1-.1c-.1-.1-.2-.3-.2-.4s0-.3.1-.4.3-.3.5-.5.5-.4.7-.5c.6-.4,1.3-.5,1.9-.5s1.1.5,1.3,1.4c0,.3,0,.6,0,.9,1.1-1,2.3-1.7,3.5-2.1.4-.1.8-.2,1.1-.2s.6,0,.8.1.4.2.5.4c.2.3.4.7.4,1.2s0,.9,0,1.2-.1.6-.2.8c-.1.5-.3.8-.4.9-.2.2-.5.3-.9.3s-.6-.1-.6-.3c0-.8,0-1.4-.1-1.6-.1-.4-.4-.6-.7-.6s-.7,0-1,.1-.6.2-.9.3c-.6.3-1.1.6-1.5,1.1v7.8c0,.6.3,1,.8,1.1.1,0,.3,0,.5.1s.3,0,.5.1.2,0,.3.1c.1.1.2.3.2.5s0,.5-.2.6Z" />
    <path
      d="M191.6,46.6c-.2,0-.4,0-.7,0h-3.5c-.7,0-1.2-.1-1.4-.4,0-.1-.1-.2-.1-.4,0-.3,0-.6.2-.7.2,0,.4,0,.6,0s.4,0,.5-.3.2-.6.2-1.1v-14.5c0-.5,0-.9-.2-1-.2-.2-.5-.4-.9-.4s-.3,0-.4,0-.2,0-.3,0-.1,0-.2-.1c-.1-.2,0-.3,0-.5s.3-.3.5-.5.5-.3.7-.5c.6-.3,1.1-.5,1.5-.5s.7,0,.9.2.4.3.5.5c.2.3.3.9.3,1.7v15.7c0,.6.2,1,.6,1.2.1,0,.2,0,.4.1s.3,0,.4.1.2,0,.3.1c.1.1.2.3.2.5s0,.5-.2.6ZM196.6,32.2c1.2,0,1.8.4,1.8,1.1s-.9,2.2-2.8,3.9c-.7.6-1.5,1.2-2.2,1.7.5.5,1,1.1,1.5,1.8l1.2,1.7c1,1.5,1.8,2.2,2.3,2.2s.7,0,.8-.1.2-.1.3-.1.1,0,.2,0,.2.2.2.3,0,.3-.2.6-.3.4-.5.6c-.5.5-1.1.7-1.7.7s-1.1-.1-1.6-.4-.8-.7-1.2-1.1-.7-1-1-1.6l-1-1.7c-.8-1.4-1.5-2.2-2-2.6-.3-.2-.4-.4-.3-.4l.3-.2,1.9-1.3c.8-.6,1.4-1.1,1.7-1.4.6-.7.9-1.2.9-1.7s-.3-.5-.9-.5c0-.1-.1-.3-.1-.4s0-.3.2-.4.3-.3.6-.3c.5-.2,1-.3,1.6-.3Z" />
  </g>
  <g style="fill: #fff;">
    <polygon points="187.4 84.6 190.6 87.8 190.6 66.3 184.2 66.3 184.2 87.8 187.4 84.6" />
    <polygon points="187.4 87.6 184.2 90.7 184.2 104.4 190.6 104.4 190.6 90.7 187.4 87.6" />
    <polygon points="174.7 83.1 177.9 80 177.9 66.3 171.5 66.3 171.5 80 174.7 83.1" />
    <polygon points="174.7 86.1 171.5 82.9 171.5 104.4 177.9 104.4 177.9 82.9 174.7 86.1" />
    <polygon points="35 84.6 38.2 87.8 38.2 66.3 31.8 66.3 31.8 87.8 35 84.6" />
    <polygon points="35 87.6 31.8 90.7 31.8 104.4 38.2 104.4 38.2 90.7 35 87.6" />
    <polygon points="22.3 83.1 25.5 80 25.5 66.3 19.1 66.3 19.1 80 22.3 83.1" />
    <polygon points="22.3 86.1 19.1 82.9 19.1 104.4 25.5 104.4 25.5 82.9 22.3 86.1" />
    <path
      d="M168.4,63.4c9.1,0,21.2,0,31.4,0v-6.7c-10.1,0-22.2,0-31.4,0s-18,10.8-25.4,22.4c-7.4-11.7-15.3-22.5-25.4-22.5s-11.1,0-12.7,0c-1.6,0-3.2,0-12.7,0s-18,10.8-25.4,22.5c-7.4-11.7-15.3-22.4-25.4-22.4H10v6.7h31.4c7.3,0,14.5,10.9,21.4,22-7,11.1-14.2,22-21.4,22H10v6.7h31.4c10.1,0,18-10.8,25.4-22.4,7.4,11.7,15.3,22.5,25.4,22.5s11.1,0,12.7,0c1.6,0,3.2,0,12.7,0s18-10.8,25.4-22.5c7.4,11.7,15.3,22.4,25.4,22.4s21.2,0,31.4,0v-6.7c-10.1,0-22.2,0-31.4,0s-14.5-10.9-21.4-22c7-11.1,14.2-22,21.4-22ZM117.6,107.5c-9.5,0-11.1,0-12.7,0-1.6,0-3.2,0-12.7,0s-14.5-10.9-21.5-22.1c7-11.1,14.2-22.1,21.5-22.1s11.1,0,12.7,0c1.6,0,3.2,0,12.7,0s14.5,10.9,21.5,22.1c-7,11.1-14.2,22.1-21.5,22.1Z" />
  </g>
  <circle cx="104.9" cy="85.4" r="14.9" style="fill: #7cb342;" />
  <path
    d="M103.3,92.8c-.7,0-1.3-.2-1.7-.7l-4.1-4.7c-.2-.2-.4-.5-.5-.7s-.1-.5-.1-.7c0-.6.2-1,.6-1.4.4-.4.9-.6,1.4-.6s1.1.2,1.5.7l2.9,3.2,5.8-9c.2-.4.5-.6.8-.8.3-.2.6-.2,1-.2.6,0,1.1.2,1.4.6.4.4.6.8.6,1.4s0,.4,0,.6c0,.2-.2.4-.3.6l-7.4,10.9c-.4.6-1,.9-1.8.9Z"
    style="fill: #fff;" />
</svg>
