<?xml version="1.0" encoding="utf-8"?>
<!-- Generator: Adobe Illustrator 27.9.0, SVG Export Plug-In . SVG Version: 6.00 Build 0)  -->
<svg version="1.1" id="Layer_1" xmlns="http://www.w3.org/2000/svg" xmlns:xlink="http://www.w3.org/1999/xlink" x="0px" y="0px"
	 width="210px" height="140px" viewBox="0 0 210 140" enable-background="new 0 0 210 140" xml:space="preserve">
<g>
	<path fill="#2B3990" d="M14.8,109.1c0-2.9,0.4-5.6,1.3-8.2c0.9-2.5,2.1-4.8,3.7-6.6c1.6-1.9,3.6-3.4,5.9-4.4c2.4-1.1,5-1.6,8-1.6
		c2.3,0,4.4,0.3,6.1,0.9s3.1,1.4,4.3,2.3c1.2,0.9,2.1,1.9,2.9,3c0.7,1.1,1.3,2.1,1.7,3c0.4,0.9,0.7,1.8,0.8,2.5
		c0.1,0.7,0.2,1.1,0.2,1.1h-2.4c-0.3-1.7-0.8-3.2-1.6-4.5c-0.8-1.3-1.8-2.4-3.1-3.4c-1.2-0.9-2.6-1.6-4.1-2.1
		c-1.5-0.5-3.1-0.7-4.7-0.7c-2.6,0-4.9,0.5-6.9,1.5c-2,1-3.8,2.4-5.2,4c-1.4,1.7-2.5,3.7-3.2,5.9c-0.7,2.3-1.1,4.7-1.1,7.3
		c0,2.6,0.4,5,1.1,7.3c0.7,2.3,1.8,4.3,3.2,5.9c1.4,1.7,3.1,3,5.2,4c2,1,4.4,1.5,6.9,1.5c1.9,0,3.7-0.4,5.4-1.2
		c1.7-0.8,3.2-1.9,4.4-3.2c1.3-1.3,2.3-2.8,3-4.6c0.8-1.7,1.2-3.5,1.3-5.4h2.4c-0.2,2.4-0.8,4.6-1.7,6.6c-0.9,2-2.1,3.7-3.6,5.2
		c-1.5,1.5-3.2,2.6-5.1,3.4c-1.9,0.8-4,1.2-6.2,1.2c-3,0-5.6-0.5-8-1.6c-2.4-1.1-4.3-2.6-5.9-4.4c-1.6-1.9-2.8-4.1-3.7-6.6
		C15.3,114.8,14.8,112,14.8,109.1z"/>
	<path fill="#2B3990" d="M57.7,89.2v39.8h-2.1V89.2H57.7z"/>
	<path fill="#2B3990" d="M64.9,95v-5.7H67V95H64.9z M64.9,129.1v-28.7H67v28.7H64.9z"/>
	<path fill="#2B3990" d="M73.7,100.4h2.1v6.1h0.1c0.4-1.1,0.9-2,1.6-2.9c0.7-0.8,1.5-1.6,2.4-2.1c0.9-0.6,1.9-1,3-1.3
		c1.1-0.3,2.2-0.4,3.3-0.4c1.7,0,3.1,0.2,4.2,0.6c1.2,0.4,2.1,0.9,2.9,1.6c0.7,0.7,1.3,1.4,1.7,2.3c0.4,0.8,0.7,1.7,0.9,2.5
		c0.2,0.9,0.3,1.7,0.3,2.5c0,0.8,0.1,1.5,0.1,2.1v17.7h-2.1v-18.1c0-0.7-0.1-1.6-0.2-2.7c-0.1-1.1-0.4-2.1-1-3.1
		c-0.5-1-1.4-1.8-2.4-2.5c-1.1-0.7-2.6-1.1-4.5-1.1c-1.6,0-3.1,0.3-4.3,0.9c-1.3,0.6-2.3,1.4-3.2,2.5c-0.9,1.1-1.6,2.3-2,3.8
		c-0.5,1.5-0.7,3.1-0.7,4.8v15.5h-2.1V100.4z"/>
	<path fill="#2B3990" d="M101.5,109.3c0-2.8,0.4-5.5,1.2-8.1c0.8-2.5,2-4.8,3.6-6.7s3.5-3.5,5.9-4.6c2.3-1.1,5-1.7,8-1.7
		c2,0,4,0.3,5.8,0.9c1.9,0.6,3.5,1.5,5,2.6c1.5,1.2,2.7,2.5,3.7,4.2c1,1.6,1.7,3.5,2,5.6h-2.3c-0.9-3.5-2.6-6.2-5-8.2
		c-2.4-2-5.4-3-9.1-3c-2.7,0-5,0.5-7.1,1.6c-2,1-3.7,2.4-5.1,4.2c-1.4,1.7-2.4,3.8-3.1,6.1c-0.7,2.3-1.1,4.7-1.1,7.2
		c0,2.5,0.3,4.9,1,7.2c0.7,2.3,1.7,4.2,3.1,5.9c1.4,1.7,3,3,5.1,4c2,1,4.4,1.5,7.2,1.5c2.4,0,4.5-0.4,6.4-1.2
		c1.9-0.8,3.5-1.9,4.8-3.3c1.3-1.4,2.3-3.1,3-5.1c0.7-2,0.9-4.2,0.8-6.7h-14.6v-2.1h16.7v19.5h-2.1v-8.5h-0.1
		c-0.5,1.5-1.2,2.8-2.2,3.9c-1,1.2-2.1,2.2-3.4,3c-1.3,0.8-2.8,1.4-4.4,1.9c-1.6,0.4-3.3,0.7-5,0.7c-3,0-5.7-0.5-8-1.6
		c-2.3-1.1-4.3-2.5-5.9-4.4c-1.6-1.9-2.8-4-3.6-6.6C101.9,114.9,101.5,112.2,101.5,109.3z"/>
	<path fill="#2B3990" d="M144.5,115v0.3c0,1.7,0.2,3.3,0.7,4.8c0.4,1.5,1.1,2.9,2,4c0.9,1.2,2,2.1,3.3,2.7c1.3,0.7,2.8,1,4.6,1
		c2.9,0,5.1-0.8,6.8-2.3c1.7-1.5,2.8-3.6,3.5-6.3h2.1c-0.6,3.3-2,5.9-4.1,7.7c-2.1,1.8-4.9,2.7-8.3,2.7c-2.1,0-4-0.4-5.5-1.1
		c-1.6-0.8-2.9-1.8-3.9-3.1c-1.1-1.3-1.8-2.9-2.4-4.7c-0.5-1.8-0.8-3.7-0.8-5.8c0-2,0.3-3.9,0.8-5.8c0.5-1.8,1.3-3.5,2.4-4.9
		c1.1-1.4,2.4-2.5,4-3.3c1.6-0.8,3.5-1.3,5.7-1.3c2,0,3.8,0.4,5.3,1.1s2.8,1.8,3.9,3c1,1.3,1.8,2.8,2.4,4.5c0.5,1.7,0.8,3.5,0.8,5.4
		c0,0.2,0,0.4,0,0.6c0,0.2,0,0.4,0,0.6H144.5z M165.5,113.1c-0.1-1.6-0.3-3-0.8-4.4c-0.4-1.4-1.1-2.6-2-3.7
		c-0.9-1.1-1.9-1.9-3.2-2.5c-1.2-0.6-2.7-0.9-4.3-0.9c-1.7,0-3.2,0.3-4.5,1c-1.3,0.7-2.4,1.5-3.3,2.6c-0.9,1.1-1.6,2.3-2.1,3.7
		c-0.5,1.4-0.8,2.9-0.9,4.4H165.5z"/>
	<path fill="#2B3990" d="M172.5,100.4h2.1v6.1h0.1c0.4-1.1,0.9-2,1.6-2.9c0.7-0.8,1.5-1.6,2.4-2.1c0.9-0.6,1.9-1,3-1.3
		c1.1-0.3,2.2-0.4,3.3-0.4c1.7,0,3.1,0.2,4.2,0.6c1.2,0.4,2.1,0.9,2.9,1.6c0.7,0.7,1.3,1.4,1.8,2.3c0.4,0.8,0.7,1.7,0.9,2.5
		c0.2,0.9,0.3,1.7,0.3,2.5c0,0.8,0.1,1.5,0.1,2.1v17.7H193v-18.1c0-0.7-0.1-1.6-0.2-2.7c-0.1-1.1-0.4-2.1-1-3.1
		c-0.5-1-1.4-1.8-2.4-2.5c-1.1-0.7-2.6-1.1-4.5-1.1c-1.6,0-3.1,0.3-4.3,0.9c-1.3,0.6-2.3,1.4-3.2,2.5c-0.9,1.1-1.6,2.3-2,3.8
		c-0.5,1.5-0.7,3.1-0.7,4.8v15.5h-2.1V100.4z"/>
	<path fill="#215AA6" d="M63.5,10c0.2,0.1,0.4,0.1,0.7,0.1c0.8,0.1,1.3,0.6,1.4,1.4c0.1,0.8-0.6,1.6-1.4,1.6c-0.5,0-1.1,0-1.6-0.1
		c-0.6-0.1-1.1-0.6-1.2-1.2c-0.1-0.7,0.2-1.3,0.8-1.6c0.1,0,0.2,0,0.3-0.1C62.8,10,63.1,10,63.5,10z"/>
	<path fill="#293C93" d="M104.8,44.8c0.6,0,1.2,0.4,1.5,1.1c0.2,0.5,0.4,1,0.5,1.6c0.2,0.9-0.3,1.9-1.2,2.2c-0.9,0.3-1.9-0.1-2.3-1
		c-0.2-0.5-0.4-1.1-0.6-1.7C102.5,45.9,103.4,44.8,104.8,44.8z"/>
	<path fill="#293C93" d="M102,37.6c0.7,0,1.3,0.4,1.6,1c0.2,0.4,0.4,0.9,0.6,1.4c0.3,1-0.1,2-1.1,2.4c-0.9,0.4-2-0.1-2.4-1
		c-0.2-0.4-0.4-0.9-0.5-1.3C99.8,38.7,100.8,37.5,102,37.6z"/>
	<path fill="#293C93" d="M109.4,53.7c0,0.9-0.5,1.6-1.3,1.8c-0.7,0.2-1.6,0-2-0.7c-0.3-0.5-0.6-1-0.8-1.6c-0.4-0.9,0-1.8,0.8-2.3
		c0.8-0.4,1.8-0.2,2.3,0.6c0.3,0.5,0.6,1,0.8,1.6C109.4,53.3,109.4,53.5,109.4,53.7z"/>
	<path fill="#294095" d="M99.5,36.7c-0.4,0-0.9-0.3-1.3-0.8c-0.3-0.4-0.5-0.8-0.7-1.3c-0.4-0.8-0.1-1.9,0.7-2.4
		c0.8-0.5,1.9-0.3,2.4,0.5c0.3,0.4,0.5,0.8,0.8,1.3C101.9,35.2,101.1,36.7,99.5,36.7z"/>
	<path fill="#293C93" d="M110.3,56.2c0.6,0,1.1,0.2,1.4,0.6c0.3,0.4,0.7,0.8,0.9,1.3c0.5,0.8,0.3,1.8-0.4,2.3
		c-0.7,0.5-1.7,0.5-2.3-0.2c-0.4-0.4-0.7-0.9-1-1.3C108.1,57.7,109,56.2,110.3,56.2z"/>
	<path fill="#294297" d="M98,29.5c0,0.8-0.4,1.4-1.1,1.7c-0.7,0.3-1.5,0.1-2-0.5c-0.3-0.4-0.6-0.8-0.9-1.2c-0.5-0.8-0.4-1.8,0.3-2.4
		c0.7-0.6,1.7-0.5,2.4,0.2c0.3,0.4,0.7,0.8,1,1.2C97.9,28.8,98,29.2,98,29.5z"/>
	<path fill="#294095" d="M112.7,62.8c0-0.7,0.3-1.2,0.9-1.5c0.6-0.3,1.2-0.3,1.8,0.1c0.5,0.4,0.9,0.8,1.3,1.4
		c0.5,0.7,0.4,1.6-0.2,2.2c-0.6,0.6-1.5,0.7-2.2,0.2c-0.5-0.4-0.9-0.8-1.3-1.3C112.7,63.6,112.6,63.2,112.7,62.8z"/>
	<path fill="#294598" d="M92.1,26.5c-0.5,0-0.9-0.2-1.2-0.5c-0.3-0.3-0.7-0.6-1-1c-0.6-0.7-0.6-1.7,0-2.4c0.6-0.7,1.7-0.7,2.4-0.1
		c0.4,0.3,0.7,0.6,1,1c0.5,0.5,0.6,1.2,0.3,1.9C93.4,26.1,92.8,26.5,92.1,26.5z"/>
	<path fill="#294297" d="M119.2,65.4c0.2,0,0.6,0.1,0.9,0.3c0.4,0.3,0.8,0.6,1.2,0.9c0.7,0.6,0.8,1.6,0.2,2.3
		c-0.5,0.7-1.5,0.9-2.2,0.4c-0.4-0.3-0.9-0.6-1.3-1c-0.5-0.5-0.7-1.2-0.5-1.9C117.8,65.8,118.4,65.4,119.2,65.4z"/>
	<path fill="#29499A" d="M89,20.6c0,0.6-0.3,1.1-0.9,1.5c-0.6,0.3-1.1,0.3-1.7,0c-0.4-0.3-0.8-0.6-1.2-0.9c-0.7-0.6-0.8-1.5-0.3-2.2
		c0.5-0.7,1.4-0.9,2.2-0.5c0.5,0.3,0.9,0.6,1.3,1C88.8,19.7,89,20.1,89,20.6z"/>
	<path fill="#294297" d="M127.1,71.3c0,1.1-1.1,1.9-2.2,1.5c-0.5-0.2-1-0.5-1.5-0.8c-0.7-0.5-0.9-1.4-0.4-2.2c0.4-0.7,1.3-1,2.1-0.6
		c0.5,0.2,0.9,0.5,1.4,0.8C126.8,70.3,127.1,70.7,127.1,71.3z"/>
	<path fill="#284D9D" d="M82,18.8c-0.2,0-0.5-0.1-0.7-0.2c-0.4-0.2-0.8-0.4-1.2-0.6c-0.6-0.4-0.9-1-0.8-1.6c0.1-0.7,0.6-1.2,1.3-1.4
		c0.3-0.1,0.7,0,1,0.1c0.4,0.2,0.9,0.4,1.3,0.7c0.6,0.4,0.9,1.1,0.7,1.9C83.4,18.3,82.7,18.8,82,18.8z"/>
	<path fill="#294598" d="M130.2,71.9c0.6,0.2,1.4,0.4,2.1,0.9c0.6,0.5,0.7,1.3,0.3,1.9c-0.4,0.6-1.1,0.9-1.8,0.7
		c-0.5-0.2-1-0.3-1.5-0.6c-0.7-0.3-1-1.1-0.8-1.8C128.6,72.3,129.2,71.9,130.2,71.9z"/>
	<path fill="#2551A0" d="M75.2,12.4c0.2,0,0.3,0,0.5,0.1c0.4,0.2,0.8,0.3,1.2,0.5c0.7,0.3,1.1,1,1,1.6c-0.1,0.8-0.6,1.3-1.4,1.4
		c-0.2,0-0.4,0-0.6-0.1c-0.5-0.2-1-0.3-1.4-0.6c-0.6-0.3-0.9-0.8-0.9-1.5c0-0.7,0.4-1.2,1-1.4C74.8,12.4,75,12.4,75.2,12.4z"/>
	<path fill="#29499A" d="M140.3,70.2c0,0.1,0,0.2,0,0.3c-0.1,0.5-0.2,0.9-0.4,1.4c-0.3,0.8-1,1.2-1.8,1c-0.7-0.1-1.3-0.8-1.3-1.6
		c0-0.1,0-0.2,0.1-0.3c0.2-0.5,0.3-0.9,0.5-1.4c0.2-0.6,0.9-1,1.5-1c0.7,0,1.2,0.5,1.4,1.1C140.3,69.9,140.3,70,140.3,70.2z"/>
	<path fill="#294598" d="M70,15.8c0,0.2-0.1,0.5-0.2,0.7c-0.2,0.4-0.4,0.7-0.6,1.1c-0.4,0.8-1.3,1.1-2.1,0.7c-0.7-0.4-1-1.3-0.7-2.1
		c0.2-0.4,0.4-0.8,0.6-1.2c0.3-0.6,1.1-1,1.8-0.8C69.5,14.4,70,15,70,15.8z"/>
	<path fill="#2356A3" d="M67.5,12.3c0-1,0.8-1.7,1.8-1.5c0.4,0.1,0.9,0.2,1.3,0.3c0.8,0.2,1.3,1,1.1,1.8c-0.2,0.8-1,1.3-1.8,1.2
		c-0.4-0.1-0.8-0.2-1.3-0.3C68,13.6,67.5,13,67.5,12.3z"/>
	<path fill="#29499A" d="M143.1,78.2c-0.3,0-0.7,0-1.1-0.1c-0.7-0.1-1.3-0.6-1.3-1.3c-0.1-0.7,0.3-1.3,0.9-1.6
		c0.2-0.1,0.4-0.1,0.6-0.1c0.5,0,1,0.1,1.5,0.1c0.7,0.1,1.2,0.7,1.3,1.4c0,0.7-0.4,1.3-1,1.5C143.7,78.2,143.4,78.2,143.1,78.2z"/>
	<path fill="#294598" d="M123.4,54.6c0.9,0,1.6,0.8,1.4,1.7c-0.1,0.5-0.1,0.9-0.2,1.3c-0.2,0.7-0.8,1.2-1.5,1.2
		c-0.7,0-1.3-0.5-1.5-1.3c0-0.2,0-0.3,0-0.5c0.1-0.5,0.2-1,0.4-1.4C122.2,55,122.8,54.6,123.4,54.6z"/>
	<path fill="#294598" d="M83.8,30c0,0.2-0.1,0.5-0.1,0.7c-0.1,0.3-0.2,0.6-0.3,1c-0.2,0.8-1,1.2-1.7,1c-0.8-0.2-1.2-0.9-1.1-1.7
		c0.1-0.5,0.1-0.9,0.2-1.4c0.2-0.8,0.9-1.2,1.7-1.1C83.3,28.6,83.8,29.2,83.8,30z"/>
	<path fill="#284D9D" d="M149.1,75.3c0.2,0,0.4,0,0.6,0c0.8,0,1.4,0.6,1.4,1.4c0.1,0.7-0.5,1.4-1.3,1.5c-0.4,0-0.9,0.1-1.4,0.1
		c-0.8,0-1.5-0.6-1.5-1.4c0-0.9,0.7-1.5,1.4-1.5C148.6,75.3,148.9,75.3,149.1,75.3z"/>
	<path fill="#284D9D" d="M153.3,76.2c0-0.6,0.3-1.1,0.9-1.3c0.2-0.1,0.3-0.2,0.5-0.3c0.5-0.5,1.1-0.5,1.7-0.1
		c0.1,0.1,0.2,0.2,0.4,0.3c0.5,0.3,0.8,0.9,0.7,1.4c-0.1,0.6-0.5,1-1.1,1.2c-0.5,0.1-1,0.2-1.5,0.3C154,77.7,153.3,77,153.3,76.2z"
		/>
	<path fill="#2362AC" d="M57,13c-0.2,0-0.4,0-0.6,0c-0.8,0-1.4-0.6-1.4-1.4c0-0.7,0.5-1.4,1.3-1.4c0.5,0,0.9-0.1,1.4-0.1
		c0.7,0,1.4,0.5,1.5,1.4c0.1,0.7-0.5,1.4-1.3,1.5C57.6,13,57.3,13,57,13C57,13,57,13,57,13z"/>
	<path fill="#294598" d="M138.7,75.8c0,0.9-0.8,1.6-1.7,1.5c-0.4-0.1-0.8-0.2-1.3-0.3c-0.5-0.1-0.9-0.9-0.9-1.5
		c0.1-0.9,0.6-1.4,1.6-1.6c0.5,0.1,1.1,0.2,1.6,0.5C138.5,74.8,138.7,75.2,138.7,75.8z"/>
	<path fill="#2356A3" d="M65.8,20.1c1,0,1.6,0.9,1.3,1.9c-0.2,0.5-0.4,0.9-0.6,1.4c-0.3,0.6-1.1,0.9-1.7,0.6c-0.7-0.3-1-1-0.8-1.7
		c0.1-0.5,0.3-0.9,0.5-1.4C64.7,20.4,65.2,20.1,65.8,20.1z"/>
	<path fill="#294598" d="M141.8,64.1c-0.1,0.5-0.2,1.2-0.4,1.7c-0.3,0.7-1,1-1.7,0.7c-0.7-0.2-1.1-0.9-0.9-1.6
		c0.1-0.5,0.2-1,0.4-1.4c0.2-0.6,0.9-1,1.5-0.9C141.3,62.8,141.8,63.3,141.8,64.1z"/>
	<path fill="#2362AC" d="M51.4,10.8c0.8,0,1.4,0.5,1.5,1.2c0.1,0.7-0.3,1.4-1,1.5c-0.5,0.1-1,0.2-1.6,0.3c-0.6,0.1-1.2-0.4-1.4-1.1
		c-0.2-0.7,0.2-1.4,0.8-1.6C50.3,10.9,50.9,10.9,51.4,10.8z"/>
	<path fill="#284D9D" d="M159.5,74.7c0-0.5,0.3-0.9,0.8-1.1c0.5-0.2,1-0.4,1.5-0.5c0.6-0.1,1.3,0.2,1.5,0.8c0.2,0.6,0,1.3-0.6,1.6
		c-0.6,0.3-1.1,0.5-1.8,0.6C160.2,76.3,159.5,75.6,159.5,74.7z"/>
	<path fill="#2667AF" d="M42.9,13.9c0-0.4,0.3-0.9,0.8-1.1c0.4-0.2,0.9-0.3,1.4-0.5c0.7-0.2,1.4,0.2,1.6,0.9
		c0.2,0.7-0.1,1.4-0.8,1.7c-0.4,0.2-0.9,0.3-1.3,0.4C43.6,15.6,42.8,14.9,42.9,13.9z"/>
	<path fill="#2551A0" d="M166.8,73.9c-0.6,0-1.1-0.4-1.3-0.9c-0.2-0.6,0-1.2,0.5-1.5c0.5-0.3,1-0.5,1.5-0.7c0.6-0.2,1.3,0.1,1.5,0.6
		c0.3,0.6,0.1,1.3-0.4,1.6c-0.5,0.3-1,0.6-1.5,0.8C167,73.9,166.9,73.9,166.8,73.9z"/>
	<path fill="#216BB3" d="M39.5,14.8c0.6,0,1.1,0.4,1.2,0.9c0.2,0.6,0,1.1-0.5,1.4c-0.4,0.3-0.9,0.5-1.4,0.7c-0.6,0.2-1.3,0-1.6-0.6
		c-0.3-0.6-0.1-1.3,0.4-1.6c0.4-0.3,0.9-0.5,1.4-0.7C39.2,14.8,39.4,14.8,39.5,14.8z"/>
	<path fill="#294598" d="M79.8,37.3c0-0.4,0.1-0.8,0.1-1.2C80,35.5,80.4,35,81,35c0.6-0.1,1.1,0.2,1.4,0.8c0.1,0.2,0.1,0.4,0.1,0.6
		c-0.1,0.5-0.1,1-0.3,1.5c-0.2,0.8-1.1,1.1-1.8,0.7C79.9,38.3,79.7,37.8,79.8,37.3z"/>
	<path fill="#2551A0" d="M174.5,68.7c0,0.3-0.1,0.7-0.4,0.9c-0.4,0.3-0.8,0.6-1.2,0.9c-0.6,0.4-1.3,0.2-1.7-0.3
		c-0.4-0.5-0.3-1.3,0.2-1.7c0.4-0.3,0.8-0.6,1.2-0.9C173.5,67.1,174.5,67.7,174.5,68.7z"/>
	<path fill="#294598" d="M125.7,49.9c0,0.4-0.1,0.9-0.2,1.4c-0.1,0.7-0.7,1.1-1.4,1c-0.6-0.1-1.1-0.6-1.1-1.2c0-0.6,0.1-1.2,0.3-1.7
		c0.2-0.6,0.8-0.9,1.4-0.8C125.3,48.7,125.7,49.2,125.7,49.9z"/>
	<path fill="#2362AC" d="M62.2,28.7c0,0,0-0.1,0-0.2c0.1-0.4,0.2-0.9,0.3-1.3c0.2-0.7,0.9-1.1,1.5-0.9c0.7,0.2,1,0.9,0.8,1.6
		c-0.1,0.4-0.2,0.9-0.4,1.3c-0.2,0.6-0.8,0.9-1.4,0.8C62.6,29.8,62.2,29.3,62.2,28.7z"/>
	<path fill="#1E6FB6" d="M34.1,18.1c0.5,0,0.9,0.3,1.1,0.7c0.2,0.5,0.1,1-0.3,1.4c-0.4,0.4-0.8,0.7-1.3,1c-0.5,0.3-1.2,0.2-1.6-0.3
		c-0.4-0.5-0.3-1.2,0.1-1.6c0.4-0.3,0.8-0.6,1.2-1C33.7,18.2,33.9,18.1,34.1,18.1z"/>
	<path fill="#294297" d="M143,57.9c-0.1,0.5-0.1,1-0.3,1.5c-0.2,0.6-0.8,1-1.5,0.8c-0.6-0.1-1-0.8-0.9-1.4c0.1-0.4,0.2-0.9,0.3-1.3
		c0.2-0.6,0.7-1,1.3-0.9C142.6,56.7,143,57.2,143,57.9z"/>
	<path fill="#2356A3" d="M179.1,64.3c0,0.3-0.1,0.6-0.3,0.8c-0.3,0.4-0.6,0.7-0.9,1c-0.5,0.5-1.2,0.5-1.6,0
		c-0.5-0.4-0.5-1.1-0.1-1.7c0.3-0.4,0.7-0.7,1-1.1c0.4-0.3,0.8-0.4,1.2-0.2C178.8,63.4,179.1,63.8,179.1,64.3z"/>
	<path fill="#1A72B8" d="M30.6,23.6c0,0.2-0.1,0.5-0.3,0.7c-0.3,0.3-0.5,0.6-0.8,0.9c-0.5,0.5-1.2,0.5-1.6,0.1
		c-0.5-0.4-0.5-1.1-0.1-1.7c0.3-0.3,0.6-0.7,0.9-1c0.3-0.3,0.9-0.4,1.3-0.2C30.3,22.7,30.6,23.1,30.6,23.6z"/>
	<path fill="#294598" d="M157.2,71.9c-0.7,0-1.3-0.7-1.1-1.4c0.1-0.5,0.3-0.9,0.4-1.4c0.2-0.6,0.8-0.9,1.4-0.7
		c0.6,0.2,0.9,0.8,0.8,1.4c-0.1,0.4-0.2,0.9-0.3,1.3C158.2,71.5,157.7,71.9,157.2,71.9z"/>
	<path fill="#2356A3" d="M181,61.5c-0.8,0-1.4-0.8-1.1-1.5c0.2-0.6,0.6-1.1,0.9-1.5c0.3-0.4,0.9-0.5,1.4-0.2
		c0.5,0.3,0.7,0.9,0.5,1.4c-0.2,0.5-0.5,1-0.9,1.5C181.6,61.3,181.3,61.4,181,61.5z"/>
	<path fill="#1A72B8" d="M48.8,21.3c0,0,0,0.2,0,0.2c-0.1,0.4-0.3,0.9-0.5,1.3c-0.2,0.5-0.7,0.7-1.2,0.7c-0.5-0.1-0.9-0.4-0.9-1
		c0-0.1,0-0.3,0-0.4c0.1-0.5,0.3-0.9,0.4-1.4c0.2-0.5,0.6-0.7,1.1-0.7c0.5,0,0.9,0.3,1,0.7C48.8,21,48.8,21.1,48.8,21.3z"/>
	<path fill="#29499A" d="M84.6,22.2c-1-0.4-2,0.3-2.2,1.1c-0.1,0.4-0.2,0.8-0.3,1.2c-0.2,0.7,0,1.3,0.4,1.8c0.2,0.2,0.4,0.3,0.6,0.4
		c0.7,0.3,1.7,0,2.1-0.9c0.2-0.5,0.4-1,0.5-1.5C86,23.3,85.4,22.4,84.6,22.2z"/>
	<path fill="#29499A" d="M174.6,63.2c0,0.1,0,0.1,0,0.2c-0.1,0.5-0.2,0.9-0.4,1.4c-0.2,0.5-0.7,0.8-1.2,0.8c-0.5,0-1-0.4-1-1
		c0-0.2,0-0.3,0-0.5c0.1-0.4,0.3-0.9,0.4-1.3c0.2-0.5,0.7-0.8,1.1-0.7c0.5,0.1,0.9,0.5,1,1C174.6,63.1,174.6,63.1,174.6,63.2z"/>
	<path fill="#1576BB" d="M25,30.9c-0.8,0-1.3-0.8-1-1.5c0.2-0.5,0.5-0.9,0.7-1.3c0.3-0.5,1-0.6,1.4-0.3c0.5,0.3,0.7,0.9,0.5,1.4
		c-0.2,0.5-0.5,0.9-0.8,1.3C25.7,30.7,25.4,30.9,25,30.9z"/>
	<path fill="#216BB3" d="M49.7,17.7c-1.1,0-1.7-0.8-1.4-1.6c0.1-0.3,0.2-0.5,0.3-0.7c0.3-0.6,1-0.8,1.6-0.6c0.6,0.3,0.9,0.9,0.7,1.5
		c-0.1,0.3-0.2,0.6-0.4,0.8C50.3,17.5,49.9,17.7,49.7,17.7z"/>
	<g>
		<path fill="#29499A" d="M122,60.6c-0.7-0.1-1.4,0.3-1.7,1c-0.2,0.5-0.4,1-0.5,1.5c-0.3,1,0.3,2,1.2,2.2c0.9,0.3,1.8-0.2,2.1-1.1
			c0.2-0.5,0.3-0.9,0.4-1.4C123.7,61.6,123,60.7,122,60.6z"/>
	</g>
	<path fill="#216BB3" d="M63.3,33.8c-0.1,0.5-0.2,1-0.3,1.6c-0.2,0.5-0.7,0.7-1.2,0.6c-0.5-0.1-0.9-0.6-0.8-1.1c0-0.5,0.1-1,0.2-1.5
		c0.1-0.6,0.6-0.9,1.2-0.8C63,32.7,63.3,33.2,63.3,33.8z"/>
	<path fill="#1576BB" d="M23,33.3c0.7,0,1.2,0.6,1,1.3c-0.1,0.5-0.3,0.9-0.4,1.4c-0.2,0.5-0.8,0.8-1.3,0.6c-0.5-0.2-0.8-0.7-0.7-1.3
		c0.1-0.4,0.2-0.9,0.4-1.3C22.1,33.6,22.5,33.3,23,33.3z"/>
	<path fill="#216BB3" d="M34.6,23.3c-0.2,0.5-0.3,1.2-0.7,1.8c-0.3,0.4-0.8,0.5-1.2,0.3c-0.4-0.2-0.7-0.6-0.6-1.1
		c0.1-0.6,0.3-1.1,0.5-1.6c0.2-0.4,0.7-0.6,1.2-0.5C34.2,22.2,34.6,22.6,34.6,23.3z"/>
	<path fill="#294598" d="M143.8,51.6c0,0.4-0.1,0.9-0.1,1.4c-0.1,0.6-0.6,1-1.2,0.9c-0.6-0.1-1-0.6-0.9-1.2c0.1-0.4,0.1-0.9,0.2-1.3
		c0.1-0.6,0.6-0.9,1.1-0.9C143.4,50.5,143.8,51,143.8,51.6z"/>
	<path fill="#215AA6" d="M186.5,47.4c0,0.3-0.1,0.8-0.2,1.2c-0.1,0.6-0.6,0.9-1.1,0.8c-0.5,0-0.9-0.5-0.9-1c0-0.5,0.1-0.9,0.2-1.4
		c0.1-0.6,0.6-1,1.2-0.9C186.2,46.2,186.5,46.7,186.5,47.4z"/>
	<path fill="#294297" d="M160,63.3c-0.1,0.5-0.1,1-0.3,1.6c-0.2,0.5-0.7,0.8-1.2,0.6c-0.5-0.1-0.9-0.6-0.8-1.1
		c0.1-0.5,0.2-0.9,0.3-1.4c0.1-0.5,0.6-0.8,1.1-0.7C159.7,62.4,160,62.8,160,63.3z"/>
	<path fill="#284D9D" d="M126,44.1c0,0.2,0,0.5,0,0.7c-0.1,0.6-0.5,1-1.1,0.9c-0.5,0-1-0.5-0.9-1.1c0-0.5,0.1-0.9,0.2-1.4
		c0.1-0.5,0.5-0.9,1-0.8c0.5,0,0.9,0.4,0.9,1C126.1,43.7,126.1,43.9,126,44.1C126.1,44.1,126.1,44.1,126,44.1z"/>
	<path fill="#1576BB" d="M22.6,40.8c0,0.4-0.1,0.8-0.1,1.2c-0.1,0.5-0.4,0.8-0.9,0.9c-0.5,0-0.9-0.2-1.1-0.7c0-0.1-0.1-0.3,0-0.4
		c0.1-0.3,0.1-0.7,0.1-1c0-0.1,0-0.2,0-0.3c0.1-0.5,0.5-0.9,1.1-0.8c0.5,0.1,0.9,0.5,0.9,1C22.6,40.7,22.6,40.7,22.6,40.8z"/>
	<path fill="#29499A" d="M81.5,42.7c0,0.4-0.1,0.8-0.2,1.3c-0.1,0.5-0.5,0.8-1,0.8c-0.5,0-0.9-0.4-0.9-0.9c0-0.5,0-1,0-1.6
		c0.1-0.6,0.6-0.9,1.1-0.9C81.1,41.6,81.5,42.1,81.5,42.7z"/>
	<path fill="#1A72B8" d="M47,27.4c-0.1,0.5-0.2,1.1-0.4,1.6c-0.2,0.4-0.6,0.6-1.1,0.5c-0.4-0.1-0.8-0.5-0.7-0.9
		c0-0.6,0.1-1.1,0.3-1.6c0.1-0.5,0.6-0.7,1.1-0.6C46.6,26.4,47,26.9,47,27.4z"/>
	<path fill="#2356A3" d="M182.7,54.6c0-0.1,0-0.3,0.1-0.5c0.1-0.2,0.2-0.5,0.3-0.7c0.2-0.4,0.6-0.7,1-0.7c0.5,0,0.8,0.3,1,0.7
		c0.1,0.2,0.1,0.4,0,0.7c-0.1,0.3-0.2,0.7-0.3,1c-0.2,0.4-0.6,0.7-1,0.6c-0.4,0-0.8-0.3-1-0.8C182.7,54.9,182.7,54.7,182.7,54.6z"/>
	<path fill="#215AA6" d="M186.5,41.8c0,0.1,0,0.2,0,0.3c0.1,0.6-0.5,1-0.9,1c-0.5,0-0.9-0.3-1-0.9c0-0.2,0-0.4-0.1-0.6
		c0-0.2,0-0.5,0-0.7c0-0.6,0.4-1,0.9-1c0.5,0,1,0.3,1,0.9C186.4,41.1,186.5,41.5,186.5,41.8z"/>
	<path fill="#1576BB" d="M22.6,48.1c0,0.6-0.4,1-0.9,1.1c-0.5,0-0.9-0.3-1-0.9c-0.1-0.4-0.1-0.8-0.1-1.2c-0.1-0.5,0.3-1,0.8-1.1
		c0.5-0.1,1,0.3,1.1,0.8C22.5,47.2,22.5,47.7,22.6,48.1z"/>
	<path fill="#294598" d="M176,57.1c-0.1,0.4-0.2,0.9-0.3,1.4c-0.1,0.5-0.6,0.7-1.1,0.6c-0.5-0.1-0.8-0.5-0.8-1
		c0.1-0.5,0.2-1.1,0.4-1.6c0.2-0.4,0.6-0.6,1.1-0.5C175.7,56.2,176,56.6,176,57.1z"/>
	<path fill="#215AA6" d="M183.2,34.7c0-0.5,0.3-0.9,0.6-1c0.4-0.1,0.9,0.1,1,0.5c0.2,0.5,0.4,1,0.5,1.6c0.1,0.4-0.2,0.8-0.6,1
		c-0.4,0.2-0.9,0-1.1-0.4C183.5,35.8,183.3,35.2,183.2,34.7z"/>
	<path fill="#1A72B8" d="M32.5,29.2c0,0.1,0,0.2-0.1,0.3c-0.1,0.4-0.2,0.7-0.3,1.1c-0.2,0.5-0.6,0.8-1.1,0.7
		c-0.5-0.1-0.7-0.6-0.6-1.1c0.1-0.4,0.2-0.9,0.3-1.3c0.1-0.4,0.6-0.7,1-0.6C32.1,28.4,32.4,28.7,32.5,29.2z"/>
	<path fill="#1576BB" d="M23.1,55.3c-0.3,0-0.6-0.2-0.8-0.6c-0.2-0.4-0.3-0.9-0.5-1.3c-0.1-0.4,0.1-0.9,0.6-1.1
		c0.4-0.2,0.9,0,1.1,0.5c0.2,0.5,0.3,0.9,0.5,1.4C24.1,54.8,23.7,55.3,23.1,55.3z"/>
	<path fill="#294297" d="M160.9,57.2c0,0.4-0.1,0.8-0.1,1.2c-0.1,0.5-0.5,0.8-1,0.8c-0.5-0.1-0.8-0.5-0.8-1c0.1-0.4,0.1-0.8,0.2-1.2
		c0.1-0.5,0.5-0.8,1-0.8C160.6,56.2,160.9,56.6,160.9,57.2z"/>
	<path fill="#1E6FB6" d="M60.5,40.6c0-0.2,0-0.4,0-0.6c0-0.5,0.5-0.9,1-0.9c0.5,0,0.9,0.4,0.9,1c0,0.4-0.1,0.9-0.1,1.3
		c-0.1,0.5-0.5,0.8-0.9,0.8c-0.5,0-0.8-0.4-0.8-0.9C60.4,41.1,60.5,40.9,60.5,40.6C60.5,40.6,60.5,40.6,60.5,40.6z"/>
	<path fill="#2362AC" d="M181.5,28c0.3,0,0.5,0.1,0.7,0.4c0.3,0.4,0.5,0.8,0.7,1.3c0.2,0.4,0,0.9-0.3,1.1c-0.4,0.2-0.9,0.1-1.1-0.3
		c-0.3-0.4-0.5-0.8-0.7-1.3C180.5,28.6,180.9,28,181.5,28z"/>
	<path fill="#29499A" d="M144.2,45.6c0,0.3,0,0.6-0.1,0.8c-0.1,0.5-0.5,0.9-1,0.8c-0.5-0.1-0.8-0.5-0.8-1c0-0.4,0.1-0.9,0.1-1.3
		c0.1-0.5,0.4-0.8,0.9-0.7c0.4,0,0.8,0.4,0.8,0.8C144.2,45.3,144.2,45.5,144.2,45.6z"/>
	<path fill="#1A72B8" d="M45.9,33.7c-0.1,0.5-0.1,0.9-0.2,1.3c-0.1,0.5-0.5,0.8-0.9,0.7c-0.5,0-0.8-0.4-0.7-0.9c0-0.4,0-0.8,0.1-1.1
		c0.1-0.6,0.4-0.9,0.9-0.9C45.5,32.8,45.9,33.2,45.9,33.7z"/>
	<path fill="#1576BB" d="M25.3,58.2c0.2,0,0.5,0.1,0.6,0.4c0.2,0.4,0.5,0.8,0.7,1.2c0.2,0.4,0.1,0.9-0.3,1.1
		C26,61,25.5,61,25.2,60.6c-0.3-0.4-0.5-0.8-0.7-1.2C24.2,58.8,24.6,58.2,25.3,58.2z"/>
	<path fill="#2362AC" d="M179.4,24.7c0,0.3-0.2,0.6-0.4,0.7c-0.3,0.1-0.6,0.1-0.8-0.1c-0.4-0.4-0.7-0.8-1-1.2
		c-0.2-0.3-0.1-0.7,0.1-1c0.3-0.2,0.7-0.3,1,0c0.4,0.4,0.8,0.8,1.1,1.2C179.4,24.4,179.4,24.6,179.4,24.7z"/>
	<path fill="#1A72B8" d="M29,63.4c0.2,0,0.3,0.1,0.5,0.2c0.3,0.3,0.6,0.6,0.9,1c0.3,0.4,0.3,0.8-0.1,1.1c-0.3,0.3-0.8,0.3-1.1,0
		c-0.3-0.3-0.6-0.6-0.9-1c-0.2-0.3-0.2-0.6-0.1-0.9C28.3,63.5,28.6,63.4,29,63.4z"/>
	<path fill="#294598" d="M176.8,51c0,0.3-0.1,0.7-0.1,1c-0.1,0.5-0.4,0.8-0.9,0.8c-0.5-0.1-0.8-0.5-0.7-1c0.1-0.4,0.1-0.8,0.2-1.2
		c0.1-0.5,0.4-0.8,0.9-0.7c0.4,0.1,0.6,0.4,0.6,0.9C176.8,50.9,176.8,50.9,176.8,51C176.8,51,176.8,51,176.8,51z"/>
	<path fill="#294598" d="M161.4,51.2c0,0.3,0,0.5-0.1,0.8c-0.1,0.5-0.4,0.7-0.9,0.7c-0.4,0-0.7-0.4-0.7-0.8c0-0.5,0.1-0.9,0.1-1.4
		c0.1-0.4,0.4-0.7,0.8-0.7c0.4,0,0.7,0.4,0.7,0.8C161.4,50.9,161.4,51,161.4,51.2C161.4,51.2,161.4,51.2,161.4,51.2z"/>
	<path fill="#2551A0" d="M126.1,37.9c0,0.1,0,0.3,0,0.5c0,0.4-0.3,0.8-0.8,0.8c-0.4,0-0.8-0.3-0.8-0.8c0-0.5,0-0.9,0.1-1.4
		c0-0.4,0.4-0.6,0.7-0.6c0.4,0,0.7,0.3,0.7,0.6C126,37.3,126,37.5,126.1,37.9z"/>
	<path fill="#2551A0" d="M79.4,49.6c0-0.2,0-0.4,0-0.6c0-0.5,0.3-0.8,0.8-0.9c0.5,0,0.8,0.3,0.8,0.8c0,0.4,0,0.8-0.1,1.2
		c0,0.5-0.3,0.7-0.8,0.7c-0.4,0-0.7-0.3-0.7-0.8C79.4,50,79.4,49.8,79.4,49.6C79.4,49.6,79.4,49.6,79.4,49.6z"/>
	<path fill="#2362AC" d="M173.1,18.8c0.1,0,0.2,0,0.3,0.1c0.4,0.3,0.8,0.6,1.2,0.9c0.2,0.2,0.3,0.5,0.2,0.7
		c-0.1,0.3-0.3,0.5-0.6,0.5c-0.2,0-0.4,0-0.5-0.1c-0.4-0.3-0.8-0.6-1.1-0.9c-0.2-0.2-0.3-0.5-0.2-0.8
		C172.5,18.9,172.8,18.7,173.1,18.8z"/>
	<path fill="#1A72B8" d="M29.4,36.7c0.1-0.5,0.1-0.9,0.1-1.3c0.1-0.5,0.5-0.8,0.9-0.7c0.4,0.1,0.7,0.5,0.6,0.9
		c-0.1,0.4-0.1,0.7-0.2,1.1c-0.1,0.5-0.4,0.8-0.8,0.7C29.7,37.4,29.3,37.1,29.4,36.7z"/>
	<path fill="#1E6FB6" d="M33.5,67.7c0.1,0,0.3,0,0.4,0.1c0.4,0.3,0.8,0.6,1.2,0.9c0.3,0.2,0.3,0.6,0.1,0.9c-0.2,0.3-0.6,0.4-0.9,0.2
		c-0.4-0.3-0.8-0.5-1.2-0.8c-0.4-0.3-0.3-0.9,0.1-1.2C33.3,67.8,33.4,67.7,33.5,67.7z"/>
	<path fill="#1E6FB6" d="M61.9,47c0,0.2,0,0.4,0,0.6c0,0.4-0.3,0.7-0.7,0.7c-0.4,0-0.7-0.3-0.7-0.7c0-0.4-0.1-0.8-0.1-1.2
		c0-0.4,0.3-0.8,0.7-0.8c0.4,0,0.8,0.3,0.8,0.7C61.9,46.6,61.9,46.8,61.9,47L61.9,47z"/>
	<path fill="#1E6FB6" d="M45.3,40.6c0,0.2,0,0.4,0,0.6c0,0.4-0.3,0.7-0.7,0.7c-0.4,0-0.7-0.3-0.7-0.7c0-0.4,0-0.8,0-1.3
		c0-0.4,0.3-0.8,0.7-0.8c0.4,0,0.7,0.3,0.7,0.8C45.3,40.2,45.3,40.4,45.3,40.6C45.3,40.6,45.3,40.6,45.3,40.6z"/>
	<path fill="#2362AC" d="M167.7,15.5c0,0,0.1,0,0.2,0c0.5,0.2,0.9,0.4,1.4,0.7c0.2,0.2,0.3,0.4,0.2,0.7c-0.1,0.3-0.2,0.5-0.5,0.5
		c-0.1,0-0.2,0-0.4,0c-0.5-0.2-0.9-0.4-1.4-0.7c-0.3-0.2-0.3-0.5-0.2-0.8C167.1,15.7,167.4,15.5,167.7,15.5z"/>
	<path fill="#216BB3" d="M40.7,72.5c0,0.5-0.4,0.8-0.9,0.6c-0.5-0.2-0.9-0.4-1.3-0.6c-0.3-0.2-0.4-0.5-0.2-0.9
		c0.1-0.3,0.5-0.5,0.8-0.4c0.5,0.2,0.9,0.4,1.3,0.7C40.6,72,40.7,72.2,40.7,72.5z"/>
	<path fill="#284D9D" d="M142.8,39.4c0-0.2,0-0.4,0-0.6c0-0.4,0.3-0.7,0.7-0.7c0.4,0,0.7,0.3,0.7,0.7c0,0.4,0,0.9,0,1.3
		c0,0.3-0.2,0.6-0.5,0.7c-0.3,0.1-0.6,0-0.7-0.3c-0.1-0.1-0.1-0.3-0.1-0.4C142.8,39.8,142.8,39.6,142.8,39.4
		C142.8,39.4,142.8,39.4,142.8,39.4z"/>
	<path fill="#2667AF" d="M162,13.1c0.4,0.1,0.9,0.3,1.4,0.5c0.3,0.1,0.4,0.5,0.3,0.8c-0.1,0.3-0.4,0.4-0.6,0.4c-0.1,0-0.1,0-0.2,0
		c-0.4-0.1-0.8-0.3-1.2-0.4c-0.3-0.1-0.5-0.4-0.4-0.7C161.3,13.3,161.5,13.1,162,13.1z"/>
	<path fill="#29499A" d="M161.5,44.9c0,0.2,0,0.4,0,0.6c0,0.4-0.3,0.7-0.7,0.6c-0.4,0-0.6-0.3-0.6-0.7c0-0.4,0-0.8,0-1.3
		c0-0.4,0.3-0.6,0.6-0.6c0.3,0,0.6,0.2,0.6,0.6C161.5,44.5,161.5,44.7,161.5,44.9C161.5,44.9,161.5,44.9,161.5,44.9z"/>
	<path fill="#2667AF" d="M46.5,74.7c0,0.5-0.3,0.8-0.7,0.7c-0.5-0.1-0.9-0.2-1.4-0.4c-0.3-0.1-0.4-0.4-0.3-0.7
		c0.1-0.3,0.3-0.5,0.6-0.5c0.1,0,0.2,0,0.3,0c0.4,0.1,0.7,0.2,1.1,0.4C46.3,74.2,46.5,74.4,46.5,74.7z"/>
	<path fill="#1E6FB6" d="M30.4,42.4c0,0.2,0,0.4,0,0.6c0,0.3-0.3,0.6-0.6,0.6c-0.3,0-0.6-0.2-0.6-0.6c0-0.4,0-0.8,0-1.2
		c0-0.4,0.3-0.7,0.6-0.7c0.3,0,0.6,0.3,0.6,0.7C30.4,42.1,30.4,42.2,30.4,42.4C30.4,42.4,30.4,42.4,30.4,42.4z"/>
	<path fill="#2667AF" d="M155.8,11.6c0.4,0.1,0.9,0.1,1.3,0.2c0.3,0.1,0.5,0.4,0.4,0.7c-0.1,0.3-0.3,0.5-0.6,0.5
		c-0.4-0.1-0.9-0.2-1.3-0.3c-0.3-0.1-0.5-0.4-0.4-0.7C155.2,11.8,155.4,11.6,155.8,11.6z"/>
	<path fill="#29499A" d="M177,45c0,0.2,0,0.4,0,0.6c0,0.4-0.3,0.6-0.6,0.6c-0.3,0-0.6-0.3-0.6-0.6c0-0.4,0-0.9,0.1-1.3
		c0-0.3,0.3-0.5,0.6-0.5c0.3,0,0.5,0.2,0.6,0.5C177,44.5,177,44.8,177,45C177,45,177,45,177,45z"/>
	<path fill="#2667AF" d="M51.9,76.7c-0.4-0.1-0.8-0.1-1.3-0.2c-0.3-0.1-0.5-0.4-0.4-0.7c0.1-0.3,0.3-0.5,0.6-0.5
		c0.5,0.1,0.9,0.1,1.4,0.3c0.3,0.1,0.4,0.4,0.4,0.6C52.5,76.6,52.3,76.8,51.9,76.7z"/>
	<path fill="#216BB3" d="M45.4,47c0,0.2,0,0.4,0,0.5c0,0.4-0.2,0.6-0.5,0.6c-0.3,0-0.6-0.2-0.6-0.5c0-0.4-0.1-0.8-0.1-1.2
		c0-0.4,0.2-0.7,0.5-0.7c0.3,0,0.6,0.2,0.6,0.6C45.4,46.6,45.4,46.8,45.4,47C45.4,47,45.4,47,45.4,47z"/>
	<path fill="#1E6FB6" d="M62.2,53.6c0,0.1,0,0.3,0,0.4c0,0.3-0.2,0.5-0.5,0.6c-0.3,0-0.6-0.1-0.6-0.4c-0.1-0.4-0.1-0.9-0.2-1.3
		c0-0.3,0.2-0.6,0.5-0.6c0.3,0,0.5,0.2,0.6,0.5C62.1,53,62.2,53.3,62.2,53.6C62.2,53.6,62.2,53.6,62.2,53.6z"/>
	<path fill="#2667AF" d="M149.9,11c0.3,0,0.6,0,0.8,0.1c0.3,0,0.5,0.3,0.5,0.6c0,0.3-0.2,0.5-0.6,0.5c-0.4,0-0.9,0-1.3-0.1
		c-0.3,0-0.5-0.3-0.5-0.6c0-0.3,0.2-0.5,0.6-0.5C149.7,11,149.8,11,149.9,11z"/>
	<path fill="#2362AC" d="M57.7,77.3c-0.2,0-0.4,0-0.6,0c-0.3,0-0.6-0.3-0.5-0.6c0-0.3,0.2-0.5,0.6-0.5c0.4,0,0.8,0,1.2,0.1
		c0.3,0,0.5,0.2,0.5,0.5c0,0.3-0.2,0.5-0.5,0.5C58.1,77.3,57.9,77.3,57.7,77.3C57.7,77.3,57.7,77.3,57.7,77.3z"/>
	<path fill="#215AA6" d="M80.8,55.9c0,0.2,0,0.4,0,0.6c0,0.3-0.2,0.5-0.4,0.5c-0.3,0-0.5-0.1-0.5-0.5c-0.1-0.4-0.1-0.8-0.1-1.2
		c0-0.3,0.2-0.6,0.5-0.6c0.3,0,0.5,0.2,0.5,0.6C80.8,55.5,80.8,55.7,80.8,55.9C80.8,55.9,80.8,55.9,80.8,55.9z"/>
	<path fill="#2551A0" d="M142.7,33c0-0.2,0-0.4,0-0.6c0-0.3,0.2-0.5,0.5-0.6c0.3,0,0.5,0.1,0.5,0.5c0.1,0.4,0.1,0.8,0.1,1.2
		c0,0.3-0.2,0.6-0.5,0.6c-0.3,0-0.5-0.2-0.6-0.5C142.8,33.5,142.8,33.3,142.7,33C142.7,33,142.7,33,142.7,33z"/>
	<path fill="#284D9D" d="M161.3,39c0,0.1,0,0.1,0,0.2c0,0.3-0.2,0.5-0.5,0.5c-0.3,0-0.5-0.2-0.5-0.5c0-0.4,0-0.8,0-1.2
		c0-0.3,0.2-0.6,0.5-0.6c0.3,0,0.5,0.2,0.5,0.6C161.3,38.3,161.3,38.7,161.3,39C161.3,39,161.3,39,161.3,39z"/>
	<path fill="#215AA6" d="M124.6,31.3c0-0.2,0-0.4,0-0.6c0-0.3,0.2-0.5,0.4-0.5c0.3,0,0.5,0.1,0.5,0.4c0.1,0.5,0.1,0.9,0.1,1.4
		c0,0.3-0.2,0.5-0.5,0.5c-0.3,0-0.5-0.2-0.6-0.5C124.6,31.8,124.6,31.6,124.6,31.3C124.6,31.3,124.6,31.3,124.6,31.3z"/>
	<path fill="#216BB3" d="M143.7,12c-0.2,0-0.4,0-0.6,0c-0.3,0-0.4-0.2-0.4-0.4c0-0.3,0.1-0.5,0.4-0.5c0.5-0.1,1-0.1,1.5-0.1
		c0.2,0,0.4,0.2,0.4,0.4c0,0.2-0.1,0.4-0.4,0.5C144.3,12,144,11.9,143.7,12z"/>
	<path fill="#215AA6" d="M64,76.2c0.2,0,0.4,0,0.6,0c0.3,0,0.5,0.2,0.5,0.4c0,0.3-0.1,0.5-0.4,0.5c-0.4,0-0.9,0.1-1.3,0.1
		c-0.3,0-0.5-0.2-0.5-0.5c0-0.3,0.2-0.5,0.5-0.5c0,0,0.1,0,0.1,0C63.6,76.3,63.8,76.2,64,76.2C64,76.2,64,76.2,64,76.2z"/>
	<path fill="#2667AF" d="M29.7,48.2c0-0.3,0.2-0.5,0.4-0.5c0.2,0,0.4,0.1,0.5,0.4c0.1,0.4,0.1,0.8,0.1,1.2c0,0.3-0.1,0.5-0.4,0.5
		c-0.2,0-0.4-0.1-0.5-0.4C29.8,49,29.8,48.6,29.7,48.2z"/>
	<path fill="#216BB3" d="M137,12.5c-0.3,0-0.5-0.2-0.5-0.4c0-0.2,0.1-0.4,0.4-0.5c0.4-0.1,0.9-0.1,1.3-0.2c0.3,0,0.4,0.1,0.5,0.4
		c0,0.2-0.1,0.5-0.4,0.5C137.8,12.4,137.4,12.5,137,12.5z"/>
	<path fill="#2667AF" d="M46,53.8c0,0.4-0.1,0.6-0.4,0.6c-0.2,0-0.4-0.1-0.5-0.4c-0.1-0.4-0.1-0.8-0.2-1.2c0-0.3,0.1-0.5,0.4-0.5
		c0.2,0,0.5,0.1,0.5,0.4C45.9,53,45.9,53.5,46,53.8z"/>
	<path fill="#2356A3" d="M69.7,76.4c-0.2,0-0.4-0.1-0.5-0.3c0-0.2,0.1-0.4,0.3-0.5c0.4-0.1,0.9-0.2,1.3-0.2c0.2,0,0.4,0.1,0.5,0.3
		c0,0.2-0.1,0.4-0.3,0.5c-0.1,0-0.2,0-0.3,0.1C70.4,76.3,70,76.4,69.7,76.4z"/>
	<path fill="#2551A0" d="M175.7,38.5c0-0.2,0-0.3,0-0.5c0-0.2,0.1-0.4,0.4-0.4c0.2,0,0.4,0.1,0.4,0.3c0.1,0.4,0.1,0.9,0.2,1.3
		c0,0.3-0.1,0.4-0.4,0.5c-0.2,0-0.4-0.1-0.5-0.4C175.8,39,175.7,38.7,175.7,38.5C175.7,38.5,175.7,38.5,175.7,38.5z"/>
	<path fill="#2356A3" d="M160,31.9c0-0.1,0-0.3,0-0.4c0-0.2,0.1-0.3,0.3-0.4c0.2,0,0.4,0.1,0.4,0.3c0,0.1,0,0.3,0.1,0.5
		c0,0.3,0.1,0.6,0.1,0.8c0,0.3-0.1,0.4-0.3,0.5c-0.2,0-0.4-0.1-0.5-0.4C160,32.5,160,32.2,160,31.9C160,31.9,160,31.9,160,31.9z"/>
	<path fill="#2667AF" d="M63,60.2c0,0.2-0.1,0.4-0.3,0.4c-0.2,0-0.4-0.1-0.4-0.3c-0.1-0.4-0.2-0.8-0.3-1.3c0-0.2,0.1-0.4,0.3-0.5
		c0.2,0,0.4,0.1,0.5,0.3C62.9,59.4,62.9,59.8,63,60.2z"/>
	<path fill="#216BB3" d="M130.7,13.8c-0.2,0-0.3-0.1-0.4-0.3c0-0.2,0-0.3,0.2-0.4c0,0,0.1,0,0.1-0.1c0.4-0.1,0.7-0.2,1.1-0.3
		c0.3-0.1,0.4,0.1,0.5,0.3c0.1,0.2,0,0.4-0.3,0.5c-0.4,0.1-0.8,0.2-1.1,0.3C130.8,13.8,130.8,13.8,130.7,13.8z"/>
	<path fill="#2551A0" d="M75.8,74.8c-0.3,0-0.4-0.1-0.5-0.3c-0.1-0.2,0-0.4,0.2-0.4c0.3-0.1,0.5-0.2,0.8-0.3
		c0.2-0.1,0.3-0.2,0.5-0.2c0.2,0,0.3,0.1,0.4,0.2c0.1,0.2,0,0.4-0.1,0.4C76.7,74.4,76.2,74.6,75.8,74.8z"/>
	<path fill="#2362AC" d="M142.2,26.2c0,0,0-0.1,0-0.1c0-0.2,0.1-0.3,0.3-0.3c0.2,0,0.3,0.1,0.3,0.2c0.1,0.4,0.2,0.9,0.2,1.3
		c0,0.2-0.1,0.3-0.3,0.4c-0.2,0-0.4-0.1-0.4-0.4C142.3,27,142.3,26.6,142.2,26.2z"/>
	<path fill="#1E6FB6" d="M124.8,15.9c-0.1,0-0.2-0.1-0.3-0.2c0-0.1,0-0.2,0.1-0.3c0,0,0.1-0.1,0.1-0.1c0.4-0.2,0.7-0.3,1.1-0.5
		c0,0,0.1,0,0.1,0c0.2,0,0.3,0,0.4,0.2c0.1,0.2,0,0.3-0.1,0.4C125.7,15.6,125.3,15.8,124.8,15.9C124.9,15.9,124.8,15.9,124.8,15.9z"
		/>
	<path fill="#284D9D" d="M82.9,71.3c0,0.1-0.1,0.2-0.2,0.3c-0.3,0.2-0.7,0.4-1.1,0.6c-0.2,0.1-0.4,0-0.5-0.1c-0.1-0.2,0-0.3,0.1-0.5
		c0.3-0.2,0.7-0.4,1.1-0.6C82.7,70.9,82.9,71,82.9,71.3z"/>
	<path fill="#2362AC" d="M46.9,60.2c0,0.2-0.1,0.3-0.2,0.3c-0.2,0-0.3,0-0.3-0.2c-0.1-0.4-0.2-0.8-0.3-1.3c0-0.2,0.1-0.3,0.3-0.4
		c0.2,0,0.3,0.1,0.3,0.2C46.8,59.3,46.9,59.8,46.9,60.2z"/>
	<path fill="#2667AF" d="M31.8,55.6c0,0.2,0,0.3-0.2,0.4c-0.2,0-0.3,0-0.3-0.2c-0.1-0.4-0.2-0.9-0.3-1.3c0-0.2,0.1-0.3,0.2-0.3
		c0.2,0,0.3,0,0.4,0.2C31.6,54.7,31.7,55.2,31.8,55.6z"/>
	<path fill="#2667AF" d="M124.3,24.9c0-0.2,0-0.3,0-0.5c0-0.2,0-0.3,0.2-0.3c0.2,0,0.3,0.1,0.3,0.2c0.1,0.4,0.1,0.8,0.2,1.2
		c0,0.2-0.1,0.4-0.3,0.4c-0.2,0-0.3-0.1-0.3-0.3C124.3,25.4,124.3,25.2,124.3,24.9C124.3,24.9,124.3,24.9,124.3,24.9z"/>
	<path fill="#1E6FB6" d="M120.7,18.1c0,0.1,0,0.2-0.1,0.3c-0.3,0.2-0.7,0.5-1,0.7c-0.1,0.1-0.3,0.1-0.4,0c-0.1-0.1-0.1-0.3,0.1-0.4
		c0.3-0.2,0.6-0.5,1-0.7C120.5,17.8,120.7,17.9,120.7,18.1z"/>
	<path fill="#2667AF" d="M81.2,62.6c0,0.1,0,0.2,0,0.3c0,0.1-0.1,0.2-0.2,0.2c-0.1,0-0.2,0-0.3-0.2c0-0.2-0.1-0.4-0.1-0.6
		c0-0.2-0.1-0.4-0.1-0.6c0-0.2,0.1-0.3,0.3-0.4c0.2,0,0.3,0.1,0.3,0.3C81.1,62,81.1,62.3,81.2,62.6C81.2,62.6,81.2,62.6,81.2,62.6z"
		/>
	<path fill="#2667AF" d="M160.1,26.4c0,0.2-0.1,0.4-0.2,0.4c-0.1,0-0.3-0.1-0.3-0.3c-0.1-0.4-0.1-0.8-0.1-1.2c0-0.2,0-0.3,0.2-0.3
		c0.2,0,0.3,0.1,0.3,0.2C160,25.6,160,26,160.1,26.4z"/>
	<path fill="#284D9D" d="M86.9,68.7c-0.1,0-0.2,0-0.3-0.1c0-0.1,0-0.2,0-0.3c0-0.1,0.1-0.1,0.1-0.1c0.3-0.2,0.6-0.5,0.9-0.7
		c0.1-0.1,0.3-0.1,0.4,0c0.1,0.1,0.1,0.3,0,0.4c-0.3,0.3-0.7,0.5-1,0.8C86.9,68.7,86.9,68.7,86.9,68.7z"/>
	<path fill="#2667AF" d="M175,31.8c0-0.2,0-0.3,0.2-0.3c0.2,0,0.2,0.1,0.3,0.2c0.1,0.4,0.2,0.8,0.2,1.2c0,0.2,0,0.3-0.2,0.4
		c-0.1,0-0.3-0.1-0.3-0.3C175.1,32.5,175,32.1,175,31.8z"/>
	<path fill="#2667AF" d="M64.2,66.5c0,0.2-0.1,0.2-0.2,0.3c-0.1,0-0.2,0-0.2-0.1c-0.1-0.4-0.2-0.8-0.3-1.2c0-0.1,0-0.2,0.2-0.3
		c0.1,0,0.2,0,0.3,0.1C64,65.6,64.1,66.1,64.2,66.5z"/>
	<path fill="#1E6FB6" d="M115.5,21.9c0.2,0,0.3,0.1,0.2,0.3c0,0.1-0.1,0.1-0.1,0.2c-0.2,0.2-0.5,0.5-0.7,0.7c0,0-0.1,0.1-0.1,0.1
		c-0.1,0-0.2,0-0.2,0c-0.1-0.1-0.1-0.2,0-0.3c0.3-0.3,0.6-0.6,0.9-1C115.4,21.9,115.5,21.9,115.5,21.9z"/>
	<path fill="#284D9D" d="M91.6,64.5c-0.2,0-0.3-0.2-0.2-0.3c0.1-0.1,0.2-0.2,0.3-0.3c0.2-0.2,0.4-0.4,0.6-0.6c0.1-0.1,0.2-0.1,0.3,0
		c0.1,0.1,0.1,0.2,0,0.3c-0.3,0.3-0.6,0.6-0.9,0.9C91.7,64.5,91.6,64.5,91.6,64.5z"/>
	<path fill="#2667AF" d="M141.4,20c0-0.2,0-0.3,0.1-0.3c0.1,0,0.2,0.1,0.2,0.2c0.1,0.4,0.2,0.8,0.3,1.1c0,0.1,0,0.2-0.1,0.3
		c-0.1,0-0.2-0.1-0.2-0.2C141.5,20.7,141.4,20.3,141.4,20z"/>
	<path fill="#1A72B8" d="M111.6,27c0,0,0,0.1-0.1,0.1c-0.2,0.3-0.4,0.6-0.6,0.9c-0.1,0.1-0.1,0.2-0.3,0.1c-0.1-0.1-0.1-0.2,0-0.3
		c0.2-0.3,0.4-0.6,0.6-0.9c0.1-0.1,0.1-0.1,0.3-0.1C111.6,26.8,111.6,26.9,111.6,27z"/>
	<path fill="#284D9D" d="M95.7,59.6c-0.1,0-0.2-0.1-0.1-0.2c0.2-0.4,0.5-0.7,0.7-1c0-0.1,0.1-0.1,0.2,0c0.1,0.1,0.1,0.1,0,0.2
		c-0.2,0.3-0.5,0.7-0.7,1C95.8,59.6,95.7,59.6,95.7,59.6z"/>
	<path fill="#2362AC" d="M48.2,66.4c0,0.1,0,0.2-0.1,0.2c-0.1,0-0.1-0.1-0.2-0.1c-0.1-0.4-0.2-0.8-0.3-1.2c0-0.1,0-0.2,0.1-0.2
		c0.1,0,0.2,0,0.2,0.1C48,65.6,48.1,66,48.2,66.4z"/>
	<path fill="#2667AF" d="M159,20.1c0,0.2,0,0.2-0.1,0.3c-0.1,0-0.2,0-0.2-0.1c-0.1-0.4-0.1-0.8-0.2-1.2c0-0.1,0-0.2,0.1-0.2
		c0.1,0,0.1,0.1,0.1,0.1C158.8,19.4,158.9,19.8,159,20.1z"/>
	<path fill="#2667AF" d="M32.8,60.4c0.1,0,0.1,0.1,0.2,0.1c0.1,0.4,0.2,0.8,0.3,1.2c0,0.1,0,0.1-0.1,0.2c-0.1,0-0.1,0-0.2-0.1
		c-0.1-0.4-0.3-0.8-0.4-1.2C32.7,60.5,32.7,60.4,32.8,60.4z"/>
	<path fill="#1A72B8" d="M108.3,32.4c0,0,0,0.1-0.1,0.1c-0.2,0.3-0.3,0.6-0.5,0.9c0,0.1-0.1,0.2-0.2,0.1c-0.1,0-0.1-0.1,0-0.2
		c0.2-0.3,0.3-0.6,0.5-1c0,0,0.1-0.1,0.1-0.1c0,0,0.1,0,0.1,0C108.3,32.3,108.3,32.4,108.3,32.4z"/>
	<path fill="#284D9D" d="M99.8,53C99.8,53,99.8,53,99.8,53c-0.2,0.4-0.4,0.8-0.6,1.1c0,0.1-0.1,0.1-0.2,0.1c-0.1,0-0.1-0.1,0-0.2
		c0.2-0.4,0.4-0.7,0.6-1.1C99.6,52.9,99.7,52.9,99.8,53C99.8,52.9,99.8,53,99.8,53z"/>
	<path fill="#1A72B8" d="M105,39.4c0-0.3,0.2-0.9,0.4-1.2C105.6,38.3,105.3,39.1,105,39.4z"/>
	<path fill="#1E6FB6" d="M173.9,25.4c0.1,0.4,0.2,0.8,0.3,1.2c0,0,0,0.1,0,0.1c-0.1,0-0.1,0-0.1-0.1C174,26.2,173.9,25.9,173.9,25.4
		C173.9,25.4,173.9,25.4,173.9,25.4z"/>
	<path fill="#2667AF" d="M102.4,47.1c-0.2,0.5-0.3,0.9-0.5,1.3C101.8,48.1,102.1,47.4,102.4,47.1z"/>
	<path fill="#2667AF" d="M65.3,71.4c0.2,0.4,0.3,0.8,0.4,1.2C65.5,72.2,65.4,71.8,65.3,71.4z"/>
	<path fill="#1E6FB6" d="M81.9,69c-0.1-0.4-0.2-0.7-0.2-1.1C81.9,68.3,81.8,68.7,81.9,69z"/>
	<path fill="#1E6FB6" d="M123.6,18.5c0.1,0.2,0.2,0.5,0.2,0.8C123.6,19.1,123.6,18.7,123.6,18.5z"/>
</g>
</svg>
