<?xml version="1.0" encoding="UTF-8"?>
<svg id="Layer_2" xmlns="http://www.w3.org/2000/svg" version="1.1" viewBox="0 0 210 140">
  <!-- Generator: Adobe Illustrator 30.0.0, SVG Export Plug-In . SVG Version: 2.1.1 Build 123)  -->
  <rect width="210" height="140" style="fill: #8c1515;"/>
  <polygon points="35.3 72.1 35.3 66.6 26.8 66.6 26.8 50.9 35.2 50.9 35.2 45.4 21.3 45.4 21.3 66.6 10 66.6 10 72.1 21.3 72.1 21.3 94.7 35.3 94.7 35.3 89.1 26.8 89.1 26.8 72.1 35.3 72.1" style="fill: #fff;"/>
  <path d="M40.4,51.6c0-4.2,2.1-6.3,6.3-6.3h6c4.2,0,6.3,2.1,6.3,6.3v12c0,1.3-.2,2.3-.7,3s-1.5,1.7-3,3l-7.5,6.1c-.7.6-1.3,1.2-1.5,1.7-.2.6-.4,1.5-.4,2.7v9.1h12v5.5h-17.6v-15.2c0-1.8.2-3.3.7-4.3.4-1,1.2-2,2.3-2.9l6.1-4.9s.2,0,.3-.2c1.6-1.2,2.4-1.8,2.6-2.1h0c0,0,0-.1,0-.2.4-.3.6-.6.7-.8s0-.8,0-1.7v-11.4h-7.5v12.1h-5.5v-11.4h.2Z" style="fill: #fff;"/>
  <path d="M131.9,70l-23.8-24.6v21.1h-33.4v5.5h2.8v17h-7.5v-38.2h7.5v12.8h5.5v-12c0-4.2-2.1-6.3-6.3-6.3h-6c-4.2,0-6.3,2.1-6.3,6.3v36.7c0,4.2,2.1,6.3,6.3,6.3h6c4.2,0,6.3-2.1,6.3-6.3v-16.3h25v22.5l23.8-24.6h.1Z" style="fill: #fff;"/>
  <polygon points="127.9 45.4 127.9 60 134.7 67.1 137.6 70 134.7 73 127.9 80.1 127.9 94.7 151.7 70 127.9 45.4" style="fill: #fff;"/>
  <polygon points="147.7 45.4 147.7 60 154.5 67.1 157.4 70 154.5 73 147.7 80.1 147.7 94.7 171.5 70 147.7 45.4" style="fill: #fff;"/>
  <polygon points="200 67.3 188.7 67.3 167.5 45.4 167.5 60 174.4 67.1 177.2 70 174.4 73 167.5 80.1 167.5 94.7 188.7 72.8 200 72.8 200 67.3" style="fill: #fff;"/>
  <circle cx="49.6" cy="117.7" r="12.3" style="fill: #a6b4ff;"/>
  <rect x="145.3" y="12" width="22.9" height="22.9" rx="6.6" ry="6.6" transform="translate(29.3 117.7) rotate(-45)" style="fill: #d6e388;"/>
  <path d="M52.1,41.4h-5v-6h5v6ZM52.3,30.1l-4.8-1.4c.7-2.5,2.4-4.7,4.6-6.1l2.7,4.2c-1.2.8-2.1,1.9-2.5,3.3ZM137.2,25.9h-6v-5h6v5ZM125.2,25.9h-6v-5h6v5ZM113.2,25.9h-6v-5h6v5ZM101.2,25.9h-6v-5h6v5ZM89.2,25.9h-6v-5h6v5ZM77.2,25.9h-6v-5h6v5ZM65.2,25.9h-6v-5h6v5Z" style="fill: #fa7878;"/>
  <rect x="47.1" y="98.2" width="5" height="4.4" style="fill: #fa7878;"/>
</svg>
