<?xml version="1.0" encoding="utf-8"?>
<!-- Generator: Adobe Illustrator 27.9.0, SVG Export Plug-In . SVG Version: 6.00 Build 0)  -->
<svg version="1.1" id="Layer_2" xmlns="http://www.w3.org/2000/svg" xmlns:xlink="http://www.w3.org/1999/xlink" x="0px" y="0px"
	 width="210px" height="140px" viewBox="0 0 210 140" style="enable-background:new 0 0 210 140;" xml:space="preserve">
<style type="text/css">
	.st0{fill:#87898B;}
	.st1{fill:#97999B;}
	.st2{fill:#231F20;}
	.st3{fill:#434345;}
	.st4{fill:url(#SVGID_1_);}
	.st5{fill:url(#SVGID_00000140711514328996962780000007287058902597467808_);}
	.st6{fill:url(#SVGID_00000083062312479098957420000003527196879276244412_);}
	.st7{fill:url(#SVGID_00000034805168187125680190000005839614720779668413_);}
	.st8{fill:url(#SVGID_00000135657563365931303360000001936487657884822933_);}
	.st9{fill:#939598;}
</style>
<polygon class="st0" points="116.8,82.8 122.3,70.7 125.1,72.2 118.5,87.1 "/>
<polygon class="st1" points="129.6,112.5 135.3,84.2 132.3,83.7 127.3,109.9 "/>
<path class="st1" d="M163.9,78.7c-0.1,1.8-1,13.2-1,13.2l-3.1-0.3c0,0,0.5-12.7,0.5-14.4C160.3,75,164.4,72.7,163.9,78.7z"/>
<polygon class="st2" points="72.9,54.9 78.2,80.8 81.2,80.1 76.5,54.3 "/>
<polygon class="st1" points="86.2,56.3 91,73.4 94,71.9 89.8,56.3 "/>
<polygon class="st2" points="53.6,112.3 50.8,96.4 53.7,95.6 56.7,113.8 "/>
<path class="st3" d="M67.8,117.9c-0.9-6.1-2.8-23.7-3.1-28.4l3.1-0.3c0.5,8.5,1.6,20.8,2.5,28.3L67.8,117.9z"/>
<polygon class="st2" points="152.3,61.5 149.2,86.3 146.1,85.9 148.9,59.4 "/>
<path d="M12.5,81.6c-2,1.5-2.5,5.6-2.5,5.6c1.5,0.6,3.3,1.4,5.2,2.4c0.1,0.2,0.2,0.5,0.4,0.8c1.8,2.5,11.7,15.2,11.7,15.2l2.3-1.9
	c-1.5-2.3-6.5-8.6-6.3-8.9c0.3-0.3,6,3.8,8.8,6.1c2.5,2,4.5,3.6,6.2,5c-1.1,4.6-1.9,7.8-1.9,7.8c-0.2,0.1-5.8-8.4-5.8-8.4l-2.2,1.9
	c0,0,6.9,9.4,7,10c0.1,0.6-1.1,4.2-1.4,5l2.8,1.9c0.6-1.5,2.2-8.1,4.3-15.9c1.4,1.1,2.8,2.1,4.2,3.2v-8.9c-0.7-0.7-1.4-1.3-2.2-2.1
	c0.7-2.7,1.4-5.4,2.2-8V79.9c-1.7,5.6-3.5,12.1-4.9,18C28.2,86.9,21.2,84,12.5,81.6z M187,89.6c-3.4,2.4-8,5.5-12.8,8.6
	c-0.4-2-0.8-3.9-1.2-5.5c-1-4.5-3.2-12.8-7.9-20.5v18.5c0.6,2.2,1.2,4.4,1.7,6.5c0.4,1.7,0.9,3.3,1.3,4.7c-0.4,0.2-0.7,0.4-1.1,0.7
	c-0.6,0.4-1.3,0.7-1.9,1.1v3.9c1.4-0.8,2.7-1.6,4-2.3c4,13,7.2,16.5,11.1,20l2.2-3c-1.1-1.4-2.6-3.1-2.6-3.7c0-0.3,4.1-7.6,6.4-13.1
	c-0.6-0.3-1.7-0.8-2.8-1.2c-1.5,2.4-4.7,9.9-5.3,10.3c-0.3,0.2-1.7-6.3-3.1-12.9c0.8-0.5,1.5-1,2.3-1.5c3.4-2.3,8.2-5.7,12.4-8.8
	c-1.5,3.2-4.2,9.2-5.3,11.6l2.6,1.2c1.1-2,5.1-11.6,6.8-15.8c2.6-1.9,4.4-3.2,4.4-3.2l1.8-4.4C195.9,83.1,189.5,87.9,187,89.6z"/>
<linearGradient id="SVGID_1_" gradientUnits="userSpaceOnUse" x1="10" y1="96.9514" x2="186.2148" y2="96.9514">
	<stop  offset="0" style="stop-color:#91278F"/>
	<stop  offset="0.3388" style="stop-color:#91278F"/>
	<stop  offset="0.3594" style="stop-color:#009344"/>
	<stop  offset="0.4954" style="stop-color:#009344"/>
	<stop  offset="0.5217" style="stop-color:#2A3990"/>
	<stop  offset="0.6885" style="stop-color:#2A3990"/>
	<stop  offset="0.7125" style="stop-color:#FFCA40"/>
	<stop  offset="1" style="stop-color:#FFCA40"/>
</linearGradient>
<path class="st4" d="M85.4,102.2c-8.5,13.2-14.8,14.8-20.4,14.1c-7.2-1-11-5.4-19.2-13.3v8.8c0,0,0.1,0,0.1,0.1
	c4.1,3.1,14.1,9.8,23.5,8.2c10.2-1.7,15.5-11.1,22.7-22.2c4.6-7,9.7-14.3,15.1-20.6c-0.6-1.1-1.4-2.3-2.1-3.5
	C97.2,82.9,90.6,93.9,85.4,102.2z"/>
<linearGradient id="SVGID_00000171684512889059244480000016919882534452942728_" gradientUnits="userSpaceOnUse" x1="10" y1="72.7266" x2="186.2148" y2="72.7266">
	<stop  offset="0" style="stop-color:#91278F"/>
	<stop  offset="0.3388" style="stop-color:#91278F"/>
	<stop  offset="0.3594" style="stop-color:#009344"/>
	<stop  offset="0.4954" style="stop-color:#009344"/>
	<stop  offset="0.5217" style="stop-color:#2A3990"/>
	<stop  offset="0.6885" style="stop-color:#2A3990"/>
	<stop  offset="0.7125" style="stop-color:#FFCA40"/>
	<stop  offset="1" style="stop-color:#FFCA40"/>
</linearGradient>
<path style="fill:url(#SVGID_00000171684512889059244480000016919882534452942728_);" d="M116.8,67.4c8.7-7.4,18.6-11.1,26.6-8.8
	c6.8,2,11.6,5.7,15.8,14.5c2.4,5.1,4.3,11.4,6,17.6V72.2c-0.6-0.9-1.2-1.9-1.8-2.8c-3.6-5.2-11.6-13.3-20.7-14.4
	c-8.2-1-16.8-0.2-28.5,9.4c-1.5,1.3-3,2.6-4.4,4.1c0.9,1,1.7,2.1,2.5,3.1C113.8,70.1,115.3,68.7,116.8,67.4z"/>
<linearGradient id="SVGID_00000059988020930010301350000004591291693873205429_" gradientUnits="userSpaceOnUse" x1="28.3986" y1="94.4765" x2="200" y2="94.4765">
	<stop  offset="0" style="stop-color:#009244"/>
	<stop  offset="0.2467" style="stop-color:#009244"/>
	<stop  offset="0.2785" style="stop-color:#90278E"/>
	<stop  offset="0.4264" style="stop-color:#90278E"/>
	<stop  offset="0.4529" style="stop-color:#FFC940"/>
	<stop  offset="0.6057" style="stop-color:#FFC940"/>
	<stop  offset="0.6316" style="stop-color:#2A398F"/>
</linearGradient>
<path style="fill:url(#SVGID_00000059988020930010301350000004591291693873205429_);" d="M165.1,103.8c-10.8,6.3-16.9,8.9-23.8,9.9
	c-7,1.1-13.5-2-15-7.9c-1.9-7.2-7.1-22.8-10.7-29c-1-1.7-2.2-3.5-3.4-5.1c-1.7,1.7-3.4,3.6-5.1,5.6c2.1,3.7,3.5,7.1,4.8,9.6
	c3.1,6.4,9.2,23.9,15.3,27.2c6,3.3,13.1,5.1,23.8,0.5c5.8-2.5,10.3-4.7,14.1-6.9V103.8z"/>
<linearGradient id="SVGID_00000168803890547207262520000008271562613194460855_" gradientUnits="userSpaceOnUse" x1="28.3986" y1="71.1913" x2="200" y2="71.1913">
	<stop  offset="0" style="stop-color:#009244"/>
	<stop  offset="0.2467" style="stop-color:#009244"/>
	<stop  offset="0.2785" style="stop-color:#90278E"/>
	<stop  offset="0.4264" style="stop-color:#90278E"/>
	<stop  offset="0.4529" style="stop-color:#FFC940"/>
	<stop  offset="0.6057" style="stop-color:#FFC940"/>
	<stop  offset="0.6316" style="stop-color:#2A398F"/>
</linearGradient>
<path style="fill:url(#SVGID_00000168803890547207262520000008271562613194460855_);" d="M100.6,60.2c-6.5-4.5-18.3-10.9-31.4-7.7
	c-13.1,3.2-20.1,16.3-21.6,20.3c-0.6,1.7-1.3,3.5-1.9,5.6v12.3c0.9-3.1,1.7-5.9,2.4-8.2c4-12.4,9.1-19.6,13.7-22.4s15.9-8.4,29.4,0
	c6.4,4,10.7,8.9,13.9,13.7c1.5-1.8,3.1-3.5,4.7-5.2C107.1,65.5,104.1,62.6,100.6,60.2z"/>
<linearGradient id="SVGID_00000098188946274814400730000000685091896988896403_" gradientUnits="userSpaceOnUse" x1="28.3986" y1="72.8691" x2="200" y2="72.8691">
	<stop  offset="0" style="stop-color:#009244"/>
	<stop  offset="0.2467" style="stop-color:#009244"/>
	<stop  offset="0.2785" style="stop-color:#90278E"/>
	<stop  offset="0.4264" style="stop-color:#90278E"/>
	<stop  offset="0.4529" style="stop-color:#FFC940"/>
	<stop  offset="0.6057" style="stop-color:#FFC940"/>
	<stop  offset="0.6316" style="stop-color:#2A398F"/>
</linearGradient>
<path style="fill:url(#SVGID_00000098188946274814400730000000685091896988896403_);" d="M112.3,71.6c-0.8-1.1-1.6-2.1-2.5-3.1
	c-1.6,1.6-3.2,3.4-4.7,5.2c0.8,1.2,1.5,2.4,2.1,3.5C108.8,75.2,110.6,73.4,112.3,71.6z"/>
<path class="st0" d="M83.3,104.8c-0.7-3.2-4.6-22.6-4.6-22.6l2.9-0.8c0,0,3.9,18.4,4.5,22.1C86.5,107,84.1,108.4,83.3,104.8z"/>
<path class="st3" d="M95.7,88.3c-0.7-2.2-4-13-4-13l2.9-1.5c0,0,2.4,7.7,3.5,11.9C99.2,90,96.5,90.8,95.7,88.3z"/>
<path class="st0" d="M50.4,94.9c-0.9-5.4-2.6-16.8-2.9-19.4c-0.3-2.6,2.9-2.7,3.1-0.5c0.2,1.4,2.3,16.4,2.7,19.1L50.4,94.9z"/>
<path class="st1" d="M64.6,87.8c-1.2-10.9-1.7-24.2-1.9-30.6c-0.1-3.4,3.4-4,3.5,0.3c0.1,3.7,0.6,19.4,1.3,30L64.6,87.8z"/>
<path class="st3" d="M140.5,57.8c-0.5,3.3-4.7,24.8-4.7,24.8l-3.1-0.6c0,0,4-22.4,4.5-24.8C137.8,53.6,140.8,55.4,140.5,57.8z"/>
<path class="st0" d="M142.5,114.6c0.1-1.5,3.6-27.1,3.6-27.1l2.7,0.4c0,0-3,23.4-3.6,26.7C144.8,117.2,142.3,116.4,142.5,114.6z"/>
<path class="st3" d="M158.9,108.2c0-2.3,0.7-15.3,0.7-15.3l3,0.3c0,0-0.6,12.7-0.9,14.8C161.6,110.1,158.9,110.5,158.9,108.2z"/>
<path class="st2" d="M122.9,69c0,0,3.9-8.6,4.6-9.9c2-4.1,4.4-1.1,3.4,1.1c-1.3,2.9-5,10.5-5,10.5L122.9,69z"/>
<path class="st9" d="M163.8,47.2V122H46.5V47.2H163.8 M165.1,45.9H45.2v77.4h119.9V45.9L165.1,45.9z"/>
<path d="M120.3,25c-1.2-0.7-2.5-1.1-3.9-1.1c-1.4,0-2.6,0.4-3.9,1.1c-1.2,0.7-2.2,1.7-2.8,2.9c-0.7,1.2-1,2.5-1,4
	c0,2.2,0.8,4,2.3,5.5c1.5,1.5,3.3,2.2,5.5,2.2c1.4,0,2.7-0.3,3.9-1c1.2-0.7,2.2-1.6,2.8-2.8c0.7-1.2,1-2.5,1-4c0-1.5-0.3-2.8-1-3.9
	C122.5,26.7,121.5,25.7,120.3,25z M45.7,14.7v31.2h119V14.7H45.7z M64.8,24.4h-8.7v5.7h8.6V32h-8.6v7.2h8.6v1.8H54.3V22.6h10.5V24.4
	z M82.4,40.9H82L69.9,27.1v13.9H68V22.6h0.4l12.2,14v-14h1.8V40.9z M90.2,37.4c1.5,1.5,3.5,2.2,5.8,2.2c2.6,0,4.7-1,6.4-3l1.4,1.1
	c-0.9,1.2-2.1,2.1-3.4,2.7c-1.4,0.6-2.9,1-4.6,1c-3.2,0-5.7-1.1-7.6-3.2c-1.6-1.8-2.3-4-2.3-6.5c0-2.7,0.9-4.9,2.8-6.8
	c1.9-1.8,4.2-2.7,7.1-2.7c1.7,0,3.3,0.3,4.6,1c1.4,0.7,2.5,1.6,3.4,2.8l-1.4,1.1c-0.8-1-1.8-1.8-2.9-2.4c-1.1-0.5-2.3-0.8-3.7-0.8
	c-1.5,0-2.8,0.4-4.1,1.1c-1.2,0.7-2.2,1.6-2.9,2.8c-0.7,1.2-1,2.5-1,4C87.9,34.1,88.7,35.9,90.2,37.4z M123.2,38.6
	c-1.9,1.9-4.1,2.8-6.8,2.8c-2.7,0-5-0.9-6.9-2.8c-1.9-1.9-2.8-4.1-2.8-6.7c0-1.8,0.4-3.4,1.3-4.9c0.9-1.5,2-2.7,3.5-3.5
	c1.5-0.8,3.1-1.3,4.8-1.3c2.8,0,5.1,0.9,7,2.8c1.9,1.8,2.8,4.1,2.8,6.8C126,34.5,125.1,36.7,123.2,38.6z M143.9,36.9
	c-0.8,1.4-1.8,2.4-3.1,3.1c-1.3,0.7-3,1-5.3,1h-5.8V22.6h3.8c2.7,0,4.7,0.2,6,0.7c1.8,0.6,3.2,1.7,4.2,3.2c1,1.5,1.5,3.4,1.5,5.5
	C145.1,33.9,144.7,35.5,143.9,36.9z M159.2,24.4h-8.7v5.7h8.6V32h-8.6v7.2h8.6v1.8h-10.4V22.6h10.5V24.4z M138.4,25
	c-1.1-0.3-3-0.5-5.7-0.5h-1.3v14.8h2.1c2.5,0,4.3-0.2,5.3-0.5c1.4-0.4,2.5-1.3,3.2-2.4c0.8-1.2,1.2-2.6,1.2-4.3
	c0-1.8-0.4-3.3-1.3-4.5C141.1,26.3,139.9,25.4,138.4,25z"/>
</svg>
