<?xml version="1.0" encoding="utf-8"?>
<!-- Generator: Adobe Illustrator 27.9.0, SVG Export Plug-In . SVG Version: 6.00 Build 0)  -->
<svg version="1.1" id="Layer_1" xmlns="http://www.w3.org/2000/svg" xmlns:xlink="http://www.w3.org/1999/xlink" x="0px" y="0px"
	 width="210px" height="140px" viewBox="0 0 210 140" style="enable-background:new 0 0 210 140;" xml:space="preserve">
<style type="text/css">
	.st0{fill:#006838;}
	.st1{fill:#EE2A7B;}
</style>
<g>
	<path class="st0" d="M64.2,107.8h-5.3v11.8h-6.6V87.4h12c3.8,0,6.7,0.8,8.8,2.5c2.1,1.7,3.1,4.1,3.1,7.2c0,2.2-0.5,4-1.4,5.5
		c-1,1.5-2.4,2.6-4.3,3.5l7,13.2v0.3h-7.1L64.2,107.8z M58.9,102.4h5.3c1.7,0,3-0.4,3.9-1.3c0.9-0.8,1.4-2,1.4-3.5
		c0-1.5-0.4-2.7-1.3-3.6c-0.9-0.9-2.2-1.3-4-1.3h-5.3V102.4z"/>
	<path class="st0" d="M100.5,105.7H87.8v8.6h14.9v5.3H81.2V87.4h21.5v5.4H87.8v7.7h12.7V105.7z"/>
	<path class="st0" d="M132.1,115.5c-1.2,1.4-2.9,2.5-5.1,3.3c-2.2,0.8-4.6,1.2-7.2,1.2c-2.8,0-5.2-0.6-7.3-1.8s-3.7-3-4.9-5.3
		c-1.1-2.3-1.7-5-1.8-8.2v-2.2c0-3.2,0.5-6,1.6-8.3c1.1-2.4,2.6-4.1,4.7-5.4c2-1.2,4.4-1.9,7.2-1.9c3.8,0,6.8,0.9,9,2.7
		c2.2,1.8,3.4,4.5,3.8,7.9h-6.5c-0.3-1.8-0.9-3.2-2-4c-1-0.9-2.4-1.3-4.2-1.3c-2.3,0-4,0.8-5.2,2.5c-1.2,1.7-1.8,4.2-1.8,7.6v2.1
		c0,3.4,0.6,5.9,1.9,7.6c1.3,1.7,3.2,2.6,5.6,2.6c2.5,0,4.3-0.5,5.3-1.6v-5.5h-6v-4.9h12.7V115.5z"/>
	<path class="st0" d="M136,107.4c0-2.4,0.5-4.5,1.4-6.3c0.9-1.9,2.2-3.3,3.9-4.3c1.7-1,3.7-1.5,6-1.5c3.2,0,5.9,1,7.9,3
		c2,2,3.2,4.7,3.4,8l0,1.6c0,3.7-1,6.6-3.1,8.8c-2,2.2-4.8,3.3-8.2,3.3c-3.4,0-6.2-1.1-8.3-3.3s-3.1-5.2-3.1-9V107.4z M142.4,107.9
		c0,2.3,0.4,4,1.3,5.2c0.9,1.2,2.1,1.8,3.7,1.8c1.5,0,2.8-0.6,3.6-1.8c0.9-1.2,1.3-3.1,1.3-5.7c0-2.2-0.4-4-1.3-5.2
		c-0.9-1.2-2.1-1.8-3.7-1.8c-1.6,0-2.8,0.6-3.6,1.8C142.9,103.4,142.4,105.3,142.4,107.9z"/>
	<path class="st0" d="M175,107.8h-5.3v11.8h-6.6V87.4h12c3.8,0,6.7,0.8,8.8,2.5c2.1,1.7,3.1,4.1,3.1,7.2c0,2.2-0.5,4-1.4,5.5
		c-1,1.5-2.4,2.6-4.3,3.5l7,13.2v0.3H181L175,107.8z M169.7,102.4h5.3c1.7,0,3-0.4,3.9-1.3c0.9-0.8,1.4-2,1.4-3.5
		c0-1.5-0.4-2.7-1.3-3.6c-0.9-0.9-2.2-1.3-4-1.3h-5.3V102.4z"/>
	<path class="st0" d="M47.8,116c-1.2,1.4-2.9,2.5-5.1,3.3c-2.2,0.8-4.6,1.2-7.2,1.2c-2.8,0-5.2-0.6-7.3-1.8s-3.7-3-4.9-5.3
		c-1.1-2.3-1.7-5-1.8-8.2V103c0-3.2,0.5-6,1.6-8.3c1.1-2.4,2.6-4.1,4.7-5.4c2-1.2,4.4-1.9,7.2-1.9c3.8,0,6.8,0.9,9,2.7
		c2.2,1.8,3.4,4.5,3.8,7.9h-6.5c-0.3-1.8-0.9-3.2-2-4c-1-0.9-2.4-1.3-4.2-1.3c-2.3,0-4,0.8-5.2,2.5c-1.2,1.7-1.8,4.2-1.8,7.6v2.1
		c0,3.4,0.6,5.9,1.9,7.6c1.3,1.7,3.2,2.6,5.6,2.6c2.5,0,4.3-0.5,5.3-1.6V108h-6v-4.9h12.7V116z"/>
</g>
<g>
	<path class="st0" d="M120.7,52.3l-1.7-1.7c-1.4-1.4,0.1-3,1.6-1.6c1.3-1.4,2.9,0.2,1.7,1.7L120.7,52.3z"/>
	<path class="st0" d="M136,58.7l-1.2-1.2c-1-1,0.1-2.1,1.1-1.1c0.9-1,2.1,0.2,1.2,1.2L136,58.7z"/>
	<rect x="28.1" y="52.7" class="st0" width="3.2" height="3.2"/>
	<circle class="st0" cx="35.9" cy="54.1" r="1.9"/>
	<rect x="34.4" y="43.4" class="st0" width="3.2" height="3.2"/>
	<path class="st0" d="M49.3,56c1,0,1.9-0.8,1.9-1.9c0-1-0.8-1.9-1.9-1.9c-1,0-1.9,0.8-1.9,1.9C47.5,55.2,48.3,56,49.3,56z"/>
	<rect x="49.3" y="61.8" class="st0" width="3.2" height="3.2"/>
	<path class="st0" d="M59.2,54.2c0-1-0.8-1.9-1.9-1.9c-1,0-1.9,0.8-1.9,1.9c0,1,0.8,1.9,1.9,1.9C58.3,56.1,59.2,55.3,59.2,54.2z"/>
	<path class="st0" d="M171.2,46.2c0.3,0.3,0.6,0.6,0.9,0.8c0.6-0.1,1.1-0.2,1.6-0.3c0.5-0.2,1-0.5,1.5-0.8l-5.1-0.7
		C170.5,45.6,170.9,45.9,171.2,46.2z"/>
	<path class="st0" d="M164.8,50.6c0,0,0,0.1-0.1,0.1l10.3,1.9c-0.3-0.5-0.7-1.1-1.1-1.6l-8.1-1.5C165.5,49.9,165.1,50.2,164.8,50.6z
		"/>
	<path class="st0" d="M168.9,43.9l7.5,1c0.3-0.3,0.5-0.7,0.7-1l-8.9-1.2C168.4,43.1,168.6,43.6,168.9,43.9z"/>
	<path class="st0" d="M195.8,50.4c-1.9,0-3.4,1.2-4,2.9h-5.1c-0.5-6.7-4.5-12.4-10.1-15.3l1.6-2.7c0.4,0.2,0.8,0.3,1.2,0.3
		c1.7,0,3.1-1.4,3.1-3.1c0-1.7-1.4-3.1-3.1-3.1c-1.7,0-3.1,1.4-3.1,3.1c0,0.7,0.2,1.3,0.6,1.8l-1.8,3.1c-2.2-0.9-4.5-1.4-7-1.4
		c-4.9,0-9.4,1.9-12.8,5l-6.5-4.6c0.1-0.3,0.1-0.5,0.1-0.8c0-2-1.6-3.6-3.6-3.6c-2,0-3.6,1.6-3.6,3.6c0,0.4,0.1,0.8,0.2,1.2
		l-3.1,3.1c-3.1-2.4-7.1-3.8-11.4-3.8c-4.3,0-8.3,1.5-11.5,3.9l-2.9-4.3c0.9-1,1.4-2.3,1.4-3.7c0-1.7-0.7-3.2-1.9-4.2L114,25
		c0.1,0,0.3,0,0.4,0c1.5,0,2.7-1.2,2.7-2.7c0-1.5-1.2-2.7-2.7-2.7c-1.5,0-2.7,1.2-2.7,2.7c0,0.8,0.3,1.5,0.9,2l-1.4,2.5
		c-0.7-0.3-1.5-0.5-2.4-0.5c-1,0-1.9,0.3-2.7,0.7l-2.7-2.7c0.5-0.5,0.9-1.2,0.9-2c0-1.5-1.2-2.7-2.7-2.7c-1.5,0-2.7,1.2-2.7,2.7
		c0,1.5,1.2,2.7,2.7,2.7c0.1,0,0.2,0,0.3,0l3,3c-1,1-1.6,2.4-1.6,3.9c0,3.1,2.5,5.6,5.6,5.6c0.9,0,1.7-0.2,2.4-0.6l3,4.4
		c-3.1,3.1-5.1,7.2-5.5,11.9h-4.4c-0.7-9.7-8.8-17.3-18.7-17.3c-4.4,0-8.4,1.5-11.5,4l-6.7-7.8c0.2-0.5,0.3-1.1,0.3-1.6
		c0-2.3-1.9-4.2-4.2-4.2c-2.3,0-4.2,1.9-4.2,4.2c0,0.9,0.3,1.7,0.7,2.3l-5,6.4c-3.1-2.4-7-3.8-11.3-3.8c-10,0-18.2,7.9-18.7,17.7
		h-6.7c-0.6-1.6-2.2-2.6-3.9-2.6c-2.3,0-4.2,1.9-4.2,4.2c0,2.3,1.9,4.2,4.2,4.2c1.8,0,3.3-1.1,3.9-2.6H25c0.5,3.9,2.2,7.5,4.7,10.3
		l-5.4,4.7c-0.6-0.5-1.4-0.8-2.2-0.8c-2,0-3.6,1.6-3.6,3.6c0,2,1.6,3.6,3.6,3.6c2,0,3.6-1.6,3.6-3.6c0-0.6-0.1-1.1-0.4-1.6l5.5-4.8
		c3.3,3.1,7.8,5,12.7,5c4.4,0,8.4-1.5,11.6-4L59,74c-0.4,0.6-0.6,1.2-0.6,1.9c0,2,1.6,3.6,3.6,3.6c1.3,0,2.4-0.7,3.1-1.7l6.6,0.9
		c0.1,1.3,1.2,2.3,2.5,2.3c1.4,0,2.5-1.1,2.5-2.5c0-0.7-0.3-1.3-0.8-1.8l1.6-5.1c2.4,1.1,5.1,1.8,7.9,1.8c3.3,0,6.4-0.8,9-2.3
		l2.9,3.8c-0.8,0.8-1.3,1.8-1.3,3c0,2.3,1.9,4.2,4.2,4.2c2.3,0,4.2-1.9,4.2-4.2c0-0.5-0.1-0.9-0.2-1.4l9.1-9.1c3.4,3.7,8.3,6,13.7,6
		c5.6,0,10.6-2.4,14-6.3l1.6,1.2c-0.5,0.7-0.8,1.6-0.8,2.5c0,0.7,0.2,1.4,0.5,2l-1.9,2.1c-0.3-0.2-0.7-0.2-1.1-0.2
		c-1.4,0-2.6,1.2-2.6,2.6c0,1.4,1.2,2.6,2.6,2.6c1.4,0,2.6-1.2,2.6-2.6c0-0.4-0.1-0.7-0.2-1l1.9-2c0.7,0.5,1.6,0.8,2.5,0.8
		c1,0,1.9-0.3,2.6-0.9l2.1,2.3c-0.3,0.5-0.5,1-0.5,1.6c0,1.7,1.4,3.1,3.1,3.1c1.7,0,3.1-1.4,3.1-3.1c0-1.7-1.4-3.1-3.1-3.1
		c-0.4,0-0.8,0.1-1.2,0.3l-2.4-2.5c0.3-0.6,0.4-1.2,0.4-1.9c0-0.7-0.2-1.4-0.5-2l2.8-3c3.4,4.6,8.9,7.7,15.1,7.7
		c9.7,0,17.7-7.4,18.6-16.9h5.3c0.7,1.4,2.1,2.4,3.8,2.4c2.3,0,4.2-1.9,4.2-4.2C200,52.3,198.1,50.4,195.8,50.4z M94.9,42.5
		c0.2,0,0.4,0.2,0.4,0.4s-0.2,0.4-0.4,0.4s-0.4-0.2-0.4-0.4S94.7,42.5,94.9,42.5z M91.9,49.1h2.8v-1.6h-1.2v-0.4h2.8v0.4H95v1.6h2.8
		v4.2h-5.9V49.1z M76.4,44.9c0.2,0,0.4,0.2,0.4,0.4s-0.2,0.4-0.4,0.4c-0.2,0-0.4-0.2-0.4-0.4S76.2,44.9,76.4,44.9z M76.4,46.8
		c0.2,0,0.4,0.2,0.4,0.4s-0.2,0.4-0.4,0.4c-0.2,0-0.4-0.2-0.4-0.4S76.2,46.8,76.4,46.8z M61,34c0.7,0.5,1.5,0.7,2.4,0.7
		c0.9,0,1.8-0.3,2.5-0.8l6.4,7.5c-3.1,3.1-5.1,7.2-5.4,11.8h-4.6c-0.3-5.1-2.6-9.7-6.2-12.9L61,34z M55,54.3c0-1.1,0.7-2,1.7-2.2
		v-1.2H43.3v1.4h1.5v1.4h2.4c0.2-1,1.1-1.7,2.2-1.7c1.3,0,2.3,1,2.3,2.3c0,1.3-1,2.3-2.3,2.3c-1.1,0-2-0.7-2.2-1.7h-0.7v4.6h4.9v2
		h1.6v4.1h-4.1v-4.1h1.4v-0.9h-7.9v0.7c1,0.2,1.7,1.1,1.7,2.2c0,1.3-1,2.3-2.3,2.3c-1.3,0-2.3-1-2.3-2.3c0-1.1,0.7-2,1.7-2.2v-1.8
		h4.2v-4.6h-0.6v1.6h-4.1v-4.1h1.5v-1.4h-5.8v1.1c1,0.2,1.7,1.1,1.7,2.2c0,1.3-1,2.3-2.3,2.3c-1.1,0-2-0.7-2.2-1.7h-2v1.6h-4.1v-4.1
		h4.1v1.4h2c0.2-0.8,0.8-1.5,1.7-1.7v-2.2h5.2v-4.2H38V47h-4.1v-4.1H38v1.5h5.9c0.2-1,1.1-1.8,2.2-1.8c1.3,0,2.3,1,2.3,2.3
		c0,1.3-1,2.3-2.3,2.3c-1,0-1.9-0.7-2.2-1.7h-2.3v4.2h16.3V52c1,0.2,1.7,1.1,1.7,2.2c0,1.3-1,2.3-2.3,2.3C56,56.6,55,55.5,55,54.3z
		 M61.6,77.4L61.6,77.4L61.6,77.4L61.6,77.4z M74.6,75.9c-0.1,0-0.2,0-0.3,0c-0.9,0-1.7,0.5-2.2,1.2l-6.4-0.9c0-0.1,0-0.2,0-0.3
		c0-2-1.6-3.6-3.6-3.6c-0.7,0-1.3,0.2-1.9,0.5l-3.8-5c3.1-2.9,5.2-6.9,5.8-11.4H67c0.6,6.1,4.1,11.4,9.2,14.3L74.6,75.9z M76.4,66.9
		c-0.2,0-0.4-0.2-0.4-0.4c0-0.2,0.2-0.4,0.4-0.4c0.2,0,0.4,0.2,0.4,0.4C76.8,66.7,76.6,66.9,76.4,66.9z M76.4,65.1
		c-0.2,0-0.4-0.2-0.4-0.4c0-0.2,0.2-0.4,0.4-0.4c0.2,0,0.4,0.2,0.4,0.4C76.8,64.9,76.6,65.1,76.4,65.1z M76.4,61.7
		c-0.2,0-0.4-0.2-0.4-0.4s0.2-0.4,0.4-0.4c0.2,0,0.4,0.2,0.4,0.4S76.6,61.7,76.4,61.7z M80.6,55.1h-4V60h1.7v0.4h-3.8V60h1.7v-4.9
		h-3.8v-2.6h8.2V55.1z M80.6,52h-8.2v-1.6h3.9v-1.4h-1.6v-0.4h3.8v0.4h-1.8v1.4h3.9V52z M86.3,59.5c0,0.2-0.2,0.4-0.4,0.4
		s-0.4-0.2-0.4-0.4c0-0.2,0.2-0.4,0.4-0.4c-0.2,0-0.4-0.2-0.4-0.4c0-0.2,0.2-0.4,0.4-0.4s0.4,0.2,0.4,0.4c0,0.2-0.2,0.4-0.4,0.4
		C86.2,59.1,86.3,59.3,86.3,59.5z M85.9,55.1c-0.2,0-0.4-0.2-0.4-0.4s0.2-0.4,0.4-0.4s0.4,0.2,0.4,0.4S86.2,55.1,85.9,55.1z
		 M90,48.5h-3.9v4.3h1.2v0.4h-2.8v-0.4h1.2v-4.3h-3.9V47H90V48.5z M90,46.4h-8.2v-1.6h3.9v-4.5h-1.2V40h2.8v0.4h-1.2v4.5H90V46.4z
		 M91.9,59.3v-5.4h5.9v5.4H95v5.8h1.2v0.4h-2.8v-0.4h1.2v-5.8H91.9z M94.9,66.6c-0.2,0-0.4-0.2-0.4-0.4c0-0.2,0.2-0.4,0.4-0.4
		s0.4,0.2,0.4,0.4C95.3,66.4,95.1,66.6,94.9,66.6z M103.1,74.6c-0.7-0.6-1.7-1-2.7-1c-0.6,0-1.1,0.1-1.6,0.3L96,70.2
		c4.5-3,7.6-8,8.2-13.7h4.5c0.3,3.4,1.6,6.5,3.4,9.1L103.1,74.6z M141.7,58.1c-0.1,0.1-0.3,0.2-0.5,0.2c-0.2,0-0.3-0.1-0.5-0.2
		l-2.7-2.7c0.1,1.5,0.2,3,0.3,4.5c0,0-0.1,0.1-0.2,0.2v6c0,0.4-0.3,0.7-0.7,0.7c-0.4,0-0.7-0.3-0.7-0.7v-5.3
		c-0.2,0.1-0.5,0.1-0.7,0.1c-0.3,0-0.7-0.1-0.9-0.2v5.4c0,0.4-0.3,0.7-0.7,0.7c-0.4,0-0.7-0.3-0.7-0.7v-6.2
		c-0.1-0.1-0.1-0.1-0.2-0.2c0-1.6,0-3.1,0-4.7l-5.4,1.6c-0.1,0-0.1,0-0.2,0c-0.2,0-0.3-0.1-0.4-0.2c-0.1,0-0.1,0-0.2,0
		c-0.4,0-0.7-0.2-0.8-0.6l-2.4-6.5c0,0.8,0,1.7,0,2.6c0,1.5-0.1,3-0.2,4.4c-0.1,0-0.2,0.1-0.3,0.1v10.1c0,0.5-0.4,0.9-0.9,0.9
		c-0.5,0-0.9-0.4-0.9-0.9v-9.5c-1,0.2-1.8,0.1-2.4,0v9.4c0,0.5-0.4,0.9-0.9,0.9s-0.9-0.4-0.9-0.9v-10c-0.1,0-0.1-0.1-0.2-0.1
		c0-1.7-0.1-3.3-0.2-5c0-0.8-0.1-1.6-0.1-2.4l-1.7,7.4c-0.1,0.4-0.5,0.7-0.9,0.7c-0.1,0-0.1,0-0.2,0c-0.5-0.1-0.8-0.6-0.7-1.1
		l2.2-9.9c0.1-0.5,0.6-0.8,1.1-0.7c0.1,0,0.2,0.1,0.2,0.1c0.6,0,1.1,0,1.7,0c-0.8-0.5-1.4-1.4-1.4-2.5c0-1.6,1.3-2.9,2.8-2.9
		c1.6,0,2.8,1.3,2.8,2.9c0,1.1-0.6,2-1.4,2.5c0.6,0,1.1,0,1.7,0c0,0,0.1,0,0.1,0c0.5-0.2,1,0.1,1.2,0.5l3.4,9.1l5.2-1.6
		c0.2,0,0.3,0,0.4,0h0.6c-0.5-0.4-0.9-1.1-0.9-1.8c0-1.2,1-2.2,2.2-2.2c1.2,0,2.2,1,2.2,2.2c0,0.7-0.3,1.4-0.9,1.8h0.9
		c0.2,0,0.4,0.1,0.5,0.2l3.2,3.2C142,57.4,142,57.8,141.7,58.1z M149.1,67.4c-0.7-0.6-1.7-0.9-2.7-0.9c-0.8,0-1.6,0.2-2.2,0.6
		l-1.8-1.3c2-2.6,3.2-5.8,3.6-9.3h3.4c0.3,2.8,1.2,5.5,2.6,7.8L149.1,67.4z M149.3,53.3H146c-0.4-4.9-2.6-9.3-6.1-12.4l2.7-2.7
		c0.7,0.6,1.6,1,2.5,1c0.9,0,1.7-0.3,2.3-0.9l6.1,4.4C151.2,45.6,149.6,49.2,149.3,53.3z M178.9,43.4c-0.7,2.2-2.5,4-4.6,4.7
		c-0.2,0.1-0.5,0.1-0.7,0.2c1.5,1.5,2.8,3.2,3.6,5.2c1.1,2.9,0.7,7.1-2.2,9.1c-1.9,1.3-4.2,1.3-6.4,1.2c0.4,1.9,0.5,4.1-0.8,6
		c-0.1,0.2-0.4,0.3-0.6,0.3c-0.1,0-0.3,0-0.4-0.1c-0.3-0.2-0.4-0.7-0.2-1c0.5-0.7,0.7-1.4,0.8-2.2l-4.8-2.8c-0.2,0-0.5,0.1-0.7,0.1
		c-0.5,0.1-0.9,0.2-1.3,0.3l3,1.7l-0.6,1l-3.8-2.2c-0.7,0.4-1.2,0.8-1.4,1.4c-0.1,0.3-0.4,0.4-0.7,0.4c-0.1,0-0.2,0-0.3-0.1
		c-0.4-0.2-0.5-0.6-0.3-1c0.8-1.6,2.5-2.5,5.3-2.9c1.7-0.3,3.4-0.4,5-0.4c0-0.1-0.1-0.2-0.1-0.3c-0.4-0.9-0.8-1.8-1.3-2.6
		c-0.8-1.5-1.6-3.1-2-4.8c-0.3-1.3-0.5-3.2,0.5-4.8c0.9-1.5,2.7-2.3,5.2-2.6c0.5,0,0.9-0.1,1.4-0.1c-1.4-1.2-2.8-2.5-3.4-4.4
		c-0.4-1.2-0.3-2.7,0.3-3.8c0.5-0.9,1.2-1.5,2.1-1.7c0.4-0.1,0.8,0.2,0.9,0.6c0.1,0.4-0.2,0.8-0.6,0.9c-0.2,0-0.4,0.1-0.5,0.2l5,0.7
		l-0.2,1.1l-5.7-0.8c-0.2,0.5-0.3,1-0.2,1.6l0-0.1l9.6,1.3c0.2-0.3,0.5-0.4,0.9-0.3C178.8,42.6,179,43,178.9,43.4z"/>
	<path class="st0" d="M171.6,48.6c-0.4,0-0.8,0-1.3,0.1c-0.5,0-1,0-1.5,0.1c-0.4,0-0.8,0.1-1.3,0.2l5.4,1
		C172.6,49.5,172.1,49.1,171.6,48.6z"/>
	<path class="st0" d="M167.7,61.5c0.1,0.3,0.2,0.6,0.3,0.9c0,0,0,0,0,0c2.1,0.1,4.3,0.1,6-1c0.1,0,0.1-0.1,0.2-0.1l-7.1-0.9
		C167.4,60.7,167.6,61.1,167.7,61.5z"/>
	<path class="st0" d="M164.4,53.6l11.6,1.6c-0.1-0.4-0.2-0.7-0.3-1.1c0-0.1-0.1-0.2-0.1-0.3l0,0.1l-11.2-2
		C164.3,52.4,164.3,53,164.4,53.6z"/>
	<path class="st0" d="M164,63.9l3.2,1.8c0-0.7-0.1-1.3-0.3-1.9C166,63.8,165,63.8,164,63.9z"/>
	<path class="st0" d="M166.4,58.8c0.1,0.2,0.2,0.4,0.3,0.5l8.4,1.1c0.3-0.4,0.6-0.9,0.8-1.4l-9.9-1.3
		C166.1,58.1,166.2,58.4,166.4,58.8z"/>
	<path class="st0" d="M165.3,56.5l10.8,1.5c0.1-0.5,0.1-1.1,0.1-1.6l-11.5-1.5C164.8,55.4,165.1,55.9,165.3,56.5z"/>
	<polygon class="st1" points="61.6,77.4 61.6,77.4 61.6,77.4 	"/>
	<polygon class="st1" points="61.6,77.4 61.6,77.4 61.6,77.4 	"/>
	<path class="st0" d="M163.8,51.2C163.7,51.2,163.7,51.2,163.8,51.2c-0.2-0.1-0.3-0.2-0.2-0.3c0.5-1.2,1.7-2.2,3.2-2.6
		c1.1-0.3,2.3-0.4,3.4-0.5c0.2,0,0.5,0,0.7-0.1c0.5,0,1.1-0.1,1.6-0.2c0.6-0.1,1.4-0.2,2-0.5c0.7-0.3,1.2-0.8,1.4-1.3
		c0.1-0.1,0.2-0.2,0.3-0.1c0.1,0.1,0.2,0.2,0.1,0.3c-0.3,0.6-0.9,1.2-1.7,1.5c-0.7,0.3-1.5,0.4-2.1,0.5c-0.5,0.1-1.1,0.1-1.6,0.2
		c-0.2,0-0.5,0-0.7,0.1c-1.1,0.1-2.2,0.2-3.3,0.5c-1.4,0.4-2.5,1.3-2.9,2.4C163.9,51.2,163.9,51.2,163.8,51.2z"/>
	<path class="st0" d="M167.3,42c-0.1,0-0.1,0-0.2-0.1c-0.1-0.2-0.1-0.5-0.1-0.7c0-0.8,0.1-1.4,0.4-1.9c0.3-0.7,0.8-1.2,1.4-1.5
		c0.1-0.1,0.2,0,0.3,0.1c0.1,0.1,0,0.2-0.1,0.3c-0.5,0.2-0.9,0.7-1.1,1.3c-0.2,0.5-0.3,1-0.3,1.8c0,0.1,0,0.3,0.1,0.4
		c0.1,0.1,0,0.2-0.1,0.3C167.4,42,167.3,42,167.3,42z"/>
	<path class="st0" d="M161.8,63.7c-0.1,0-0.2-0.1-0.2-0.2c0-0.1,0.1-0.2,0.2-0.2l2.5-0.3c0.9-0.1,1.9-0.2,2.9-0.2c0.5,0,1,0,1.5,0
		c1.7,0,3.4,0.1,4.9-0.7c0.1-0.1,0.2,0,0.3,0.1c0.1,0.1,0,0.2-0.1,0.3c-1.6,0.8-3.4,0.8-5.1,0.7c-0.5,0-1,0-1.5,0
		c-0.9,0-1.9,0.1-2.8,0.2L161.8,63.7C161.8,63.7,161.8,63.7,161.8,63.7z"/>
	<path class="st0" d="M167.2,69.7C167.1,69.7,167.1,69.7,167.2,69.7c-0.2,0-0.3-0.2-0.2-0.3l0.5-1.5c0.2-0.5,0.3-1.1,0.3-1.6
		c0-0.1,0.1-0.2,0.2-0.2c0.1,0,0.2,0.1,0.2,0.2c0.1,0.6-0.1,1.2-0.3,1.8l-0.5,1.5C167.3,69.7,167.2,69.7,167.2,69.7z"/>
</g>
</svg>
