<?xml version="1.0" encoding="UTF-8"?>
<svg id="Layer_2" xmlns="http://www.w3.org/2000/svg" version="1.1" viewBox="0 0 210 140">
  <!-- Generator: Adobe Illustrator 29.2.1, SVG Export Plug-In . SVG Version: 2.1.0 Build 116)  -->
  <g>
    <path d="M54.5,63l-4,4v9.8c3-.6,5.7-2,7.9-4v-5.8l-4-4Z" style="fill: #666;"/>
    <g>
      <path d="M46.9,87.7c-15.6,0-28.2-12.6-28.2-28.2s12.6-28.2,28.2-28.2,28.2,12.6,28.2,28.2c0,15.6-12.7,28.2-28.2,28.2ZM46.9,39.2c-11.2,0-20.3,9.1-20.3,20.3s9.1,20.3,20.3,20.3,20.3-9.1,20.3-20.3c0-11.2-9.1-20.3-20.3-20.3Z" style="fill: #378;"/>
      <path d="M54.5,60l4,4v-17.9c-2.2-1.9-4.9-3.3-7.9-4v21.8l4-3.9Z" style="fill: #378;"/>
      <path d="M39.3,55.9l4-4v-9.8c-3,.6-5.7,2-7.9,4v5.8l4,4Z" style="fill: #378;"/>
      <path d="M39.3,59l-4-4v17.9c2.2,1.9,4.9,3.3,7.9,4v-21.8l-4,4Z" style="fill: #378;"/>
      <path d="M87.5,49.5l3.2-3.2v-1.8c0-1.8-1.3-3.1-3.1-3.1s-3.1,1.4-3.1,3.1v2l3.1,3.1Z" style="fill: #378;"/>
    </g>
    <g>
      <path d="M176.6,47.2v10.2h10.3c1.6,0,2.8,1.2,2.8,2.8s-1.2,2.7-2.8,2.7h-10.3v11.5c0,1.7-1.3,3.1-3.1,3.1s-3.1-1.4-3.1-3.1v-29.8c0-1.8,1.3-3.1,3.1-3.1h15c1.6,0,2.9,1.3,2.9,2.8s-1.3,2.8-2.9,2.8h-11.8Z"/>
      <path d="M87.5,52.7l-3.1-3.1v24.9c0,1.7,1.4,3.1,3.1,3.1s3.1-1.4,3.1-3.1v-25.1l-3.2,3.3Z"/>
      <path d="M161.9,41.3c-1.5,0-2.4.6-3.1,2.4-.5,1.3-1,2.6-1.5,3.9l3.9-1.7,1.7,3.9,1.6-3.9c.2-.6.4-1.2.4-1.7,0-1.7-1.4-2.9-3-2.9Z"/>
      <path d="M160.1,48.8l-3.9,1.7c-2.4,6.1-4.9,12.4-7.2,18.7-3.2-8.7-6.5-17.3-10-25.8-.5-1.4-1.7-2.2-3-2.2s-3.1,1.4-3.1,3.1,0,1,.4,1.7l11.8,28.6c.8,2,2.3,2.8,3.8,2.8s3-.9,3.8-2.9l9-22.1-1.6-3.8Z"/>
      <path d="M129.7,61.6v10.3c0,1.8-.5,3-2.5,3.9s-5.8,2.2-11,2.2c-10.8,0-18.8-7.9-18.8-18.5s8.2-18.4,19.4-18.4,7,.8,9,1.7c1.8.9,2.6,1.8,2.6,3.3s-1.1,2.7-2.5,2.7-1.6-.3-2.6-.7c-1.6-.7-3.9-1.3-6.4-1.3-7.5,0-12.9,5.1-12.9,12.7s5.5,12.9,12.6,12.9,5.2-.5,7.7-1.7v-6.6h-5.7c-1.6,0-2.8-1.1-2.8-2.6s1.2-2.7,2.8-2.7h8.2c1.6,0,2.9,1.2,2.9,2.9Z"/>
    </g>
  </g>
  <g>
    <path d="M84.5,82.5h4.9c.9,0,1.6,0,2.3.2.7.2,1.3.4,1.8.8.5.3.9.8,1.1,1.3s.4,1.2.4,2-.2,1.5-.5,2.1c-.3.6-.7,1-1.2,1.4-.5.3-1.1.6-1.8.7-.7.2-1.4.2-2.2.2h-2v6.2h-2.6v-14.9ZM89,89c.4,0,.8,0,1.2,0,.4,0,.7-.2,1-.3s.6-.4.7-.7c.2-.3.3-.6.3-1.1s0-.8-.3-1.1c-.2-.3-.4-.5-.7-.6-.3-.2-.6-.3-1-.3s-.8,0-1.2,0h-1.9v4.3h1.8Z" style="fill: #0e7490;"/>
    <path d="M97.3,82.5h2.6v6h7v-6h2.6v14.9h-2.6v-6.6h-7v6.6h-2.6v-14.9Z" style="fill: #0e7490;"/>
    <path d="M117.5,82.5h2.3l6.4,14.9h-3l-1.4-3.4h-6.4l-1.3,3.4h-3l6.5-14.9ZM120.9,91.7l-2.3-6-2.3,6h4.6Z" style="fill: #0e7490;"/>
    <path d="M135.2,85.6c-.3-.4-.7-.7-1.2-.9-.5-.2-1-.4-1.5-.4s-.6,0-.9.1c-.3,0-.6.2-.8.4s-.5.4-.6.6c-.2.3-.2.6-.2.9s0,.6.2.9c.1.2.3.4.6.6s.5.3.9.4c.3.1.7.3,1.2.4.5.2,1,.3,1.5.5.5.2,1,.5,1.4.8.4.3.8.7,1.1,1.2.3.5.4,1.1.4,1.8s-.1,1.5-.4,2.1c-.3.6-.7,1.1-1.2,1.5-.5.4-1.1.7-1.7.9-.7.2-1.4.3-2.1.3s-1.9-.2-2.8-.5c-.9-.4-1.7-.9-2.3-1.6l1.9-1.8c.4.5.9.9,1.5,1.2s1.2.4,1.8.4.6,0,.9-.1c.3,0,.6-.2.9-.4s.5-.4.6-.7c.2-.3.2-.6.2-1s0-.7-.3-1c-.2-.3-.4-.5-.7-.7-.3-.2-.7-.4-1.1-.5-.4-.1-.9-.3-1.3-.4-.4-.1-.9-.3-1.3-.5s-.9-.5-1.2-.8c-.4-.3-.6-.7-.9-1.2-.2-.5-.3-1.1-.3-1.8s.2-1.4.5-2,.7-1,1.2-1.4c.5-.4,1.1-.6,1.7-.8.7-.2,1.3-.3,2-.3s1.5.1,2.3.4c.8.3,1.5.7,2,1.2l-1.7,1.9Z" style="fill: #0e7490;"/>
    <path d="M139.7,82.5h9.8v2.3h-7.2v3.8h6.8v2.2h-6.8v4.2h7.6v2.4h-10.2v-14.9Z" style="fill: #0e7490;"/>
  </g>
  <g>
    <rect x="156.6" y="82.4" width="34.7" height="26.4" style="fill: #0e7490;"/>
    <path d="M174.3,89.5l-4.1,3.4-2.1-2.4,6.5-5.2h3.2v20.8h-3.5v-16.5Z" style="fill: #fff;"/>
  </g>
</svg>
