<?xml version="1.0" encoding="UTF-8"?>
<svg xmlns="http://www.w3.org/2000/svg" version="1.1" viewBox="0 0 210 140">
  <!-- Generator: Adobe Illustrator 28.6.0, SVG Export Plug-In . SVG Version: 1.2.0 Build 709)  -->
  <g>
    <g id="Layer_2">
      <g>
        <path d="M41.1,73.1c-17.1,0-31.1-13.9-31.1-31.1s13.9-31.1,31.1-31.1,31.1,13.9,31.1,31.1c0,17.1-14,31.1-31.1,31.1ZM41.1,19.7c-12.3,0-22.3,10-22.3,22.3s10,22.3,22.3,22.3,22.3-10,22.3-22.3c0-12.3-10-22.3-22.3-22.3Z" style="fill: #378;"/>
        <path d="M49.4,42.6l4.4,4.4v-19.7c-2.5-2.1-5.4-3.7-8.7-4.4v24l4.4-4.3Z" style="fill: #378;"/>
        <path d="M32.7,38.1l4.4-4.4v-10.8c-3.3.7-6.3,2.2-8.7,4.4v6.4l4.4,4.4Z" style="fill: #378;"/>
        <path d="M32.7,41.4l-4.4-4.4v19.7c2.5,2.1,5.4,3.7,8.7,4.4v-24l-4.4,4.4Z" style="fill: #378;"/>
        <path d="M85.8,31l3.6-3.6v-2c0-2-1.4-3.5-3.5-3.5s-3.5,1.5-3.5,3.5v2.2l3.4,3.4Z" style="fill: #378;"/>
      </g>
      <g>
        <path d="M183.8,28.4v11.2h11.3c1.7,0,3.1,1.3,3.1,3.1s-1.3,3-3.1,3h-11.3v12.7c0,1.9-1.4,3.5-3.5,3.5s-3.5-1.6-3.5-3.5V25.7c0-2,1.4-3.5,3.4-3.5h16.5c1.8,0,3.2,1.4,3.2,3.1s-1.4,3.1-3.2,3.1h-13Z"/>
        <path d="M85.8,34.4l-3.4-3.4v27.4c0,1.9,1.5,3.5,3.5,3.5s3.5-1.6,3.5-3.5v-27.6l-3.5,3.6Z"/>
        <path d="M167.6,21.9c-1.6,0-2.6.7-3.4,2.7-.5,1.4-1.1,2.8-1.6,4.3l4.3-1.8,1.8,4.3,1.7-4.3c.2-.6.4-1.3.4-1.8,0-1.9-1.5-3.2-3.3-3.2Z"/>
        <path d="M165.7,30.2l-4.3,1.8c-2.6,6.7-5.3,13.7-7.9,20.6-3.5-9.6-7.2-19-11-28.3-.6-1.5-1.8-2.4-3.3-2.4s-3.4,1.5-3.4,3.5.1,1.1.4,1.9l13,31.5c.9,2.2,2.5,3.1,4.2,3.1s3.3-1,4.2-3.2l9.9-24.3-1.8-4.2Z"/>
        <path d="M132.1,44.2v11.4c0,2-.6,3.3-2.7,4.3s-6.4,2.4-12.1,2.4c-11.9,0-20.6-8.6-20.6-20.3s9-20.2,21.4-20.2,7.7.9,9.9,1.8c2,.9,2.9,2,2.9,3.6s-1.2,3-2.7,3-1.8-.3-2.9-.7c-1.7-.8-4.3-1.4-7.1-1.4-8.2,0-14.2,5.6-14.2,14s6,14.2,13.9,14.2,5.8-.5,8.5-1.8v-7.3h-6.3c-1.7,0-3.1-1.2-3.1-2.9s1.3-3,3.1-3h9c1.7,0,3.2,1.3,3.2,3.2Z"/>
      </g>
      <path d="M49.4,45.9l-4.4,4.4v10.8c3.3-.7,6.3-2.2,8.7-4.4v-6.4l-4.4-4.4Z" style="fill: #666;"/>
      <g>
        <path d="M25.2,91.7c-.3.4-.6.8-1.1,1.2-.4.4-.9.7-1.5,1s-1.1.5-1.8.7c-.6.2-1.3.2-2,.2-1.3,0-2.4-.2-3.5-.7-1.1-.4-2-1.1-2.8-1.9s-1.4-1.7-1.9-2.8c-.4-1.1-.7-2.3-.7-3.6s.2-2.5.7-3.6c.4-1.1,1.1-2,1.9-2.8s1.7-1.4,2.8-1.9c1.1-.4,2.3-.7,3.5-.7s2.1.2,3.2.6c1.1.4,2,1.1,2.7,2.1l-1.5,1.1c-.2-.3-.4-.5-.7-.8-.3-.3-.7-.5-1-.7s-.8-.4-1.3-.5c-.4-.1-.9-.2-1.3-.2-1.1,0-2.1.2-2.9.6-.9.4-1.6.9-2.2,1.6-.6.7-1.1,1.5-1.4,2.3-.3.9-.5,1.8-.5,2.8s.2,1.9.5,2.8c.3.9.8,1.7,1.4,2.3.6.7,1.3,1.2,2.2,1.6.9.4,1.8.6,2.9.6s.9,0,1.3-.1c.4,0,.9-.2,1.3-.4.4-.2.8-.5,1.2-.8s.7-.7,1-1.2l1.4,1Z"/>
        <path d="M41.5,94.4h-2l7.4-17h1.7l7.4,17h-2l-1.9-4.5h-8.7l-1.9,4.5ZM44,88.3h7.4l-3.7-8.9-3.7,8.9Z"/>
        <path d="M75.8,94.4h-1.7v-15.4h-5.7v-1.6h13.1v1.6h-5.7v15.4Z"/>
        <path d="M95.9,94.4h-2l7.4-17h1.7l7.4,17h-2l-1.9-4.5h-8.7l-1.9,4.5ZM98.4,88.3h7.4l-3.7-8.9-3.7,8.9Z"/>
        <path d="M128.1,92.8h7.9v1.6h-9.6v-17h1.7v15.4Z"/>
        <path d="M168.6,85.9c0,1.3-.2,2.5-.7,3.6-.4,1.1-1.1,2-1.9,2.8s-1.7,1.4-2.8,1.9c-1.1.4-2.3.7-3.5.7s-2.4-.2-3.5-.7c-1.1-.4-2-1.1-2.8-1.9s-1.4-1.7-1.9-2.8c-.4-1.1-.7-2.3-.7-3.6s.2-2.5.7-3.6c.4-1.1,1.1-2,1.9-2.8s1.7-1.4,2.8-1.9c1.1-.4,2.3-.7,3.5-.7s2.4.2,3.5.7,2,1.1,2.8,1.9,1.4,1.7,1.9,2.8c.4,1.1.7,2.3.7,3.6ZM166.7,85.9c0-1-.2-1.9-.5-2.8-.3-.9-.8-1.7-1.4-2.3-.6-.7-1.3-1.2-2.2-1.6-.9-.4-1.8-.6-2.9-.6s-2.1.2-2.9.6c-.9.4-1.6.9-2.2,1.6-.6.7-1.1,1.5-1.4,2.3-.3.9-.5,1.8-.5,2.8s.2,1.9.5,2.8c.3.9.8,1.7,1.4,2.3.6.7,1.3,1.2,2.2,1.6.9.4,1.8.6,2.9.6s2.1-.2,2.9-.6c.9-.4,1.6-.9,2.2-1.6.6-.7,1.1-1.5,1.4-2.3.3-.9.5-1.8.5-2.8Z"/>
        <path d="M198.3,80.5c-.6-.6-1.3-1.1-2.1-1.4-.8-.4-1.7-.5-2.8-.5s-2.1.2-2.9.6c-.9.4-1.6.9-2.2,1.6-.6.7-1.1,1.5-1.4,2.3-.3.9-.5,1.8-.5,2.8s.2,1.9.5,2.8c.3.9.8,1.7,1.4,2.3.6.7,1.3,1.2,2.2,1.6.9.4,1.8.6,2.9.6s1.7-.1,2.5-.3c.8-.2,1.5-.5,2.2-.9v-5.7h-4.1v-1.6h5.8v8.3c-1,.6-2,1-3.2,1.3-1.1.3-2.2.4-3.3.4s-2.4-.2-3.5-.7c-1.1-.4-2-1.1-2.8-1.9s-1.4-1.7-1.9-2.8c-.4-1.1-.7-2.3-.7-3.6s.2-2.5.7-3.6c.4-1.1,1.1-2,1.9-2.8s1.7-1.4,2.8-1.9c1.1-.4,2.3-.7,3.5-.7s2.5.2,3.5.6c1,.4,1.9.9,2.6,1.7l-1.3,1.3Z"/>
      </g>
      <g>
        <path d="M53.4,108.3h5.8c.6,0,1.1,0,1.7.2.5.1,1,.4,1.5.7.4.3.8.7,1,1.2.3.5.4,1,.4,1.7s-.2,1.5-.7,2.1c-.5.5-1.1.9-1.9,1.2h0c.9.2,1.7.5,2.3,1.1.6.6.9,1.4.9,2.4s-.2,1.5-.5,2-.7,1-1.3,1.3-1.1.6-1.8.7c-.7.1-1.4.2-2.1.2h-5.4v-14.9ZM56,114.4h2.4c.9,0,1.6-.2,2-.5s.7-.8.7-1.5-.2-1.1-.7-1.4c-.5-.3-1.2-.4-2.2-.4h-2.1v3.9ZM56,121h2.4c.3,0,.7,0,1.1,0,.4,0,.8-.2,1.1-.3.3-.2.6-.4.8-.7.2-.3.3-.7.3-1.2,0-.8-.3-1.3-.8-1.6s-1.3-.5-2.4-.5h-2.5v4.3Z" style="fill: #ef4444;"/>
        <path d="M69.1,108.3h9.8v2.3h-7.2v3.8h6.8v2.2h-6.8v4.2h7.6v2.4h-10.2v-14.9Z" style="fill: #ef4444;"/>
        <path d="M87.2,110.6h-4.6v-2.3h11.8v2.3h-4.6v12.6h-2.6v-12.6Z" style="fill: #ef4444;"/>
        <path d="M101.5,108.3h2.3l6.4,14.9h-3l-1.4-3.4h-6.4l-1.3,3.4h-3l6.5-14.9ZM104.8,117.5l-2.3-6-2.3,6h4.6Z" style="fill: #ef4444;"/>
      </g>
      <rect x="116.8" y="102.5" width="39.8" height="26.6" rx="6.8" ry="6.8" style="fill: #16a34a;"/>
      <g>
        <path d="M133.4,115.8c0,.8,0,1.7-.2,2.6-.1.9-.4,1.7-.7,2.5-.4.8-.9,1.4-1.5,1.9-.6.5-1.5.7-2.5.7s-1.8-.2-2.5-.7c-.6-.5-1.1-1.1-1.5-1.9-.4-.8-.6-1.6-.7-2.5s-.2-1.8-.2-2.6,0-1.7.2-2.6.4-1.7.7-2.5.9-1.4,1.5-1.9c.6-.5,1.5-.7,2.5-.7s1.8.2,2.5.7c.6.5,1.1,1.1,1.5,1.9s.6,1.6.7,2.5c.1.9.2,1.8.2,2.6ZM130.1,115.8c0-.5,0-1,0-1.6,0-.6-.1-1.1-.2-1.6-.1-.5-.3-.9-.5-1.2-.2-.3-.5-.5-.8-.5s-.6.2-.8.5c-.2.3-.4.7-.5,1.2-.1.5-.2,1-.2,1.6,0,.6,0,1.1,0,1.6s0,1,0,1.6c0,.6.1,1.1.2,1.5.1.5.3.9.5,1.2.2.3.5.5.8.5s.6-.2.8-.5c.2-.3.4-.7.5-1.2.1-.5.2-1,.2-1.5,0-.6,0-1.1,0-1.6Z" style="fill: #fff;"/>
        <path d="M138.7,121.5c0,.5-.2,1-.5,1.3-.3.4-.8.5-1.3.5s-1-.2-1.3-.5c-.3-.4-.5-.8-.5-1.3s.2-1,.5-1.3c.3-.4.8-.6,1.3-.6s.9.2,1.3.6c.3.4.5.8.5,1.3Z" style="fill: #fff;"/>
        <path d="M149.7,112.4c0,.5,0,.9-.2,1.4s-.3.8-.5,1.2c-.2.4-.4.7-.7,1.1-.3.4-.5.7-.8,1l-2.8,3.2h4.8v2.9h-8.8v-3l4.5-5.2c.4-.4.7-.9.9-1.3.2-.4.3-.9.3-1.3s-.1-.8-.3-1.1c-.2-.3-.5-.5-1-.5s-.7.2-1,.5c-.3.3-.4.8-.5,1.4l-3.1-.3c.2-1.5.7-2.6,1.5-3.4.9-.7,1.9-1.1,3.2-1.1s1.3.1,1.8.3,1,.5,1.4.9c.4.4.7.8.9,1.4.2.5.3,1.2.3,1.8Z" style="fill: #fff;"/>
      </g>
    </g>
  </g>
</svg>
