<?xml version="1.0" encoding="UTF-8"?>
<svg id="Layer_2" xmlns="http://www.w3.org/2000/svg" xmlns:xlink="http://www.w3.org/1999/xlink" version="1.1" viewBox="0 0 210 140">
  <!-- Generator: Adobe Illustrator 30.6.0, SVG Export Plug-In . SVG Version: 2.1.4 Build 109)  -->
  <defs>
    <linearGradient id="linear-gradient" x1="85.032" y1="116.356" x2="124.876" y2="116.356" gradientUnits="userSpaceOnUse">
      <stop offset="0" stop-color="#e4ae36"/>
      <stop offset=".415" stop-color="#f5ce57"/>
      <stop offset=".62" stop-color="#faef9c"/>
      <stop offset=".793" stop-color="#fae16a"/>
      <stop offset="1" stop-color="#eab63d"/>
    </linearGradient>
  </defs>
  <g>
    <path d="M41.073,73.064c-17.117,0-31.073-13.922-31.073-31.073s13.922-31.073,31.073-31.073,31.073,13.922,31.073,31.073c0,17.117-13.956,31.073-31.073,31.073ZM41.073,19.662c-12.308,0-22.329,10.021-22.329,22.329s10.021,22.329,22.329,22.329,22.329-10.021,22.329-22.329c0-12.308-10.021-22.329-22.329-22.329Z" style="fill: #378;"/>
    <path d="M49.446,42.563l4.372,4.372v-19.673c-2.455-2.119-5.448-3.665-8.743-4.372v24.011l4.372-4.338Z" style="fill: #378;"/>
    <path d="M32.699,38.09l4.372-4.372v-10.795c-3.296.706-6.288,2.219-8.743,4.372v6.423l4.372,4.372Z" style="fill: #378;"/>
    <path d="M32.699,41.419l-4.372-4.372v19.673c2.455,2.119,5.448,3.665,8.743,4.372v-24.044l-4.372,4.372Z" style="fill: #378;"/>
    <path d="M85.765,30.995l3.565-3.565v-2.018c0-1.984-1.446-3.464-3.464-3.464-1.984,0-3.464,1.513-3.464,3.464v2.219l3.363,3.363Z" style="fill: #378;"/>
  </g>
  <g>
    <path d="M183.825,28.405v11.232h11.299c1.749,0,3.06,1.345,3.06,3.06,0,1.681-1.345,3.027-3.06,3.027h-11.299v12.712c0,1.917-1.446,3.464-3.464,3.464-1.984,0-3.464-1.581-3.464-3.464V25.681c0-1.984,1.446-3.464,3.363-3.464h16.545c1.782,0,3.195,1.379,3.195,3.127,0,1.681-1.379,3.06-3.195,3.06h-12.981Z"/>
    <path d="M85.765,34.425l-3.396-3.396v27.407c0,1.917,1.513,3.464,3.464,3.464,2.018,0,3.464-1.581,3.464-3.464v-27.609l-3.531,3.598Z"/>
    <path d="M167.65,21.881c-1.614,0-2.623.706-3.363,2.657-.538,1.412-1.076,2.825-1.648,4.271l4.304-1.85,1.85,4.271,1.749-4.304c.235-.639.404-1.345.404-1.85,0-1.917-1.513-3.195-3.296-3.195Z"/>
    <path d="M165.665,30.154l-4.271,1.85c-2.623,6.726-5.347,13.687-7.903,20.614-3.531-9.584-7.196-19.034-10.963-28.349-.572-1.513-1.85-2.388-3.296-2.388-1.917,0-3.43,1.513-3.43,3.464,0,.538.101,1.143.404,1.917l12.981,31.476c.874,2.219,2.488,3.127,4.237,3.127,1.681,0,3.296-.975,4.17-3.195l9.887-24.313-1.816-4.204Z"/>
    <path d="M132.138,44.177v11.366c0,1.984-.572,3.262-2.724,4.304s-6.423,2.388-12.073,2.388c-11.938,0-20.648-8.642-20.648-20.345s9.046-20.244,21.354-20.244c4.237,0,7.701.874,9.853,1.85,1.984.942,2.858,2.018,2.858,3.598,0,1.614-1.211,2.959-2.724,2.959-.975,0-1.782-.336-2.858-.74-1.749-.807-4.338-1.446-7.062-1.446-8.239,0-14.225,5.616-14.225,14.023,0,8.575,6.019,14.158,13.922,14.158,2.892,0,5.75-.538,8.474-1.85v-7.297h-6.322c-1.749,0-3.06-1.211-3.06-2.892,0-1.749,1.345-3.027,3.06-3.027h8.979c1.749-.067,3.195,1.278,3.195,3.195Z"/>
  </g>
  <path d="M49.446,45.892l-4.372,4.372v10.795c3.296-.706,6.288-2.219,8.743-4.372v-6.423l-4.372-4.372Z" style="fill: #666;"/>
  <g>
    <path d="M25.167,91.697c-.288.433-.644.841-1.068,1.225-.424.384-.908.716-1.452.996s-1.132.5-1.764.66c-.632.159-1.3.239-2.004.239-1.264,0-2.436-.224-3.516-.672-1.08-.447-2.016-1.067-2.808-1.859s-1.412-1.732-1.86-2.82c-.448-1.088-.672-2.28-.672-3.576s.224-2.487.672-3.576c.448-1.088,1.068-2.027,1.86-2.819s1.728-1.412,2.808-1.86c1.08-.448,2.251-.672,3.516-.672,1.056,0,2.112.208,3.168.624,1.056.416,1.96,1.104,2.712,2.063l-1.512,1.128c-.176-.271-.416-.543-.72-.815-.304-.272-.652-.512-1.044-.72s-.812-.376-1.26-.505c-.448-.127-.896-.191-1.344-.191-1.088,0-2.064.2-2.928.6-.864.4-1.596.937-2.196,1.608-.6.672-1.06,1.452-1.38,2.34-.32.888-.48,1.82-.48,2.796s.16,1.908.48,2.796c.32.889.78,1.668,1.38,2.34.6.672,1.332,1.209,2.196,1.608.864.4,1.84.6,2.928.6.448,0,.892-.039,1.332-.12.44-.079.872-.216,1.296-.407.423-.192.824-.452,1.2-.78s.724-.74,1.044-1.236l1.416,1.008Z"/>
    <path d="M41.487,94.385h-2.016l7.392-16.992h1.68l7.392,16.992h-2.016l-1.872-4.464h-8.688l-1.872,4.464ZM44.007,88.337h7.368l-3.672-8.928-3.696,8.928Z"/>
    <path d="M75.758,94.385h-1.728v-15.408h-5.688v-1.584h13.104v1.584h-5.688v15.408Z"/>
    <path d="M95.871,94.385h-2.016l7.392-16.992h1.68l7.392,16.992h-2.016l-1.872-4.464h-8.688l-1.872,4.464ZM98.391,88.337h7.368l-3.672-8.928-3.696,8.928Z"/>
    <path d="M128.054,92.801h7.92v1.584h-9.648v-16.992h1.728v15.408Z"/>
    <path d="M168.59,85.889c0,1.296-.224,2.488-.672,3.576-.448,1.088-1.068,2.028-1.86,2.82s-1.728,1.412-2.808,1.859c-1.08.448-2.252.672-3.516.672s-2.436-.224-3.516-.672c-1.08-.447-2.016-1.067-2.808-1.859s-1.412-1.732-1.86-2.82c-.448-1.088-.672-2.28-.672-3.576s.224-2.487.672-3.576c.448-1.088,1.068-2.027,1.86-2.819s1.728-1.412,2.808-1.86c1.08-.448,2.251-.672,3.516-.672s2.436.224,3.516.672,2.016,1.068,2.808,1.86,1.412,1.731,1.86,2.819c.448,1.089.672,2.28.672,3.576ZM166.718,85.889c0-.976-.16-1.908-.48-2.796-.32-.888-.78-1.668-1.38-2.34-.6-.672-1.332-1.208-2.196-1.608-.864-.399-1.84-.6-2.928-.6s-2.064.2-2.928.6c-.864.4-1.596.937-2.196,1.608-.6.672-1.06,1.452-1.38,2.34-.32.888-.48,1.82-.48,2.796s.16,1.908.48,2.796c.32.889.78,1.668,1.38,2.34.6.672,1.332,1.209,2.196,1.608.864.4,1.84.6,2.928.6s2.064-.199,2.928-.6c.864-.399,1.596-.937,2.196-1.608.6-.672,1.06-1.451,1.38-2.34.32-.888.48-1.819.48-2.796Z"/>
    <path d="M198.302,80.513c-.576-.607-1.264-1.088-2.064-1.439-.8-.353-1.728-.528-2.784-.528-1.088,0-2.064.2-2.928.6-.864.4-1.596.937-2.196,1.608-.6.672-1.06,1.452-1.38,2.34-.32.888-.48,1.82-.48,2.796s.16,1.908.48,2.796c.32.889.78,1.668,1.38,2.34.6.672,1.332,1.209,2.196,1.608.864.4,1.84.6,2.928.6.88,0,1.724-.107,2.532-.323.808-.217,1.532-.508,2.172-.876v-5.688h-4.056v-1.584h5.784v8.328c-.96.561-2.012.988-3.156,1.284-1.145.296-2.236.443-3.276.443-1.264,0-2.436-.224-3.516-.672-1.08-.447-2.016-1.067-2.808-1.859s-1.412-1.732-1.86-2.82c-.448-1.088-.672-2.28-.672-3.576s.224-2.487.672-3.576c.448-1.088,1.068-2.027,1.86-2.819s1.728-1.412,2.808-1.86c1.08-.448,2.251-.672,3.516-.672,1.36,0,2.532.188,3.516.563.984.377,1.86.948,2.628,1.717l-1.296,1.271Z"/>
  </g>
  <g>
    <rect x="85.032" y="103.043" width="39.844" height="26.626" rx="6.846" ry="6.846" style="fill: url(#linear-gradient);"/>
    <g>
      <path d="M96.26,123.79v-10.962l-2.226,1.68-1.491-2.604,4.074-2.982h2.94v14.868h-3.297Z"/>
      <path d="M106.299,122.089c0,.532-.168.98-.504,1.344-.336.364-.764.547-1.281.547-.532,0-.963-.183-1.292-.547-.329-.363-.494-.812-.494-1.344,0-.518.165-.966.494-1.344.329-.378.759-.567,1.292-.567.518,0,.945.189,1.281.567.336.378.504.826.504,1.344Z"/>
      <path d="M117.365,113.017c0,.49-.063.945-.189,1.365s-.294.819-.504,1.197c-.21.378-.448.742-.714,1.092-.266.351-.539.687-.819,1.008l-2.772,3.213h4.809v2.898h-8.799v-2.982l4.515-5.187c.364-.42.651-.851.861-1.292.21-.44.315-.864.315-1.271,0-.434-.102-.805-.305-1.112-.203-.308-.522-.462-.956-.462-.406,0-.742.164-1.008.493-.266.329-.427.809-.483,1.438l-3.15-.294c.168-1.512.683-2.643,1.543-3.392.861-.749,1.929-1.123,3.203-1.123.686,0,1.302.104,1.848.314s1.011.504,1.396.882c.385.378.683.84.893,1.387.21.546.315,1.154.315,1.826Z"/>
    </g>
  </g>
</svg>
