<?xml version="1.0" encoding="utf-8"?>
<!-- Generator: Adobe Illustrator 27.9.0, SVG Export Plug-In . SVG Version: 6.00 Build 0)  -->
<svg version="1.1" id="Layer_2" xmlns="http://www.w3.org/2000/svg" xmlns:xlink="http://www.w3.org/1999/xlink" x="0px" y="0px"
	 width="210px" height="140px" viewBox="0 0 210 140" style="enable-background:new 0 0 210 140;" xml:space="preserve">
<style type="text/css">
	.st0{fill:#F89721;}
	.st1{fill:none;stroke:#231F20;stroke-width:0.8;stroke-miterlimit:10;}
	.st2{fill:#79B89B;}
	.st3{fill:none;stroke:#000000;stroke-width:0.8;stroke-miterlimit:10;}
	.st4{fill:#78B894;}
	.st5{fill:#A1D7C8;}
	.st6{fill:#FBDA69;}
</style>
<g>
	<path class="st0" d="M173.9,37.5L173.9,37.5c-3.3,0-6.1,2.7-6.1,6.1v39.3c0,3.3,2.7,6.1,6.1,6.1h0c3.3,0,6.1-2.7,6.1-6.1V43.6
		C180,40.2,177.3,37.5,173.9,37.5z M173.9,46.6c-1.5,0-2.7-1.2-2.7-2.7c0-1.5,1.2-2.7,2.7-2.7c1.5,0,2.7,1.2,2.7,2.7
		C176.6,45.5,175.4,46.6,173.9,46.6z"/>
	<path class="st1" d="M173.9,37.5L173.9,37.5c-3.3,0-6.1,2.7-6.1,6.1v39.3c0,3.3,2.7,6.1,6.1,6.1h0c3.3,0,6.1-2.7,6.1-6.1V43.6
		C180,40.2,177.3,37.5,173.9,37.5z"/>
</g>
<path d="M172.6,65.5c-5.2-6.1-10.1-12.5-15.1-18.7c4.9-6.1,9.8-12.3,14.8-18.1c4.9-5.5,10-10.9,16.7-14.1c2.2-1,4.6-1.7,7.1-1.9
	c-5.1-0.3-10,1.8-14.2,4.4c-4.3,2.7-8,6.1-11.6,9.6c-5.2,5.2-10.4,11-15.4,16.7c-0.3-0.4-0.7-0.8-1-1.2c-9.8-11.6-20.7-23-35.1-29
	c-14.6-6.2-32.2-3.7-45.2,5.2c-10.1,6.8-17.8,15.9-24.8,25.7C35.8,28,24.8,12.1,12.3,12.8c5,0.3,9.3,3.2,12.8,6.6
	c7,6.9,12.2,15.4,17.9,23.5c1.1,1.6,2.3,3.2,3.4,4.9c-3.9,5.6-7.7,11.3-11.7,16.7c-5.6,7.4-12.5,16.7-22.4,17.5
	c7.8,0.5,14.4-5,19.5-10.2c5.2-5.4,9.8-11.4,14.4-17.3c0.9-1.1,1.7-2.2,2.6-3.4c7,9.5,14.8,18.6,24.8,25.1c8.7,5.8,19.3,9,29.8,8.5
	c21.3-1,37.2-17.6,50.1-32.9c0.5-0.5,0.9-1.1,1.4-1.7c5.2,5.8,10.3,11.8,15.7,17.3c3.6,3.5,7.3,7,11.4,9.8c4.1,2.8,9,5,14.1,4.7
	c-2.5-0.2-4.9-0.9-7.1-2C182.5,76.6,177.4,71,172.6,65.5z M150.1,48.8c-16.2,17.7-34.8,36-60.8,28.6c-15.2-4-27.2-16.7-37.8-29.8
	c4.3-5.5,8.8-10.8,13.8-15.6c13.8-13.7,32.6-21,51.4-13.5c13.5,5.4,24.1,16.2,33.8,26.7c0.5,0.5,0.9,1,1.4,1.5
	C151.3,47.5,150.7,48.2,150.1,48.8z"/>
<g>
	<path class="st2" d="M111.5,22.1L111.5,22.1c-3.3,0-6.1,2.7-6.1,6.1v54.7c0,3.3,2.7,6.1,6.1,6.1h0c3.3,0,6.1-2.7,6.1-6.1V28.1
		C117.6,24.8,114.9,22.1,111.5,22.1z M111.5,31.2c-1.5,0-2.7-1.2-2.7-2.7c0-1.5,1.2-2.7,2.7-2.7c1.5,0,2.7,1.2,2.7,2.7
		C114.2,30,113,31.2,111.5,31.2z"/>
	<path class="st3" d="M111.5,22.1L111.5,22.1c-3.3,0-6.1,2.7-6.1,6.1v54.7c0,3.3,2.7,6.1,6.1,6.1h0c3.3,0,6.1-2.7,6.1-6.1V28.1
		C117.6,24.8,114.9,22.1,111.5,22.1z"/>
</g>
<g>
	<path class="st4" d="M28.9,30.6L28.9,30.6c-3.3,0-6.1,2.7-6.1,6.1v46.2c0,3.3,2.7,6.1,6.1,6.1h0c3.3,0,6.1-2.7,6.1-6.1V36.7
		C35,33.3,32.2,30.6,28.9,30.6z M28.9,39.7c-1.5,0-2.7-1.2-2.7-2.7c0-1.5,1.2-2.7,2.7-2.7c1.5,0,2.7,1.2,2.7,2.7
		C31.6,38.5,30.4,39.7,28.9,39.7z"/>
	<path class="st3" d="M28.9,30.6L28.9,30.6c-3.3,0-6.1,2.7-6.1,6.1v46.2c0,3.3,2.7,6.1,6.1,6.1h0c3.3,0,6.1-2.7,6.1-6.1V36.7
		C35,33.3,32.2,30.6,28.9,30.6z"/>
</g>
<g>
	<path class="st0" d="M91.1,21.4L91.1,21.4c-3.3,0-6.1,2.7-6.1,6.1v55.4c0,3.3,2.7,6.1,6.1,6.1h0c3.3,0,6.1-2.7,6.1-6.1V27.4
		C97.1,24.1,94.4,21.4,91.1,21.4z M91.1,30.5c-1.5,0-2.7-1.2-2.7-2.7c0-1.5,1.2-2.7,2.7-2.7c1.5,0,2.7,1.2,2.7,2.7
		C93.7,29.3,92.5,30.5,91.1,30.5z"/>
	<path class="st3" d="M91.1,21.4L91.1,21.4c-3.3,0-6.1,2.7-6.1,6.1v55.4c0,3.3,2.7,6.1,6.1,6.1h0c3.3,0,6.1-2.7,6.1-6.1V27.4
		C97.1,24.1,94.4,21.4,91.1,21.4z"/>
</g>
<g>
	<path class="st5" d="M70.3,34.5L70.3,34.5c-3.3,0-6.1,2.7-6.1,6.1v42.3c0,3.3,2.7,6.1,6.1,6.1h0c3.3,0,6.1-2.7,6.1-6.1V40.5
		C76.4,37.2,73.7,34.5,70.3,34.5z M70.3,43.6c-1.5,0-2.7-1.2-2.7-2.7c0-1.5,1.2-2.7,2.7-2.7c1.5,0,2.7,1.2,2.7,2.7
		C73,42.4,71.8,43.6,70.3,43.6z"/>
	<path class="st3" d="M70.3,34.5L70.3,34.5c-3.3,0-6.1,2.7-6.1,6.1v42.3c0,3.3,2.7,6.1,6.1,6.1h0c3.3,0,6.1-2.7,6.1-6.1V40.5
		C76.4,37.2,73.7,34.5,70.3,34.5z"/>
</g>
<g>
	<path class="st6" d="M132.4,33.8L132.4,33.8c-3.3,0-6.1,2.7-6.1,6.1v43c0,3.3,2.7,6.1,6.1,6.1h0c3.3,0,6.1-2.7,6.1-6.1v-43
		C138.4,36.5,135.7,33.8,132.4,33.8z M132.4,42.9c-1.5,0-2.7-1.2-2.7-2.7c0-1.5,1.2-2.7,2.7-2.7c1.5,0,2.7,1.2,2.7,2.7
		C135,41.7,133.8,42.9,132.4,42.9z"/>
	<path class="st3" d="M132.4,33.8L132.4,33.8c-3.3,0-6.1,2.7-6.1,6.1v43c0,3.3,2.7,6.1,6.1,6.1h0c3.3,0,6.1-2.7,6.1-6.1v-43
		C138.4,36.5,135.7,33.8,132.4,33.8z"/>
</g>
<g>
	<path class="st5" d="M153.1,60.1L153.1,60.1c-3.3,0-6.1,2.7-6.1,6.1v16.7c0,3.3,2.7,6.1,6.1,6.1h0c3.3,0,6.1-2.7,6.1-6.1V66.2
		C159.1,62.8,156.4,60.1,153.1,60.1z M153.1,69.2c-1.5,0-2.7-1.2-2.7-2.7c0-1.5,1.2-2.7,2.7-2.7c1.5,0,2.7,1.2,2.7,2.7
		C155.7,68.1,154.6,69.2,153.1,69.2z"/>
	<path class="st3" d="M153.1,60.1L153.1,60.1c-3.3,0-6.1,2.7-6.1,6.1v16.7c0,3.3,2.7,6.1,6.1,6.1h0c3.3,0,6.1-2.7,6.1-6.1V66.2
		C159.1,62.8,156.4,60.1,153.1,60.1z"/>
</g>
<g>
	<path class="st6" d="M49.6,58.3L49.6,58.3c-3.3,0-6.1,2.7-6.1,6.1v18.5c0,3.3,2.7,6.1,6.1,6.1h0c3.3,0,6.1-2.7,6.1-6.1V64.4
		C55.7,61,53,58.3,49.6,58.3z M49.6,67.5c-1.5,0-2.7-1.2-2.7-2.7c0-1.5,1.2-2.7,2.7-2.7c1.5,0,2.7,1.2,2.7,2.7
		C52.3,66.3,51.1,67.5,49.6,67.5z"/>
	<path class="st3" d="M49.6,58.3L49.6,58.3c-3.3,0-6.1,2.7-6.1,6.1v18.5c0,3.3,2.7,6.1,6.1,6.1h0c3.3,0,6.1-2.7,6.1-6.1V64.4
		C55.7,61,53,58.3,49.6,58.3z"/>
</g>
<g>
	<path d="M12.8,130c-0.3,0-0.6-0.1-0.8-0.3c-0.2-0.2-0.3-0.5-0.3-0.8v-30c0-0.3,0.1-0.6,0.3-0.8c0.2-0.2,0.5-0.3,0.8-0.3h5
		c0.5,0,0.9,0.1,1.2,0.4c0.2,0.3,0.4,0.5,0.5,0.6l8.1,14.6l8.1-14.6c0.1-0.2,0.3-0.4,0.5-0.6c0.2-0.3,0.6-0.4,1.1-0.4h4.9
		c0.3,0,0.6,0.1,0.9,0.3c0.2,0.2,0.3,0.5,0.3,0.8v30c0,0.3-0.1,0.6-0.3,0.8c-0.2,0.2-0.5,0.3-0.9,0.3h-5.5c-0.3,0-0.6-0.1-0.9-0.3
		c-0.2-0.2-0.3-0.5-0.3-0.8v-17.3l-5.2,9.7c-0.2,0.3-0.4,0.5-0.6,0.7c-0.2,0.2-0.6,0.3-1,0.3h-2.4c-0.4,0-0.8-0.1-1-0.3
		c-0.2-0.2-0.4-0.5-0.6-0.7l-5.2-9.7v17.3c0,0.3-0.1,0.6-0.3,0.8c-0.2,0.2-0.5,0.3-0.8,0.3H12.8z"/>
	<path d="M48.1,130c-0.2,0-0.5-0.1-0.7-0.3c-0.2-0.2-0.3-0.4-0.3-0.7c0-0.2,0-0.3,0-0.4L58,99c0.1-0.3,0.3-0.6,0.6-0.9
		c0.3-0.3,0.7-0.4,1.2-0.4h6.8c0.5,0,0.9,0.1,1.2,0.4c0.3,0.3,0.5,0.6,0.6,0.9l10.8,29.7c0.1,0.1,0.1,0.3,0.1,0.4
		c0,0.2-0.1,0.5-0.3,0.7c-0.2,0.2-0.4,0.3-0.7,0.3h-5.7c-0.5,0-0.8-0.1-1-0.3c-0.2-0.2-0.4-0.4-0.4-0.6l-1.8-4.7H57l-1.8,4.7
		c-0.1,0.2-0.2,0.4-0.4,0.6c-0.2,0.2-0.6,0.3-1.1,0.3H48.1z M58.9,117.7h8.6l-4.3-12.2L58.9,117.7z"/>
	<path d="M89.7,130c-0.5,0-0.9-0.1-1.2-0.4c-0.3-0.3-0.5-0.6-0.6-1L78.4,99c-0.1-0.2-0.1-0.3-0.1-0.4c0-0.2,0.1-0.5,0.3-0.7
		c0.2-0.2,0.4-0.3,0.7-0.3H85c0.5,0,0.9,0.1,1.2,0.4c0.3,0.3,0.4,0.5,0.5,0.8l6.6,21.3l6.5-21.3c0.1-0.2,0.3-0.5,0.5-0.8
		c0.3-0.3,0.6-0.4,1.1-0.4h5.8c0.2,0,0.5,0.1,0.7,0.3c0.2,0.2,0.3,0.4,0.3,0.7c0,0.1,0,0.3-0.1,0.4l-9.4,29.6
		c-0.1,0.4-0.3,0.7-0.6,1c-0.3,0.3-0.7,0.4-1.3,0.4H89.7z"/>
	<path d="M113.6,130c-0.3,0-0.6-0.1-0.8-0.3c-0.2-0.2-0.3-0.5-0.3-0.8v-30c0-0.3,0.1-0.6,0.3-0.8c0.2-0.2,0.5-0.3,0.8-0.3h21.6
		c0.3,0,0.6,0.1,0.8,0.3c0.2,0.2,0.3,0.5,0.3,0.8v4.3c0,0.3-0.1,0.6-0.3,0.8c-0.2,0.2-0.5,0.3-0.8,0.3h-14.7v6.2h13.7
		c0.3,0,0.6,0.1,0.8,0.3c0.2,0.2,0.3,0.5,0.3,0.9v4c0,0.3-0.1,0.6-0.3,0.8c-0.2,0.2-0.5,0.3-0.8,0.3h-13.7v6.4h15.1
		c0.3,0,0.6,0.1,0.8,0.3c0.2,0.2,0.3,0.5,0.3,0.8v4.3c0,0.3-0.1,0.6-0.3,0.8c-0.2,0.2-0.5,0.3-0.8,0.3H113.6z"/>
</g>
<g>
	<path d="M143.3,130c-0.3,0-0.6-0.1-0.8-0.3c-0.2-0.2-0.3-0.5-0.3-0.8V98.8c0-0.3,0.1-0.6,0.3-0.8c0.2-0.2,0.4-0.3,0.8-0.3h10.5
		c3.2,0,5.7,0.5,7.7,1.4c1.9,1,3.4,2.4,4.2,4.2c0.9,1.9,1.4,4.2,1.4,6.9c0,1.4,0,2.6,0,3.6c0,1,0,2.2,0,3.6c-0.1,2.8-0.5,5.2-1.4,7
		c-0.9,1.9-2.3,3.2-4.2,4.2c-1.9,0.9-4.4,1.4-7.5,1.4H143.3z M146.7,126.1h7c2.1,0,3.8-0.3,5.1-0.9c1.3-0.6,2.2-1.5,2.7-2.8
		c0.6-1.3,0.9-3,0.9-5.1c0.1-0.9,0.1-1.7,0.1-2.4c0-0.7,0-1.4,0-2.1c0-0.7,0-1.5-0.1-2.4c-0.1-3-0.8-5.2-2.1-6.6
		c-1.4-1.4-3.6-2.1-6.8-2.1h-6.8V126.1z"/>
	<path d="M175.1,130c-0.3,0-0.6-0.1-0.8-0.3c-0.2-0.2-0.3-0.5-0.3-0.8V98.8c0-0.3,0.1-0.6,0.3-0.8c0.2-0.2,0.4-0.3,0.8-0.3h12.7
		c2.3,0,4.2,0.4,5.7,1.1c1.5,0.8,2.5,1.8,3.2,3.1c0.7,1.3,1,2.7,1,4.3c0,1.3-0.2,2.3-0.6,3.3c-0.4,0.9-0.9,1.6-1.5,2.2
		c-0.6,0.6-1.2,1-1.8,1.3c1.2,0.6,2.3,1.5,3.2,2.9c0.9,1.3,1.4,2.9,1.4,4.8c0,1.7-0.4,3.2-1.2,4.7c-0.8,1.4-1.9,2.5-3.4,3.4
		c-1.5,0.8-3.4,1.3-5.6,1.3H175.1z M178.6,111.3h8.5c2,0,3.5-0.5,4.5-1.4c1-0.9,1.5-2.1,1.5-3.7s-0.5-2.8-1.5-3.6
		c-1-0.8-2.5-1.2-4.5-1.2h-8.5V111.3z M178.6,126.3h9c2,0,3.5-0.5,4.6-1.6c1.1-1.1,1.6-2.4,1.6-4c0-1.6-0.5-3-1.6-4
		c-1.1-1.1-2.6-1.6-4.6-1.6h-9V126.3z"/>
</g>
</svg>
