<?xml version="1.0" encoding="UTF-8"?>
<svg id="Layer_2" xmlns="http://www.w3.org/2000/svg" version="1.1" viewBox="0 0 210 140">
  <!-- Generator: Adobe Illustrator 29.2.1, SVG Export Plug-In . SVG Version: 2.1.0 Build 116)  -->
  <path d="M27.2,55.4c8,0,14.5,6.5,14.5,14.6s-6.5,14.6-14.5,14.6-14.5-6.5-14.5-14.6,6.5-14.6,14.5-14.6ZM27.2,52.7c-9.5,0-17.2,7.8-17.2,17.3s7.7,17.3,17.2,17.3,17.2-7.8,17.2-17.3-7.7-17.3-17.2-17.3Z" style="fill: #017176;"/>
  <path d="M27.2,83.8c-7.6,0-13.8-6.2-13.8-13.8s6.2-13.8,13.8-13.8,13.8,6.2,13.8,13.8-6.2,13.8-13.8,13.8Z" style="fill: #ededed;"/>
  <path d="M27.2,57c7.1,0,12.9,5.8,12.9,13s-5.8,13-12.9,13-12.9-5.8-12.9-13,5.8-13,12.9-13ZM27.2,55.4c-8,0-14.6,6.6-14.6,14.6s6.5,14.6,14.6,14.6,14.6-6.6,14.6-14.6-6.5-14.6-14.6-14.6Z" style="fill: #89ced9;"/>
  <path d="M22.9,75.4c-3,0-5.4-2.4-5.4-5.4s2.4-5.4,5.4-5.4,5.4,2.4,5.4,5.4-2.4,5.4-5.4,5.4Z" style="fill: #ededed;"/>
  <path d="M22.9,65.7c2.4,0,4.3,1.9,4.3,4.3s-1.9,4.3-4.3,4.3-4.3-1.9-4.3-4.3,1.9-4.3,4.3-4.3ZM22.9,63.5c-3.6,0-6.5,2.9-6.5,6.5s2.9,6.5,6.5,6.5,6.5-2.9,6.5-6.5-2.9-6.5-6.5-6.5Z" style="fill: #e84e0f;"/>
  <path d="M22.4,72.1c1.2,0,2.1-1,2.1-2.1s-.9-2.1-2.1-2.1-2.1,1-2.1,2.1.9,2.1,2.1,2.1Z" style="fill: #e84e0f;"/>
  <path d="M30.1,64.9c1.1,0,2-.9,2-2s-.9-2-2-2-2,.9-2,2,.9,2,2,2Z" style="fill: #04989e;"/>
  <path d="M34.9,66.5c.5,0,.8-.4.8-.9s-.4-.9-.8-.9-.8.4-.8.9.4.9.8.9Z" style="fill: #89ced9;"/>
  <path d="M24.7,79.3c.5,0,.8-.4.8-.9s-.4-.9-.8-.9-.8.4-.8.9.4.9.8.9Z" style="fill: #89ced9;"/>
  <path d="M24,62.6c.5,0,.8-.4.8-.9s-.4-.9-.8-.9-.8.4-.8.9.4.9.8.9Z" style="fill: #89ced9;"/>
  <path d="M32.1,72c-.2,0-.5,0-.6-.3-.3-.3-.3-.9,0-1.2l2.9-2.5c.3-.3.9-.3,1.2,0,.3.3.3.9,0,1.2l-2.9,2.5c-.2.1-.4.2-.5.2Z" style="fill: #e84e0f;"/>
  <path d="M33.5,73.6c-.2,0-.5,0-.6-.3-.3-.3-.3-.9,0-1.2l2.9-2.5c.3-.3.9-.3,1.2,0,.3.3.3.9,0,1.2l-2.9,2.5c-.2.1-.4.2-.5.2Z" style="fill: #e84e0f;"/>
  <path d="M32.7,79.3c-.2,0-.3,0-.5-.2l-3-2.3c-.4-.3-.4-.8-.2-1.2.3-.4.8-.4,1.1-.2l3,2.3c.4.3.4.8.2,1.2-.2.2-.4.3-.7.3Z" style="fill: #04989e;"/>
  <path d="M168.5,61c-.9,0-1.8-.4-2.5-1-.7-.7-1-1.5-1-2.5s.4-1.8,1-2.5c.7-.7,1.5-1,2.4-1s1.8.3,2.4,1c.7.7,1,1.5,1,2.5s-.3,1.8-1,2.5c-.7.7-1.5,1-2.5,1h0Z" style="fill: #f6f6f6;"/>
  <path d="M168.5,55.4c.6,0,1.1.2,1.5.6.4.4.6.9.6,1.5s-.2,1.1-.6,1.5c-.4.4-.9.6-1.5.6s-1.1-.2-1.5-.6c-.4-.4-.6-.9-.6-1.5s.2-1.1.6-1.5c.4-.4.9-.6,1.5-.6ZM168.5,52.7c-1.3,0-2.5.5-3.4,1.4-.9.9-1.4,2.1-1.4,3.4s.5,2.5,1.4,3.4c.9.9,2.1,1.4,3.4,1.4s2.5-.5,3.4-1.4c.9-.9,1.4-2.1,1.4-3.4s-.5-2.5-1.4-3.4c-.9-.9-2.1-1.4-3.4-1.4Z" style="fill: #e84e0f;"/>
  <g>
    <path d="M50.7,55.8h8.1l7.2,21h.1l7-21h8v29.4h-5.6v-21.5h-.1l-7.2,21.5h-4.7l-7.2-21.5h-.1v21.5h-5.5v-29.4Z"/>
    <path d="M88.2,84.5c-1.6-.9-2.8-2.2-3.7-3.9-.9-1.7-1.3-3.6-1.3-5.8s.4-4.2,1.3-5.8c.9-1.7,2.1-3,3.7-3.9,1.6-.9,3.5-1.4,5.7-1.4s4.1.5,5.7,1.4c1.6.9,2.8,2.2,3.7,3.9.9,1.7,1.3,3.6,1.3,5.8s-.4,4.2-1.3,5.8c-.9,1.7-2.1,3-3.7,3.9-1.6.9-3.5,1.4-5.7,1.4s-4.1-.5-5.7-1.4ZM96.7,80.8c.8-.6,1.3-1.4,1.7-2.4.4-1,.6-2.3.6-3.7s-.2-2.6-.6-3.7c-.4-1-.9-1.8-1.7-2.4-.8-.6-1.7-.8-2.8-.8s-2,.3-2.8.8c-.8.6-1.3,1.4-1.7,2.4-.4,1-.6,2.3-.6,3.7s.2,2.6.6,3.7c.4,1,.9,1.8,1.7,2.4.8.6,1.7.8,2.8.8s2-.3,2.8-.8Z"/>
    <path d="M106.3,64.3h5.4v3.3h.1c.7-1.2,1.6-2.2,2.6-2.9,1-.7,2.1-1,3.4-1s1.1,0,1.6.2v5.1h-.1c-.5-.1-1-.2-1.5-.2-1.2,0-2.2.2-3.1.7-.9.5-1.6,1.2-2,2.1-.5.9-.7,2-.7,3.3v10.3h-5.6v-21h0Z"/>
    <path d="M120.7,55.8h11.4c2.1,0,4,.4,5.6,1.1,1.6.7,2.8,1.8,3.7,3.2s1.3,3,1.3,5-.4,3.5-1.3,5c-.9,1.4-2.1,2.5-3.7,3.3-1.6.8-3.5,1.2-5.6,1.2h-5.3v10.8h-6v-29.4ZM135.3,68.5c.8-.7,1.3-1.9,1.3-3.4s-.4-2.7-1.3-3.4c-.9-.7-2.1-1.1-3.8-1.1h-4.9v9h4.9c1.7,0,3-.4,3.9-1.1h0Z"/>
    <path d="M144.1,55.8h5.6v11h.1c.8-1,1.7-1.8,2.8-2.3,1.1-.5,2.4-.8,3.8-.8,2.4,0,4.2.7,5.4,2,1.2,1.3,1.8,3.3,1.8,5.9v13.7h-5.6v-12.9c0-1.5-.3-2.6-.9-3.3-.6-.7-1.5-1.1-2.7-1.1s-1.8.2-2.5.5c-.7.4-1.2.9-1.6,1.6-.4.7-.6,1.6-.6,2.5v12.5h-5.6v-29.4h0Z"/>
    <path d="M165.7,64.3h5.5v21h-5.5v-21Z"/>
    <path d="M179.6,83.9c-2.1-1.3-3.8-3.1-4.9-5.5-1.1-2.3-1.7-4.9-1.7-7.9s.6-5.5,1.7-7.9c1.1-2.3,2.8-4.1,4.9-5.5,2.1-1.3,4.7-2,7.5-2s4.4.4,6.2,1.3c1.9.9,3.4,2.1,4.5,3.7,1.1,1.6,1.8,3.5,2,5.7h-6.1c-.3-1.8-1-3.2-2.2-4.2-1.1-1-2.6-1.5-4.5-1.5s-3.2.4-4.4,1.3c-1.2.9-2.1,2.1-2.7,3.7-.6,1.6-.9,3.4-.9,5.4s.3,3.8.9,5.4c.6,1.6,1.5,2.8,2.7,3.7,1.2.9,2.7,1.3,4.4,1.3s2.4-.2,3.3-.7c.9-.5,1.7-1.2,2.3-2.2.6-.9,1-2.1,1.2-3.5h6.1c-.2,2.3-.9,4.3-2,6.1-1.2,1.7-2.7,3-4.5,3.9-1.9.9-4,1.3-6.3,1.3s-5.4-.7-7.6-2h0Z"/>
  </g>
</svg>
