<?xml version="1.0" encoding="utf-8"?>
<!-- Generator: Adobe Illustrator 28.1.0, SVG Export Plug-In . SVG Version: 6.00 Build 0)  -->
<svg version="1.1" id="Layer_1" xmlns="http://www.w3.org/2000/svg" xmlns:xlink="http://www.w3.org/1999/xlink" x="0px" y="0px"
	 viewBox="0 0 210 140" style="enable-background:new 0 0 210 140;" xml:space="preserve">
<style type="text/css">
	.st0{fill:#17377F;}
	.st1{fill:#FFFFFF;}
	.st2{fill:#D61A20;}
	.st3{fill:#18377F;}
</style>
<rect x="0" class="st0" width="210" height="140"/>
<g>
	<path class="st1" d="M30.53,129.5c-0.12-0.14-0.18-0.33-0.18-0.57v-20.67c0-0.22,0.04-0.38,0.13-0.48c0.09-0.1,0.23-0.15,0.43-0.15
		h7.29c0.24,0,0.41,0.04,0.51,0.1c0.1,0.07,0.19,0.2,0.27,0.4l3.75,10.89c0.06,0.16,0.13,0.24,0.21,0.24c0.08,0,0.15-0.08,0.21-0.24
		l3.48-10.62c0.16-0.52,0.41-0.77,0.74-0.77h7.52c0.34,0,0.51,0.19,0.51,0.57v20.73c0,0.28-0.06,0.48-0.19,0.59
		c-0.13,0.12-0.35,0.18-0.67,0.18H50.1c-0.28,0-0.47-0.05-0.57-0.16c-0.1-0.11-0.15-0.28-0.15-0.52v-14.04
		c0-0.14-0.04-0.21-0.12-0.21c-0.08,0-0.15,0.08-0.21,0.24l-4.7,14.19c-0.12,0.34-0.35,0.51-0.68,0.51h-2.8
		c-0.36,0-0.59-0.17-0.71-0.51l-4.7-13.98c-0.06-0.18-0.12-0.27-0.18-0.27c-0.08,0-0.12,0.1-0.12,0.3v13.86
		c0,0.24-0.04,0.4-0.12,0.48c-0.08,0.08-0.25,0.12-0.51,0.12h-3.51C30.82,129.7,30.65,129.63,30.53,129.5z"/>
	<path class="st1" d="M75.61,118.36c-0.67,1.04-1.63,1.83-2.86,2.38c-1.23,0.55-2.65,0.82-4.25,0.82h-4.25
		c-0.22,0-0.33,0.1-0.33,0.3v7.08c0,0.28-0.07,0.48-0.21,0.59c-0.14,0.12-0.37,0.18-0.68,0.18H58.6c-0.26,0-0.44-0.05-0.54-0.16
		c-0.1-0.11-0.15-0.28-0.15-0.52v-20.76c0-0.42,0.17-0.63,0.51-0.63h9.4c1.67,0,3.16,0.26,4.49,0.79c1.33,0.53,2.38,1.31,3.15,2.36
		c0.77,1.05,1.16,2.34,1.16,3.87C76.62,116.08,76.28,117.32,75.61,118.36z M69.64,112.6c-0.57-0.48-1.29-0.71-2.19-0.71h-2.91
		c-0.24,0-0.4,0.04-0.49,0.13c-0.09,0.09-0.13,0.24-0.13,0.46v4.19c0,0.22,0.03,0.37,0.09,0.46c0.06,0.09,0.18,0.13,0.36,0.13h3.27
		c0.87,0,1.57-0.25,2.08-0.74c0.52-0.5,0.77-1.15,0.77-1.96C70.49,113.73,70.21,113.08,69.64,112.6z"/>
	<path class="st1" d="M96.38,129.11c0,0.18-0.05,0.32-0.15,0.43c-0.1,0.11-0.24,0.16-0.42,0.16h-5.09c-0.38,0-0.62-0.19-0.74-0.57
		l-2.97-8c-0.06-0.16-0.15-0.27-0.28-0.34c-0.13-0.07-0.33-0.1-0.61-0.1h-2.05c-0.12,0-0.21,0.04-0.27,0.1
		c-0.06,0.07-0.09,0.14-0.09,0.22v7.88c0,0.3-0.07,0.51-0.21,0.62c-0.14,0.12-0.37,0.18-0.68,0.18h-4.43
		c-0.26,0-0.44-0.05-0.54-0.16c-0.1-0.11-0.15-0.28-0.15-0.52v-20.76c0-0.42,0.17-0.63,0.51-0.63h9.64c2.78,0,4.93,0.54,6.45,1.62
		c1.53,1.08,2.29,2.6,2.29,4.56c0,1.41-0.37,2.64-1.12,3.69c-0.74,1.05-1.7,1.78-2.87,2.2c-0.1,0.04-0.15,0.14-0.15,0.3
		c0,0.1,0.01,0.18,0.03,0.24l3.84,8.57C96.36,128.97,96.38,129.07,96.38,129.11z M89.63,116.05c0.5-0.44,0.74-1.05,0.74-1.84
		c0-0.83-0.27-1.48-0.82-1.93c-0.55-0.46-1.24-0.68-2.1-0.68h-3.12c-0.24,0-0.4,0.04-0.49,0.12c-0.09,0.08-0.13,0.22-0.13,0.42v3.99
		c0,0.22,0.03,0.37,0.09,0.46c0.06,0.09,0.18,0.13,0.36,0.13h3.3C88.41,116.71,89.13,116.49,89.63,116.05z"/>
	<path class="st1" d="M97.22,129.55c-0.09-0.1-0.13-0.24-0.13-0.42c0-0.14,0.03-0.28,0.09-0.42l7.32-20.46
		c0.08-0.24,0.18-0.4,0.3-0.49c0.12-0.09,0.3-0.13,0.54-0.13h5.17c0.48,0,0.81,0.25,1.01,0.74l7.23,20.4
		c0.02,0.06,0.03,0.16,0.03,0.3c0,0.18-0.04,0.33-0.1,0.45c-0.07,0.12-0.17,0.18-0.31,0.18h-5.15c-0.32,0-0.53-0.16-0.62-0.48
		l-1.31-3.87c-0.06-0.12-0.11-0.2-0.16-0.25s-0.15-0.07-0.28-0.07h-6.75c-0.22,0-0.36,0.11-0.42,0.33l-1.4,3.93
		c-0.1,0.28-0.32,0.42-0.65,0.42H97.6C97.44,129.7,97.31,129.65,97.22,129.55z M109.49,120.51c0.2,0,0.3-0.1,0.3-0.3
		c0-0.12-0.01-0.21-0.03-0.27l-2.14-5.98c-0.02-0.12-0.08-0.18-0.18-0.18c-0.08,0-0.14,0.06-0.18,0.18l-2.17,5.98
		c-0.04,0.08-0.06,0.18-0.06,0.3c0,0.18,0.12,0.27,0.36,0.27H109.49z"/>
	<path class="st1" d="M120.16,129.7c-0.28,0-0.47-0.05-0.58-0.16c-0.11-0.11-0.16-0.28-0.16-0.52v-20.76c0-0.42,0.18-0.63,0.54-0.63
		h4.25c0.34,0,0.51,0.2,0.51,0.59v6.78c0,0.26,0.07,0.39,0.21,0.39c0.08,0,0.19-0.05,0.33-0.15c1.13-1.07,2.45-1.61,3.96-1.61
		c1.94,0,3.46,0.72,4.55,2.17c1.09,1.45,1.64,3.41,1.64,5.89c0,2.56-0.59,4.58-1.77,6.07c-1.18,1.49-2.84,2.23-4.98,2.23
		c-0.97,0-1.85-0.22-2.65-0.67c-0.79-0.45-1.48-1.04-2.05-1.77c-0.06-0.08-0.12-0.12-0.18-0.12c-0.1,0-0.16,0.07-0.18,0.21
		l-0.42,1.4c-0.08,0.24-0.17,0.41-0.28,0.51c-0.11,0.1-0.26,0.15-0.46,0.15H120.16z M124.71,124.23c0,0.79,0.24,1.43,0.71,1.9
		c0.48,0.48,1.07,0.71,1.78,0.71c0.93,0,1.64-0.4,2.11-1.19c0.48-0.79,0.71-2.07,0.71-3.84c0-1.74-0.22-3-0.67-3.76
		c-0.45-0.76-1.13-1.15-2.04-1.15c-0.97,0-1.84,0.47-2.62,1.4V124.23z"/>
	<path class="st1" d="M140.25,130c-1.47,0-2.64-0.41-3.51-1.22c-0.87-0.81-1.31-1.85-1.31-3.12c0-1.13,0.36-2.13,1.07-2.99
		c0.71-0.86,1.74-1.53,3.08-2.01c1.34-0.48,2.92-0.72,4.74-0.74l0.59-0.03c0.32,0,0.48-0.14,0.48-0.42v-0.56
		c0-0.65-0.18-1.16-0.55-1.52c-0.37-0.36-0.9-0.54-1.59-0.54c-0.56,0-1.07,0.12-1.53,0.37c-0.47,0.25-0.85,0.65-1.15,1.21
		c-0.06,0.12-0.12,0.2-0.18,0.25c-0.06,0.05-0.15,0.08-0.27,0.08c-0.12,0-0.22-0.01-0.3-0.03l-3.45-0.71
		c-0.2-0.04-0.3-0.16-0.3-0.36c0-0.12,0.04-0.29,0.12-0.51c0.91-2.34,3.34-3.51,7.29-3.51c2.48,0,4.25,0.43,5.32,1.29
		c1.07,0.86,1.61,2.08,1.61,3.64v10.38c0,0.3-0.04,0.5-0.12,0.59c-0.08,0.1-0.25,0.15-0.5,0.15h-3.6c-0.22,0-0.38-0.08-0.48-0.24
		c-0.1-0.16-0.18-0.39-0.24-0.68l-0.03-0.45c-0.02-0.18-0.09-0.27-0.21-0.27c-0.12,0-0.29,0.09-0.51,0.27
		C143.44,129.45,141.94,130,140.25,130z M145.3,122.48c-0.07-0.08-0.18-0.12-0.34-0.12l-0.48,0.03c-0.54,0.02-1.11,0.12-1.71,0.31
		c-0.6,0.19-1.12,0.48-1.55,0.86c-0.43,0.39-0.64,0.85-0.64,1.38c0,0.52,0.18,0.92,0.55,1.22c0.37,0.3,0.86,0.45,1.47,0.45
		c0.73,0,1.39-0.23,1.96-0.68c0.56-0.48,0.83-0.91,0.83-1.31v-1.76C145.4,122.68,145.37,122.56,145.3,122.48z"/>
	<path class="st1" d="M158.43,116.77c-0.63,0-1.17,0.12-1.59,0.36c-0.43,0.24-0.64,0.56-0.64,0.98c0,0.22,0.09,0.41,0.28,0.58
		c0.19,0.17,0.56,0.32,1.11,0.46l3.27,0.74c1.67,0.38,2.88,0.99,3.64,1.84c0.76,0.85,1.15,1.87,1.15,3.06c0,1.63-0.67,2.9-2.01,3.82
		c-1.34,0.92-3.11,1.38-5.31,1.38c-1.76,0-3.29-0.3-4.57-0.91c-1.28-0.6-2.18-1.38-2.69-2.33c-0.1-0.16-0.15-0.31-0.15-0.45
		c0-0.16,0.07-0.28,0.21-0.36l2.32-1.19c0.16-0.08,0.31-0.12,0.45-0.12c0.16,0,0.29,0.06,0.39,0.18c0.48,0.59,1,1.06,1.56,1.38
		c0.56,0.33,1.36,0.49,2.39,0.49c0.79,0,1.44-0.12,1.95-0.36c0.51-0.24,0.76-0.57,0.76-1.01c0-0.28-0.12-0.52-0.37-0.71
		c-0.25-0.2-0.68-0.36-1.29-0.48l-3.03-0.59c-3.13-0.61-4.7-2.17-4.7-4.67c0-1.01,0.27-1.91,0.82-2.71
		c0.55-0.79,1.34-1.41,2.39-1.86c1.05-0.45,2.29-0.67,3.72-0.67c1.49,0,2.81,0.27,3.96,0.82c1.15,0.55,1.96,1.22,2.44,2.01
		c0.14,0.2,0.21,0.37,0.21,0.51c0,0.14-0.07,0.24-0.21,0.3l-2.44,1.19c-0.12,0.06-0.22,0.09-0.3,0.09c-0.18,0-0.35-0.1-0.51-0.3
		C160.85,117.26,159.78,116.77,158.43,116.77z"/>
	<path class="st1" d="M172.13,125.61c0.65,0.57,1.49,0.85,2.5,0.85c0.61,0,1.19-0.14,1.74-0.42c0.55-0.28,1.14-0.74,1.77-1.4
		c0.08-0.08,0.17-0.12,0.27-0.12c0.1,0,0.2,0.02,0.3,0.06l2.44,1.01c0.18,0.08,0.27,0.19,0.27,0.33c0,0.08-0.05,0.19-0.15,0.33
		c-0.99,1.43-2.04,2.41-3.15,2.94c-1.11,0.54-2.51,0.8-4.19,0.8c-1.55,0-2.94-0.34-4.19-1.01c-1.25-0.67-2.23-1.61-2.95-2.81
		c-0.71-1.2-1.07-2.57-1.07-4.12c0-1.65,0.37-3.11,1.1-4.39c0.73-1.28,1.72-2.27,2.96-2.97c1.24-0.7,2.59-1.06,4.06-1.06
		c1.55,0,2.91,0.33,4.1,1c1.19,0.67,2.12,1.63,2.8,2.9c0.67,1.27,1.01,2.78,1.01,4.52c0,0.28-0.02,0.47-0.07,0.57
		c-0.05,0.1-0.19,0.16-0.43,0.18h-9.67c-0.28,0-0.42,0.16-0.42,0.48C171.14,124.27,171.47,125.05,172.13,125.61z M176.08,120.01
		c0.2,0,0.33-0.02,0.4-0.07c0.07-0.05,0.1-0.16,0.1-0.34c0-0.67-0.22-1.31-0.67-1.9c-0.45-0.59-1.07-0.89-1.86-0.89
		c-0.83,0-1.52,0.29-2.05,0.86c-0.54,0.57-0.79,1.35-0.77,2.32L176.08,120.01z"/>
</g>
<path class="st1" d="M46.5,72.43c0.25,7.58,0.59,15.25,4.95,21.97c5.47,8.43,15.55,8.61,21.14,0.34c2.22-3.29,4.16-6.78,6.24-10.17
	c6.01-9.79,14.7-14.8,26.24-15.05c11.62-0.25,20.93,3.89,27.38,13.78c2.56,3.92,4.59,8.03,8.11,13.14c2.9,4.22,11.54,7.74,18.52,0
	c3.36-3.73,4.38-7.09,5.27-11.23c1.88-8.84,1.41-17.7-0.05-26.53c-2.26-13.65-6.25-26.7-14.24-38.2
	c-7.87-11.32-16.85-13.13-28.67-5.93c-1.78,1.09-3.44,2.38-5.16,3.58c-1.63,1.14-3.21,2.35-4.88,3.42
	c-3.4,2.18-6.91,2.34-10.34,0.11c-3.63-2.37-4.93-4.06-10.73-7.38c-11.53-6.6-17.7-5.11-23.83,1.17c-2.61,2.67-5,5.69-6.87,8.91
	C51,39.18,47.24,55.36,46.5,72.43z"/>
<path class="st2" d="M136.14,73.98c-1.97-3.2-4.1-6.73-6.32-10.35c-2.54,0.01-5.13,0.09-7.81,0.27
	c8.25,13.07,17.41,27.77,21.8,32.48c3.04,0.48,6.19,0.53,8.5-0.14C146.47,92.8,141.17,82.15,136.14,73.98z"/>
<path class="st0" d="M160.65,67.56c0.11-1.83-0.1-3.98-0.39-5.54c-26.02-8.67-56.15-2.51-65.18-0.24
	C71.77,67.66,54.3,76.84,51.2,79.73c0.06,3.36,0.53,4.89,0.89,6.46c7.56-5.99,27.46-15.06,45.29-18.74
	c14.99-3.09,26.73-4.22,37.87-3.71l-5.05,7l2.7,4.53l7.85-11.15c3.69,0.35,7.37,0.88,11.12,1.57l-15.65,14.27l2.07,4.46l19.41-17.54
	C158.67,67.1,159.66,67.32,160.65,67.56z"/>
<path class="st0" d="M160.19,82.84c-1.48,0.54-17.86,6.66-17.86,6.66l2.59,4.04c0,0,12.24-4.23,13.69-4.77
	C159.44,87.01,159.96,85.41,160.19,82.84z"/>
<path class="st2" d="M53.8,52.41c0.32,2.14,6.13,25.7,6.13,25.7l4.46-2.47c0,0-6.55-31.07-7.38-34.27
	C55.93,43.81,54.22,50.32,53.8,52.41z"/>
<path class="st2" d="M68.79,18.55c0.32,2.14,6.47,52.2,6.47,52.2l4.77-1.59c0,0-5.75-50.45-6.1-53.62
	C71.55,16.12,70.4,16.78,68.79,18.55z"/>
<path class="st2" d="M126.08,57.59c-1.98-3.14-4-6.25-6.02-9.16c-5.59-8.07-14.97-20.09-22.51-25.74
	c-10.36-7.77-13.12-8.75-21.92-7.5c5.77,0.9,11.13,4.09,16.07,8.41l0.77,41.62l4.91-1.11l-0.54-35.47
	c5.18,5.6,9.83,12.11,13.9,17.92c0.01,0.02,0.02,0.03,0.03,0.05l-2.02,15.41l5.03-0.63l1.13-8.61c1.07,1.65,2.2,3.4,3.37,5.24
	C120.79,57.81,123.39,57.66,126.08,57.59z"/>
<path class="st3" d="M134.38,36.03c-3.03,0-5.5-2.47-5.5-5.5c0-3.03,2.47-5.5,5.5-5.5s5.5,2.47,5.5,5.5
	C139.88,33.56,137.41,36.03,134.38,36.03z M134.38,27.53c-1.66,0-3,1.35-3,3c0,1.66,1.35,3,3,3c1.66,0,3-1.35,3-3
	C137.38,28.88,136.04,27.53,134.38,27.53z"/>
<path class="st3" d="M124.59,45.02c-3.03,0-5.5-2.47-5.5-5.5c0-3.03,2.47-5.5,5.5-5.5s5.5,2.47,5.5,5.5
	C130.09,42.55,127.63,45.02,124.59,45.02z M124.59,36.51c-1.66,0-3,1.35-3,3c0,1.66,1.35,3,3,3c1.66,0,3-1.35,3-3
	C127.59,37.86,126.25,36.51,124.59,36.51z"/>
<path class="st2" d="M134.22,54.08c-3.03,0-5.5-2.47-5.5-5.5c0-3.03,2.47-5.5,5.5-5.5s5.5,2.47,5.5,5.5
	C139.72,51.62,137.25,54.08,134.22,54.08z M134.22,45.58c-1.66,0-3,1.35-3,3c0,1.66,1.35,3,3,3s3-1.35,3-3
	C137.22,46.93,135.88,45.58,134.22,45.58z"/>
<path class="st2" d="M144.01,45.1c-3.03,0-5.5-2.47-5.5-5.5c0-3.03,2.47-5.5,5.5-5.5s5.5,2.47,5.5,5.5
	C149.51,42.63,147.04,45.1,144.01,45.1z M144.01,36.59c-1.66,0-3,1.35-3,3c0,1.66,1.35,3,3,3s3-1.35,3-3
	C147.01,37.94,145.66,36.59,144.01,36.59z"/>
</svg>
