<?xml version="1.0" encoding="UTF-8"?>
<svg id="Layer_2" xmlns="http://www.w3.org/2000/svg" version="1.1" viewBox="0 0 210 140">
  <!-- Generator: Adobe Illustrator 30.6.0, SVG Export Plug-In . SVG Version: 2.1.4 Build 109)  -->
  <rect width="210" height="140" style="fill: #00205c;"/>
  <g>
    <g>
      <path d="M67.189,92.611v11.048c0,2.511.1,2.611,4.017,2.913v1.507h-12.856v-1.507c3.917-.301,4.017-.402,4.017-2.913v-22.497c0-2.511-.1-2.611-4.017-2.913v-1.507h12.856v1.507c-3.917.201-4.017.402-4.017,2.913v9.742h15.467v-9.742c0-2.511-.1-2.611-4.017-2.913v-1.507h12.856v1.507c-3.917.201-4.017.301-4.017,2.913v22.598c0,2.511.1,2.611,4.017,2.913v1.507h-12.856v-1.507c3.917-.301,4.017-.402,4.017-2.913v-11.048h-15.467v-.1Z" style="fill: #fff;"/>
      <path d="M96.616,96.428c-.1,4.62,1.105,9.843,6.629,9.843,3.515,0,5.223-2.109,6.428-4.72l1.406.803c-1.205,3.515-3.817,6.327-8.838,6.327-7.633,0-10.445-4.319-10.445-11.45,0-6.729,3.314-11.851,10.445-11.851,8.236,0,9.14,6.428,9.14,9.14,0,1.507-.904,1.808-1.908,1.808h-12.856v.1ZM105.053,94.519c1.205,0,1.507-.502,1.507-1.406,0-1.808-.502-6.026-4.62-6.026-4.62,0-5.323,5.524-5.323,7.432h8.436Z" style="fill: #fff;"/>
      <path d="M131.467,102.152c0,2.812.703,3.616,1.507,3.817.502.1,1.105.1,1.808,0l.201,1.406c-1.105.703-3.113,1.306-4.821,1.306-1.607,0-2.41-.904-3.013-2.712-1.406,1.004-3.917,2.712-6.629,2.712-4.319,0-6.528-3.013-6.528-6.428,0-2.21,1.004-4.52,4.218-5.524,3.515-1.105,7.834-2.21,9.039-3.415v-1.607c0-3.515-1.808-4.62-4.017-4.62-1.808,0-3.415,1.004-4.419,4.319-.201.803-.603,1.306-1.507,1.306s-2.511-.703-2.511-2.21c0-2.511,3.616-5.223,8.838-5.223,6.83,0,7.834,3.515,7.834,6.227v10.646ZM127.249,95.323c-1.004.603-3.314,1.507-5.122,2.21-2.41,1.004-3.415,2.109-3.415,4.218,0,2.611,1.406,4.52,4.118,4.52,1.707,0,4.419-.904,4.419-4.419v-6.528Z" style="fill: #fff;"/>
      <path d="M138.598,78.952c0-1.707-.201-2.009-1.406-2.109l-1.707-.1v-1.306l7.231-1.105.301.301v29.427c0,2.21.1,2.31,3.314,2.611v1.507h-11.148v-1.507c3.214-.201,3.314-.301,3.314-2.611v-25.109h.1Z" style="fill: #fff;"/>
      <path d="M154.768,87.991v13.659c0,3.415,1.406,4.419,2.913,4.419,1.105,0,1.808-.1,2.913-.603l.402,1.205c-1.507,1.004-3.314,1.908-5.524,1.908-1.607,0-5.022-.603-5.022-5.223v-15.366h-3.214v-2.009h3.415l2.812-5.624h1.406v5.624h5.725v2.009h-5.825Z" style="fill: #fff;"/>
      <path d="M164.008,79.053c0-1.607-.201-1.908-1.406-2.109l-1.707-.201v-1.306l7.131-1.105.301.201v14.262c2.812-1.908,4.821-3.415,8.135-3.415,4.218,0,6.629,2.611,6.629,7.231v11.45c0,2.21.301,2.41,3.314,2.611v1.507h-11.048v-1.507c3.113-.201,3.314-.402,3.314-2.611v-10.646c0-3.817-1.707-5.423-4.72-5.423-2.31,0-4.319,1.406-5.323,3.314-.301.603-.402,1.306-.402,2.41v10.345c0,2.21.301,2.31,3.314,2.611v1.507h-11.048v-1.507c3.214-.201,3.314-.402,3.314-2.611v-25.008h.201Z" style="fill: #fff;"/>
    </g>
    <g>
      <path d="M57.779,69.113v-1.311c4.035-.303,4.035-.403,4.035-2.925v-22.897c0-2.522-.101-2.623-4.035-2.925v-1.311h13.113c3.53,0,6.254.504,8.069,1.614,1.816,1.311,2.824,3.127,2.824,5.649,0,3.53-2.522,6.153-6.758,6.96v.101c4.438.605,8.17,2.925,8.17,8.271,0,6.355-4.438,8.775-11.297,8.775,0,0-14.121,0-14.121,0ZM66.352,51.461h3.026c4.741,0,7.565-1.816,7.565-6.254,0-4.64-3.631-5.951-6.96-5.85-3.53,0-3.631.303-3.631,2.219,0,0,0,9.885,0,9.885ZM66.352,64.069c0,2.824.706,3.53,4.337,3.53,3.934,0,7.666-1.412,7.666-6.859,0-4.842-3.127-7.666-8.674-7.666h-3.228v10.994h-.101Z" style="fill: #fff;"/>
      <path d="M103.673,63.363c0,2.824.605,3.732,1.412,3.934.706.202,1.715.101,2.32,0l.303,1.11c-1.715.908-3.631,1.311-5.346,1.311-1.614,0-2.32-1.009-2.925-2.723-1.412.908-3.934,2.623-6.758,2.723-4.236,0-6.556-3.026-6.556-6.455,0-2.118.908-4.438,4.236-5.447,3.631-1.11,7.968-2.219,9.078-3.429v-1.916c0-3.631-2.118-4.539-3.833-4.539-1.816,0-3.631,1.11-4.64,4.438-.202.807-.504,1.311-1.412,1.311s-2.522-.706-2.522-2.118c0-2.522,4.035-5.144,9.179-5.144,6.859,0,7.464,3.429,7.464,6.052v10.894ZM99.436,56.303c-1.009.605-3.429,1.513-5.245,2.219-2.522.908-3.53,2.017-3.53,4.136,0,2.723,1.311,4.64,4.136,4.64,1.816,0,4.539-.908,4.539-4.64v-6.355h.101Z" style="fill: #fff;"/>
      <path d="M130.402,65.179c0,2.32.202,2.421,3.429,2.623v1.311h-11.095v-1.311c3.228-.202,3.429-.303,3.429-2.623v-10.692c0-3.934-1.715-5.649-4.741-5.649-2.421,0-4.438,1.513-5.447,3.228-.403.706-.504,1.311-.504,2.522v10.591c0,2.32.202,2.421,3.429,2.623v1.311h-11.095v-1.311c3.228-.202,3.429-.303,3.429-2.623v-14.222c0-1.614-.303-1.816-1.412-2.017l-1.715-.202v-1.11l6.758-1.11.605,3.429c2.824-1.816,4.942-3.429,8.271-3.429,4.136,0,6.657,2.623,6.657,7.262v11.398Z" style="fill: #fff;"/>
      <path d="M157.434,65.179c0,2.32.202,2.421,3.429,2.623v1.311h-11.095v-1.311c3.228-.202,3.429-.303,3.429-2.623v-10.692c0-3.934-1.715-5.649-4.741-5.649-2.421,0-4.438,1.513-5.447,3.228-.403.706-.403,1.311-.403,2.522v10.591c0,2.32.202,2.421,3.429,2.623v1.311h-11.095v-1.311c3.228-.202,3.429-.303,3.429-2.623v-14.222c0-1.614-.303-1.816-1.412-2.017l-1.715-.202v-1.11l6.758-1.11.605,3.429c2.824-1.816,4.942-3.429,8.271-3.429,4.136,0,6.657,2.623,6.657,7.262v11.398h-.101Z" style="fill: #fff;"/>
      <path d="M167.319,57.21c-.101,4.741,1.009,10.187,6.657,10.187,3.631,0,5.346-2.219,6.556-4.842l1.311.706c-1.21,3.631-3.833,6.355-8.876,6.355-7.363.101-10.49-4.337-10.49-11.499,0-6.758,3.329-11.801,10.389-11.801,8.271,0,9.179,6.455,9.179,9.078,0,1.513-.908,1.715-1.816,1.715h-12.911v.101ZM175.893,55.496c1.311,0,1.513-.605,1.513-1.412,0-1.816-.504-6.052-4.741-6.052-4.741,0-5.447,5.649-5.447,7.565h8.674v-.101Z" style="fill: #fff;"/>
      <path d="M191.628,50.049c3.026-2.623,4.337-3.631,5.951-3.631,1.816,0,2.421,1.21,2.421,2.219,0,1.412-1.009,2.522-2.118,2.522-.202,0-.605,0-.908-.202-1.311-.706-2.118-1.009-2.824-1.009-1.009,0-2.623,1.21-2.623,4.64v10.591c0,2.32.303,2.421,4.337,2.623v1.311h-12.003v-1.311c3.127-.202,3.429-.303,3.429-2.623v-14.222c0-1.614-.303-1.816-1.412-2.017l-1.715-.202v-1.11l6.859-1.11.605,3.53Z" style="fill: #fff;"/>
    </g>
    <g>
      <path d="M12.538,62.919c3.029-2.506,14.203-8.355,18.902-4.595.731.522.627,1.253.94,1.88.94,1.566,15.874-1.358,18.38-12.01.104-.522-.627-2.089-.627-2.089-.522,6.162-10.234,12.01-17.022,9.712-1.044-.313-.522-1.984-1.775-2.82-4.595-2.924-13.367-.522-20.469,3.551,0,0,.731,3.342,1.671,6.37Z" style="fill: #fff;"/>
      <path d="M17.446,75.764s1.984-2.611,3.76-3.864c3.76-2.924,9.19-6.057,10.026-3.342,0,0,.104.418,0,.835-.104.313.209.627.522.522,14.516-3.968,19.32-12.323,19.216-18.902-2.193,8.146-10.13,12.323-18.276,13.263-.835,0,.104-1.462-1.149-2.298-3.551-2.298-15.143,4.804-16.814,7.31,0,.104,2.089,5.326,2.715,6.475Z" style="fill: #fff;"/>
      <path d="M10.136,50.596c11.07-5.43,18.171-4.386,21.095-.731,1.149,1.462,1.044,2.506,1.671,2.924,5.848,2.715,16.605-2.82,16.083-8.459,0-.209-.209-.522-.209-.522-.313-.418-1.044-1.044-1.044-1.044,2.089,7.624-13.054,9.608-15.352,6.057-.418-.731-1.044-2.611-1.462-3.133-1.566-2.506-8.563-7.31-20.678-1.253-.104,0-.418,1.984-.104,6.162Z" style="fill: #fff;"/>
      <path d="M42.092,40.257s5.013.94,1.88,3.76c-1.88,1.671-10.861,3.237-11.383-1.462-1.671-13.681-15.352-14.829-21.095-3.655,0,0,.731-.313,1.044-.522,12.219-5.43,17.649,2.402,18.589,4.073.313.627.627,1.358.94,1.984.418,1.149.522,5.43,9.294,3.029,6.37-1.671,6.579-7.206.731-7.206" style="fill: #fff;"/>
    </g>
  </g>
</svg>
