<?xml version="1.0" encoding="UTF-8"?>
<svg id="Layer_1" xmlns="http://www.w3.org/2000/svg" version="1.1" viewBox="0 0 210 140">
  <!-- Generator: Adobe Illustrator 29.2.1, SVG Export Plug-In . SVG Version: 2.1.0 Build 116)  -->
  <g>
    <rect x=".5" y=".5" width="209" height="139"/>
    <path d="M209,1v138H1V1h208M210,0H0v140h210V0h0Z" style="fill: #e0e0e0;"/>
  </g>
  <g id="Engreitz_Logo">
    <path d="M138.7,14.5v61.3h61.3V14.5h-61.3ZM198.8,15.8v50.7c-1.5-1.2-4.8-3.3-10.7-3.6-4.7-.2-8.2,2-11.4,4-.8.5-1.6,1-2.3,1.4-2.8,1.5-7.3,2.3-10.1.7-1.6-.9-2.5-2.6-2.6-4.8-.2-6,4.5-11.8,7.7-14.3.8-.6,2.3-1.6,3.9-2.7,5.7-3.8,14.4-9.6,15.4-13.9.7-3.2,0-6.9-2.2-9.6-1.5-1.9-4.2-4.3-8.9-4.5-9.5-.4-14.1,8.1-15.2,15.5-1.1,7.2-5.2,10.1-8.8,10.4-3.6.4-5.9-2.5-6.2-4-.3-1.3.9-4.5,4-6.9,3.3-2.5,5.1-4.8,5.3-7,.1-1.4-.3-2.6-1.4-3.8-4-4.5-12.4.9-15.3,3v-10.5h58.9,0ZM139.9,74.6V27.8c3.4-2.6,11.3-7.2,14.4-3.7.8.9,1.2,1.9,1.1,2.9-.2,1.8-1.8,3.9-4.8,6.2-3.4,2.5-5,6.2-4.5,8.1.5,1.9,3.2,5.4,7.5,4.9,4-.4,8.7-3.6,9.9-11.5,1-6.9,5.3-14.9,14-14.5,4.3.2,6.7,2.3,8,4,1.9,2.5,2.6,5.8,1.9,8.6-.9,3.8-9.6,9.6-14.9,13.1-1.7,1.1-3.1,2.1-4,2.8-3.4,2.6-8.4,8.9-8.1,15.3,0,2.7,1.2,4.7,3.2,5.8,1.3.7,2.9,1.1,4.5,1.1,2.4,0,4.9-.7,6.8-1.7.8-.4,1.6-.9,2.4-1.4,3-1.9,6.4-4,10.7-3.8,7.7.4,10.7,4,10.7,4h0v6.5h-58.9.1Z" style="fill: #fff;"/>
    <path d="M188.1,59c-2,0-3.6,1.6-3.6,3.6-3.1-1-6.6-2.6-8.6-6.6-1-1.9-1.4-3.8-1.8-5.6-.8-3.5-1.6-6.9-6-10.4-5-4.1-12.6-5.9-18.6-4.6-.5-.7-1.4-1.2-2.3-1.2-1.6,0-2.8,1.3-2.8,2.8s1.3,2.8,2.8,2.8,2.8-1.3,2.8-2.8,0-.6-.2-.9c5.8-1.2,12.9.5,17.7,4.4,4.1,3.4,4.9,6.6,5.7,10,.4,1.8.9,3.7,1.9,5.7,2.2,4.4,6.1,6.1,9.4,7.1.4,1.6,1.8,2.8,3.6,2.8s3.7-1.6,3.7-3.7-1.6-3.7-3.7-3.7v.3Z" style="fill: #0092ff;"/>
    <polygon points="187.9 35.2 174.3 35.8 176.8 39.1 164.6 48.7 169.5 54.8 181.7 45.2 184.2 48.3 187.9 35.2" style="fill: #0092ff;"/>
  </g>
  <g id="Title">
    <path d="M19.7,63.8h-6.4v4h5.9v2.3h-5.9v5.8h-2.7v-14.4h9.1s0,2.3,0,2.3Z" style="fill: #077ed8;"/>
    <path d="M32.6,70.7c0,2.8-1.5,5.5-5.7,5.5s-5.7-2.7-5.7-5.5v-9.2h2.7v9.1c0,2.3,1,3.3,3,3.3s3-1.1,3-3.3v-9.1h2.7v9.2Z" style="fill: #077ed8;"/>
    <path d="M46.7,75.8h-3.1l-5.9-10v10h-2.5v-14.4h3l5.9,10.3v-10.3h2.5v14.4h0Z" style="fill: #077ed8;"/>
    <path d="M61.6,65.2l-2.7.7c-.6-1.6-1.7-2.5-3.4-2.5s-4,1.9-4,5.1,1.3,5.2,4,5.2,3.1-1,3.8-2.9l2.6.8c-1.1,2.9-3.6,4.3-6.4,4.3s-6.8-1.9-6.8-7.5,3.3-7.5,6.8-7.5,4.9,1,6.1,4.1v.2Z" style="fill: #077ed8;"/>
    <path d="M73.4,63.8h-4.1v12h-2.7v-12h-4.1v-2.3h10.9s0,2.3,0,2.3Z" style="fill: #077ed8;"/>
    <path d="M77.6,75.8h-2.7v-14.4h2.7v14.4Z" style="fill: #077ed8;"/>
    <path d="M93.5,68.7c0,5.3-3.4,7.5-6.9,7.5s-6.9-1.9-6.9-7.6,3.4-7.5,6.9-7.5,6.9,1.8,6.9,7.6ZM82.4,68.6c0,3.2,1.4,5.3,4.1,5.3s4.1-1.9,4.1-5.2-1.4-5.3-4.1-5.3-4.1,1.9-4.1,5.2Z" style="fill: #077ed8;"/>
    <path d="M107,75.8h-3.1l-5.9-10v10h-2.5v-14.4h3l5.9,10.3v-10.3h2.5v14.4h0Z" style="fill: #077ed8;"/>
    <path d="M117.5,73.4h-5.7l-.7,2.4h-2.8l4.7-14.4h3.5l4.7,14.4h-2.9l-.7-2.4h0ZM112.4,71.2h4.4l-2.2-7.6s-2.2,7.6-2.2,7.6Z" style="fill: #077ed8;"/>
    <path d="M125.1,73.5h6.3v2.4h-9v-14.4h2.7s0,12,0,12Z" style="fill: #077ed8;"/>
    <path d="M22.9,83.7l-2.7.7c-.6-1.6-1.7-2.5-3.4-2.5s-4,1.9-4,5.1,1.3,5.2,4,5.2,3.1-1,3.8-2.9l2.6.8c-1.1,2.9-3.6,4.3-6.4,4.3s-6.8-1.9-6.8-7.5,3.3-7.5,6.8-7.5,4.9,1,6.1,4.1v.2Z" style="fill: #077ed8;"/>
    <path d="M36.5,94.3h-2.7v-6.3h-6.2v6.3h-2.7v-14.4h2.7v5.8h6.2v-5.8h2.7v14.4Z" style="fill: #077ed8;"/>
    <path d="M47,91.9h-5.7l-.7,2.4h-2.8l4.7-14.4h3.5l4.7,14.4h-2.9l-.7-2.4h0ZM41.9,89.7h4.4l-2.2-7.6-2.2,7.6Z" style="fill: #077ed8;"/>
    <path d="M62.7,84.3c0,1.9-1,3.3-3,4l3.8,6h-3.2l-3.3-5.6h-2.3v5.6h-2.7v-14.4h5.3c3.9,0,5.5,2,5.5,4.3h0ZM54.6,82.2v4.3h2.7c1.4,0,2.5-.5,2.5-2.2s-.9-2.1-2.4-2.1c0,0-2.8,0-2.8,0Z" style="fill: #077ed8;"/>
    <path d="M73.3,91.9h-5.7l-.7,2.4h-2.8l4.7-14.4h3.5l4.7,14.4h-2.9l-.7-2.4h0ZM68.2,89.7h4.4l-2.2-7.6s-2.2,7.6-2.2,7.6Z" style="fill: #077ed8;"/>
    <path d="M90,83.7l-2.7.7c-.6-1.6-1.7-2.5-3.4-2.5s-4,1.9-4,5.1,1.3,5.2,4,5.2,3.1-1,3.8-2.9l2.6.8c-1.1,2.9-3.6,4.3-6.4,4.3s-6.8-1.9-6.8-7.5,3.3-7.5,6.8-7.5,4.9,1,6.1,4.1v.2Z" style="fill: #077ed8;"/>
    <path d="M101.8,82.2h-4.1v12h-2.7v-12h-4.1v-2.3h10.9s0,2.3,0,2.3Z" style="fill: #077ed8;"/>
    <path d="M112.5,82.2h-6.6v3.6h6.2v2.3h-6.2v3.9h6.8v2.3h-9.5v-14.4h9.3s0,2.3,0,2.3Z" style="fill: #077ed8;"/>
    <path d="M125.5,84.3c0,1.9-1,3.3-3,4l3.8,6h-3.2l-3.3-5.6h-2.3v5.6h-2.7v-14.4h5.3c3.9,0,5.5,2,5.5,4.3h-.1ZM117.5,82.2v4.3h2.7c1.4,0,2.5-.5,2.5-2.2s-.9-2.1-2.4-2.1c0,0-2.8,0-2.8,0Z" style="fill: #077ed8;"/>
    <path d="M130.3,94.3h-2.7v-14.4h2.7v14.4Z" style="fill: #077ed8;"/>
    <path d="M142.9,82.1l-7.6,9.9h7.8v2.3h-11.2v-2.1l7.7-10h-7.2v-2.3h10.5v2.2Z" style="fill: #077ed8;"/>
    <path d="M153.1,91.9h-5.7l-.7,2.4h-2.8l4.7-14.4h3.5l4.7,14.4h-2.9l-.7-2.4h-.1ZM148.1,89.7h4.4l-2.2-7.6-2.2,7.6Z" style="fill: #077ed8;"/>
    <path d="M166.5,82.2h-4.1v12h-2.7v-12h-4.1v-2.3h10.9v2.3h0Z" style="fill: #077ed8;"/>
    <path d="M170.6,94.3h-2.7v-14.4h2.7v14.4Z" style="fill: #077ed8;"/>
    <path d="M186.5,87.1c0,5.3-3.4,7.5-6.9,7.5s-6.9-1.9-6.9-7.6,3.4-7.5,6.9-7.5,6.9,1.8,6.9,7.6ZM175.5,87.1c0,3.2,1.4,5.3,4.1,5.3s4.1-1.9,4.1-5.2-1.4-5.3-4.1-5.3-4.1,1.9-4.1,5.2Z" style="fill: #077ed8;"/>
    <path d="M200,94.3h-3.1l-5.9-10v10h-2.5v-14.4h3l5.9,10.3v-10.3h2.5v14.4h.1Z" style="fill: #077ed8;"/>
    <path d="M22.2,102.1l-1.3.3c-.8-2.2-2.5-3.2-4.4-3.2-2.8,0-5,2.2-5,6.3s2.2,6.3,4.9,6.3,3.9-1.1,4.7-3.5l1.2.4c-1,3-3.4,4.2-5.9,4.2s-6.2-1.8-6.2-7.5,3.1-7.4,6.3-7.4,4.6.9,5.7,4h0Z" style="fill: #fff;"/>
    <path d="M33.1,99.5h-7.1v5.4h6.7v1.1h-6.7v5.7h7.3v1.1h-8.5v-14.4h8.4v1.1h0Z" style="fill: #fff;"/>
    <path d="M45.9,112.7h-1.3l-7.9-12.2v12.2h-1.2v-14.4h1.3l7.9,12.4v-12.4h1.2v14.4Z" style="fill: #fff;"/>
    <path d="M58.2,99.5h-4.6v13.2h-1.2v-13.2h-4.6v-1.1h10.3v1.1h0Z" style="fill: #fff;"/>
    <path d="M68.6,99.5h-7.1v5.4h6.7v1.1h-6.7v5.7h7.3v1.1h-8.5v-14.4h8.4v1.1h0Z" style="fill: #fff;"/>
    <path d="M80.5,102.4c0,1.9-1.1,3.6-3.5,3.9l4.1,6.4h-1.5l-3.9-6.2h-3.5v6.2h-1.2v-14.4h4.5c3.5,0,5,1.8,5,4.1ZM72.2,99.5v6h3.6c2.1,0,3.4-1.1,3.4-3.1s-1.3-3-3.6-3h-3.4Z" style="fill: #fff;"/>
  </g>
  <path id="Stanford" d="M137.4,125.4c-2.9,0-3.2-2.2-3.2-2.9s.2-2.2,2.1-2.9c1.9-.7,2.3-.8,3.7-1.2v-.3c0-.6,0-.8-.1-1.2-.3-.8-1-1.2-2-1.2s-1.8.5-2.2,1.3l-.5-.3c.3-1.2,1.6-2.4,3.7-2.4s2.5.4,3.1,1.3c.5.7.5,1.7.5,2.8v4.2c0,.8.1,1.3.8,1.3s.3,0,.5-.3l.3.4c-.6.7-1.2,1.4-2.3,1.4s-1.5-.4-1.6-1.1c-.5.5-1.3,1.1-2.7,1.1h-.1ZM140,119.7c-1.4.4-1.9.7-2.4.9-.6.3-.9.9-.9,1.7s.2,1.6,1.6,1.6,1.1,0,1.7-.5v-3.7h0ZM115.8,124.8v-3.1h.6c0,.7.2,1.2.5,1.5.5.5,1.5.8,2.5.8,2.1,0,3-.8,3-2.5s-.9-2-2.1-2.9h-.2c0,0-1.3-1-1.3-1-1.8-1.2-2.7-2.1-2.7-4s.4-4,4.9-4,2.6,0,3.5.3v3.1h-.5c0-.7-.2-1.2-.5-1.5s-1.4-.6-2.4-.6c-2.4,0-2.7,1.2-2.7,2.2s.7,1.7,2.1,2.6l1.6,1.1c1.4.9,2.7,1.8,2.7,4.1,0,3.9-3.6,4.3-5.2,4.3s-2.6-.2-3.7-.6v.2ZM145,114.9c.5,0,1.4,0,2.2-.2.7,0,.9-.2,1.4-.5h.2v1c.5-.4,1.6-1,3.1-1s3.2.9,3.6,2.6c.1.4.1,1.4.1,1.9v3.1c0,1.8,0,2.3.4,2.6.2,0,.6.3,1,.3v.5c-.7,0-1.9,0-2.7,0s-2.1,0-2.7,0v-.5c.5,0,.9-.2,1.1-.4.3-.3.4-.9.4-2.3v-4.4c-.2-1.4-.9-2-2.3-2s-1.6.2-2,.5v5.7c0,1.8,0,2.3.4,2.6.2,0,.6.3,1,.3v.5c-.9,0-2,0-2.7,0-1.4,0-1.9,0-2.7,0v-.5c.5,0,.9-.2,1.2-.5.3-.4.3-1.3.3-3.1v-3.1c0-1.3,0-1.9-.2-2.2-.1-.2-.5-.4-1.3-.4v-.6h.2ZM158.4,124.8c.4,0,.9-.2,1.2-.5.3-.4.4-1.3.4-3.1v-5.4h-1.4v-.6c.6-.2,1.1-.5,1.4-.7,0-1,0-2.2.2-2.9.4-2.2,1.9-3.4,4.3-3.4s2.1.4,2.7.9v.2l-1,1.5h-.3c-.4-.9-.9-1.4-1.9-1.4s-.8,0-1.1.4c-.5.5-.5,1.2-.5,2.5v2.1h2.4v1.3h-2.4v6c0,1.4,0,2.1.2,2.4.3.5,1.2.5,1.7.5v.6c-.8,0-2,0-2.9,0-1.3,0-2.2,0-2.9,0v-.5h0ZM170.8,125.5c-3.3,0-5.3-2.1-5.3-5.5s1.4-5.8,5.5-5.8,5.3,2,5.3,5.5-1.4,5.8-5.5,5.8ZM171,115.4c-.6,0-1.2.2-1.5.5-.9.7-1.3,2-1.3,3.9s.1,4.4,2.8,4.4,1.1-.2,1.5-.5c.9-.7,1.3-2.1,1.3-3.9s-.1-4.4-2.8-4.4ZM177.4,114.9c.7,0,1.5,0,2.4-.2.6,0,1.1-.3,1.3-.4h.2v1c.5-.5,1.3-1,2.5-1s1.4.2,1.9.7v.3l-.9,1.7h-.4c-.3-.5-.8-1-1.8-1s-.8,0-1.2.3v5.4c0,1.4,0,2.1.2,2.4.3.5,1.2.5,1.7.5v.6c-.7,0-2,0-2.9,0s-2.1,0-2.9,0v-.5c.6,0,.9-.2,1.2-.5.3-.4.4-1.3.4-3.1v-3.1c0-1.3,0-1.9-.2-2.2-.2-.2-.6-.4-1.3-.4v-.7l-.2.2ZM192.6,108.9c.7,0,1.5,0,2.5-.3.6,0,1-.2,1.2-.3h.2v13.2c0,1.3,0,2.1.2,2.4.2.2.6.4,1.2.4v.6c-.7,0-1.5,0-2.3.2-.6,0-1,.2-1.2.3h-.3v-1c-.5.4-1.6,1-3,1-3,0-4.9-2.1-4.9-5.2s.2-2.1.6-2.9c.9-2,2.8-3.1,5.2-3.1s1.6,0,2.1.2v-2.3c0-1.3,0-2.1-.2-2.3-.2-.2-.4-.3-1.2-.4v-.5h-.1ZM192.2,123.9c.7,0,1.2,0,1.8-.4v-7.2c-.2-.2-.8-.7-2.2-.7-2.1,0-3.1,1.4-3.1,4.4s.4,4,3.5,4h0ZM133.2,124.2c-.3.4-1.2,1.2-2.9,1.2s-2.6-.6-3-1.9c-.2-.5-.2-1.6-.2-2.2v-5.5h-1.4v-.4c.6-.2,1-.5,1.4-.7.8-.6,1.4-1.5,2-2.6h.5v2.4h3.7v1.3h-3.7v5.7c0,1.7.3,2.7,1.9,2.7s1.2-.2,1.6-.4l.2.4h-.1Z" style="fill: #fff;"/>
</svg>
