<?xml version="1.0" encoding="UTF-8"?>
<svg id="Layer_2" xmlns="http://www.w3.org/2000/svg" version="1.1" viewBox="0 0 210 140">
  <!-- Generator: Adobe Illustrator 30.0.0, SVG Export Plug-In . SVG Version: 2.1.1 Build 123)  -->
  <rect width="210" height="140" style="fill: #004c97;"/>
  <g style="fill: #fff;">
    <path d="M102.2,103.7c-.2,0-.5,0-1.1,0h-6.1c-.4,0-.7,0-.9-.2-.2-.1-.3-.3-.3-.6s0-.4.2-.5c.3,0,.5.1.8.1s.5,0,.7,0,.4-.1.6-.3c.5-.3.7-.7.7-1.3v-11.9h-1.4c-1,0-1.7,0-2,.1-.3,0-.6.2-.7.4-.2.2-.3.4-.4.6-.2.4-.3,1.2-.4,2.3-.2,0-.3,0-.4,0-.3,0-.5,0-.5-.2s-.1-.3-.2-.5c0-.2,0-.3,0-.5,0-.4,0-.8,0-1.2,0-1.2,0-1.9.3-2.3.2-.3.6-.5,1.1-.5s.3,0,.5,0c.2,0,.5,0,.9,0,1.1,0,2.3,0,3.8,0h1.8c2.1,0,3.4,0,4.1-.1.7,0,1.1-.1,1.3-.1s.3,0,.5,0,.3.1.3.2c.1.2.2.4.2.6,0,.4,0,.6,0,.9s0,.5,0,.8c0,.3,0,.6-.1.9,0,.7-.2,1.3-.4,1.5-.1.2-.3.3-.5.3s-.4,0-.5,0v-.7c0-.6,0-1.1,0-1.5,0-.4-.2-.6-.4-.8-.2-.2-.6-.3-1-.3-.4,0-1,0-1.7,0h-1.3v12.3c0,.5.4.9,1.2,1.1.2,0,.4,0,.6.1.2,0,.4,0,.5.1.2,0,.3,0,.4.1.2.1.3.3.3.6s0,.4-.2.6Z" />
    <path d="M115.2,103.7c-.2,0-.5,0-1.1,0h-5.9c-.4,0-.7,0-.9-.2-.2-.1-.3-.3-.3-.6s0-.4.2-.5c.3,0,.5.1.8.1s.5,0,.6,0c.2,0,.3-.1.4-.3.3-.3.4-.8.4-1.4v-10.7c0-.6-.2-1-.7-1.2-.1,0-.3,0-.4-.1-.2,0-.3,0-.4-.1-.1,0-.3,0-.4-.1-.2-.1-.4-.3-.4-.5s0-.5.2-.6c.1,0,.2,0,.4,0h10.8c.6,0,1,0,1.2.2.3.2.4.7.4,1.4s0,1.3-.2,1.7c-.1.4-.2.7-.3.8,0,.2-.2.2-.4.2-.3,0-.5,0-.6-.1-.1,0-.2-.2-.2-.2,0-1-.3-1.7-.6-2-.3-.4-1-.6-1.9-.6h-2.1c-.8,0-1.2,0-1.4.2-.2.1-.3.3-.4.5,0,.2,0,.4,0,.7v4.9h.5c1.7,0,3.2-.1,4.5-.4.3.1.4.5.4,1.2s0,.7-.2,1c-.5,0-1,0-1.5,0s-1.1,0-1.7,0l-2-.2v4.8c0,.6.5,1,1.4,1.1.8,0,1.3.2,1.5.3.2,0,.3.2.4.3,0,0,0,.2,0,.3,0,.3,0,.5-.2.6Z" />
    <path d="M27.1,125.6c-.2,0-.5,0-1.1,0h-5.5c-.4,0-.7,0-.9-.2-.2-.1-.3-.3-.3-.6s0-.4.2-.5c.3,0,.5.1.8.1s.4,0,.6,0c.1,0,.3-.1.4-.3.2-.3.3-.8.3-1.4v-10.7c0-.7-.4-1.1-1.2-1.2-.5,0-.8-.2-1-.3s-.2-.3-.2-.4c0-.3,0-.5.2-.7.1,0,.2,0,.4,0h6.5c3.3-.1,5.4.8,6.3,2.6.3.7.5,1.3.5,2s0,1.2-.1,1.7c0,.5-.3.9-.5,1.4-.2.4-.5.9-.9,1.2-.4.4-.8.7-1.4,1-1.2.6-2.7.9-4.6.9h-.4c-.2,0-.3-.1-.3-.4,0-.6.2-.9.5-1,2.7,0,4.3-.7,4.9-2.4.2-.5.3-1.1.3-1.7s0-1.1-.2-1.6c-.1-.5-.4-.9-.7-1.3-.7-.8-2-1.3-3.7-1.3s-1.2.1-1.4.4c-.2.3-.3.8-.3,1.6v10.7c0,.6.5.9,1.3,1,.8.1,1.2.2,1.4.3s.3.2.4.3c0,0,0,.2,0,.3,0,.3,0,.5-.2.6Z" />
    <path d="M46.4,120.7c.2-.2.4-.2.6-.2.3,0,.5,0,.6.1.3.6.4,1.5.4,2.8s0,1.5-.3,1.9c0,.1-.1.2-.2.2h-11.8c-.8,0-1.3-.3-1.3-.8s0-.5.2-.6c.2,0,.5.1.7.1s.4,0,.6,0,.3-.1.5-.2c.3-.3.5-.7.5-1.3v-10.8c0-.6-.2-1-.7-1.2-.1,0-.3,0-.4-.1-.2,0-.3,0-.4-.1-.1,0-.3,0-.4-.1-.2-.1-.4-.3-.4-.5s0-.5.2-.6c.1,0,.3,0,.4,0h10.9c.7,0,1.1,0,1.2.2.3.2.4.7.4,1.4s0,1.3-.2,1.7c-.1.4-.2.7-.3.8,0,.1-.2.2-.4.2-.3,0-.5,0-.6-.1-.1,0-.2-.1-.2-.2,0-1-.3-1.7-.5-2-.2-.3-.5-.5-.8-.6-.3-.1-.7-.2-1.2-.2h-2.4c-.8,0-1.2,0-1.4.2-.2.1-.3.3-.3.5,0,.2,0,.4,0,.8v4.6h.6c1.6,0,3-.1,4.4-.4,0,0,.2.2.3.4,0,.2.1.5.1.7,0,.4,0,.7-.2,1-.5,0-1,0-1.6,0s-1.8,0-3.6-.3v4.8c0,.5.1.9.4,1.1.2.2.7.2,1.3.2h1.6c1.6,0,2.6-.3,3-.7.3-.2.4-.5.5-.8,0-.3.1-.7.1-1.1s0-.6,0-.8Z" />
    <path d="M56.7,125.6c-.2,0-.5,0-1,0h-4.4c-.4,0-.7,0-.9-.2-.2-.1-.3-.3-.3-.6s0-.4.2-.5c.3,0,.5.1.8.1s.4,0,.6,0c.1,0,.3-.1.4-.3.2-.3.3-.8.3-1.4v-10.9c0-.5-.2-.8-.5-1,0,0-.2,0-.4-.1-.2,0-.3,0-.5-.1-.2,0-.3,0-.4-.1-.2-.1-.3-.3-.3-.4,0-.3,0-.6.2-.7.2,0,.5,0,1.1,0h5.1c0-.1.5-.1.5-.1,2.2,0,3.8.4,4.9,1.2,1.1.8,1.6,1.9,1.6,3.3s-.3,2-1,2.9c-.8,1-1.8,1.7-3.2,2,.4.3.8.7,1.3,1.4l1.1,1.7c1.1,1.5,1.9,2.3,2.6,2.3s.5,0,.6,0h.3c0-.1.1-.1.2-.1s.1,0,.2.2c0,.1.1.2.1.4s0,.3-.2.5c-.1.2-.3.4-.5.5-.5.4-1,.5-1.6.5s-1.1-.1-1.5-.3c-.4-.2-.7-.5-1-.8-.3-.3-.6-.7-.9-1.1s-.5-.8-.7-1.3l-.6-1.3c-.4-.9-.8-1.5-1.1-1.8s-.5-.4-.7-.4h-1.1c-.2,0-.3-.1-.3-.4s.1-.6.4-.8c0,0,.4-.1.8-.1.5,0,1-.1,1.6-.3s1.1-.4,1.4-.8c.7-.6,1.1-1.5,1.1-2.7s-.3-1.7-1-2.4c-.7-.7-1.7-1-3-1.1-.9,0-1.4.1-1.7.4-.3.2-.4.7-.4,1.4v10.9c0,.6.2.9.5,1.1,0,0,.2,0,.4.1s.3,0,.5.1c.2,0,.3,0,.4.1.2.1.3.3.3.5,0,.3,0,.6-.2.7Z" />
    <path d="M78.3,125.6c-.2,0-.5,0-1.1,0h-6.1c-.4,0-.7,0-.9-.2-.2-.1-.3-.3-.3-.6s0-.4.2-.5c.3,0,.5.1.8.1s.5,0,.7,0,.4-.1.6-.3c.5-.3.7-.7.7-1.3v-11.9h-1.4c-1,0-1.7,0-2,.1-.3,0-.6.2-.7.4-.2.2-.3.4-.4.6-.2.4-.3,1.2-.4,2.3-.2,0-.3,0-.4,0-.3,0-.5,0-.5-.2s-.1-.3-.2-.5c0-.2,0-.3,0-.5,0-.4,0-.8,0-1.2,0-1.2,0-1.9.3-2.3.2-.3.6-.5,1.1-.5s.3,0,.5,0c.2,0,.5,0,.9,0,1.1,0,2.3,0,3.8,0h1.8c2.1,0,3.4,0,4.1-.1.7,0,1.1-.1,1.3-.1s.3,0,.5,0,.3.1.3.2c.1.2.2.4.2.6,0,.4,0,.6,0,.9s0,.5,0,.8c0,.3,0,.6-.1.9,0,.7-.2,1.3-.4,1.5-.1.2-.3.3-.5.3s-.4,0-.5,0v-.7c0-.6,0-1.1,0-1.5,0-.4-.2-.6-.4-.8-.2-.2-.6-.3-1-.3-.4,0-1,0-1.7,0h-1.3v12.3c0,.5.4.9,1.2,1.1.2,0,.4,0,.6.1.2,0,.4,0,.5.1.2,0,.3,0,.4.1.2.1.3.3.3.6s0,.4-.2.6Z" />
    <path d="M98.4,110.3c-.5,0-.8.6-.8,1.7v6.4c0,2.4-.6,4.1-1.7,5.4-1.1,1.2-2.8,1.8-4.9,1.8s-3.3-.5-4.4-1.4c-1.5-1.1-2.2-3-2.2-5.6v-7.4c0-.3,0-.5-.1-.6s-.2-.2-.4-.2-.4,0-.6-.1c-.2,0-.3,0-.4-.1-.2-.1-.3-.3-.3-.6s0-.4.2-.6c.2,0,.5,0,1.1,0h4.1c.8,0,1.2.3,1.2.8s0,.4-.2.5c-.3,0-.5-.1-.7-.1s-.4,0-.6,0c-.1,0-.3.1-.4.3-.3.3-.4.8-.4,1.4v5.8c0,2.2.4,3.8,1.3,4.7.7.7,1.6,1.1,2.8,1.1,3.1,0,4.6-1.9,4.6-5.7v-6.4c0-.6-.2-.9-.5-1.1,0,0-.2,0-.4-.1-.2,0-.3,0-.5-.1-.2,0-.3,0-.4-.1-.2-.1-.3-.3-.3-.6s0-.5.2-.6c.2,0,.5,0,1.1,0h3.5c.4,0,.7,0,.9.2.2.1.3.3.3.6s0,.4-.2.5c-.3,0-.6-.1-.9-.1Z" />
    <path d="M107.4,125.6c-.2,0-.5,0-1,0h-4.4c-.4,0-.7,0-.9-.2-.2-.1-.3-.3-.3-.6s0-.4.2-.5c.3,0,.5.1.8.1s.4,0,.6,0c.1,0,.3-.1.4-.3.2-.3.3-.8.3-1.4v-10.9c0-.5-.2-.8-.5-1,0,0-.2,0-.4-.1-.2,0-.3,0-.5-.1-.2,0-.3,0-.4-.1-.2-.1-.3-.3-.3-.4,0-.3,0-.6.2-.7.2,0,.5,0,1.1,0h5.1c0-.1.5-.1.5-.1,2.2,0,3.8.4,4.9,1.2,1.1.8,1.6,1.9,1.6,3.3s-.3,2-1,2.9c-.8,1-1.8,1.7-3.2,2,.4.3.8.7,1.3,1.4l1.1,1.7c1.1,1.5,1.9,2.3,2.6,2.3s.5,0,.6,0h.3c0-.1.1-.1.2-.1s.1,0,.2.2c0,.1.1.2.1.4s0,.3-.2.5c-.1.2-.3.4-.5.5-.5.4-1,.5-1.6.5s-1.1-.1-1.5-.3c-.4-.2-.7-.5-1-.8-.3-.3-.6-.7-.9-1.1s-.5-.8-.7-1.3l-.6-1.3c-.4-.9-.8-1.5-1.1-1.8s-.5-.4-.7-.4h-1.1c-.2,0-.3-.1-.3-.4s.1-.6.4-.8c0,0,.4-.1.8-.1.5,0,1-.1,1.6-.3s1.1-.4,1.4-.8c.7-.6,1.1-1.5,1.1-2.7s-.3-1.7-1-2.4c-.7-.7-1.7-1-3-1.1-.9,0-1.4.1-1.7.4-.3.2-.4.7-.4,1.4v10.9c0,.6.2.9.5,1.1,0,0,.2,0,.4.1s.3,0,.5.1c.2,0,.3,0,.4.1.2.1.3.3.3.5,0,.3,0,.6-.2.7Z" />
    <path d="M125,125.6h-3.5c0-.1-2.7-.1-2.7-.1-.4,0-.7,0-.9-.2-.2-.1-.4-.3-.4-.5,0-.3,0-.6.2-.7.2,0,.5.1.8.1s.5,0,.7,0,.3-.1.5-.2c.3-.3.5-.7.5-1.3v-10.9c0-.7-.4-1.1-1.2-1.2-.5-.1-.8-.2-1-.3-.1-.1-.2-.3-.2-.4,0-.3,0-.5.2-.7.1,0,.2,0,.4,0h3.2c.3,0,.8,0,1.3,0,.6,0,1.3,0,2.3,0s1.9,0,2.7.3,1.4.4,2,.8c1,.6,1.5,1.6,1.5,2.7s-.6,2.4-1.7,3.2c-.4.3-1,.6-1.6.8,2.1.2,3.5,1,4.1,2.4.2.5.3,1,.3,1.7s-.1,1.3-.4,1.8c-.3.6-.7,1.1-1.3,1.5-1.2.9-3,1.3-5.3,1.3ZM122.4,116.4h1.6c.3,0,.7,0,1.1,0s.9,0,1.3-.2c.4-.2.8-.4,1.1-.6.6-.6.9-1.3.9-2.1s-.2-1.7-.7-2.2c-.6-.6-1.6-.8-3-.8s-1.5,0-1.8.3-.4.4-.4.6c0,.2-.1.6-.1.9v4.2ZM125,117.8c-1.2,0-2,0-2.6,0v5.1c0,.7.5,1.1,1.4,1.2.3,0,.7,0,1.2,0s1.1,0,1.6-.2,1.1-.3,1.5-.5c.9-.5,1.3-1.4,1.3-2.6,0-2-1.5-3-4.5-3Z" />
    <path d="M142.1,116.4c0,.2.1.4.1.6s0,.4,0,.6c0,.2,0,.3-.1.4-.1.3-.3.4-.5.4h-7c0-.2-.1-.4-.1-.6s0-.4,0-.5c0-.1,0-.3.1-.4.1-.3.3-.4.4-.4h7Z" />
    <path d="M154.1,113.6c0-1.6-.6-2.7-1.7-3.1-.4-.1-.9-.2-1.4-.2s-1,0-1.4.2-.7.3-1,.5c-.5.4-.8,1-.8,1.7,0,1,.8,1.9,2.3,2.7l1.3.6c.6.3,1.3.6,1.9.9.6.3,1.1.7,1.6,1.1,1,.9,1.5,1.9,1.5,3.2s-.6,2.5-1.8,3.3c-1.1.8-2.5,1.2-4.2,1.2s-2.5-.2-3.5-.6c-.8-.3-1.3-.7-1.6-1.3-.2-.3-.2-.6-.2-1,0-.8.2-1.5.6-2.2.1-.2.3-.2.6-.2.5,0,.7.1.8.4,0,1.2.5,2.1,1.1,2.7s1.6.8,2.8.8,2.3-.4,2.8-1.3c.2-.3.2-.7.2-1.1s-.1-.8-.3-1.1-.5-.6-.9-.9c-.6-.4-1.3-.8-2.3-1.2-1-.4-1.7-.7-2.2-1s-1-.6-1.4-1c-.9-.9-1.3-1.9-1.3-3.2s.6-2.3,1.7-3.1c1.1-.8,2.5-1.1,4.2-1.1s3.6.4,4.2,1.3c.2.3.4.7.4,1.3s0,1-.1,1.4c0,.4-.2.6-.3.7-.2.2-.4.3-.8.3s-.6,0-.6-.3Z" />
    <path d="M170.8,120.7c.2-.2.4-.2.6-.2.3,0,.5,0,.6.1.3.6.4,1.5.4,2.8s0,1.5-.3,1.9c0,.1-.1.2-.2.2h-11.8c-.8,0-1.3-.3-1.3-.8s0-.5.2-.6c.2,0,.5.1.7.1s.4,0,.6,0,.3-.1.5-.2c.3-.3.5-.7.5-1.3v-10.8c0-.6-.2-1-.7-1.2-.1,0-.3,0-.4-.1-.2,0-.3,0-.4-.1-.1,0-.3,0-.4-.1-.2-.1-.4-.3-.4-.5s0-.5.2-.6c.1,0,.3,0,.4,0h10.9c.7,0,1.1,0,1.2.2.3.2.4.7.4,1.4s0,1.3-.2,1.7c-.1.4-.2.7-.3.8,0,.1-.2.2-.4.2-.3,0-.5,0-.6-.1-.1,0-.2-.1-.2-.2,0-1-.3-1.7-.5-2-.2-.3-.5-.5-.8-.6-.3-.1-.7-.2-1.2-.2h-2.4c-.8,0-1.2,0-1.4.2-.2.1-.3.3-.3.5,0,.2,0,.4,0,.8v4.6h.6c1.6,0,3-.1,4.4-.4,0,0,.2.2.3.4,0,.2.1.5.1.7,0,.4,0,.7-.2,1-.5,0-1,0-1.6,0s-1.8,0-3.6-.3v4.8c0,.5.1.9.4,1.1.2.2.7.2,1.3.2h1.6c1.6,0,2.6-.3,3-.7.3-.2.4-.5.5-.8,0-.3.1-.7.1-1.1s0-.6,0-.8Z" />
    <path d="M178.1,128.7c-.6,0-.9-.3-.9-.9s.6-1.1,1.7-1.4c3.1-.9,5.3-1.9,6.7-3.2,1.5-1.4,2.2-3.3,2.2-5.7s-.1-2.3-.4-3.1-.5-1.3-.8-1.8c-.3-.4-.6-.8-1-1.2-.8-.7-1.9-1-3.2-1-2.5,0-4.1,1.3-4.8,3.8-.2.9-.4,1.9-.4,3.1,0,2.8.7,4.6,2.2,5.5.3.2.8.4,1.2.4.1,0,.3.1.3.3.1.3.1.5,0,.6-.2.2-.5.3-1.1.3-.6,0-1.1-.1-1.6-.3s-.9-.4-1.3-.7-.8-.6-1.1-1-.6-.8-.8-1.3c-.4-1-.7-2-.7-3.1s.1-2.1.3-2.9c.2-.9.5-1.6,1-2.3.4-.7.9-1.3,1.4-1.8.5-.5,1.1-.9,1.8-1.2,1.2-.6,2.5-1,3.7-1s2.3.2,3.2.5c.9.4,1.7.9,2.4,1.6,1.5,1.5,2.2,3.4,2.2,5.8,0,3.5-1.3,6.2-3.9,8-1.1.7-2.4,1.3-3.8,1.8l1,.4c1.3.5,2.3.7,3,.7,1.6,0,2.8-.4,3.4-1.2.2,0,.4,0,.5.2.1.2.2.4.2.7s0,.6-.3.9c-.2.3-.5.6-.8.9-.8.5-1.7.8-2.8.8s-1.4-.1-2.1-.4c-.7-.3-1.2-.5-1.6-.7l-1.2-.5c-.8-.4-1.5-.5-1.8-.5s-.7,0-.9,0-.4.1-.5.2c-.2,0-.4.3-.7.6Z" />
  </g>
  <g>
    <rect x="72.6" y="10" width="18.3" height="18.3" rx="5.1" ry="5.1" style="fill: #fff;"/>
    <rect x="95.9" y="10" width="18.3" height="18.3" rx="5.1" ry="5.1" style="fill: #42a1ff;"/>
    <rect x="119.1" y="10" width="18.3" height="18.3" rx="5.1" ry="5.1" style="fill: #c7e3ff;"/>
    <rect x="72.6" y="33.4" width="18.3" height="18.3" rx="5.1" ry="5.1" style="fill: #0080ff;"/>
    <rect x="95.9" y="33.4" width="18.3" height="18.3" rx="5.1" ry="5.1" style="fill: #dbeeff;"/>
    <rect x="119.1" y="33.4" width="18.3" height="18.3" rx="5.1" ry="5.1" style="fill: #75baff;"/>
    <rect x="72.6" y="56.9" width="18.3" height="18.3" rx="5.1" ry="5.1" style="fill: #bfe0ff;"/>
    <rect x="95.9" y="56.9" width="18.3" height="18.3" rx="5.1" ry="5.1" style="fill: #fff;"/>
    <rect x="119.1" y="56.9" width="18.3" height="18.3" rx="5.1" ry="5.1" style="fill: #3098ff;"/>
  </g>
</svg>
