<?xml version="1.0" encoding="UTF-8"?>
<svg id="Layer_2" xmlns="http://www.w3.org/2000/svg" version="1.1" viewBox="0 0 210 140">
  <!-- Generator: Adobe Illustrator 29.2.1, SVG Export Plug-In . SVG Version: 2.1.0 Build 116)  -->
  <g>
    <path d="M21,110.2v-2.4l5.6-.6v-27.8l-7.3.2-1.6,8.9h-3.2l.7-11.8h27.9l.5,11.8h-3.2l-1.5-8.9-7.2-.2v27.8l6.1.6v2.4h-16.9Z" style="fill: #307484;"/>
    <path d="M60.1,110.8c-2.3,0-4.4-.3-6.2-1.1-1.8-.8-3.3-2-4.5-3.5s-2.1-3.3-2.8-5.4c-.6-2.1-.9-4.4-.9-7s.4-5,1.2-7.2c.8-2.1,1.8-4,3.2-5.5s3-2.7,4.8-3.5c1.9-.8,3.9-1.2,6-1.2s4.4.4,6.2,1.2c1.8.8,3.3,1.9,4.5,3.4s2.1,3.2,2.7,5.3c.6,2.1.9,4.4.9,6.9s-.4,5.1-1.2,7.2c-.8,2.1-1.8,4-3.2,5.5-1.3,1.5-2.9,2.7-4.8,3.5-1.8.8-3.8,1.3-6,1.3ZM60.4,79.1c-1.4,0-2.7.3-3.8.9-1.1.6-2.1,1.5-2.9,2.7-.8,1.2-1.4,2.7-1.9,4.6-.4,1.9-.7,4-.7,6.6s.2,4.1.6,5.9c.4,1.8,1,3.3,1.8,4.5.8,1.3,1.8,2.2,2.9,2.9,1.1.7,2.5,1,3.9,1s2.7-.3,3.8-.9,2.1-1.5,2.9-2.7,1.4-2.8,1.9-4.6c.4-1.9.6-4.1.6-6.6s-.2-4.1-.6-5.8c-.4-1.8-1-3.2-1.8-4.5s-1.8-2.2-2.9-2.9-2.5-1-3.9-1Z" style="fill: #307484;"/>
    <path d="M76.8,110.2v-2.4l3.7-.6v-27.4l-3.4-.6v-2.4h6c.7,0,1.4,0,1.9,0s1.1,0,1.6-.1c.5,0,1.1,0,1.8-.1.7,0,1.5,0,2.4,0,2.2,0,4.1.2,5.6.6,1.5.4,2.7,1.1,3.6,1.9.9.8,1.5,1.8,1.9,3,.4,1.2.6,2.5.6,4s-.3,3.5-1,5c-.7,1.5-1.6,2.7-2.7,3.7-1.2,1-2.5,1.8-4.1,2.3-1.6.5-3.3.8-5.1.8s-.8,0-1.3,0-.8,0-1.2,0c-.4,0-.7,0-.9,0-.3,0-.4,0-.5,0v9.7l5.8.6v2.4h-14.5ZM85.5,94.9c.2,0,.4,0,.7,0,.2,0,.5,0,.8,0,.3,0,.7,0,1.1,0,.4,0,.9,0,1.4,0,1,0,1.9-.1,2.8-.4s1.7-.8,2.4-1.5,1.3-1.6,1.7-2.8.6-2.6.6-4.4-.2-2.3-.5-3.2c-.3-.9-.8-1.6-1.5-2.2-.6-.6-1.5-1-2.4-1.2-1-.3-2.1-.4-3.4-.4s-1,0-1.3,0c-.4,0-.7,0-1,0-.3,0-.5,0-.8,0s-.5,0-.7,0v15.6Z" style="fill: #307484;"/>
    <path d="M102,110.2v-2.4l4-.6,3.4-27.4-4.7-.6v-2.4h12l7.1,22.4.8,4,.8-4,6.8-22.4h11.7v2.4l-4.7.6,3.6,27.4,4,.6v2.4h-12.9v-2.4l3.8-.6-2.1-19.8-1-8.7-1.4,5.5-8,26.4h-2.4l-8-23.6-2.4-8.2-.6,8.5-2,19.9,4.2.6v2.4h-12Z" style="fill: #307484;"/>
    <path d="M158.6,110.8c-1.9,0-3.5-.3-4.9-1-1.4-.6-2.6-1.5-3.5-2.7s-1.6-2.5-2.1-4.1c-.5-1.6-.7-3.4-.7-5.3s.3-3.7.9-5.3c.6-1.6,1.4-3,2.4-4.1,1-1.1,2.3-2,3.7-2.7s3-.9,4.7-.9c2.8,0,4.9.8,6.4,2.3,1.5,1.5,2.4,3.7,2.5,6.7,0,1,0,1.8,0,2.5,0,.7-.1,1.3-.2,1.9h-15.2c0,1.8.3,3.2.7,4.4s1,2.2,1.7,2.9c.7.8,1.5,1.3,2.3,1.6.9.3,1.8.5,2.7.5s1.3,0,1.9-.2c.6-.1,1.3-.3,1.9-.5.6-.2,1.1-.4,1.6-.7s.9-.5,1.2-.7l.9,2.2c-.4.4-1,.8-1.6,1.2s-1.4.7-2.2,1c-.8.3-1.6.5-2.5.7-.9.2-1.8.3-2.7.3ZM158,87.2c-.7,0-1.4.1-2,.4-.6.3-1.2.7-1.7,1.3-.5.6-.9,1.4-1.2,2.5-.3,1-.5,2.3-.6,3.9h10.2c0-.3,0-.6,0-.9,0-.3,0-.6,0-.9,0-.8,0-1.6-.3-2.4-.2-.7-.5-1.4-.8-2-.4-.6-.9-1-1.5-1.4s-1.4-.5-2.3-.5Z" style="fill: #307484;"/>
    <path d="M180.8,110.8c-1.3,0-2.5-.3-3.7-.8-1.2-.5-2.2-1.3-3.1-2.3-.9-1-1.6-2.3-2.2-3.9-.5-1.6-.8-3.4-.8-5.5s.3-3.7.9-5.4c.6-1.7,1.4-3.1,2.6-4.4,1.1-1.2,2.5-2.2,4.1-2.9s3.4-1.1,5.4-1.1,1.4,0,2.1.1c.7,0,1.3.2,1.9.3v-8.2l-4.3-.4v-2.1l8-.9h.1l1.1.8v33.5h2.6v2.3c-.6.2-1.3.3-2.2.5-.8.2-1.7.3-2.6.3s-.7,0-1,0c-.3,0-.5-.2-.7-.3-.2-.2-.4-.4-.5-.7s-.2-.7-.2-1.2v-1c-.4.4-.8.8-1.3,1.2-.5.4-1.1.7-1.7,1.1-.6.3-1.3.6-2,.8-.7.2-1.5.3-2.4.3ZM182.9,107.4c.6,0,1.1,0,1.6-.2s1-.3,1.4-.5c.4-.2.8-.5,1.1-.7s.6-.5.8-.7v-16.7c-.1-.2-.3-.3-.6-.5-.3-.2-.6-.3-1-.5-.4-.1-.8-.2-1.3-.3s-1-.1-1.5-.1c-1,0-1.9.2-2.8.6-.9.4-1.6,1-2.3,1.8-.7.8-1.2,1.9-1.6,3.2-.4,1.3-.6,2.9-.6,4.8,0,1.7.1,3.2.5,4.4.3,1.2.8,2.3,1.4,3.1.6.8,1.3,1.4,2.1,1.8s1.7.6,2.6.6Z" style="fill: #307484;"/>
  </g>
  <g>
    <path d="M98.7,56c17.5,4.7,5.9-10.4,8.8-19.1,2-5.5,8.8-4.4,13.3-3.3-2.9-2.7-6.9-4.4-11.2-4.4-9.3.1-16.8,7.6-16.8,16.8s1.2,7.1,3.2,9.9c.9-.1,1.9-.1,2.7.1ZM96.3,51c-.3-5.5,4.8-7.9,9.6-6.9.1.9.3,1.7.5,2.7-.8-.1-1.7-.3-2.7-.3l3.2,3.2c.1.7.3,1.5.3,2.1l-5.2-5.2c-.5.1-1.1.3-1.6.7l6.8,6.8c-.1.4-.4.8-.7,1.1l-6.9-7.1c-.3.4-.5.9-.7,1.6l5.9,5.9h-1.9l-4.3-4.3c0,1.2.3,2.4.5,3.6-.8-.3-1.7-.4-2.7-.4-.1-1.1-.3-2.3-.3-3.5Z" style="fill: #307484;"/>
    <path d="M123.5,37c-4.1.7-9.9-3.9-12.8.3-4,6.5,9.3,25.6-11.2,22.1,2.8,2.1,6.3,3.5,10.1,3.5,9.1-.1,16.5-7.6,16.5-16.8s-.9-6.4-2.7-9.1ZM122.5,42.6h0c-.4,4.9-5.3,6.7-9.6,5.9,0-.9-.3-1.7-.5-2.7.8.1,1.7.3,2.7.3l-3.2-3.2c-.1-.7-.3-1.5-.3-2.1l5.2,5.2c.5-.1,1.1-.3,1.6-.7l-6.7-6.8c.1-.4.4-.8.7-1.1l6.9,6.9c.3-.4.5-.9.7-1.6l-5.9-5.9h1.9l4.3,4.3c0-1.2-.3-2.4-.5-3.6.9.3,1.7.4,2.7.4,0,1.5.3,3.1.1,4.7Z" style="fill: #307484;"/>
  </g>
</svg>
