<?xml version="1.0" encoding="utf-8"?>
<!-- Generator: Adobe Illustrator 27.9.4, SVG Export Plug-In . SVG Version: 9.03 Build 54784)  -->
<svg version="1.1" id="Layer_1" xmlns="http://www.w3.org/2000/svg" xmlns:xlink="http://www.w3.org/1999/xlink" x="0px" y="0px"
	 viewBox="0 0 210 140" style="enable-background:new 0 0 210 140;" xml:space="preserve">
<style type="text/css">
	.st0{fill:#D1F2F0;}
	.st1{fill:#0E3F0A;}
</style>
<g>
	<rect x="0.9" class="st0" width="209.1" height="140"/>
	<g>
		<g>
			<path class="st1" d="M32.2,49.5c-2.9,0.4-3.6,0.8-5.2,4.6C25.9,57,20,71.4,17.8,76.8h-1.4c-2.5-6.9-6.2-17-8.7-23.3
				c-1.2-3.2-1.9-3.6-4.6-3.9v-1.2h10.9v1.2c-3.2,0.3-3.4,0.9-2.8,2.5c1.1,3.1,4.2,11.7,6.9,18.8c2.3-5.5,5.1-12.6,7.1-18
				c0.9-2.5,0.4-2.9-3.1-3.3v-1.2h9.9V49.5z"/>
			<path class="st1" d="M45.9,76.8c-0.6,0-1.6-0.3-2-0.8c-0.6-0.6-0.8-1.2-1-1.9c-1.7,1.2-3.8,2.8-5.2,2.8c-3.1,0-5.2-2.5-5.2-5.3
				c0-2.1,1.2-3.5,3.5-4.3c2.6-0.9,5.8-2,6.8-2.8v-0.9c0-3.1-1.5-4.8-3.8-4.8c-1,0-1.6,0.5-2,1c-0.5,0.6-0.8,1.5-1.2,2.8
				c-0.2,0.7-0.6,1-1.2,1c-0.8,0-1.9-0.9-1.9-1.9c0-0.6,0.6-1.1,1.4-1.7c1.2-0.9,3.7-2.5,6.2-3c1.3,0,2.6,0.4,3.6,1.2
				c1.5,1.3,2.2,2.8,2.2,5v8.3c0,2,0.7,2.6,1.5,2.6c0.5,0,1.1-0.2,1.5-0.5l0.4,1.2L45.9,76.8z M42.8,65.9c-0.9,0.5-3,1.4-4,1.8
				c-1.6,0.7-2.6,1.5-2.6,3.1c0,2.3,1.7,3.3,3.1,3.3c1.1,0,2.7-0.7,3.5-1.5C42.8,70.6,42.8,68,42.8,65.9z"/>
			<path class="st1" d="M61.3,76.3h-9.9v-1.2c2.7-0.3,3-0.5,3-3.3v-8.9c0-2.8-0.2-3-2.7-3.3v-1.1c2.1-0.3,4-0.9,6.1-1.8
				c0,1.4,0,3.3,0,4.7c1.5-2.2,3.3-4.6,5.5-4.6c1.6,0,2.5,1,2.5,2.1c0,1-0.7,1.9-1.5,2.4c-0.4,0.3-0.8,0.2-1.1-0.1
				c-0.6-0.6-1.2-1.1-1.9-1.1c-0.9,0-2.5,1.3-3.4,3.5v8.1c0,2.8,0.2,3.1,3.5,3.3V76.3z"/>
			<path class="st1" d="M93.7,69.4c-0.6,2.1-1.7,5.2-2.4,6.5c-1.2,0.3-4.6,1-7.9,1c-10.3,0-15.5-6.8-15.5-14.4
				c0-8.8,6.7-14.8,16.3-14.8c3.7,0,6.7,0.8,8.1,1c0.2,1.9,0.5,4.5,0.8,6.7l-1.3,0.3c-0.9-2.9-1.9-4.6-4.1-5.5
				c-1.1-0.5-2.9-0.8-4.5-0.8c-7.1,0-10.8,5.2-10.8,12.3c0,8.3,4.3,13.6,11.3,13.6c4.4,0,6.5-2,8.7-6.3L93.7,69.4z"/>
			<path class="st1" d="M108.8,76.3v-1.2c2.5-0.3,2.8-0.5,2.8-3.3v-7.1c0-3.6-1.4-5.4-4.3-5.3c-1.6,0-3.4,0.8-4.6,2.2v10.1
				c0,2.8,0.3,3.1,2.9,3.3v1.2h-9.4v-1.2c2.5-0.2,3.1-0.4,3.1-3.3V51.1c0-2.3-0.1-2.8-3-3.1v-1.1c2.3-0.2,4.9-0.9,6.4-1.5
				c0,1.7,0,3.6,0,5.3V60c1.5-1.5,3.9-3.1,6.2-3.1c3.5,0,6,2.2,6,7.4v7.6c0,2.8,0.3,3.1,2.8,3.3v1.2H108.8z"/>
			<path class="st1" d="M135.3,76.3v-1.2c2.8-0.3,3.1-0.8,2.5-2.4c-0.6-1.7-1.4-3.8-2.3-6.5h-9.3c-0.7,1.9-1.3,3.6-1.9,5.4
				c-0.9,2.8-0.3,3.1,3.2,3.6v1.2h-9.9v-1.2c2.7-0.3,3.4-0.6,4.9-4.5l8.9-22.6l1.4-0.3c2.7,7.4,5.7,15.5,8.4,22.9
				c1.4,3.7,1.8,4.1,4.8,4.4v1.2H135.3z M131,53.4c-1.4,3.7-2.8,7.6-4.1,11h8L131,53.4z"/>
			<path class="st1" d="M171,76.3v-1.2c3.5-0.3,3.7-0.6,3.6-5.2l0-17.5c-3.5,7.9-9.2,20.2-10.7,24h-1.1c-1.5-3.9-6.3-15.7-9.6-23.5
				c-0.7,15-0.8,18.4-0.8,19.3c0,2.4,1.1,2.8,4,3.1v1.2h-10.2v-1.2c2.5-0.3,3.5-0.8,3.9-3.1c0.3-1.9,0.3-3.4,1.4-19.1
				c0.2-2.2-0.3-3-4-3.3v-1.2h7.5l9.5,21.8l10.2-21.8h7.5v1.2c-3.7,0.4-4.2,0.8-4.1,3.8l0.2,16.5c0.2,4.6,0.3,4.8,4.1,5.2v1.2H171z"
				/>
			<path class="st1" d="M197,48.3c3.1,0,5.5,0.6,7.3,1.8c1.7,1.2,2.8,3.3,2.8,6.1c0,6.3-5.4,8.8-9.5,8.8c-0.5,0-0.9,0-1.2-0.1
				l-3-0.8V71c0,3.6,0.3,3.7,4.3,4.1v1.2h-11.9v-1.2c3.7-0.4,3.9-0.6,3.9-4.2V53.8c0-3.8-0.5-3.9-3.9-4.3v-1.2H197z M193.5,62.7
				c0.5,0.3,1.7,0.6,3.1,0.6c2.9,0,6.5-1.5,6.5-6.9c0-4.7-3.1-6.6-6.7-6.6c-1.2,0-2.2,0.2-2.4,0.5c-0.3,0.3-0.5,0.8-0.5,2V62.7z"/>
		</g>
	</g>
	<g>
		<g>
			<path class="st1" d="M47.3,84.3c-0.9,0.1-1.2,0.3-1.7,1.5c-0.4,0.9-2.3,5.6-3,7.4h-0.5c-0.8-2.3-2-5.5-2.8-7.6
				c-0.4-1-0.6-1.2-1.5-1.3v-0.4h3.6v0.4c-1,0.1-1.1,0.3-0.9,0.8c0.4,1,1.4,3.8,2.3,6.1c0.7-1.8,1.7-4.1,2.3-5.9
				c0.3-0.8,0.1-0.9-1-1.1v-0.4h3.2V84.3z"/>
			<path class="st1" d="M51.7,93.1c-0.2,0-0.5-0.1-0.7-0.3c-0.2-0.2-0.3-0.4-0.3-0.6c-0.6,0.4-1.2,0.9-1.7,0.9c-1,0-1.7-0.8-1.7-1.7
				c0-0.7,0.4-1.1,1.1-1.4c0.9-0.3,1.9-0.7,2.2-0.9v-0.3c0-1-0.5-1.6-1.2-1.6c-0.3,0-0.5,0.2-0.7,0.3c-0.2,0.2-0.3,0.5-0.4,0.9
				c-0.1,0.2-0.2,0.3-0.4,0.3c-0.3,0-0.6-0.3-0.6-0.6c0-0.2,0.2-0.4,0.5-0.6c0.4-0.3,1.2-0.8,2-1c0.4,0,0.9,0.1,1.2,0.4
				c0.5,0.4,0.7,0.9,0.7,1.6v2.7c0,0.6,0.2,0.8,0.5,0.8c0.2,0,0.4-0.1,0.5-0.2l0.1,0.4L51.7,93.1z M50.7,89.6
				c-0.3,0.2-1,0.4-1.3,0.6c-0.5,0.2-0.9,0.5-0.9,1c0,0.7,0.6,1.1,1,1.1c0.4,0,0.9-0.2,1.1-0.5C50.7,91.1,50.7,90.3,50.7,89.6z"/>
			<path class="st1" d="M56.7,93h-3.2v-0.4c0.9-0.1,1-0.2,1-1.1v-2.9c0-0.9-0.1-1-0.9-1.1v-0.4c0.7-0.1,1.3-0.3,2-0.6
				c0,0.5,0,1.1,0,1.5c0.5-0.7,1.1-1.5,1.8-1.5c0.5,0,0.8,0.3,0.8,0.7c0,0.3-0.2,0.6-0.5,0.8c-0.1,0.1-0.3,0.1-0.4,0
				c-0.2-0.2-0.4-0.4-0.6-0.4c-0.3,0-0.8,0.4-1.1,1.1v2.6c0,0.9,0.1,1,1.1,1.1V93z"/>
			<path class="st1" d="M58.7,93v-0.4c0.9-0.1,1-0.2,1-1.1v-2.9c0-0.9,0-0.9-0.9-1.1v-0.3c0.7-0.1,1.4-0.3,2-0.6c0,0.6,0,1.2,0,1.8
				v3.1c0,1,0.1,1,1,1.1V93H58.7z M60.2,85.3c-0.4,0-0.7-0.4-0.7-0.7c0-0.4,0.4-0.8,0.8-0.8c0.4,0,0.7,0.3,0.7,0.8
				C60.9,84.9,60.6,85.3,60.2,85.3z"/>
			<path class="st1" d="M67,93.1c-0.2,0-0.5-0.1-0.7-0.3c-0.2-0.2-0.3-0.4-0.3-0.6c-0.6,0.4-1.2,0.9-1.7,0.9c-1,0-1.7-0.8-1.7-1.7
				c0-0.7,0.4-1.1,1.1-1.4c0.9-0.3,1.9-0.7,2.2-0.9v-0.3c0-1-0.5-1.6-1.2-1.6c-0.3,0-0.5,0.2-0.7,0.3c-0.2,0.2-0.3,0.5-0.4,0.9
				c-0.1,0.2-0.2,0.3-0.4,0.3c-0.3,0-0.6-0.3-0.6-0.6c0-0.2,0.2-0.4,0.5-0.6c0.4-0.3,1.2-0.8,2-1c0.4,0,0.9,0.1,1.2,0.4
				c0.5,0.4,0.7,0.9,0.7,1.6v2.7c0,0.6,0.2,0.8,0.5,0.8c0.2,0,0.4-0.1,0.5-0.2l0.1,0.4L67,93.1z M66,89.6c-0.3,0.2-1,0.4-1.3,0.6
				c-0.5,0.2-0.9,0.5-0.9,1c0,0.7,0.6,1.1,1,1.1c0.4,0,0.9-0.2,1.1-0.5C66,91.1,66,90.3,66,89.6z"/>
			<path class="st1" d="M72.8,93v-0.4c0.8-0.1,0.9-0.2,0.9-1.1v-2.3c0-1-0.4-1.6-1.3-1.6c-0.6,0-1.1,0.3-1.6,0.7v3.3
				c0,1,0.1,1,0.9,1.1V93h-3v-0.4c0.9-0.1,1-0.2,1-1.1v-2.9c0-0.9-0.1-1-0.9-1.1v-0.4c0.7-0.1,1.4-0.3,2-0.6c0,0.3,0,0.8,0,1.1
				c0.3-0.2,0.6-0.4,1-0.6c0.4-0.3,0.8-0.4,1.2-0.4c1.1,0,1.8,0.8,1.8,2.2v2.7c0,1,0.1,1,0.9,1.1V93H72.8z"/>
			<path class="st1" d="M79.3,93c-0.2,0.1-0.5,0.2-0.6,0.2c-0.9,0-1.4-0.5-1.4-1.7v-4.1h-1l-0.1-0.2l0.4-0.4h0.6v-1.2
				c0.3-0.3,0.7-0.6,0.9-0.9l0.2,0c0,0.6,0,1.4,0,2.1H80c0.1,0.1,0.1,0.4-0.1,0.6h-1.5V91c0,1.1,0.4,1.3,0.8,1.3
				c0.3,0,0.7-0.1,0.9-0.2l0.1,0.4L79.3,93z"/>
			<path class="st1" d="M92.6,90.7c-0.2,0.7-0.6,1.7-0.8,2.1c-0.4,0.1-1.5,0.3-2.6,0.3c-3.3,0-5.1-2.2-5.1-4.7
				c0-2.9,2.2-4.8,5.3-4.8c1.2,0,2.2,0.3,2.6,0.3c0.1,0.6,0.2,1.5,0.3,2.2L92,86.3c-0.3-0.9-0.6-1.5-1.3-1.8
				c-0.4-0.2-0.9-0.3-1.5-0.3c-2.3,0-3.5,1.7-3.5,4c0,2.7,1.4,4.4,3.7,4.4c1.4,0,2.1-0.7,2.8-2.1L92.6,90.7z"/>
			<path class="st1" d="M97.5,93v-0.4c0.8-0.1,0.9-0.2,0.9-1.1v-2.3c0-1.2-0.4-1.8-1.4-1.7c-0.5,0-1.1,0.3-1.5,0.7v3.3
				c0,0.9,0.1,1,1,1.1V93h-3.1v-0.4c0.8-0.1,1-0.1,1-1.1v-6.8c0-0.7,0-0.9-1-1v-0.4c0.7-0.1,1.6-0.3,2.1-0.5c0,0.5,0,1.2,0,1.7v3
				c0.5-0.5,1.3-1,2-1c1.1,0,1.9,0.7,1.9,2.4v2.5c0,0.9,0.1,1,0.9,1.1V93H97.5z"/>
			<path class="st1" d="M105.8,93.1c-0.2,0-0.5-0.1-0.7-0.3c-0.2-0.2-0.3-0.4-0.3-0.6c-0.6,0.4-1.2,0.9-1.7,0.9
				c-1,0-1.7-0.8-1.7-1.7c0-0.7,0.4-1.1,1.1-1.4c0.9-0.3,1.9-0.7,2.2-0.9v-0.3c0-1-0.5-1.6-1.2-1.6c-0.3,0-0.5,0.2-0.7,0.3
				c-0.2,0.2-0.3,0.5-0.4,0.9c-0.1,0.2-0.2,0.3-0.4,0.3c-0.3,0-0.6-0.3-0.6-0.6c0-0.2,0.2-0.4,0.5-0.6c0.4-0.3,1.2-0.8,2-1
				c0.4,0,0.9,0.1,1.2,0.4c0.5,0.4,0.7,0.9,0.7,1.6v2.7c0,0.6,0.2,0.8,0.5,0.8c0.2,0,0.3-0.1,0.5-0.2l0.1,0.4L105.8,93.1z
				 M104.8,89.6c-0.3,0.2-1,0.4-1.3,0.6c-0.5,0.2-0.9,0.5-0.9,1c0,0.7,0.6,1.1,1,1.1c0.4,0,0.9-0.2,1.1-0.5
				C104.8,91.1,104.8,90.3,104.8,89.6z"/>
			<path class="st1" d="M110.8,93h-3.2v-0.4c0.9-0.1,1-0.2,1-1.1v-2.9c0-0.9-0.1-1-0.9-1.1v-0.4c0.7-0.1,1.3-0.3,2-0.6
				c0,0.5,0,1.1,0,1.5c0.5-0.7,1.1-1.5,1.8-1.5c0.5,0,0.8,0.3,0.8,0.7c0,0.3-0.2,0.6-0.5,0.8c-0.1,0.1-0.3,0.1-0.4,0
				c-0.2-0.2-0.4-0.4-0.6-0.4c-0.3,0-0.8,0.4-1.1,1.1v2.6c0,0.9,0.1,1,1.1,1.1V93z"/>
			<path class="st1" d="M117.3,93.1c-0.2,0-0.5-0.1-0.7-0.3c-0.2-0.2-0.3-0.4-0.3-0.6c-0.6,0.4-1.2,0.9-1.7,0.9
				c-1,0-1.7-0.8-1.7-1.7c0-0.7,0.4-1.1,1.1-1.4c0.9-0.3,1.9-0.7,2.2-0.9v-0.3c0-1-0.5-1.6-1.2-1.6c-0.3,0-0.5,0.2-0.7,0.3
				c-0.2,0.2-0.3,0.5-0.4,0.9c-0.1,0.2-0.2,0.3-0.4,0.3c-0.3,0-0.6-0.3-0.6-0.6c0-0.2,0.2-0.4,0.5-0.6c0.4-0.3,1.2-0.8,2-1
				c0.4,0,0.9,0.1,1.2,0.4c0.5,0.4,0.7,0.9,0.7,1.6v2.7c0,0.6,0.2,0.8,0.5,0.8c0.2,0,0.4-0.1,0.5-0.2l0.1,0.4L117.3,93.1z
				 M116.2,89.6c-0.3,0.2-1,0.4-1.3,0.6c-0.5,0.2-0.9,0.5-0.9,1c0,0.7,0.6,1.1,1,1.1c0.4,0,0.9-0.2,1.1-0.5
				C116.2,91.1,116.2,90.3,116.2,89.6z"/>
			<path class="st1" d="M124.3,91.7c-0.6,0.8-1.6,1.4-2.4,1.4c-1.8,0-2.8-1.4-2.8-2.9c0-1.1,0.5-2,1.4-2.7c0.7-0.6,1.6-0.8,2.1-0.8
				c0.6,0,1.1,0.2,1.3,0.4c0.2,0.2,0.2,0.3,0.2,0.4c0,0.3-0.3,0.6-0.5,0.6c-0.1,0-0.1,0-0.3-0.1c-0.4-0.4-0.9-0.6-1.4-0.6
				c-0.9,0-1.7,0.8-1.7,2.2c0,1.9,1.3,2.6,2.1,2.6c0.6,0,1.1-0.2,1.7-0.8L124.3,91.7z"/>
			<path class="st1" d="M127.8,93c-0.2,0.1-0.5,0.2-0.6,0.2c-0.9,0-1.4-0.5-1.4-1.7v-4.1h-1l-0.1-0.2l0.4-0.4h0.6v-1.2
				c0.3-0.3,0.7-0.6,0.9-0.9l0.2,0c0,0.6,0,1.4,0,2.1h1.6c0.1,0.1,0.1,0.4-0.1,0.6h-1.5V91c0,1.1,0.4,1.3,0.8,1.3
				c0.3,0,0.7-0.1,0.9-0.2l0.1,0.4L127.8,93z"/>
			<path class="st1" d="M134.4,91.8c-0.9,1.1-1.9,1.4-2.3,1.4c-1.7,0-2.7-1.4-2.7-3c0-1,0.3-1.8,0.9-2.5c0.6-0.7,1.4-1,2.1-1
				c1.2,0,2.1,1.1,2.1,2.2c0,0.3-0.1,0.4-0.3,0.5c-0.3,0.1-2.1,0.2-3.7,0.2c0,1.9,1.1,2.6,2.1,2.6c0.6,0,1.1-0.2,1.6-0.7L134.4,91.8
				z M132,87.2c-0.6,0-1.3,0.6-1.5,1.7c0.8,0,1.6,0,2.4,0c0.3,0,0.3-0.1,0.3-0.3C133.3,87.9,132.8,87.2,132,87.2z"/>
			<path class="st1" d="M138.6,93h-3.2v-0.4c0.9-0.1,1-0.2,1-1.1v-2.9c0-0.9-0.1-1-0.9-1.1v-0.4c0.7-0.1,1.3-0.3,2-0.6
				c0,0.5,0,1.1,0,1.5c0.5-0.7,1.1-1.5,1.8-1.5c0.5,0,0.8,0.3,0.8,0.7c0,0.3-0.2,0.6-0.5,0.8c-0.1,0.1-0.3,0.1-0.4,0
				c-0.2-0.2-0.4-0.4-0.6-0.4c-0.3,0-0.8,0.4-1.1,1.1v2.6c0,0.9,0.1,1,1.1,1.1V93z"/>
			<path class="st1" d="M140.5,93v-0.4c0.9-0.1,1-0.2,1-1.1v-2.9c0-0.9,0-0.9-0.9-1.1v-0.3c0.7-0.1,1.4-0.3,2-0.6c0,0.6,0,1.2,0,1.8
				v3.1c0,1,0.1,1,1,1.1V93H140.5z M142,85.3c-0.4,0-0.7-0.4-0.7-0.7c0-0.4,0.3-0.8,0.8-0.8c0.4,0,0.7,0.3,0.7,0.8
				C142.7,84.9,142.4,85.3,142,85.3z"/>
			<path class="st1" d="M149.7,91.2c-0.2,0.5-0.5,1.3-0.6,1.8h-4.7l-0.1-0.2c1.2-1.8,2.4-3.6,3.6-5.4c-0.1,0-1.3,0-1.4,0
				c-1,0-1.2,0.2-1.7,1.4l-0.4-0.1c0.2-0.5,0.3-1.4,0.4-2h0.3c0.1,0.2,0.3,0.3,0.8,0.3h3.3l0.1,0.2c-1.1,1.7-2.3,3.6-3.5,5.4h1.5
				c1.1,0,1.4-0.3,2-1.5L149.7,91.2z"/>
			<path class="st1" d="M154.8,93.1c-0.2,0-0.5-0.1-0.7-0.3c-0.2-0.2-0.3-0.4-0.3-0.6c-0.6,0.4-1.2,0.9-1.7,0.9
				c-1,0-1.7-0.8-1.7-1.7c0-0.7,0.4-1.1,1.1-1.4c0.9-0.3,1.9-0.7,2.2-0.9v-0.3c0-1-0.5-1.6-1.2-1.6c-0.3,0-0.5,0.2-0.7,0.3
				c-0.2,0.2-0.3,0.5-0.4,0.9c-0.1,0.2-0.2,0.3-0.4,0.3c-0.3,0-0.6-0.3-0.6-0.6c0-0.2,0.2-0.4,0.5-0.6c0.4-0.3,1.2-0.8,2-1
				c0.4,0,0.9,0.1,1.2,0.4c0.5,0.4,0.7,0.9,0.7,1.6v2.7c0,0.6,0.2,0.8,0.5,0.8c0.2,0,0.3-0.1,0.5-0.2l0.1,0.4L154.8,93.1z
				 M153.7,89.6c-0.3,0.2-1,0.4-1.3,0.6c-0.5,0.2-0.9,0.5-0.9,1c0,0.7,0.6,1.1,1,1.1c0.4,0,0.9-0.2,1.1-0.5
				C153.7,91.1,153.7,90.3,153.7,89.6z"/>
			<path class="st1" d="M159.3,93c-0.2,0.1-0.5,0.2-0.6,0.2c-0.9,0-1.4-0.5-1.4-1.7v-4.1h-1l-0.1-0.2l0.4-0.4h0.6v-1.2
				c0.3-0.3,0.7-0.6,0.9-0.9l0.2,0c0,0.6,0,1.4,0,2.1h1.6c0.1,0.1,0.1,0.4-0.1,0.6h-1.5V91c0,1.1,0.4,1.3,0.8,1.3
				c0.3,0,0.7-0.1,0.9-0.2l0.1,0.4L159.3,93z"/>
			<path class="st1" d="M160.8,93v-0.4c0.9-0.1,1-0.2,1-1.1v-2.9c0-0.9,0-0.9-0.9-1.1v-0.3c0.7-0.1,1.4-0.3,2-0.6c0,0.6,0,1.2,0,1.8
				v3.1c0,1,0.1,1,1,1.1V93H160.8z M162.2,85.3c-0.4,0-0.7-0.4-0.7-0.7c0-0.4,0.3-0.8,0.8-0.8c0.4,0,0.7,0.3,0.7,0.8
				C163,84.9,162.7,85.3,162.2,85.3z"/>
			<path class="st1" d="M167.8,86.7c1.8,0,3.1,1.3,3.1,3.1c0,2.3-1.7,3.3-3.1,3.3c-1.9,0-3.1-1.6-3.1-3.1
				C164.7,87.7,166.4,86.7,167.8,86.7z M167.6,87.1c-0.9,0-1.6,0.8-1.6,2.5c0,1.8,0.8,3.1,1.9,3.1c0.9,0,1.6-0.6,1.6-2.5
				C169.5,88.5,168.8,87.1,167.6,87.1z"/>
			<path class="st1" d="M175.8,93v-0.4c0.8-0.1,0.9-0.2,0.9-1.1v-2.3c0-1-0.3-1.6-1.3-1.6c-0.6,0-1.1,0.3-1.6,0.7v3.3
				c0,1,0.1,1,0.9,1.1V93h-3v-0.4c0.9-0.1,1-0.2,1-1.1v-2.9c0-0.9-0.1-1-0.9-1.1v-0.4c0.7-0.1,1.4-0.3,2-0.6c0,0.3,0,0.8,0,1.1
				c0.3-0.2,0.6-0.4,1-0.6c0.4-0.3,0.8-0.4,1.2-0.4c1.1,0,1.8,0.8,1.8,2.2v2.7c0,1,0.1,1,0.9,1.1V93H175.8z"/>
			<path class="st1" d="M25.3,109.9c-0.2,0-0.5-0.1-0.7-0.3c-0.2-0.2-0.3-0.4-0.3-0.6c-0.6,0.4-1.2,0.9-1.7,0.9
				c-1,0-1.7-0.8-1.7-1.7c0-0.7,0.4-1.1,1.1-1.4c0.9-0.3,1.9-0.7,2.2-0.9v-0.3c0-1-0.5-1.6-1.2-1.6c-0.3,0-0.5,0.2-0.7,0.3
				c-0.2,0.2-0.3,0.5-0.4,0.9c-0.1,0.2-0.2,0.3-0.4,0.3c-0.3,0-0.6-0.3-0.6-0.6c0-0.2,0.2-0.4,0.5-0.6c0.4-0.3,1.2-0.8,2-1
				c0.4,0,0.9,0.1,1.2,0.4c0.5,0.4,0.7,0.9,0.7,1.6v2.7c0,0.6,0.2,0.8,0.5,0.8c0.2,0,0.4-0.1,0.5-0.2l0.1,0.4L25.3,109.9z
				 M24.3,106.4c-0.3,0.2-1,0.4-1.3,0.6c-0.5,0.2-0.9,0.5-0.9,1c0,0.7,0.6,1.1,1,1.1c0.4,0,0.9-0.2,1.1-0.5
				C24.3,107.9,24.3,107.1,24.3,106.4z"/>
			<path class="st1" d="M32.4,108.5c-0.6,0.8-1.6,1.4-2.4,1.4c-1.8,0-2.8-1.4-2.8-2.9c0-1.1,0.5-2,1.4-2.7c0.7-0.6,1.6-0.8,2.1-0.8
				c0.6,0,1.1,0.2,1.3,0.4c0.2,0.2,0.2,0.3,0.2,0.4c0,0.3-0.4,0.6-0.5,0.6c-0.1,0-0.1,0-0.3-0.1c-0.4-0.4-0.9-0.6-1.4-0.6
				c-0.9,0-1.7,0.8-1.7,2.2c0,1.9,1.3,2.6,2.1,2.6c0.6,0,1.1-0.2,1.7-0.8L32.4,108.5z"/>
			<path class="st1" d="M36.3,109.8h-3.2v-0.4c0.9-0.1,1-0.2,1-1.1v-2.9c0-0.9-0.1-1-0.9-1.1V104c0.7-0.1,1.3-0.3,2-0.6
				c0,0.5,0,1.1,0,1.5c0.5-0.7,1.1-1.5,1.8-1.5c0.5,0,0.8,0.3,0.8,0.7c0,0.3-0.2,0.6-0.5,0.8c-0.1,0.1-0.3,0.1-0.4,0
				c-0.2-0.2-0.4-0.4-0.6-0.4c-0.3,0-0.8,0.4-1.1,1.1v2.6c0,0.9,0.1,1,1.1,1.1V109.8z"/>
			<path class="st1" d="M41.5,103.5c1.8,0,3.1,1.3,3.1,3.1c0,2.3-1.7,3.3-3.1,3.3c-1.9,0-3.1-1.6-3.1-3.1
				C38.3,104.5,40.1,103.5,41.5,103.5z M41.3,103.9c-0.9,0-1.6,0.8-1.6,2.5c0,1.8,0.8,3.1,1.9,3.1c0.9,0,1.6-0.6,1.6-2.5
				C43.2,105.3,42.5,103.9,41.3,103.9z"/>
			<path class="st1" d="M49.2,105.3c-0.3-0.8-0.6-1.4-1.5-1.4c-0.5,0-0.9,0.4-0.9,0.9c0,0.6,0.4,0.9,1.2,1.2c1.2,0.6,1.8,1,1.8,1.9
				c0,1.3-1.2,1.9-2.3,1.9c-0.7,0-1.4-0.2-1.7-0.4c-0.1-0.4-0.2-1.2-0.3-1.6l0.4-0.1c0.3,0.9,0.7,1.6,1.7,1.6c0.5,0,1-0.4,1-1
				c0-0.6-0.4-1-1.1-1.3c-1-0.5-1.8-0.9-1.8-1.9c0-1,0.9-1.8,2.2-1.8c0.6,0,1.1,0.1,1.3,0.2c0,0.3,0.1,1.2,0.2,1.6L49.2,105.3z"/>
			<path class="st1" d="M54.4,105.3c-0.3-0.8-0.6-1.4-1.5-1.4c-0.5,0-0.9,0.4-0.9,0.9c0,0.6,0.4,0.9,1.2,1.2c1.2,0.6,1.8,1,1.8,1.9
				c0,1.3-1.2,1.9-2.3,1.9c-0.7,0-1.4-0.2-1.7-0.4c-0.1-0.4-0.2-1.2-0.3-1.6l0.4-0.1c0.3,0.9,0.7,1.6,1.7,1.6c0.5,0,1-0.4,1-1
				c0-0.6-0.4-1-1.1-1.3c-1-0.5-1.8-0.9-1.8-1.9c0-1,0.9-1.8,2.2-1.8c0.6,0,1.1,0.1,1.3,0.2c0,0.3,0.1,1.2,0.2,1.6L54.4,105.3z"/>
			<path class="st1" d="M62,109.8c-0.2,0.1-0.5,0.2-0.6,0.2c-0.9,0-1.4-0.5-1.4-1.7v-4.1h-1L59,104l0.4-0.4H60v-1.2
				c0.3-0.3,0.7-0.6,0.9-0.9l0.2,0c0,0.6,0,1.4,0,2.1h1.6c0.1,0.1,0.1,0.4-0.1,0.6h-1.5v3.6c0,1.1,0.4,1.3,0.8,1.3
				c0.3,0,0.7-0.1,0.9-0.2l0.1,0.4L62,109.8z"/>
			<path class="st1" d="M67.3,109.8v-0.4c0.8-0.1,0.9-0.2,0.9-1.1V106c0-1.2-0.4-1.8-1.4-1.7c-0.5,0-1.1,0.3-1.5,0.7v3.3
				c0,0.9,0.1,1,1,1.1v0.4h-3.1v-0.4c0.8-0.1,1-0.1,1-1.1v-6.8c0-0.7,0-0.9-1-1v-0.4c0.7-0.1,1.6-0.3,2.1-0.5c0,0.5,0,1.2,0,1.7v3
				c0.5-0.5,1.3-1,2-1c1.1,0,1.9,0.7,1.9,2.4v2.5c0,0.9,0.1,1,0.9,1.1v0.4H67.3z"/>
			<path class="st1" d="M76.2,108.6c-0.9,1.1-1.9,1.4-2.3,1.4c-1.7,0-2.7-1.4-2.7-3c0-1,0.3-1.8,0.9-2.5c0.6-0.7,1.4-1,2.1-1
				c1.2,0,2.1,1.1,2.1,2.2c0,0.3-0.1,0.4-0.3,0.5c-0.3,0.1-2.1,0.2-3.7,0.2c0,1.9,1.1,2.6,2.1,2.6c0.6,0,1.1-0.2,1.6-0.7L76.2,108.6
				z M73.8,104c-0.6,0-1.3,0.6-1.5,1.7c0.8,0,1.6,0,2.4,0c0.3,0,0.3-0.1,0.3-0.3C75.1,104.7,74.6,104,73.8,104z"/>
			<path class="st1" d="M88.3,109.8v-0.4c1.1-0.1,1.2-0.2,1.2-1.7l0-5.7c-1.1,2.6-3,6.6-3.5,7.8h-0.4c-0.5-1.3-2.1-5.1-3.1-7.7
				c-0.2,4.9-0.3,6-0.3,6.3c0,0.8,0.4,0.9,1.3,1v0.4h-3.3v-0.4c0.8-0.1,1.1-0.3,1.3-1c0.1-0.6,0.1-1.1,0.5-6.2
				c0.1-0.7-0.1-1-1.3-1.1v-0.4h2.4l3.1,7.1l3.3-7.1H92v0.4c-1.2,0.1-1.4,0.3-1.3,1.2l0.1,5.4c0.1,1.5,0.1,1.6,1.3,1.7v0.4H88.3z"/>
			<path class="st1" d="M98.2,108.6c-0.9,1.1-1.9,1.4-2.3,1.4c-1.7,0-2.7-1.4-2.7-3c0-1,0.3-1.8,0.9-2.5c0.6-0.7,1.4-1,2.1-1
				c1.2,0,2.1,1.1,2.1,2.2c0,0.3-0.1,0.4-0.3,0.5c-0.3,0.1-2.1,0.2-3.7,0.2c0,1.9,1.1,2.6,2.1,2.6c0.6,0,1.1-0.2,1.6-0.7L98.2,108.6
				z M95.8,104c-0.6,0-1.3,0.6-1.5,1.7c0.8,0,1.6,0,2.4,0c0.3,0,0.3-0.1,0.3-0.3C97,104.7,96.5,104,95.8,104z"/>
			<path class="st1" d="M103.1,109.8v-0.4c0.8-0.1,0.9-0.2,0.9-1.1v-2.3c0-1-0.4-1.6-1.3-1.6c-0.6,0-1.1,0.3-1.6,0.7v3.3
				c0,1,0.1,1,0.9,1.1v0.4h-3v-0.4c0.9-0.1,1-0.2,1-1.1v-2.9c0-0.9-0.1-1-0.9-1.1V104c0.7-0.1,1.4-0.3,2-0.6c0,0.3,0,0.8,0,1.1
				c0.3-0.2,0.6-0.4,1-0.6c0.4-0.3,0.8-0.4,1.2-0.4c1.1,0,1.8,0.8,1.8,2.2v2.7c0,1,0.1,1,0.9,1.1v0.4H103.1z"/>
			<path class="st1" d="M113.6,109.4c-0.3,0.1-1.3,0.2-2.2,0.5c0-0.3,0-0.6,0-0.9c-0.3,0.2-0.6,0.3-0.9,0.5
				c-0.6,0.3-0.9,0.4-1.1,0.4c-1.1,0-2.6-1.1-2.6-3.1c0-1.9,1.7-3.4,3.6-3.4c0.2,0,0.7,0,1,0.2v-2.1c0-0.9-0.1-0.9-1.1-1v-0.4
				c0.7-0.1,1.7-0.3,2.2-0.5c0,0.5,0,1.1,0,1.7v6.7c0,0.7,0.1,0.8,0.6,0.9l0.4,0V109.4z M111.5,104.7c-0.3-0.5-0.9-0.7-1.5-0.7
				c-0.7,0-1.9,0.4-1.9,2.5c0,1.7,1.1,2.6,1.9,2.6c0.5,0,1-0.3,1.4-0.5V104.7z"/>
			<path class="st1" d="M119.4,108.6c-0.9,1.1-1.9,1.4-2.3,1.4c-1.7,0-2.7-1.4-2.7-3c0-1,0.3-1.8,0.9-2.5c0.6-0.7,1.4-1,2.1-1
				c1.2,0,2.1,1.1,2.1,2.2c0,0.3-0.1,0.4-0.3,0.5c-0.3,0.1-2.1,0.2-3.7,0.2c0,1.9,1.1,2.6,2.1,2.6c0.6,0,1.1-0.2,1.6-0.7
				L119.4,108.6z M117,104c-0.6,0-1.3,0.6-1.5,1.7c0.8,0,1.6,0,2.4,0c0.3,0,0.3-0.1,0.3-0.3C118.3,104.7,117.8,104,117,104z"/>
			<path class="st1" d="M120.1,109.8v-0.4c0.9-0.1,1-0.2,1-1.1v-6.7c0-0.9-0.1-0.9-1-1.1v-0.4c0.8-0.1,1.6-0.3,2.1-0.5
				c0,0.7,0,1.3,0,2v6.6c0,0.9,0.1,1,1,1.1v0.4H120.1z"/>
			<path class="st1" d="M124,109.8v-0.4c0.9-0.1,1-0.2,1-1.1v-2.9c0-0.9,0-0.9-0.9-1.1V104c0.7-0.1,1.4-0.3,2-0.6c0,0.6,0,1.2,0,1.8
				v3.1c0,1,0.1,1,1,1.1v0.4H124z M125.4,102.1c-0.4,0-0.7-0.4-0.7-0.7c0-0.4,0.3-0.8,0.8-0.8c0.4,0,0.7,0.3,0.7,0.8
				C126.2,101.7,125.8,102.1,125.4,102.1z"/>
			<path class="st1" d="M132.3,109.9c-0.2,0-0.5-0.1-0.7-0.3c-0.2-0.2-0.3-0.4-0.3-0.6c-0.6,0.4-1.2,0.9-1.7,0.9
				c-1,0-1.7-0.8-1.7-1.7c0-0.7,0.4-1.1,1.1-1.4c0.9-0.3,1.9-0.7,2.2-0.9v-0.3c0-1-0.5-1.6-1.2-1.6c-0.3,0-0.5,0.2-0.7,0.3
				c-0.2,0.2-0.3,0.5-0.4,0.9c-0.1,0.2-0.2,0.3-0.4,0.3c-0.3,0-0.6-0.3-0.6-0.6c0-0.2,0.2-0.4,0.5-0.6c0.4-0.3,1.2-0.8,2-1
				c0.4,0,0.9,0.1,1.2,0.4c0.5,0.4,0.7,0.9,0.7,1.6v2.7c0,0.6,0.2,0.8,0.5,0.8c0.2,0,0.4-0.1,0.5-0.2l0.1,0.4L132.3,109.9z
				 M131.3,106.4c-0.3,0.2-1,0.4-1.3,0.6c-0.5,0.2-0.9,0.5-0.9,1c0,0.7,0.6,1.1,1,1.1c0.4,0,0.9-0.2,1.1-0.5
				C131.3,107.9,131.3,107.1,131.3,106.4z"/>
			<path class="st1" d="M138.1,109.8v-0.4c0.8-0.1,0.9-0.2,0.9-1.1v-2.3c0-1-0.4-1.6-1.3-1.6c-0.6,0-1.1,0.3-1.6,0.7v3.3
				c0,1,0.1,1,0.9,1.1v0.4h-3v-0.4c0.9-0.1,1-0.2,1-1.1v-2.9c0-0.9-0.1-1-0.9-1.1V104c0.7-0.1,1.4-0.3,2-0.6c0,0.3,0,0.8,0,1.1
				c0.3-0.2,0.6-0.4,1-0.6c0.4-0.3,0.8-0.4,1.2-0.4c1.1,0,1.8,0.8,1.8,2.2v2.7c0,1,0.1,1,0.9,1.1v0.4H138.1z"/>
			<path class="st1" d="M148.8,100.7c1,0,1.8,0.2,2.4,0.6c0.5,0.4,0.9,1.1,0.9,2c0,2-1.8,2.9-3.1,2.9c-0.2,0-0.3,0-0.4,0l-1-0.3v2.2
				c0,1.2,0.1,1.2,1.4,1.3v0.4h-3.9v-0.4c1.2-0.1,1.3-0.2,1.3-1.4v-5.6c0-1.2-0.2-1.3-1.3-1.4v-0.4H148.8z M147.7,105.4
				c0.2,0.1,0.5,0.2,1,0.2c0.9,0,2.1-0.5,2.1-2.2c0-1.5-1-2.2-2.2-2.2c-0.4,0-0.7,0.1-0.8,0.2c-0.1,0.1-0.2,0.3-0.2,0.6V105.4z"/>
			<path class="st1" d="M156.4,109.8h-3.2v-0.4c0.9-0.1,1-0.2,1-1.1v-2.9c0-0.9-0.1-1-0.9-1.1V104c0.7-0.1,1.3-0.3,2-0.6
				c0,0.5,0,1.1,0,1.5c0.5-0.7,1.1-1.5,1.8-1.5c0.5,0,0.8,0.3,0.8,0.7c0,0.3-0.2,0.6-0.5,0.8c-0.1,0.1-0.3,0.1-0.4,0
				c-0.2-0.2-0.4-0.4-0.6-0.4c-0.3,0-0.8,0.4-1.1,1.1v2.6c0,0.9,0.1,1,1.1,1.1V109.8z"/>
			<path class="st1" d="M161.5,103.5c1.8,0,3.1,1.3,3.1,3.1c0,2.3-1.7,3.3-3.1,3.3c-1.9,0-3.1-1.6-3.1-3.1
				C158.4,104.5,160.2,103.5,161.5,103.5z M161.3,103.9c-0.9,0-1.6,0.8-1.6,2.5c0,1.8,0.8,3.1,1.9,3.1c0.9,0,1.6-0.6,1.6-2.5
				C163.3,105.3,162.6,103.9,161.3,103.9z"/>
			<path class="st1" d="M168.3,109.8c-0.2,0.1-0.5,0.2-0.6,0.2c-0.9,0-1.4-0.5-1.4-1.7v-4.1h-1l-0.1-0.2l0.4-0.4h0.6v-1.2
				c0.3-0.3,0.7-0.6,0.9-0.9l0.2,0c0,0.6,0,1.4,0,2.1h1.6c0.1,0.1,0.1,0.4-0.1,0.6h-1.5v3.6c0,1.1,0.4,1.3,0.8,1.3
				c0.3,0,0.7-0.1,0.9-0.2l0.1,0.4L168.3,109.8z"/>
			<path class="st1" d="M175,108.6c-0.9,1.1-1.9,1.4-2.3,1.4c-1.7,0-2.7-1.4-2.7-3c0-1,0.3-1.8,0.9-2.5c0.6-0.7,1.4-1,2.1-1
				c1.2,0,2.1,1.1,2.1,2.2c0,0.3-0.1,0.4-0.3,0.5c-0.3,0.1-2.1,0.2-3.7,0.2c0,1.9,1.1,2.6,2.1,2.6c0.6,0,1.1-0.2,1.6-0.7L175,108.6z
				 M172.5,104c-0.6,0-1.3,0.6-1.5,1.7c0.8,0,1.6,0,2.4,0c0.3,0,0.3-0.1,0.3-0.3C173.8,104.7,173.3,104,172.5,104z"/>
			<path class="st1" d="M179,103.5c1.8,0,3.1,1.3,3.1,3.1c0,2.3-1.7,3.3-3.1,3.3c-1.9,0-3.1-1.6-3.1-3.1
				C175.9,104.5,177.7,103.5,179,103.5z M178.9,103.9c-0.9,0-1.6,0.8-1.6,2.5c0,1.8,0.8,3.1,1.9,3.1c0.9,0,1.6-0.6,1.6-2.5
				C180.8,105.3,180.1,103.9,178.9,103.9z"/>
			<path class="st1" d="M190.8,109.8v-0.4c0.8-0.1,0.9-0.1,0.9-1.1v-2.3c0-1-0.3-1.6-1.2-1.6c-0.5,0-1,0.3-1.6,0.7
				c0,0.2,0,0.3,0,0.6v2.7c0,0.9,0.1,1,0.9,1v0.4h-3v-0.4c0.9-0.1,1-0.1,1-1.1v-2.4c0-1-0.3-1.6-1.2-1.6c-0.6,0-1.1,0.4-1.5,0.7v3.3
				c0,0.9,0.1,1,0.9,1.1v0.4h-3v-0.4c0.9-0.1,1-0.1,1-1.1v-2.9c0-0.9-0.1-1-0.8-1.1V104c0.7-0.1,1.3-0.3,1.9-0.6c0,0.3,0,0.8,0,1.1
				c0.3-0.2,0.6-0.5,1-0.7c0.3-0.2,0.7-0.4,1.1-0.4c0.7,0,1.2,0.4,1.5,1.1c0.4-0.3,0.8-0.5,1.1-0.8c0.3-0.2,0.7-0.4,1.1-0.4
				c1.1,0,1.8,0.8,1.8,2.2v2.7c0,0.9,0.1,1,0.9,1.1v0.4H190.8z"/>
			<path class="st1" d="M199.7,108.6c-0.9,1.1-1.9,1.4-2.3,1.4c-1.7,0-2.7-1.4-2.7-3c0-1,0.3-1.8,0.9-2.5c0.6-0.7,1.4-1,2.1-1
				c1.2,0,2.1,1.1,2.1,2.2c0,0.3-0.1,0.4-0.3,0.5c-0.3,0.1-2.1,0.2-3.7,0.2c0,1.9,1.1,2.6,2.1,2.6c0.6,0,1.1-0.2,1.6-0.7
				L199.7,108.6z M197.3,104c-0.6,0-1.3,0.6-1.5,1.7c0.8,0,1.6,0,2.4,0c0.3,0,0.3-0.1,0.3-0.3C198.5,104.7,198,104,197.3,104z"/>
		</g>
	</g>
</g>
</svg>
