<?xml version="1.0" encoding="UTF-8"?>
<svg xmlns="http://www.w3.org/2000/svg" version="1.1" viewBox="0 0 210 140">
  <!-- Generator: Adobe Illustrator 28.6.0, SVG Export Plug-In . SVG Version: 1.2.0 Build 709)  -->
  <g>
    <g id="Layer_1">
      <rect width="210" height="140" style="fill: #d9e2f1;"/>
      <g>
        <g>
          <path d="M57.6,37.1v1.2c-1.6.3-2.8.8-3.6,1.5-1.2,1.1-2.2,2.7-3.1,5l-15.7,38.2h-1.2l-16.8-38.7c-.9-2-1.5-3.2-1.8-3.6-.6-.7-1.2-1.2-2-1.6-.8-.4-1.9-.6-3.3-.7v-1.2h18.4v1.2c-2.1.2-3.4.6-4,1.1-.6.5-.9,1.2-.9,2s.5,2.8,1.5,5.2l11.4,26.3,10.6-26c1-2.6,1.6-4.3,1.6-5.3s-.3-1.3-1-1.8c-.6-.6-1.7-1-3.2-1.2-.1,0-.3,0-.6,0v-1.2h13.9Z" style="fill: #082c7c;"/>
          <path d="M79.8,80.8v1.2h-19.3v-1.2h1.6c1.9,0,3.2-.5,4-1.6.5-.7.8-2.4.8-5.1v-29c0-2.3-.1-3.8-.4-4.5-.2-.6-.7-1-1.4-1.4-1-.5-2-.8-3-.8h-1.6v-1.2h19.3v1.2h-1.6c-1.8,0-3.2.5-4,1.6-.6.7-.8,2.4-.8,5.1v29c0,2.3.1,3.8.4,4.5.2.6.7,1,1.4,1.4.9.5,2,.8,3,.8h1.6Z" style="fill: #082c7c;"/>
          <path d="M111,36v15.5h-1.2c-.4-3-1.1-5.4-2.1-7.1-1-1.8-2.5-3.2-4.4-4.2-1.9-1-3.9-1.6-5.9-1.6s-4.2.7-5.7,2.1c-1.5,1.4-2.3,3-2.3,4.8s.5,2.6,1.4,3.7c1.4,1.7,4.6,3.9,9.8,6.6,4.2,2.3,7.1,4,8.6,5.2,1.5,1.2,2.7,2.6,3.5,4.3.8,1.6,1.2,3.3,1.2,5.1,0,3.4-1.3,6.3-4,8.8-2.6,2.5-6,3.7-10.2,3.7s-2.5,0-3.7-.3c-.7-.1-2.1-.5-4.3-1.2-2.2-.7-3.5-1-4.1-1s-1,.2-1.3.5c-.3.3-.6,1-.7,2.1h-1.2v-15.4h1.2c.6,3.2,1.3,5.6,2.3,7.2,1,1.6,2.5,2.9,4.5,4,2,1.1,4.2,1.6,6.6,1.6s4.9-.7,6.5-2.2c1.6-1.5,2.4-3.2,2.4-5.2s-.3-2.2-.9-3.3-1.6-2.2-2.8-3.1c-.9-.7-3.2-2.1-7.1-4.2-3.8-2.2-6.6-3.9-8.2-5.2-1.6-1.3-2.9-2.7-3.7-4.2-.8-1.5-1.3-3.2-1.3-5.1,0-3.2,1.2-6,3.7-8.3,2.5-2.3,5.6-3.5,9.4-3.5s4.9.6,7.6,1.8c1.2.6,2.1.8,2.6.8s1-.2,1.4-.5c.4-.3.7-1,.9-2.1h1.2Z" style="fill: #082c7c;"/>
          <path d="M154,37.1l.5,10.5h-1.3c-.2-1.9-.6-3.2-1-4-.7-1.3-1.6-2.2-2.7-2.8s-2.6-.9-4.5-.9h-6.3v34.3c0,2.8.3,4.5.9,5.2.8.9,2.1,1.4,3.9,1.4h1.6v1.2h-19.1v-1.2h1.6c1.9,0,3.2-.6,4-1.7.5-.7.7-2.3.7-4.8v-34.3h-5.4c-2.1,0-3.6.2-4.5.5-1.1.4-2.1,1.2-3,2.4-.8,1.2-1.3,2.8-1.5,4.8h-1.3l.5-10.5h36.7Z" style="fill: #082c7c;"/>
          <path d="M182.8,67h-17.4l-3,7.1c-.8,1.7-1.1,3-1.1,3.9s.3,1.3,1,1.8,2.1.9,4.2,1v1.2h-14.2v-1.2c1.9-.3,3.1-.8,3.6-1.3,1.1-1.1,2.4-3.2,3.7-6.5l15.8-37h1.2l15.6,37.4c1.3,3,2.4,5,3.4,5.8,1,.9,2.5,1.4,4.3,1.5v1.2h-17.7v-1.2c1.8,0,3-.4,3.6-.9.6-.5.9-1.1.9-1.9s-.4-2.5-1.3-4.6l-2.7-6.5ZM181.9,64.5l-7.6-18.2-7.8,18.2h15.4Z" style="fill: #082c7c;"/>
        </g>
        <g>
          <path d="M14.5,95.5c-.3-.2-.7-.4-1.1-.4s-.7,0-1,.2c-.3.1-.5.3-.7.6-.2.2-.3.5-.4.9,0,.3-.1.7-.1,1s0,.6.1.9c0,.3.2.6.4.8.2.2.4.4.6.6.3.1.6.2.9.2.6,0,1-.1,1.3-.4.3-.3.5-.7.6-1.2h1.2c-.1.8-.4,1.5-.9,2-.5.5-1.2.7-2.1.7s-1,0-1.4-.3c-.4-.2-.7-.4-1-.7s-.5-.7-.6-1.1-.2-.9-.2-1.4,0-1,.2-1.4c.1-.4.3-.8.6-1.2s.6-.6,1-.8c.4-.2.9-.3,1.4-.3s.8,0,1.1.1c.3,0,.6.2.9.4s.5.4.6.7c.2.3.3.6.3,1.1h-1.2c0-.4-.3-.8-.6-1Z" style="fill: #082c7c;"/>
          <path d="M17.4,96.4c.1-.4.4-.8.6-1.1.3-.3.6-.6,1-.8.4-.2.9-.3,1.4-.3s1,0,1.4.3c.4.2.8.4,1,.8s.5.7.6,1.1c.1.4.2.9.2,1.4s0,1-.2,1.4c-.1.4-.4.8-.6,1.1s-.6.6-1,.8c-.4.2-.9.3-1.4.3s-1,0-1.4-.3c-.4-.2-.8-.4-1-.8-.3-.3-.5-.7-.6-1.1-.1-.4-.2-.9-.2-1.4s0-1,.2-1.4ZM18.5,98.9c.1.3.3.6.5.8.2.2.4.4.7.5.3.1.5.2.8.2s.6,0,.8-.2c.3-.1.5-.3.7-.5.2-.2.3-.5.5-.8.1-.3.2-.7.2-1.1s0-.8-.2-1.1c-.1-.3-.3-.6-.5-.8-.2-.2-.4-.4-.7-.5-.3-.1-.5-.2-.8-.2s-.6,0-.8.2c-.3.1-.5.3-.7.5-.2.2-.3.5-.5.8-.1.3-.2.7-.2,1.1s0,.8.2,1.1Z" style="fill: #082c7c;"/>
          <path d="M26.3,94.3v1h0c.5-.8,1.3-1.2,2.2-1.2s.8,0,1.2.3c.3.2.6.5.7.9.2-.4.5-.7.9-.9.4-.2.8-.3,1.2-.3s.7,0,.9.1.5.2.7.4c.2.2.4.4.5.6s.2.6.2.9v5h-1.1v-4.5c0-.2,0-.4,0-.6,0-.2-.1-.3-.2-.5,0-.1-.2-.2-.4-.3-.2,0-.4-.1-.7-.1-.6,0-1,.2-1.3.5-.3.3-.5.7-.5,1.3v4.3h-1.1v-4.5c0-.2,0-.4,0-.6,0-.2-.1-.3-.2-.5,0-.1-.2-.2-.4-.3-.2,0-.4-.1-.6-.1s-.6,0-.8.2-.4.3-.6.5c-.1.2-.3.4-.3.6,0,.2,0,.4,0,.5v4.3h-1.1v-6.9h1.1Z" style="fill: #082c7c;"/>
          <path d="M37.7,94.3v.9h0c.2-.4.5-.7.9-.8s.8-.3,1.3-.3,1,0,1.4.3c.4.2.7.5,1,.8.3.3.5.7.6,1.1s.2.9.2,1.4,0,.9-.2,1.4c-.1.4-.3.8-.6,1.1-.3.3-.6.6-1,.8-.4.2-.9.3-1.4.3s-.4,0-.6,0-.4,0-.6-.2c-.2,0-.4-.2-.6-.3-.2-.1-.3-.3-.5-.5h0v3.5h-1.1v-9.5h1.1ZM41.8,96.8c0-.3-.2-.6-.4-.8-.2-.2-.4-.4-.7-.6-.3-.1-.6-.2-.9-.2s-.7,0-1,.2c-.3.1-.5.3-.6.6-.2.2-.3.5-.4.8s-.1.6-.1.9,0,.7.1,1c0,.3.2.6.4.8.2.2.4.4.7.6.3.1.6.2,1,.2s.7,0,1-.2c.3-.2.5-.3.6-.6.2-.2.3-.5.3-.8s.1-.6.1-1,0-.6-.1-.9Z" style="fill: #082c7c;"/>
          <path d="M50.5,101.2c-.2.1-.5.2-.8.2s-.5,0-.7-.2c-.2-.2-.3-.4-.3-.8-.3.4-.7.6-1.1.8-.4.2-.9.2-1.3.2s-.6,0-.9-.1c-.3,0-.5-.2-.7-.3-.2-.1-.4-.3-.5-.6-.1-.2-.2-.5-.2-.9s0-.7.2-1c.1-.2.3-.4.5-.6.2-.2.5-.3.7-.4.3,0,.6-.1.9-.2.3,0,.6-.1.9-.1.3,0,.5,0,.7-.1s.4-.1.5-.3.2-.3.2-.5,0-.4-.1-.6c0-.2-.2-.3-.4-.3-.1,0-.3-.1-.5-.2-.2,0-.4,0-.5,0-.5,0-.9,0-1.2.3-.3.2-.5.5-.5,1h-1.1c0-.4.1-.8.3-1.1.2-.3.4-.5.6-.7.3-.2.6-.3.9-.4.3,0,.7-.1,1.1-.1s.6,0,.9,0c.3,0,.6.1.8.3.2.1.4.3.6.6.2.2.2.6.2,1v3.5c0,.3,0,.5,0,.6s.1.2.3.2.2,0,.3,0v.9ZM48.7,97.7c-.1.1-.3.2-.6.2s-.5,0-.7.1-.5,0-.8.1c-.3,0-.5.1-.7.2-.2,0-.4.2-.5.4-.1.2-.2.4-.2.7s0,.3.1.5c0,.1.2.2.3.3.1,0,.3.1.4.2.2,0,.3,0,.5,0,.4,0,.7,0,1-.2.3-.1.5-.2.6-.4.2-.2.3-.3.4-.5s.1-.3.1-.5v-1.1Z" style="fill: #082c7c;"/>
          <path d="M52.7,94.3v1.4h0c.3-.6.6-1,1-1.2.4-.3.9-.4,1.5-.4v1.2c-.5,0-.8,0-1.2.2s-.6.3-.8.5c-.2.2-.3.5-.4.9,0,.3-.1.7-.1,1.2v3.1h-1.1v-6.9h1.1Z" style="fill: #082c7c;"/>
          <path d="M62.2,101.2c-.2.1-.5.2-.8.2s-.5,0-.7-.2c-.2-.2-.3-.4-.3-.8-.3.4-.7.6-1.1.8-.4.2-.9.2-1.3.2s-.6,0-.9-.1c-.3,0-.5-.2-.7-.3-.2-.1-.4-.3-.5-.6-.1-.2-.2-.5-.2-.9s0-.7.2-1c.1-.2.3-.4.5-.6.2-.2.5-.3.7-.4.3,0,.6-.1.9-.2.3,0,.6-.1.9-.1.3,0,.5,0,.7-.1s.4-.1.5-.3.2-.3.2-.5,0-.4-.1-.6c0-.2-.2-.3-.4-.3-.1,0-.3-.1-.5-.2-.2,0-.4,0-.5,0-.5,0-.9,0-1.2.3-.3.2-.5.5-.5,1h-1.1c0-.4.1-.8.3-1.1.2-.3.4-.5.6-.7.3-.2.6-.3.9-.4.3,0,.7-.1,1.1-.1s.6,0,.9,0c.3,0,.6.1.8.3.2.1.4.3.6.6.2.2.2.6.2,1v3.5c0,.3,0,.5,0,.6s.1.2.3.2.2,0,.3,0v.9ZM60.4,97.7c-.1.1-.3.2-.6.2s-.5,0-.7.1-.5,0-.8.1c-.3,0-.5.1-.7.2-.2,0-.4.2-.5.4-.1.2-.2.4-.2.7s0,.3.1.5c0,.1.2.2.3.3.1,0,.3.1.4.2.2,0,.3,0,.5,0,.4,0,.7,0,1-.2.3-.1.5-.2.6-.4.2-.2.3-.3.4-.5s.1-.3.1-.5v-1.1Z" style="fill: #082c7c;"/>
          <path d="M66.2,94.3v1h-1.4v4.3c0,.1,0,.2,0,.3,0,0,0,.1.1.2,0,0,.1,0,.3,0,.1,0,.3,0,.4,0h.5v1h-.9c-.3,0-.5,0-.7,0-.2,0-.4-.1-.5-.2-.1-.1-.2-.3-.3-.5,0-.2,0-.4,0-.8v-4.4h-1.2v-1h1.2v-2.1h1.1v2.1h1.4Z" style="fill: #082c7c;"/>
          <path d="M67.4,93.1v-1.4h1.1v1.4h-1.1ZM68.6,94.3v6.9h-1.1v-6.9h1.1Z" style="fill: #082c7c;"/>
          <path d="M72.2,101.2l-2.5-6.9h1.3l1.9,5.7h0l1.9-5.7h1.2l-2.5,6.9h-1.2Z" style="fill: #082c7c;"/>
          <path d="M81.6,100.8c-.5.4-1.2.6-1.9.6s-1,0-1.4-.3c-.4-.2-.7-.4-1-.7-.3-.3-.5-.7-.6-1.1-.1-.4-.2-.9-.2-1.4,0-.5,0-1,.2-1.4s.4-.8.7-1.1c.3-.3.6-.6,1-.7.4-.2.8-.3,1.3-.3s1.1.1,1.5.4c.4.3.7.6,1,1,.2.4.4.8.5,1.3,0,.5.1.9.1,1.3h-5.1c0,.3,0,.6.1.9,0,.3.2.5.4.7.2.2.4.4.7.5.3.1.6.2,1,.2s.9-.1,1.2-.3.5-.6.6-1h1.1c-.1.8-.5,1.3-1,1.7ZM81.3,96.4c-.1-.2-.2-.4-.4-.6-.2-.2-.4-.3-.6-.4-.2-.1-.5-.2-.8-.2s-.6,0-.8.2c-.2.1-.4.2-.6.4-.2.2-.3.4-.4.6,0,.2-.2.5-.2.7h3.9c0-.3,0-.5-.2-.8Z" style="fill: #082c7c;"/>
          <path d="M92.7,103.1c-.5.6-1.3.8-2.4.8s-.6,0-1-.1c-.3,0-.6-.2-.9-.3s-.5-.4-.7-.6c-.2-.3-.3-.6-.3-.9h1.1c0,.2,0,.4.2.5.1.1.3.3.4.3.2,0,.4.2.6.2.2,0,.4,0,.6,0,.4,0,.7,0,.9-.2s.5-.3.6-.5c.2-.2.3-.5.4-.8,0-.3.1-.7.1-1v-.5h0c-.2.4-.5.7-.9.9s-.8.3-1.3.3-1,0-1.3-.3c-.4-.2-.7-.4-1-.7-.3-.3-.4-.7-.6-1.1-.1-.4-.2-.9-.2-1.3s0-.8.2-1.3.3-.8.5-1.2c.2-.3.6-.6,1-.9.4-.2.9-.3,1.5-.3s.8,0,1.2.3c.4.2.6.5.8.9h0v-1h1.1v6.3c0,1.1-.3,2-.8,2.5ZM91.2,100.1c.3-.2.5-.4.6-.6s.3-.5.4-.9c0-.3.1-.6.1-1s0-.6-.1-.9-.2-.6-.3-.8-.4-.4-.6-.6c-.2-.1-.5-.2-.9-.2s-.7,0-.9.2c-.3.1-.5.3-.6.5-.2.2-.3.5-.4.8s-.1.6-.1.9,0,.6,0,.9.2.6.3.8c.2.3.3.5.6.6.2.2.6.2.9.2s.7,0,.9-.2Z" style="fill: #082c7c;"/>
          <path d="M100,100.8c-.5.4-1.2.6-1.9.6s-1,0-1.4-.3c-.4-.2-.7-.4-1-.7-.3-.3-.5-.7-.6-1.1-.1-.4-.2-.9-.2-1.4,0-.5,0-1,.2-1.4s.4-.8.7-1.1c.3-.3.6-.6,1-.7.4-.2.8-.3,1.3-.3s1.1.1,1.5.4c.4.3.7.6,1,1,.2.4.4.8.5,1.3,0,.5.1.9.1,1.3h-5.1c0,.3,0,.6.1.9,0,.3.2.5.4.7.2.2.4.4.7.5.3.1.6.2,1,.2s.9-.1,1.2-.3.5-.6.6-1h1.1c-.1.8-.5,1.3-1,1.7ZM99.8,96.4c-.1-.2-.2-.4-.4-.6-.2-.2-.4-.3-.6-.4-.2-.1-.5-.2-.8-.2s-.6,0-.8.2c-.2.1-.4.2-.6.4-.2.2-.3.4-.4.6,0,.2-.2.5-.2.7h3.9c0-.3,0-.5-.2-.8Z" style="fill: #082c7c;"/>
          <path d="M103.5,94.3v1.1h0c.5-.8,1.2-1.2,2.2-1.2s.8,0,1.1.2c.3.1.5.3.7.5.2.2.3.5.4.8,0,.3.1.6.1,1v4.5h-1.1v-4.6c0-.4-.1-.8-.4-1-.2-.2-.6-.4-1-.4s-.6,0-.9.2-.5.3-.6.5c-.2.2-.3.4-.4.7,0,.3-.1.5-.1.9v3.9h-1.1v-6.9h1.1Z" style="fill: #082c7c;"/>
          <path d="M109.6,96.4c.1-.4.4-.8.6-1.1.3-.3.6-.6,1-.8s.9-.3,1.4-.3,1,0,1.4.3.8.4,1,.8.5.7.6,1.1c.1.4.2.9.2,1.4s0,1-.2,1.4-.4.8-.6,1.1-.6.6-1,.8-.9.3-1.4.3-1,0-1.4-.3-.8-.4-1-.8c-.3-.3-.5-.7-.6-1.1s-.2-.9-.2-1.4,0-1,.2-1.4ZM110.8,98.9c.1.3.3.6.5.8.2.2.4.4.7.5.3.1.5.2.8.2s.6,0,.8-.2c.3-.1.5-.3.7-.5s.3-.5.5-.8c.1-.3.2-.7.2-1.1s0-.8-.2-1.1c-.1-.3-.3-.6-.5-.8-.2-.2-.4-.4-.7-.5-.3-.1-.5-.2-.8-.2s-.6,0-.8.2c-.3.1-.5.3-.7.5-.2.2-.3.5-.5.8-.1.3-.2.7-.2,1.1s0,.8.2,1.1Z" style="fill: #082c7c;"/>
          <path d="M118.5,94.3v1h0c.5-.8,1.3-1.2,2.2-1.2s.8,0,1.2.3c.3.2.6.5.7.9.2-.4.5-.7.9-.9.4-.2.8-.3,1.2-.3s.7,0,.9.1.5.2.7.4c.2.2.4.4.5.6.1.3.2.6.2.9v5h-1.1v-4.5c0-.2,0-.4,0-.6,0-.2-.1-.3-.2-.5,0-.1-.2-.2-.4-.3-.2,0-.4-.1-.7-.1-.6,0-1,.2-1.3.5s-.5.7-.5,1.3v4.3h-1.1v-4.5c0-.2,0-.4,0-.6,0-.2-.1-.3-.2-.5,0-.1-.2-.2-.4-.3s-.4-.1-.6-.1-.6,0-.8.2c-.2.1-.4.3-.6.5-.1.2-.3.4-.3.6,0,.2-.1.4-.1.5v4.3h-1.1v-6.9h1.1Z" style="fill: #082c7c;"/>
          <path d="M128.8,93.1v-1.4h1.1v1.4h-1.1ZM130,94.3v6.9h-1.1v-6.9h1.1Z" style="fill: #082c7c;"/>
          <path d="M135.9,95.5c-.3-.2-.7-.4-1.1-.4s-.7,0-1,.2c-.3.1-.5.3-.7.6-.2.2-.3.5-.4.9s-.1.7-.1,1,0,.6.1.9.2.6.4.8c.2.2.4.4.6.6s.6.2.9.2c.6,0,1-.1,1.3-.4.3-.3.5-.7.6-1.2h1.2c-.1.8-.4,1.5-.9,2-.5.5-1.2.7-2.1.7s-1,0-1.4-.3c-.4-.2-.7-.4-1-.7s-.5-.7-.6-1.1-.2-.9-.2-1.4,0-1,.2-1.4c.1-.4.3-.8.6-1.2s.6-.6,1-.8c.4-.2.9-.3,1.4-.3s.8,0,1.1.1c.3,0,.6.2.9.4.3.2.5.4.6.7.2.3.3.6.3,1.1h-1.2c0-.4-.3-.8-.6-1Z" style="fill: #082c7c;"/>
          <path d="M139.9,99.7c.1.2.2.3.4.4.2.1.4.2.6.2.2,0,.4,0,.7,0s.4,0,.6,0c.2,0,.4,0,.5-.1.2,0,.3-.2.4-.3s.2-.3.2-.5-.1-.5-.3-.7c-.2-.2-.5-.3-.8-.4-.3,0-.7-.2-1.1-.3-.4,0-.7-.2-1.1-.3-.3-.1-.6-.3-.8-.6-.2-.2-.3-.6-.3-1s0-.6.2-.9c.2-.2.4-.4.6-.6s.5-.3.8-.3c.3,0,.6-.1.9-.1s.7,0,1.1.1c.3,0,.6.2.9.3s.5.4.6.7c.1.3.2.6.3,1h-1.1c0-.2,0-.4-.2-.5s-.2-.3-.4-.4c-.2,0-.3-.2-.5-.2s-.4,0-.5,0-.3,0-.5,0c-.2,0-.3,0-.5.1-.1,0-.3.2-.3.3,0,.1-.1.3-.1.4s0,.4.2.5c.1.1.3.2.5.3.2,0,.5.2.7.2.3,0,.5.1.8.2.3,0,.6.1.8.2s.5.2.7.4c.2.1.4.3.5.6s.2.5.2.8,0,.8-.3,1c-.2.3-.4.5-.7.7s-.6.3-.9.4c-.3,0-.7.1-1,.1s-.7,0-1.1-.1c-.3,0-.6-.2-.9-.4s-.5-.4-.6-.7c-.2-.3-.2-.7-.3-1.1h1.1c0,.2,0,.5.2.6Z" style="fill: #082c7c;"/>
          <path d="M155.4,101.2c-.2.1-.5.2-.8.2s-.5,0-.7-.2c-.2-.2-.3-.4-.3-.8-.3.4-.7.6-1.1.8-.4.2-.9.2-1.3.2s-.6,0-.9-.1c-.3,0-.5-.2-.7-.3-.2-.1-.4-.3-.5-.6-.1-.2-.2-.5-.2-.9s0-.7.2-1c.1-.2.3-.4.5-.6.2-.2.5-.3.7-.4.3,0,.6-.1.9-.2.3,0,.6-.1.9-.1.3,0,.5,0,.7-.1s.4-.1.5-.3.2-.3.2-.5,0-.4-.1-.6c0-.2-.2-.3-.4-.3-.1,0-.3-.1-.5-.2-.2,0-.4,0-.5,0-.5,0-.9,0-1.2.3-.3.2-.5.5-.5,1h-1.1c0-.4.1-.8.3-1.1.2-.3.4-.5.6-.7.3-.2.6-.3.9-.4.3,0,.7-.1,1.1-.1s.6,0,.9,0c.3,0,.6.1.8.3.2.1.4.3.6.6.2.2.2.6.2,1v3.5c0,.3,0,.5,0,.6s.1.2.3.2.2,0,.3,0v.9ZM153.6,97.7c-.1.1-.3.2-.6.2s-.5,0-.7.1-.5,0-.8.1c-.3,0-.5.1-.7.2-.2,0-.4.2-.5.4-.1.2-.2.4-.2.7s0,.3.1.5c0,.1.2.2.3.3.1,0,.3.1.4.2.2,0,.3,0,.5,0,.4,0,.7,0,1-.2.3-.1.5-.2.6-.4.2-.2.3-.3.4-.5s.1-.3.1-.5v-1.1Z" style="fill: #082c7c;"/>
          <path d="M157.6,94.3v1.1h0c.5-.8,1.2-1.2,2.2-1.2s.8,0,1.1.2c.3.1.5.3.7.5.2.2.3.5.4.8,0,.3.1.6.1,1v4.5h-1.1v-4.6c0-.4-.1-.8-.4-1-.2-.2-.6-.4-1-.4s-.6,0-.9.2-.5.3-.6.5c-.2.2-.3.4-.4.7,0,.3-.1.5-.1.9v3.9h-1.1v-6.9h1.1Z" style="fill: #082c7c;"/>
          <path d="M170,101.2c-.2.1-.5.2-.8.2s-.5,0-.7-.2c-.2-.2-.3-.4-.3-.8-.3.4-.7.6-1.1.8-.4.2-.9.2-1.3.2s-.6,0-.9-.1c-.3,0-.5-.2-.7-.3-.2-.1-.4-.3-.5-.6-.1-.2-.2-.5-.2-.9s0-.7.2-1c.1-.2.3-.4.5-.6.2-.2.5-.3.7-.4.3,0,.6-.1.9-.2.3,0,.6-.1.9-.1.3,0,.5,0,.7-.1s.4-.1.5-.3.2-.3.2-.5,0-.4-.1-.6c0-.2-.2-.3-.4-.3-.1,0-.3-.1-.5-.2-.2,0-.4,0-.5,0-.5,0-.9,0-1.2.3-.3.2-.5.5-.5,1h-1.1c0-.4.1-.8.3-1.1.2-.3.4-.5.6-.7.3-.2.6-.3.9-.4.3,0,.7-.1,1.1-.1s.6,0,.9,0c.3,0,.6.1.8.3.2.1.4.3.6.6.2.2.2.6.2,1v3.5c0,.3,0,.5,0,.6s.1.2.3.2.2,0,.3,0v.9ZM168.2,97.7c-.1.1-.3.2-.6.2s-.5,0-.7.1-.5,0-.8.1c-.3,0-.5.1-.7.2-.2,0-.4.2-.5.4-.1.2-.2.4-.2.7s0,.3.1.5c0,.1.2.2.3.3.1,0,.3.1.4.2.2,0,.3,0,.5,0,.4,0,.7,0,1-.2.3-.1.5-.2.6-.4.2-.2.3-.3.4-.5s.1-.3.1-.5v-1.1Z" style="fill: #082c7c;"/>
          <path d="M172.3,91.7v9.5h-1.1v-9.5h1.1Z" style="fill: #082c7c;"/>
          <path d="M176.8,102.1c-.1.3-.3.6-.4.8s-.3.4-.4.6c-.2.1-.3.3-.5.3-.2,0-.4.1-.7.1s-.3,0-.4,0-.3,0-.4,0v-1c0,0,.2,0,.3.1.1,0,.2,0,.3,0,.2,0,.4,0,.6-.2.2-.1.3-.3.4-.5l.5-1.2-2.7-6.8h1.3l2,5.6h0l1.9-5.6h1.2l-3,7.8Z" style="fill: #082c7c;"/>
          <path d="M181.5,99.7c.1.2.2.3.4.4.2.1.4.2.6.2.2,0,.4,0,.7,0s.4,0,.6,0c.2,0,.4,0,.5-.1.2,0,.3-.2.4-.3s.2-.3.2-.5-.1-.5-.3-.7c-.2-.2-.5-.3-.8-.4-.3,0-.7-.2-1.1-.3-.4,0-.7-.2-1.1-.3-.3-.1-.6-.3-.8-.6-.2-.2-.3-.6-.3-1s0-.6.2-.9c.2-.2.4-.4.6-.6s.5-.3.8-.3c.3,0,.6-.1.9-.1s.7,0,1.1.1c.3,0,.6.2.9.3s.5.4.6.7c.1.3.2.6.3,1h-1.1c0-.2,0-.4-.2-.5s-.2-.3-.4-.4c-.2,0-.3-.2-.5-.2s-.4,0-.5,0-.3,0-.5,0c-.2,0-.3,0-.5.1-.1,0-.3.2-.3.3,0,.1-.1.3-.1.4s0,.4.2.5c.1.1.3.2.5.3.2,0,.5.2.7.2.3,0,.5.1.8.2.3,0,.6.1.8.2s.5.2.7.4c.2.1.4.3.5.6s.2.5.2.8,0,.8-.3,1c-.2.3-.4.5-.7.7s-.6.3-.9.4c-.3,0-.7.1-1,.1s-.7,0-1.1-.1c-.3,0-.6-.2-.9-.4s-.5-.4-.6-.7c-.2-.3-.2-.7-.3-1.1h1.1c0,.2,0,.5.2.6Z" style="fill: #082c7c;"/>
          <path d="M192.2,100.8c-.5.4-1.2.6-1.9.6s-1,0-1.4-.3c-.4-.2-.7-.4-1-.7-.3-.3-.5-.7-.6-1.1-.1-.4-.2-.9-.2-1.4,0-.5,0-1,.2-1.4s.4-.8.7-1.1c.3-.3.6-.6,1-.7.4-.2.8-.3,1.3-.3s1.1.1,1.5.4c.4.3.7.6,1,1,.2.4.4.8.5,1.3,0,.5.1.9.1,1.3h-5.1c0,.3,0,.6.1.9,0,.3.2.5.4.7.2.2.4.4.7.5.3.1.6.2,1,.2s.9-.1,1.2-.3.5-.6.6-1h1.1c-.1.8-.5,1.3-1,1.7ZM191.9,96.4c-.1-.2-.2-.4-.4-.6-.2-.2-.4-.3-.6-.4-.2-.1-.5-.2-.8-.2s-.6,0-.8.2c-.2.1-.4.2-.6.4-.2.2-.3.4-.4.6,0,.2-.2.5-.2.7h3.9c0-.3,0-.5-.2-.8Z" style="fill: #082c7c;"/>
          <path d="M195.5,99.7c.1.2.2.3.4.4.2.1.4.2.6.2.2,0,.4,0,.7,0s.4,0,.6,0c.2,0,.4,0,.5-.1.2,0,.3-.2.4-.3s.2-.3.2-.5-.1-.5-.3-.7c-.2-.2-.5-.3-.8-.4-.3,0-.7-.2-1.1-.3-.4,0-.7-.2-1.1-.3-.3-.1-.6-.3-.8-.6-.2-.2-.3-.6-.3-1s0-.6.2-.9c.2-.2.4-.4.6-.6s.5-.3.8-.3c.3,0,.6-.1.9-.1s.7,0,1.1.1c.3,0,.6.2.9.3s.5.4.6.7c.1.3.2.6.3,1h-1.1c0-.2,0-.4-.2-.5s-.2-.3-.4-.4c-.2,0-.3-.2-.5-.2s-.4,0-.5,0-.3,0-.5,0c-.2,0-.3,0-.5.1-.1,0-.3.2-.3.3,0,.1-.1.3-.1.4s0,.4.2.5c.1.1.3.2.5.3.2,0,.5.2.7.2.3,0,.5.1.8.2.3,0,.6.1.8.2s.5.2.7.4c.2.1.4.3.5.6s.2.5.2.8,0,.8-.3,1c-.2.3-.4.5-.7.7s-.6.3-.9.4c-.3,0-.7.1-1,.1s-.7,0-1.1-.1c-.3,0-.6-.2-.9-.4s-.5-.4-.6-.7c-.2-.3-.2-.7-.3-1.1h1.1c0,.2,0,.5.2.6Z" style="fill: #082c7c;"/>
        </g>
      </g>
    </g>
  </g>
</svg>
