<?xml version="1.0" encoding="UTF-8"?>
<svg xmlns="http://www.w3.org/2000/svg" version="1.1" viewBox="0 0 210 140">
  <!-- Generator: Adobe Illustrator 29.2.1, SVG Export Plug-In . SVG Version: 2.1.0 Build 116)  -->
  <g style="isolation: isolate;">
    <g id="Layer_2">
      <g>
        <path d="M184,35.6c.9.5.8,1.4-.3,3.6-1.1,2.2-5.3,9.9-5.7,10.7-.4.9-.8,2.8,1.6,1.4s14.9-8.6,14.9-8.6c0,0,1.9-.9,2.7.3.6.8-.2,2-1.3,2.8-1,.8-11.3,9-11.8,9.3-.5.4-2.9,1.9-.3,1.3,2.6-.6,13.5-3.8,13.5-3.8,0,0,1.8-.6,2.3.5.4.9.1,1.5-1.2,2.3-1.4.8-12,6.6-13,7.1-1,.5-1.3,1.3.4,1.1,1.5-.2,10.5-1.7,10.5-1.7,0,0,2.1-.4,2.4.7.3,1.1-.9,1.5-1.8,1.8-2.8,1.1-11.4,4-12.2,4.4-3.1,1.2-3.8,1.5-11.1,7.2-3,2.4-10.8,3-13.9-.7-3.6-4.3-2.5-5.8-4.5-9.9-2-4-5.5-11.5-5.7-12-.2-.5-1.1-2-.3-2.5.8-.5,3.8.9,5.2,2.4,1.7,1.8,3.1,3.5,4.3,4.5,1.2,1,2,1.9,4.5-.5,2.6-2.4,5.1-6.6,8.3-9.4,2.6-2.3,8-9.7,9.1-10.8,1.4-1.3,2.3-2.3,3.4-1.7" style="fill: #fff;"/>
        <path d="M133.2,38.4c-.7.3-.7,1,0,2.8.8,1.8,3.6,7.8,3.9,8.5.3.7.5,2.2-1.3,1-1.8-1.2-11-7.3-11-7.3,0,0-1.4-.8-2.1,0-.5.6,0,1.6.8,2.2.8.7,8.3,7.4,8.6,7.7.3.3,2.1,1.6.1,1-2-.6-10.2-3.6-10.2-3.6,0,0-1.3-.6-1.8.3-.4.7-.2,1.2.8,1.9,1.1.7,8.9,5.7,9.6,6,.7.4.9,1.1-.4.8-1.2-.2-8-1.8-8-1.8,0,0-1.6-.4-1.8.5-.2.8.6,1.2,1.3,1.5,2.1.9,8.5,3.6,9.1,3.9,2.3,1.1,2.9,1.3,8.2,6,2.2,2,8.1,2.8,10.7.1,3-3.1,2.2-4.3,3.9-7.3,1.7-3,4.8-8.5,4.9-8.9.2-.4.9-1.5.3-1.9-.6-.4-2.9.5-4.1,1.6-1.4,1.3-2.5,2.5-3.5,3.3-1,.7-1.6,1.3-3.5-.6-1.9-2-3.6-5.3-5.9-7.6-1.8-1.8-5.7-7.8-6.5-8.7-1-1-1.7-1.9-2.5-1.4" style="fill: #fff;"/>
        <polygon points="10 84.2 12.8 84.2 14.4 90.1 16.2 84.2 18.6 84.2 20.5 90.2 22.1 84.2 24.8 84.2 21.8 94.1 19.3 94.1 17.4 88.1 15.5 94.1 13 94.1 10 84.2" style="fill: #231f20;"/>
        <rect x="26.3" y="84.2" width="2.8" height="9.8" style="fill: #231f20;"/>
        <rect x="31.8" y="80.7" width="2.8" height="13.3" style="fill: #231f20;"/>
        <rect x="37.3" y="80.7" width="2.8" height="13.3" style="fill: #231f20;"/>
        <rect x="42.8" y="84.2" width="2.8" height="9.8" style="fill: #231f20;"/>
        <path d="M47.6,91.2h0c0-2.2,1.6-3.2,3.9-3.2s1.7.2,2.4.4v-.2c0-1.1-.7-1.8-2.1-1.8s-1.8.2-2.7.5l-.7-2.1c1.1-.5,2.1-.8,3.8-.8s2.6.4,3.3,1.1c.7.7,1.1,1.8,1.1,3.1v5.7h-2.7v-1.1c-.7.7-1.6,1.2-3,1.2s-3.4-1.1-3.4-3M54,90.5v-.5c-.5-.2-1.1-.4-1.8-.4-1.2,0-1.9.5-1.9,1.4h0c0,.8.6,1.2,1.5,1.2,1.3,0,2.2-.7,2.2-1.7" style="fill: #231f20;"/>
        <path d="M59,84.2h2.8v1.4c.6-.8,1.5-1.6,2.9-1.6s2.2.6,2.8,1.6c.9-1,1.9-1.6,3.2-1.6,2.1,0,3.3,1.2,3.3,3.6v6.4h-2.8v-5.5c0-1.3-.6-2-1.6-2s-1.7.7-1.7,2v5.5h-2.8v-5.5c0-1.3-.6-2-1.6-2s-1.7.7-1.7,2v5.5h-2.8v-9.8Z" style="fill: #231f20;"/>
        <path d="M75.6,92.7l1.2-1.8c1.1.8,2.2,1.2,3.1,1.2s1.2-.3,1.2-.7h0c0-.6-.9-.8-2-1.2-1.4-.4-2.9-1-2.9-2.9h0c0-2,1.6-3.1,3.6-3.1s2.6.4,3.6,1.1l-1.1,1.9c-1-.6-1.9-.9-2.6-.9s-1,.3-1,.7h0c0,.6.9.8,2,1.2,1.4.5,3,1.1,3,2.9h0c0,2.2-1.6,3.2-3.7,3.2s-2.9-.5-4.2-1.5" style="fill: #231f20;"/>
        <path d="M85,92.8l.7-1c1,.8,2.2,1.2,3.3,1.2s2-.6,2-1.5h0c0-1-1.1-1.4-2.4-1.7-1.5-.4-3.2-.9-3.2-2.7h0c0-1.7,1.4-2.8,3.3-2.8s2.5.4,3.5,1.1l-.6,1.1c-.9-.6-1.9-.9-2.8-.9s-1.9.6-1.9,1.4h0c0,.9,1.2,1.3,2.5,1.7,1.5.4,3.1,1,3.1,2.8h0c0,1.9-1.5,2.9-3.4,2.9s-2.9-.5-4-1.4" style="fill: #231f20;"/>
        <path d="M93.5,96.5l.5-1.1c.5.2.9.4,1.5.4s1.4-.4,2-1.8l-4.4-9.6h1.6l3.5,8,3.1-8h1.5l-4,9.9c-.8,2-1.7,2.7-3.2,2.7s-1.4-.2-2-.5" style="fill: #231f20;"/>
        <path d="M104.3,84.4h1.4v1.7c.6-1,1.6-1.9,3.3-1.9s3.7,1.6,3.7,3.8v6h-1.4v-5.6c0-1.8-1-2.9-2.7-2.9s-2.9,1.2-2.9,3v5.5h-1.4v-9.6Z" style="fill: #231f20;"/>
        <path d="M114.8,89.2h0c0-3.2,2.3-5,4.6-5s2.9,1,3.7,2v-5.8h1.4v13.6h-1.4v-1.9c-.8,1.2-1.9,2.1-3.7,2.1s-4.6-1.8-4.6-5M123.1,89.2h0c0-2.2-1.7-3.7-3.5-3.7s-3.4,1.4-3.4,3.7h0c0,2.3,1.6,3.8,3.4,3.8s3.5-1.5,3.5-3.7" style="fill: #231f20;"/>
        <path d="M127.7,84.4h1.4v2.5c.7-1.6,2.1-2.8,3.9-2.7v1.5h-.1c-2.1,0-3.8,1.5-3.8,4.4v3.8h-1.4v-9.6Z" style="fill: #231f20;"/>
        <path d="M133.9,89.2h0c0-2.8,2.1-5.1,5-5.1s5,2.3,5,5h0c0,2.8-2.1,5.1-5,5.1s-5-2.3-5-5M142.4,89.2h0c0-2.1-1.5-3.8-3.6-3.8s-3.5,1.7-3.5,3.7h0c0,2.1,1.5,3.8,3.5,3.8s3.5-1.7,3.5-3.7" style="fill: #231f20;"/>
        <path d="M146.1,84.4h1.4v1.6c.6-.9,1.5-1.8,3.1-1.8s2.6.8,3.1,1.9c.7-1.1,1.7-1.9,3.4-1.9s3.6,1.5,3.6,3.9v5.9h-1.4v-5.6c0-1.9-.9-2.9-2.5-2.9s-2.7,1.1-2.7,3v5.5h-1.4v-5.6c0-1.8-.9-2.9-2.5-2.9s-2.7,1.3-2.7,3v5.5h-1.4v-9.6Z" style="fill: #231f20;"/>
        <path d="M167.6,93c1.3,0,2.2-.5,3-1.4l.9.8c-1,1.1-2.1,1.8-4,1.8-2.6,0-4.8-2-4.8-5s2-5,4.6-5,4.5,2.3,4.5,5.1,0,.3,0,.5h-7.6c.2,2,1.7,3.2,3.4,3.2M170.4,88.6c-.2-1.7-1.2-3.2-3.1-3.2s-2.9,1.4-3.1,3.2h6.2Z" style="fill: #231f20;"/>
        <path d="M102.2,99.1h.4l2.8,6h-.5l-.8-1.7h-3.5l-.8,1.7h-.5l2.8-6ZM103.9,103.1l-1.6-3.4-1.6,3.4h3.1Z" style="fill: #a6a8ab;"/>
        <path d="M107.3,104.3l.3-.3c.7.6,1.3.9,2.1.9s1.5-.5,1.5-1.2h0c0-.6-.3-1-1.7-1.3-1.4-.3-2-.8-2-1.7h0c0-.9.8-1.6,1.9-1.6s1.4.2,2,.7l-.3.3c-.6-.5-1.1-.7-1.8-.7s-1.5.5-1.5,1.1h0c0,.6.3,1,1.7,1.3,1.4.3,2,.8,2,1.6h0c0,1-.8,1.6-2,1.6s-1.7-.3-2.4-1" style="fill: #a6a8ab;"/>
        <path d="M114.1,104.3l.3-.3c.7.6,1.3.9,2.1.9s1.5-.5,1.5-1.2h0c0-.6-.3-1-1.7-1.3-1.4-.3-2-.8-2-1.7h0c0-.9.8-1.6,1.9-1.6s1.4.2,2,.7l-.3.3c-.6-.5-1.1-.7-1.8-.7s-1.5.5-1.5,1.1h0c0,.6.3,1,1.7,1.3,1.4.3,2,.8,2,1.6h0c0,1-.8,1.6-2,1.6s-1.7-.3-2.4-1" style="fill: #a6a8ab;"/>
        <path d="M120.8,102.2h0c0-1.6,1.2-3.1,3-3.1s3,1.4,3,3.1t0,0c0,1.6-1.2,3.1-3,3.1s-3-1.4-3-3.1M126.4,102.2h0c0-1.5-1.1-2.7-2.5-2.7s-2.5,1.2-2.5,2.7h0c0,1.5,1.1,2.7,2.5,2.7s2.5-1.2,2.5-2.7" style="fill: #a6a8ab;"/>
        <path d="M129.2,102.2h0c0-1.7,1.3-3.1,3-3.1s1.7.4,2.3,1l-.3.3c-.5-.5-1.1-.9-2-.9-1.4,0-2.5,1.2-2.5,2.7h0c0,1.5,1.1,2.7,2.5,2.7s1.4-.3,2.1-.9l.3.3c-.6.6-1.3,1-2.4,1-1.7,0-3-1.4-3-3.1" style="fill: #a6a8ab;"/>
        <rect x="137.3" y="99.2" width=".4" height="6" style="fill: #a6a8ab;"/>
        <path d="M143,99.1h.4l2.8,6h-.5l-.8-1.7h-3.5l-.8,1.7h-.5l2.8-6ZM144.8,103.1l-1.6-3.4-1.6,3.4h3.1Z" style="fill: #a6a8ab;"/>
        <polygon points="149.1 99.6 147.1 99.6 147.1 99.2 151.7 99.2 151.7 99.6 149.6 99.6 149.6 105.1 149.1 105.1 149.1 99.6" style="fill: #a6a8ab;"/>
        <rect x="154.2" y="99.2" width=".4" height="6" style="fill: #a6a8ab;"/>
        <path d="M157.4,102.2h0c0-1.6,1.2-3.1,3-3.1s3,1.4,3,3.1t0,0c0,1.6-1.2,3.1-3,3.1s-3-1.4-3-3.1M162.9,102.2h0c0-1.5-1.1-2.7-2.5-2.7s-2.5,1.2-2.5,2.7h0c0,1.5,1.1,2.7,2.5,2.7s2.5-1.2,2.5-2.7" style="fill: #a6a8ab;"/>
        <polygon points="166 99.2 166.4 99.2 170.5 104.4 170.5 99.2 171 99.2 171 105.1 170.6 105.1 166.4 99.8 166.4 105.1 166 105.1 166 99.2" style="fill: #a6a8ab;"/>
        <path d="M154.7,38.1s3.4-3.3,5.3-2.2c2,1.2,1.2,4.4-.7,6.5-1.8,2-4.7,6-4.7,6,0,0-3.2-4.4-5.1-7.1-1.9-2.7-1.7-7,.8-6.5,2.6.5,3,1.8,4.3,3.3" style="fill: #ee4036; fill-rule: evenodd;"/>
        <path d="M184,35.6c.9.5.8,1.4-.3,3.6-1.1,2.2-5.3,9.9-5.7,10.7-.4.9-.8,2.8,1.6,1.4s14.9-8.6,14.9-8.6c0,0,1.9-.9,2.7.3.6.8-.2,2-1.3,2.8-1,.8-11.3,9-11.8,9.3-.5.4-2.9,1.9-.3,1.3,2.6-.6,13.5-3.8,13.5-3.8,0,0,1.8-.6,2.3.5.4.9.1,1.5-1.2,2.3-1.4.8-12,6.6-13,7.1-1,.5-1.3,1.3.4,1.1,1.5-.2,10.5-1.7,10.5-1.7,0,0,2.1-.4,2.4.7.3,1.1-.9,1.5-1.8,1.8-2.8,1.1-11.4,4-12.2,4.4-3.1,1.2-3.8,1.5-11.1,7.2-3,2.4-10.8,3-13.9-.7-3.6-4.3-2.5-5.8-4.5-9.9-2-4-5.5-11.5-5.7-12-.2-.5-1.1-2-.3-2.5.8-.5,3.8.9,5.2,2.4,1.7,1.8,3.1,3.5,4.3,4.5,1.2,1,2,1.9,4.5-.5,2.6-2.4,5.1-6.6,8.3-9.4,2.6-2.3,8-9.7,9.1-10.8,1.4-1.3,2.3-2.3,3.4-1.7" style="fill: #bcd75f;"/>
        <g style="mix-blend-mode: multiply;">
          <path d="M133.2,38.4c-.7.3-.7,1,0,2.8.8,1.8,3.6,7.8,3.9,8.5.3.7.5,2.2-1.3,1-1.8-1.2-11-7.3-11-7.3,0,0-1.4-.8-2.1,0-.5.6,0,1.6.8,2.2.8.7,8.3,7.4,8.6,7.7.3.3,2.1,1.6.1,1-2-.6-10.2-3.6-10.2-3.6,0,0-1.3-.6-1.8.3-.4.7-.2,1.2.8,1.9,1.1.7,8.9,5.7,9.6,6,.7.4.9,1.1-.4.8-1.2-.2-8-1.8-8-1.8,0,0-1.6-.4-1.8.5-.2.8.6,1.2,1.3,1.5,2.1.9,8.5,3.6,9.1,3.9,2.3,1.1,2.9,1.3,8.2,6,2.2,2,8.1,2.8,10.7.1,3-3.1,2.2-4.3,3.9-7.3,1.7-3,4.8-8.5,4.9-8.9.2-.4.9-1.5.3-1.9-.6-.4-2.9.5-4.1,1.6-1.4,1.3-2.5,2.5-3.5,3.3-1,.7-1.6,1.3-3.5-.6-1.9-2-3.6-5.3-5.9-7.6-1.8-1.8-5.7-7.8-6.5-8.7-1-1-1.7-1.9-2.5-1.4" style="fill: #26a9e0;"/>
        </g>
      </g>
    </g>
  </g>
</svg>
