<?xml version="1.0" standalone="no"?>
<!DOCTYPE svg PUBLIC "-//W3C//DTD SVG 20010904//EN"
 "http://www.w3.org/TR/2001/REC-SVG-20010904/DTD/svg10.dtd">
<svg version="1.0" xmlns="http://www.w3.org/2000/svg"
 width="300.000000pt" height="300.000000pt" viewBox="0 0 300.000000 300.000000"
 preserveAspectRatio="xMidYMid meet">
<metadata>
Created by potrace 1.14, written by Peter Selinger 2001-2017
</metadata>
<g transform="translate(0.000000,300.000000) scale(0.100000,-0.100000)"
fill="#000000" stroke="none">
<path d="M1340 2993 c-277 -30 -577 -156 -785 -330 -302 -252 -480 -565 -541
-952 -19 -121 -12 -367 14 -497 50 -252 173 -507 329 -684 257 -292 559 -459
932 -515 137 -20 358 -16 481 10 14 2 50 10 80 16 186 38 435 163 600 299 271
225 448 520 521 867 30 139 33 419 6 553 -23 123 -22 118 -56 219 -54 161
-143 323 -250 456 -229 286 -558 481 -921 545 -65 12 -343 20 -410 13z m391
-442 c279 -65 510 -224 664 -456 328 -493 194 -1161 -297 -1488 -179 -119
-356 -176 -568 -182 -142 -4 -241 11 -375 56 -339 114 -607 402 -696 747 -28
108 -34 169 -32 307 3 267 115 526 312 723 166 167 404 286 614 308 34 3 63 8
65 9 12 11 241 -7 313 -24z"/>
<path d="M1191 2388 c-88 -31 -181 -81 -257 -138 l-51 -38 1 -156 0 -156 106
-105 106 -105 104 105 105 105 1 259 c1 299 14 274 -115 229z"/>
<path d="M1694 1845 c0 -316 3 -575 5 -575 3 0 51 45 106 100 l100 100 100
-100 c55 -55 102 -100 105 -100 9 0 6 934 -3 948 -10 15 -104 79 -172 116 -42
24 -212 86 -234 86 -4 0 -7 -259 -7 -575z"/>
<path d="M885 1258 l0 -472 65 -48 c36 -26 97 -63 135 -82 79 -38 205 -80 214
-70 7 7 9 1144 2 1144 -3 0 -51 -45 -106 -100 l-100 -100 -100 100 c-55 55
-102 100 -105 100 -3 0 -6 -212 -5 -472z"/>
<path d="M1800 1205 l-105 -105 0 -260 c-1 -197 2 -260 11 -260 7 0 50 13 97
30 94 33 186 82 263 140 l50 38 0 156 -1 156 -105 105 -105 105 -105 -105z"/>
</g>
</svg>
