<?xml version="1.0" standalone="no"?>
<!DOCTYPE svg PUBLIC "-//W3C//DTD SVG 20010904//EN"
 "http://www.w3.org/TR/2001/REC-SVG-20010904/DTD/svg10.dtd">
<svg version="1.0" xmlns="http://www.w3.org/2000/svg"
 width="700.000000pt" height="700.000000pt" viewBox="0 0 700.000000 700.000000"
 preserveAspectRatio="xMidYMid meet">
<metadata>
Created by potrace 1.14, written by Peter Selinger 2001-2017
</metadata>
<g transform="translate(0.000000,700.000000) scale(0.100000,-0.100000)"
fill="#000000" stroke="none">
<path d="M3457 6734 c-1 -1 -58 -4 -127 -8 -69 -3 -134 -8 -145 -10 -11 -2
-51 -7 -90 -10 -38 -4 -86 -11 -105 -16 -19 -5 -51 -11 -70 -13 -132 -18 -398
-96 -590 -172 -611 -243 -1130 -663 -1497 -1210 -219 -326 -382 -705 -467
-1085 -14 -63 -27 -128 -30 -145 -14 -92 -19 -122 -21 -136 -2 -8 -6 -49 -10
-90 -4 -41 -9 -90 -10 -109 -6 -53 -5 -419 0 -470 27 -247 32 -282 62 -424
250 -1199 1179 -2168 2368 -2470 55 -14 116 -28 135 -31 19 -3 42 -8 50 -10
53 -15 281 -45 399 -52 176 -10 489 -4 572 12 13 3 44 7 69 10 208 24 608 128
765 199 17 8 64 28 105 46 478 207 928 559 1263 990 352 452 587 1034 653
1615 22 194 22 594 0 710 -2 11 -7 45 -10 75 -19 167 -77 417 -138 595 -33 97
-102 274 -117 303 -6 9 -33 64 -62 122 -332 674 -944 1245 -1644 1535 -149 62
-392 141 -495 161 -14 3 -41 9 -60 14 -19 5 -51 12 -70 15 -19 3 -42 8 -50 10
-8 3 -35 7 -60 9 -25 3 -78 10 -118 15 -94 14 -445 33 -455 25z m253 -918
c230 -18 540 -94 719 -177 136 -63 225 -109 308 -161 472 -293 824 -740 993
-1261 22 -67 41 -134 44 -149 3 -15 7 -31 9 -35 4 -7 30 -149 43 -236 31 -213
21 -514 -25 -741 -20 -98 -23 -108 -41 -176 -81 -303 -268 -656 -473 -888 -38
-44 -220 -226 -257 -258 -253 -218 -583 -391 -910 -478 -52 -14 -108 -28 -125
-31 -16 -2 -41 -7 -55 -10 -91 -18 -111 -21 -240 -31 -144 -12 -369 -7 -470
10 -14 3 -43 7 -65 10 -155 19 -402 92 -575 169 -212 94 -365 188 -545 336
-480 393 -792 989 -841 1601 -7 86 -6 314 0 380 3 25 8 72 11 105 13 123 71
359 123 501 118 321 308 615 557 860 78 78 126 118 265 227 26 21 173 113 235
149 269 153 614 257 940 284 44 3 81 7 82 8 4 3 225 -3 293 -8z"/>
<path d="M3939 5477 c-4 -58 -1 -2469 3 -2473 3 -2 106 95 229 216 l223 221
227 -227 227 -227 0 1024 0 1024 -46 35 c-25 19 -50 40 -56 46 -6 5 -51 37
-101 71 -180 120 -395 218 -597 273 -74 19 -108 25 -109 17z"/>
<path d="M2985 5456 c-115 -33 -227 -74 -307 -112 -37 -19 -71 -34 -73 -34 -3
0 -51 -27 -107 -61 -103 -61 -228 -149 -280 -197 l-28 -26 0 -331 0 -331 225
-225 c124 -123 227 -226 229 -227 3 -2 106 98 230 222 l226 226 0 560 c0 527
-1 560 -17 559 -10 0 -54 -11 -98 -23z"/>
<path d="M2190 2992 c0 -805 3 -1026 13 -1036 27 -28 183 -139 269 -192 84
-52 288 -154 308 -154 5 0 29 -9 55 -20 26 -11 96 -33 156 -49 l109 -30 0
1252 0 1252 -228 -228 -227 -227 -228 227 -227 228 0 -1023z"/>
<path d="M4161 2864 l-224 -225 1 -522 c0 -287 1 -541 1 -563 l1 -42 88 25
c299 84 530 200 748 375 l71 57 1 333 1 333 -227 228 c-125 125 -229 227 -232
227 -3 -1 -106 -102 -229 -226z"/>
</g>
</svg>
